<svg width="1763" height="200" viewBox="0 0 1763 200" fill="none" xmlns="http://www.w3.org/2000/svg">
<path d="M0.545702 198.636L0 193.724C8.73124 192.815 14.8249 191.633 18.281 190.177C21.9191 188.54 24.2838 186.085 25.3752 182.81C26.4666 179.536 27.0123 175.352 27.0123 170.259V43.6562C27.0123 36.744 26.0118 31.7417 24.0109 28.6494C22.1919 25.5571 19.1905 23.5562 15.0068 22.6467C11.005 21.7372 6.27558 20.9186 0.818553 20.191L1.36426 15.2797C2.81946 15.2797 7.36698 15.5525 15.0068 16.0982C22.6467 16.462 28.0127 16.7349 31.1051 16.9168C34.1974 16.9168 36.1983 16.9168 37.1078 16.9168L60.3001 15.5525C103.774 15.5525 125.512 32.924 125.512 67.6671C125.512 82.9468 120.964 95.1342 111.869 104.229C102.956 113.142 90.4047 117.599 74.2156 117.599C71.6689 117.599 68.7585 117.235 65.4843 116.508C62.2101 115.78 59.5725 114.779 57.5716 113.506L58.1173 110.505L64.3929 111.05C76.9441 111.05 86.4939 107.412 93.0423 100.136C99.7726 92.8604 103.138 82.6739 103.138 69.5771C103.138 54.2974 98.9541 42.5648 90.5866 34.3793C82.2192 26.1937 70.6685 22.1009 55.9345 22.1009L47.2033 22.3738V172.442C47.2033 177.899 48.1128 181.992 49.9318 184.72C51.7508 187.267 54.6612 189.177 58.663 190.45C62.6648 191.542 69.668 192.633 79.6726 193.724L79.1269 198.636L37.1078 196.999C33.106 196.999 20.9186 197.544 0.545702 198.636Z" fill="white"/>
<path d="M140.702 198.636L140.156 193.724C148.887 192.815 154.981 191.633 158.437 190.177C162.075 188.54 164.44 186.085 165.531 182.81C166.623 179.536 167.168 175.352 167.168 170.259V43.6562C167.168 36.744 166.168 31.7417 164.167 28.6494C162.348 25.5571 159.347 23.5562 155.163 22.6467C151.161 21.7372 146.432 20.9186 140.975 20.191L141.52 15.2797C142.976 15.2797 147.523 15.5525 155.163 16.0982C162.803 16.462 168.169 16.7349 171.261 16.9168C174.353 16.9168 176.354 16.9168 177.264 16.9168C183.085 16.9168 190.634 16.6439 199.91 16.0982C209.187 15.5525 214.008 15.2797 214.372 15.2797L214.917 20.191C207.096 21.1005 201.366 22.1009 197.728 23.1923C194.272 24.2838 191.634 26.1937 189.815 28.9222C188.178 31.6507 187.359 36.653 187.359 43.9291V161.801C187.359 172.715 188.905 180.082 191.998 183.902C195.09 187.54 201.184 189.359 210.279 189.359H221.466C230.743 189.359 238.473 185.63 244.658 178.172C251.025 170.714 256.209 160.255 260.211 146.794L265.668 148.431C264.031 153.888 262.302 162.074 260.484 172.988C258.846 183.902 257.846 192.542 257.482 198.909C257.118 198.909 255.936 198.818 253.935 198.636C252.116 198.636 242.93 198.363 226.377 197.817C209.824 197.271 193.453 196.999 177.264 196.999C173.262 196.999 161.075 197.544 140.702 198.636Z" fill="white"/>
<path d="M534.788 198.636L534.243 193.724C541.337 192.815 546.703 191.633 550.341 190.177C554.161 188.54 556.798 186.085 558.254 182.81C559.891 179.354 560.709 175.261 560.709 170.532L563.438 44.7476C563.438 38.3811 562.801 33.7426 561.528 30.8322C560.255 27.7399 557.89 25.4661 554.434 24.0109C550.978 22.3738 545.066 21.1005 536.698 20.191L537.244 15.2797L567.531 16.9168L581.992 16.3711L691.951 163.711L692.496 45.5662C692.496 39.0177 691.587 34.1064 689.768 30.8322C687.949 27.558 685.039 25.2842 681.037 24.0109C677.217 22.5557 670.759 21.2824 661.664 20.191L662.21 15.2797C663.483 15.2797 668.486 15.5525 677.217 16.0982C686.13 16.6439 692.224 16.9168 695.498 16.9168C696.225 16.9168 697.953 16.9168 700.682 16.9168C703.41 16.7349 708.231 16.462 715.143 16.0982C722.055 15.5525 726.148 15.2797 727.421 15.2797L727.967 20.191C716.871 21.4643 709.868 23.2833 706.958 25.648C704.229 27.8308 702.501 30.6503 701.773 34.1064C701.228 37.5625 700.955 41.2915 700.955 45.2933L697.135 198.909L691.951 200L569.713 37.3806V172.988C569.713 178.627 570.805 182.719 572.988 185.266C575.17 187.813 578.354 189.632 582.537 190.723C586.903 191.814 593.451 192.815 602.183 193.724L601.637 198.636C600.727 198.636 595.452 198.363 585.812 197.817C576.353 197.271 569.986 196.999 566.712 196.999C563.62 196.999 557.89 197.271 549.522 197.817C541.155 198.363 536.244 198.636 534.788 198.636Z" fill="white"/>
<path d="M796.112 198.636L795.566 193.724C795.93 193.724 796.476 193.724 797.203 193.724C797.931 193.543 800.114 193.179 803.752 192.633C807.571 192.087 810.482 191.36 812.483 190.45C814.666 189.359 816.394 187.54 817.667 184.993C819.122 182.265 820.214 177.626 820.941 171.078L833.492 45.2933C834.402 37.8354 833.856 32.5602 831.855 29.4679C830.036 26.1937 826.944 24.0109 822.578 22.9195C818.395 21.6462 813.483 20.7367 807.844 20.191L808.39 15.2797L840.041 16.6439L856.139 16.0982L916.985 168.076L976.194 16.3711L991.2 16.6439C1004.48 16.6439 1015.21 16.1892 1023.4 15.2797L1023.94 20.191C1015.76 21.2824 1009.85 22.5557 1006.21 24.0109C1002.75 25.2842 1000.3 27.3761 998.84 30.2865C997.567 33.1969 997.294 37.4716 998.022 43.1105L1011.12 170.805C1011.66 175.534 1012.39 179.445 1013.3 182.538C1014.21 185.63 1015.85 187.995 1018.21 189.632C1020.76 191.087 1026.13 192.451 1034.31 193.724L1033.77 198.636C1032.31 198.636 1027.4 198.363 1019.03 197.817C1010.66 197.271 1004.48 196.999 1000.48 196.999C999.568 196.999 997.476 197.09 994.202 197.271C990.928 197.271 985.38 197.453 977.558 197.817C969.736 198.363 965.098 198.636 963.642 198.636L963.097 193.724C973.647 192.269 980.286 190.541 983.015 188.54C985.925 186.357 987.835 183.629 988.745 180.355C989.654 177.08 989.836 172.806 989.291 167.531L976.466 37.1078L912.619 198.636L906.071 199.181L840.859 36.8349L829.4 169.168C828.854 175.171 829.309 179.718 830.764 182.81C832.219 185.903 834.766 188.176 838.404 189.632C842.224 191.087 848.59 192.451 857.503 193.724L856.958 198.636C841.132 197.544 830.127 196.999 823.943 196.999C819.941 196.999 814.757 197.271 808.39 197.817C802.024 198.363 797.931 198.636 796.112 198.636Z" fill="white"/>
<path d="M1071.23 193.724C1081.42 192.633 1088.51 191.542 1092.52 190.45C1096.52 189.359 1099.43 187.449 1101.25 184.72C1103.07 181.992 1103.98 177.899 1103.98 172.442V137.517C1103.98 132.06 1103.43 126.967 1102.34 122.237C1101.25 117.508 1098.34 111.232 1093.61 103.411L1056.5 41.7462C1052.86 35.7435 1049.95 31.4688 1047.77 28.9222C1045.77 26.3756 1043.4 24.4657 1040.67 23.1923C1037.95 21.919 1034.94 20.8276 1031.67 19.9181L1032.22 15.2797C1033.67 15.2797 1038.04 15.5525 1045.31 16.0982C1052.77 16.6439 1058.23 16.9168 1061.68 16.9168C1065.32 16.9168 1072.6 16.6439 1083.51 16.0982C1094.43 15.5525 1099.97 15.2797 1100.16 15.2797L1100.7 20.191C1080.33 22.7376 1074.05 30.6503 1081.87 43.929L1120.62 108.868L1158.82 44.7476C1162.82 38.0173 1163.46 32.5602 1160.73 28.3765C1158.18 24.1928 1152.09 21.4643 1142.45 20.191L1142.99 15.2797C1144.27 15.2797 1148.45 15.5525 1155.54 16.0982C1162.82 16.6439 1168.1 16.9168 1171.37 16.9168C1174.28 16.9168 1178.92 16.6439 1185.29 16.0982C1191.65 15.5525 1195.65 15.2797 1197.29 15.2797L1197.84 20.191C1192.74 21.1005 1187.65 23.4652 1182.56 27.2851C1177.65 31.105 1171.64 38.8358 1164.55 50.4775L1127.44 109.959C1125.62 113.233 1124.71 118.508 1124.71 125.784V172.442C1124.71 177.899 1125.62 181.992 1127.44 184.72C1129.26 187.449 1132.17 189.359 1136.17 190.45C1140.17 191.542 1147.18 192.633 1157.18 193.724L1156.64 198.636C1156.27 198.636 1155.82 198.636 1155.27 198.636C1154.73 198.636 1148.72 198.363 1137.26 197.817C1125.99 197.271 1118.35 196.999 1114.34 196.999C1112.52 196.999 1109.34 197.09 1104.79 197.271C1100.25 197.453 1093.79 197.726 1085.42 198.09C1077.05 198.454 1072.51 198.636 1071.78 198.636L1071.23 193.724Z" fill="white"/>
<path d="M1266.32 198.636L1265.77 193.724C1274.51 192.815 1280.6 191.633 1284.06 190.177C1287.69 188.54 1290.06 186.085 1291.15 182.81C1292.24 179.536 1292.79 175.352 1292.79 170.259V43.6562C1292.79 36.744 1291.79 31.7417 1289.79 28.6494C1287.97 25.5571 1284.96 23.5562 1280.78 22.6467C1276.78 21.7372 1272.05 20.9186 1266.59 20.191L1267.14 15.2797C1268.59 15.2797 1273.14 15.5525 1280.78 16.0982C1288.42 16.462 1293.79 16.7349 1296.88 16.9168C1299.97 16.9168 1301.97 16.9168 1302.88 16.9168C1306.7 16.9168 1312.07 16.6439 1318.98 16.0982C1325.89 15.5525 1330.62 15.2797 1333.17 15.2797C1349.36 15.2797 1364.18 17.0077 1377.64 20.4638C1391.1 23.9199 1402.75 29.377 1412.57 36.8349C1422.39 44.111 1429.94 53.6607 1435.21 65.4843C1440.67 77.3079 1443.4 91.0414 1443.4 106.685C1443.4 120.327 1441.22 132.879 1436.85 144.338C1432.49 155.798 1426.21 165.621 1418.03 173.806C1410.02 181.81 1400.29 187.995 1388.83 192.36C1377.37 196.726 1364.82 198.909 1351.18 198.909C1345.72 198.909 1337.08 198.545 1325.26 197.817C1313.43 197.271 1305.97 196.999 1302.88 196.999C1298.88 196.999 1286.69 197.544 1266.32 198.636ZM1312.98 153.342C1312.98 162.256 1314.07 169.532 1316.25 175.171C1318.62 180.628 1322.44 184.811 1327.71 187.722C1333.17 190.632 1341.17 192.087 1351.72 192.087C1362.09 192.087 1371.55 189.995 1380.1 185.812C1388.83 181.446 1396.11 175.625 1401.93 168.349C1407.75 160.891 1412.2 152.251 1415.3 142.428C1418.39 132.424 1419.94 122.055 1419.94 111.323C1419.94 97.1351 1417.93 84.4929 1413.93 73.397C1409.93 62.1191 1404.11 52.7512 1396.47 45.2933C1389.01 37.8354 1379.74 32.1964 1368.64 28.3765C1357.72 24.5566 1345.45 22.6467 1331.8 22.6467L1312.98 23.7381V153.342Z" fill="white"/>
<path d="M1443.65 198.636L1443.1 193.997C1450.74 192.36 1456.47 189.995 1460.29 186.903C1464.3 183.629 1467.48 178.627 1469.84 171.896L1516.5 46.1119C1518.32 40.6548 1519.05 36.1983 1518.68 32.7421C1518.5 29.286 1516.86 26.4666 1513.77 24.2838C1510.68 22.1009 1505.77 20.7367 1499.04 20.191L1499.58 15.5525L1523.87 16.6439C1529.33 16.6439 1533.78 16.3711 1537.24 15.8254L1593.17 167.531C1596.99 178.263 1600.9 185.175 1604.9 188.267C1608.91 191.178 1614 193.179 1620.18 194.27L1619.64 198.636C1618.37 198.636 1612.73 198.363 1602.72 197.817C1592.9 197.271 1586.08 196.999 1582.26 196.999C1578.98 196.999 1573.62 197.271 1566.16 197.817C1558.7 198.363 1553.97 198.636 1551.97 198.636L1551.43 194.27C1561.07 192.997 1567.62 190.905 1571.07 187.995C1574.53 185.084 1574.89 179.445 1572.16 171.078L1556.34 127.967H1494.13L1479.67 170.259C1476.94 178.445 1477.03 184.175 1479.94 187.449C1482.85 190.541 1490.13 192.815 1501.77 194.27L1501.22 198.636C1500.86 198.636 1496.4 198.363 1487.85 197.817C1479.3 197.271 1473.12 196.999 1469.3 196.999C1465.84 196.999 1457.29 197.544 1443.65 198.636ZM1496.58 120.055H1553.61L1525.23 39.0177L1496.58 120.055Z" fill="white"/>
<path d="M1636.12 193.724C1646.31 192.633 1653.4 191.542 1657.4 190.45C1661.41 189.359 1664.32 187.449 1666.13 184.72C1667.95 181.992 1668.86 177.899 1668.86 172.442V137.517C1668.86 132.06 1668.32 126.967 1667.23 122.237C1666.13 117.508 1663.22 111.232 1658.49 103.411L1621.39 41.7462C1617.75 35.7435 1614.84 31.4688 1612.66 28.9222C1610.65 26.3756 1608.29 24.4657 1605.56 23.1923C1602.83 21.919 1599.83 20.8276 1596.56 19.9181L1597.1 15.2797C1598.56 15.2797 1602.92 15.5525 1610.2 16.0982C1617.66 16.6439 1623.11 16.9168 1626.57 16.9168C1630.21 16.9168 1637.48 16.6439 1648.4 16.0982C1659.31 15.5525 1664.86 15.2797 1665.04 15.2797L1665.59 20.191C1645.22 22.7376 1638.94 30.6503 1646.76 43.929L1685.51 108.868L1723.71 44.7476C1727.71 38.0173 1728.34 32.5602 1725.62 28.3765C1723.07 24.1928 1716.98 21.4643 1707.33 20.191L1707.88 15.2797C1709.15 15.2797 1713.34 15.5525 1720.43 16.0982C1727.71 16.6439 1732.98 16.9168 1736.26 16.9168C1739.17 16.9168 1743.81 16.6439 1750.17 16.0982C1756.54 15.5525 1760.54 15.2797 1762.18 15.2797L1762.72 20.191C1757.63 21.1005 1752.54 23.4652 1747.44 27.2851C1742.53 31.105 1736.53 38.8358 1729.44 50.4775L1692.33 109.959C1690.51 113.233 1689.6 118.508 1689.6 125.784V172.442C1689.6 177.899 1690.51 181.992 1692.33 184.72C1694.15 187.449 1697.06 189.359 1701.06 190.45C1705.06 191.542 1712.06 192.633 1722.07 193.724L1721.52 198.636C1721.16 198.636 1720.7 198.636 1720.16 198.636C1719.61 198.636 1713.61 198.363 1702.15 197.817C1690.87 197.271 1683.23 196.999 1679.23 196.999C1677.41 196.999 1674.23 197.09 1669.68 197.271C1665.13 197.453 1658.68 197.726 1650.31 198.09C1641.94 198.454 1637.39 198.636 1636.67 198.636L1636.12 193.724Z" fill="white"/>
<path d="M421.786 103.968H357.97L389.967 133.136L421.786 103.968Z" fill="white"/>
<path d="M425.322 106.619L403.049 126.948L425.322 145.156V106.619Z" fill="white"/>
<path d="M354.435 106.619L376.886 126.948L354.435 145.156V106.619Z" fill="white"/>
<path d="M379.891 129.423L357.97 147.985H421.786L398.982 129.423L391.4 137.006C390.501 137.904 389.053 137.931 388.121 137.066L379.891 129.423Z" fill="white"/>
<path fill-rule="evenodd" clip-rule="evenodd" d="M391.542 40.9277C351.275 40.9277 319.772 74.9868 323.653 114.326L328.844 166.965C329.426 172.858 334.471 177.353 340.502 177.353H442.581C448.613 177.353 453.658 172.858 454.239 166.965L459.431 114.326C463.311 74.9868 431.808 40.9277 391.542 40.9277ZM391.542 52.4892C357.377 52.4892 330.65 81.3888 333.946 114.766L338.908 165.013C339.081 166.767 340.582 168.104 342.377 168.104H440.706C442.501 168.104 444.002 166.767 444.175 165.013L449.137 114.766C452.433 81.3888 425.706 52.4892 391.542 52.4892Z" fill="white"/>
<path d="M322.782 185.662V198.249H281.873C278.398 198.249 275.58 195.431 275.58 191.955C275.58 188.479 278.398 185.662 281.873 185.662H322.782Z" fill="white"/>
<path fill-rule="evenodd" clip-rule="evenodd" d="M298.085 115.915C292.543 60.5953 335.982 12.5872 391.578 12.5872C447.175 12.5872 490.614 60.5953 485.072 115.915L477.675 189.749C477.192 194.575 473.131 198.249 468.282 198.249H314.875C310.025 198.249 305.965 194.575 305.481 189.749L305.072 185.662H322.096H322.782H461.061C462.677 185.662 464.031 184.437 464.192 182.829L470.896 115.992C475.603 69.0568 438.749 28.3213 391.578 28.3213C344.408 28.3213 307.553 69.0568 312.261 115.992L317.524 168.465C317.94 172.617 314.68 176.221 310.507 176.221C306.884 176.221 303.851 173.477 303.49 169.872L298.085 115.915Z" fill="white"/>
<path d="M466.576 9.30175C466.576 4.16454 469.63 0 473.397 0C473.397 0 473.397 13.2281 473.397 21.7041C473.397 39.8669 473.397 68.2128 473.397 68.2128H466.576V9.30175Z" fill="white"/>
<path d="M480.218 0H511.686C518.638 0 524.274 5.63549 524.274 12.5872C524.274 19.539 518.638 25.1744 511.686 25.1744H480.218V0Z" fill="white"/>
<path d="M480.218 28.3213H486.512V66.083C486.512 67.8209 485.103 69.2298 483.365 69.2298C481.627 69.2298 480.218 67.8209 480.218 66.083V28.3213Z" fill="white"/>
</svg>
