<svg width="360" height="740" viewBox="0 0 360 740" fill="none" xmlns="http://www.w3.org/2000/svg">
<g clip-path="url(#clip0_625_13473)">
<path d="M-37.821 594.593L-27.9113 596.202L-17.0847 609.294L37.7447 649.225L45.5511 684.185L76.6511 710.351L101.176 736.476L97.7469 746.844L72.9928 764.65L46.9623 768.883L10.685 786.707L-27.9652 800.801L-56.3102 819.228L-62.8988 812.518L-67.393 778.492L-81.325 751.724L-86.754 713.371C-86.754 713.371 -100.785 692.626 -101.832 690.064C-102.879 687.502 -106.385 671.292 -106.385 671.292L-102.07 663.027L-87.6214 662.402L-62.9662 626.34L-52.3598 621.914L-37.8255 594.593H-37.821Z" fill="#FFF6DE"/>
<path d="M232.758 778.694L231.104 755.486L153.53 713.083L136.874 717.843L100.179 680.81L16.6944 690.77L5.9622 725.685L-26.9669 767.144C-30.5623 785.022 -32.0588 797.988 -38.0451 814.374L-33.1015 828.967L-9.40801 832.787L29.0894 820.203L94.0892 834.993L232.758 778.69V778.694ZM231.644 755.289L233.333 779.054C186.989 797.987 140.589 816.825 94.1342 835.569L29.1164 820.774L-9.36307 833.357C-17.4077 832.149 -25.4973 830.787 -33.5329 829.47C-35.2497 824.442 -36.956 819.406 -38.6519 814.36L-35.016 804.473L-27.4927 766.929L5.46784 725.456L16.254 690.302C44.2949 686.982 72.3298 683.63 100.359 680.244L137.013 717.236L153.575 712.504C179.466 726.885 205.595 741.019 231.617 755.163V755.311L231.644 755.289Z" fill="#DC9789"/>
<path d="M104.439 689.794C104.553 688.138 100.102 688.319 99.5704 688.341C96.6621 688.586 93.8518 689.509 91.3654 691.036C81.5143 697.012 74.8042 707.03 68.3487 716.387C73.8482 712.98 76.5278 706.727 82.0052 703.247C82.0603 703.214 82.1258 703.202 82.189 703.214C82.2522 703.227 82.3084 703.262 82.3468 703.314C82.3851 703.366 82.4028 703.43 82.3962 703.494C82.3897 703.558 82.3595 703.617 82.3115 703.66C77.8049 707.653 74.6971 713.146 69.7144 716.461C75.0736 714.366 78.8494 710.134 83.6661 706.971C83.895 706.819 84.1755 707.144 83.9725 707.339C79.3846 711.811 74.3022 716.457 67.8578 717.784C67.8034 717.798 67.7462 717.797 67.6927 717.78C67.6392 717.763 67.5915 717.731 67.5551 717.688L67.426 717.747C67.3559 717.854 67.282 717.957 67.2119 718.057C71.6595 718.547 75.2803 715.373 79.595 714.886C79.8903 714.857 79.9309 715.255 79.6947 715.366C76.1772 717.032 72.1799 719.052 68.1826 718.802C68.6514 719.123 69.1238 719.443 69.5815 719.775C71.1944 720.94 75.2286 718.016 76.3654 717.349C78.6907 715.974 81.3113 714.241 84.0795 714.049C86.9142 713.854 89.4683 714.864 92.266 714.971C95.6528 715.08 98.9708 714.001 101.645 711.922C103.749 710.208 103.169 707.778 103.28 705.374C103.438 701.99 103.844 698.587 104.077 695.202L104.446 689.797L104.439 689.794ZM57.3386 679.913C52.2193 688.234 54.1792 696.426 57.1615 705.072C58.6378 709.393 60.4169 712.6 63.4361 715.336C61.7345 709.894 58.4275 704.939 58.0104 699.217C57.9981 699.147 58.0144 699.074 58.0556 699.016C58.0968 698.958 58.1595 698.918 58.23 698.906C58.3005 698.893 58.3729 698.91 58.4314 698.951C58.4899 698.992 58.5296 699.055 58.5419 699.125C60.0847 704.04 62.8086 708.825 64.2222 713.839C64.2222 713.64 64.2444 713.441 64.2518 713.242C62.6351 707.73 60.7823 702.204 60.845 696.408C60.845 696.359 60.8645 696.312 60.8991 696.277C60.9337 696.243 60.9806 696.223 61.0296 696.223C61.0785 696.223 61.1254 696.243 61.16 696.277C61.1947 696.312 61.2141 696.359 61.2141 696.408C61.812 701.304 63.0596 706.034 64.2997 710.787C64.2554 705.098 63.4767 699.405 64.3883 693.772C65.3812 687.637 68.7436 682.94 72.5084 678.15C73.3093 677.133 74.3539 675.57 75.594 674.095C73.9552 673.778 72.9624 672.679 71.7296 671.083C69.515 668.203 66.1157 668.366 62.8492 669.085C60.0404 669.704 57.0692 670.559 54.6885 672.252C50.6765 675.083 53.2454 677.487 56.9031 678.932C57.0043 678.961 57.0979 679.012 57.1768 679.082C57.2558 679.152 57.3182 679.238 57.3596 679.335C57.4009 679.431 57.4202 679.536 57.4159 679.641C57.4117 679.746 57.384 679.849 57.3349 679.942L57.3386 679.913ZM78.377 666.585C77.207 665.884 72.3239 661.055 71.3162 661.77C68.7769 663.562 66.3076 665.188 64.2185 667.44C66.1499 667.162 68.1172 667.263 70.0096 667.739C73.0399 668.539 73.3315 672.163 76.4762 673.018C78.4324 670.887 80.7577 669.21 83.238 669.973C86.5598 671.002 88.2133 674.655 90.5903 676.875C91.2584 673.111 88.7448 671.201 86.2424 668.808C85.5669 668.166 84.5482 666.53 83.4225 666.92C81.721 667.51 79.9752 667.543 78.377 666.585ZM95.9053 680.82C95.5104 679.987 92.8418 679.776 91.203 679.135C91.1032 679.163 90.9988 679.17 90.8959 679.157C90.7931 679.144 90.6939 679.111 90.6042 679.059C90.5145 679.007 90.436 678.938 90.3734 678.855C90.3108 678.773 90.2654 678.678 90.2397 678.578C88.3019 676.779 87.095 674.239 85.0724 672.554C81.3814 669.472 78.5652 672.923 76.2141 675.68C71.176 681.579 65.7761 688.116 65.4845 696.227C65.2852 701.783 66.6509 707.959 65.8721 713.618C68.0461 706.569 69.4781 699.368 71.4528 692.234C71.5192 691.987 71.9437 692.009 71.9178 692.282C71.1354 700.655 68.5 709.157 65.5104 716.984C65.61 717.058 65.7171 717.128 65.8204 717.202C68.7252 710.739 70.7663 703.841 74.2874 697.687C74.3131 697.647 74.3525 697.618 74.3982 697.605C74.4439 697.592 74.4928 697.596 74.5357 697.616C74.5787 697.637 74.6127 697.672 74.6316 697.715C74.6504 697.759 74.6527 697.808 74.6381 697.853C72.3091 703.383 70.2828 709.024 67.7582 714.444C74.9887 703.693 86.2572 686.545 99.8288 686.756C98.035 685.373 96.6066 682.276 95.8942 680.772L95.9053 680.82ZM69.2456 754.461C66.2614 761.133 63.6153 767.952 61.3175 774.89C60.989 776.402 60.6531 777.917 60.3024 779.421C61.8519 776.09 63.6086 772.859 65.562 769.747C70.2754 762.004 74.9961 754.192 79.8644 746.56C80.0305 746.302 80.3738 746.582 80.2852 746.829C77.6609 754.369 72.095 761.112 67.9279 767.844C64.0894 774.053 60.4575 780.38 58.5234 787.407C59.6307 785.563 60.786 783.72 61.8896 781.943C66.0087 775.284 70.3455 768.759 74.5569 762.155C78.5837 755.836 82.6474 749.495 86.1169 742.855C87.5047 740.189 92.3398 732.635 90.0884 729.438C84.8177 721.984 70.4562 751.755 69.2456 754.461ZM52.0938 726.223C43.4053 725.449 52.4297 751.596 53.5702 755.055C54.8177 758.863 55.9914 762.797 56.892 766.768C56.5756 762.659 55.9787 758.577 55.1056 754.549C54.0168 749.757 52.3632 745.1 51.1895 740.318C51.0935 739.95 51.662 739.703 51.769 740.093C53.1642 745.178 55.0909 750.085 56.1797 755.254C57.2077 760.046 57.9008 764.903 58.254 769.791C58.6637 762.764 58.8519 755.744 58.1322 748.643C57.7653 744.387 57.1839 740.151 56.39 735.953C55.973 733.914 54.9764 726.496 52.0938 726.242V726.223ZM59.8226 803.422C54.1718 816.216 47.9821 828.788 42.4752 841.648C42.0175 843.005 41.5414 844.358 41.0579 845.703C44.4535 838.746 48.7867 832.316 53.0313 825.831C57.1984 819.46 60.7232 812.776 64.6947 806.291C64.7232 806.242 64.7686 806.205 64.8224 806.188C64.8761 806.17 64.9345 806.172 64.9866 806.194C65.0387 806.217 65.0809 806.257 65.1053 806.308C65.1297 806.359 65.1346 806.417 65.1191 806.472C63.1888 813.602 57.9402 820.242 53.9245 826.333C50.3185 831.808 46.5685 837.257 43.2503 842.923C48.938 835.074 55.3418 827.649 61.3359 820.187C65.2336 815.331 69.1866 810.472 72.5416 805.222C75.0736 801.262 79.141 795.367 78.174 790.345C77.7717 788.258 75.7158 784.129 72.8959 784.937C70.8512 785.519 69.2714 787.175 67.9944 788.808C64.5692 793.195 62.0667 798.32 59.83 803.386L59.8226 803.422ZM27.7114 851.558C28.2835 856.594 28.6231 861.656 28.8519 866.726C29.0365 866.446 29.221 866.158 29.3945 865.874C30.7577 860.033 31.8209 854.127 32.5798 848.177C32.1073 839.085 31.0407 829.854 27.7557 821.293C26.4488 817.979 24.8814 814.774 23.0682 811.707C22.987 818.583 23.0682 825.3 23.6514 832.173C23.6552 832.201 23.6552 832.229 23.6514 832.257C25.5814 838.554 26.9402 845.011 27.7114 851.551V851.558ZM10.2311 836.376C17.4395 842.514 22.5515 849.94 26.2129 858.386C22.4777 846.142 13.1064 837.294 4.4991 828.191C4.10416 827.774 4.77592 827.199 5.17454 827.605C9.88419 832.456 15.3025 837.496 19.6283 843.145C16.8755 838.255 13.6621 833.639 10.0318 829.36C6.78748 825.544 3.42134 821.739 -0.339729 818.413C-1.24032 817.617 -11.7632 809.867 -9.98785 815.947C-8.70709 820.345 -4.31857 823.929 -1.02255 826.863C2.63886 830.134 6.47744 833.194 10.2164 836.379L10.2311 836.376ZM22.3854 810.568C21.0714 808.355 19.6873 806.199 18.2848 804.027C19.1558 810.487 20.4108 816.832 21.6915 823.199C21.5015 819.085 21.6546 814.962 22.1492 810.874C22.1557 810.805 22.1813 810.74 22.223 810.685C22.2648 810.63 22.321 810.588 22.3854 810.564V810.568ZM10.6039 775.609C9.50385 779.107 9.51158 782.859 10.6261 786.352C12.6893 793.092 16.6275 798.976 20.4477 804.827C27.5915 815.614 32.0347 827.957 33.4029 840.818C33.4914 839.914 33.5739 839.008 33.6502 838.101L33.5948 837.028C33.5004 836.993 33.418 836.932 33.3578 836.852C33.2975 836.771 33.2619 836.675 33.2552 836.575C32.2402 825.857 29.0992 816.02 24.2013 806.438C21.005 800.189 17.0077 794.132 14.7931 787.447C14.6307 786.953 15.4021 786.765 15.5756 787.248C18.2146 794.663 22.928 801.28 26.3052 808.37C28.6896 813.243 30.6422 818.314 32.1406 823.527C31.3618 818.594 30.3578 813.698 29.1878 808.916C27.8332 803.386 26.3015 797.38 24.0722 791.717C23.9689 791.655 23.8884 791.562 23.8425 791.451C23.7966 791.34 23.7878 791.217 23.8175 791.101C23.8192 791.094 23.8192 791.086 23.8175 791.079C21.9314 786.415 19.5508 782.024 16.3729 778.4C15.4464 777.342 11.5746 772.63 10.6076 775.598L10.6039 775.609ZM18.3291 769.644C18.2552 771.804 19.226 776.121 18.4804 778.492C20.8389 781.323 22.7397 784.76 24.301 788.384C25.3308 781.788 25.4636 774.44 24.2604 768.084C24.002 766.738 23.3709 762.532 21.3076 762.513C18.4029 762.458 18.3844 767.73 18.318 769.632L18.3291 769.644ZM38.596 795.68C38.1679 799.341 37.9243 803.054 37.7028 806.822C38.2159 804.61 38.8101 802.398 39.4486 800.185C41.1575 794.397 42.8701 788.24 45.6457 782.857C45.7638 782.629 46.0997 782.82 46.037 783.049C43.2872 793.225 39.098 802.7 37.3374 812.96C37.1344 816.146 36.876 819.324 36.4811 822.465C38.2749 816.596 40.7921 810.826 42.693 805.318C44.7673 799.323 46.8748 793.269 48.1556 787.042C49.0967 782.488 50.0896 777.168 48.5247 772.641C48.1281 771.315 47.4366 770.097 46.502 769.076C45.8118 768.383 45.8893 769.013 45.3172 769.964C43.981 772.221 42.9262 774.633 42.1762 777.146C40.3308 783.174 39.3158 789.42 38.5849 795.669L38.596 795.68ZM-3.14115 800.842C2.70145 802.683 8.04458 805.836 12.4789 810.059C9.44865 806.221 5.85368 803.301 1.43192 800.842C-1.40272 799.264 -4.39607 797.933 -7.08677 796.115C-7.38204 795.916 -7.08677 795.444 -6.76196 795.592C-0.609161 798.541 7.28207 801.642 11.9142 807.168L11.7961 806.929C7.41863 800.602 -0.498436 795.986 -7.00557 792.34C-9.71472 790.824 -21.7693 783.491 -24.4969 787.842C-29.0442 795.16 -7.1163 799.64 -3.14484 800.864L-3.14115 800.842ZM-14.9042 739.857C-20.854 741.701 -12.4165 757.864 -5.08628 771.874C-7.69209 765.817 -10.1023 759.682 -11.7115 753.48C-11.8001 753.134 -11.2022 752.975 -11.1025 753.318C-8.5816 762.167 -3.83505 770.248 -0.546417 778.827C-4.80577 762.237 -9.98785 738.331 -14.9042 739.857ZM-41.6783 774.455C-37.2491 777.629 -33.0119 773.098 -29.8156 770.27C-33.1116 771.579 -36.6771 772.431 -39.9029 773.762C-40.4123 773.976 -40.6891 773.187 -40.1908 772.965C-38.3454 772.14 -36.4556 771.376 -34.54 770.657C-39.6667 770.864 -44.9263 769.238 -48.6025 765.842C-48.9273 765.54 -48.4438 765.024 -48.0931 765.271C-41.6082 769.795 -35.961 769.371 -29.118 768.412L-29.4502 768.235C-33.9335 768.314 -38.4058 767.766 -42.7376 766.609C-42.8362 766.577 -42.919 766.509 -42.9694 766.419C-43.0198 766.329 -43.034 766.222 -43.0092 766.122C-42.9844 766.021 -42.9224 765.934 -42.8357 765.877C-42.749 765.821 -42.6441 765.799 -42.542 765.817C-39.1721 766.701 -35.6842 766.672 -32.2258 766.845C-38.3823 763.929 -44.9927 761.794 -50.555 757.901C-52.8246 756.367 -54.743 754.371 -56.1837 752.042C-57.5678 752.986 -59.476 753.311 -61.0631 753.591C-62.3882 753.827 -63.8202 753.96 -65.0752 754.461C-65.8763 754.826 -66.609 755.324 -67.2417 755.936C-67.0793 755.903 -66.9105 755.936 -66.7722 756.027C-66.6339 756.118 -66.5373 756.26 -66.5036 756.422C-65.8318 759.188 -65.3298 767.457 -61.8087 767.995C-57.6711 768.63 -53.4524 768.268 -49.3296 769.054C-45.9302 769.699 -44.2841 772.589 -41.6857 774.447L-41.6783 774.455ZM-68.6222 761.525C-67.9061 762.391 -67.1753 763.251 -66.4593 764.124C-67.1605 761.544 -67.4152 758.664 -67.8581 756.751C-67.8867 756.628 -67.879 756.5 -67.836 756.382C-68.0538 756.489 -68.3822 756.408 -68.349 756.102C-68.2125 754.738 -67.131 753.89 -65.9093 753.388C-66.6696 751.029 -67.2639 748.636 -68.039 746.291C-68.4819 747.814 -68.9211 749.24 -68.5114 751.519C-68.4971 751.691 -68.5515 751.862 -68.6627 751.995C-68.774 752.128 -68.9332 752.211 -69.1057 752.227C-75.6755 752.927 -70.9179 758.745 -68.6222 761.518V761.525ZM-58.1214 739.739C-60.9413 741.384 -64.5363 742.494 -67.681 743.076C-67.6293 743.201 -67.5739 743.33 -67.5223 743.445C-67.5022 743.472 -67.4884 743.504 -67.4817 743.537C-66.2396 746.578 -65.306 749.737 -64.695 752.964C-64.5437 752.924 -64.3923 752.883 -64.241 752.85C-62.7646 752.518 -61.2403 752.33 -59.7639 751.961C-58.7544 751.664 -57.7676 751.294 -56.8111 750.855C-58.4278 747.592 -58.8116 743.854 -58.1067 739.739H-58.1214ZM-59.8119 734.526C-62.104 736.071 -64.3554 738.088 -64.9423 740.864C-63.8388 740.523 -62.7546 740.123 -61.6943 739.666C-60.4135 739.113 -59.1512 738.427 -57.7966 738.114C-57.7228 737.8 -57.6527 737.487 -57.5678 737.17C-57.494 736.995 -57.3559 736.856 -57.1821 736.78C-57.0082 736.705 -56.812 736.699 -56.634 736.764C-55.9438 736.989 -55.2683 737.188 -54.6003 737.365C-55.1834 735.441 -54.7295 733.509 -53.8399 731.761C-55.7998 732.716 -57.9516 733.273 -59.8119 734.526ZM-49.1081 730.714C-51.2895 730.887 -52.1163 730.67 -52.991 733.077C-53.5278 734.448 -53.779 735.913 -53.7292 737.384C-53.7263 737.447 -53.7376 737.51 -53.7624 737.568C-51.4389 738.138 -49.0228 738.223 -46.6647 737.819C-45.8564 735.164 -44.6938 732.104 -42.9738 729.752C-44.9815 730.269 -47.0346 730.592 -49.1045 730.714H-49.1081ZM-29.8525 737.096C-30.3065 733.955 -31.3769 733.944 -34.0786 732.753C-36.4039 731.728 -38.9138 730.828 -41.0914 729.483C-42.3688 731.229 -43.4158 733.132 -44.2066 735.146C-44.3542 735.488 -44.6421 736.536 -45.0555 737.428C-44.267 737.191 -43.4971 736.897 -42.7523 736.547C-42.6074 736.485 -42.446 736.473 -42.2936 736.513C-42.1412 736.553 -42.0065 736.643 -41.9108 736.768C-35.9389 746.914 -31.0521 758.152 -23.194 767.037C-23.1664 767.009 -23.1416 766.978 -23.1202 766.945C-23.1933 766.949 -23.265 766.923 -23.3195 766.875C-25.2757 764.854 -26.3166 761.344 -27.6342 758.856C-29.3062 755.707 -31.0115 752.588 -32.6539 749.41C-32.8938 748.942 -32.2258 748.466 -31.9563 748.946C-30.0407 752.345 -28.0661 755.711 -26.2095 759.143C-27.2162 756.71 -28.0789 754.219 -28.7932 751.685C-28.9113 751.239 -28.2359 751.006 -28.1104 751.453C-26.9809 755.398 -24.759 759.095 -23.3343 762.978C-24.4416 756.88 -26.4568 751.058 -28.0476 745.078C-28.7948 742.454 -29.3888 739.789 -29.8267 737.096H-29.8525ZM-25.4381 767.737L-25.2573 767.712C-27.5826 766.454 -29.6237 764.43 -31.5024 762.69C-34.1783 760.224 -36.7324 757.639 -39.508 755.28C-39.8771 754.981 -39.3825 754.476 -39.0282 754.756C-36.1714 757.016 -33.5139 759.501 -30.7863 761.916C-29.4244 763.121 -27.9332 764.213 -26.4827 765.337C-31.65 758.764 -35.4221 751.143 -39.4563 743.88C-40.1355 742.659 -41.8001 737.944 -43.6197 738.56C-45.5704 739.233 -47.6166 739.589 -49.6802 739.614C-51.2615 739.609 -52.8343 739.383 -54.353 738.943C-57.1286 738.18 -57.1544 741.365 -57.1507 743.511C-57.1894 745.923 -56.6436 748.309 -55.5599 750.464C-55.478 750.458 -55.3959 750.476 -55.3237 750.515C-55.2515 750.554 -55.1923 750.613 -55.1532 750.686C-55.1141 750.758 -55.0968 750.84 -55.1035 750.922C-55.1102 751.003 -55.1405 751.082 -55.1908 751.147C-50.7322 758.756 -39.5708 761.237 -31.34 765.492C-34.5658 763.383 -37.5223 760.725 -40.1502 758.17C-40.4713 757.857 -39.9841 757.388 -39.6593 757.687C-37.4242 759.797 -35.0195 761.721 -32.4694 763.439C-30.1773 764.939 -27.697 766.178 -25.4381 767.726V767.737ZM15.1622 749.034C19.4865 753.546 23.5038 758.343 27.1873 763.391C27.9735 764.46 28.7929 765.57 29.6012 766.709C27.5231 762.04 25.0381 757.563 22.175 753.329C18.1925 747.548 13.756 742.11 9.52985 736.51C9.28994 736.189 9.78452 735.865 10.0318 736.141C17.7828 745.447 26.2018 755.39 31.0702 766.72C27.3712 757.843 23.1956 749.173 18.5616 740.746C15.6937 735.481 12.7262 729.91 8.6551 725.457C7.45554 724.144 5.89796 722.319 4.03403 721.995C1.99294 721.626 -1.72752 721.843 -1.62418 724.712C-1.44701 729.564 2.80495 734.552 5.64698 738.161C8.63295 741.937 11.8182 745.557 15.1622 749.019V749.034ZM33.0559 772.084C33.1814 772.302 33.3032 772.519 33.425 772.74C33.0239 771.661 32.6105 770.58 32.1849 769.496C32.4986 770.351 32.7939 771.214 33.0633 772.077L33.0559 772.084ZM34.7279 750.645H34.6024C34.6024 750.778 34.6319 750.914 34.6504 751.047L34.7279 750.645ZM35.097 738.818C35.2077 739.975 35.3591 741.192 35.4883 742.42C36.3378 734.225 36.7284 725.989 36.6583 717.751C36.6588 717.717 36.6719 717.684 36.695 717.659C36.7181 717.634 36.7496 717.618 36.7836 717.614C36.8177 717.61 36.8518 717.619 36.8797 717.639C36.9076 717.659 36.9273 717.688 36.9351 717.722C37.9759 726.81 37.0384 736.469 35.7134 745.59C35.7134 745.708 35.7134 745.826 35.7134 745.959C37.2931 738.515 38.9061 731.086 40.0502 723.547C41.0505 716.995 41.9622 710.337 41.8957 703.693C41.8699 700.607 42.1947 693.429 38.6957 691.777C29.7673 687.563 32.661 715.576 32.9821 718.997C33.5948 725.634 34.4585 732.211 35.0786 738.829L35.097 738.818ZM12.7004 695.615C12.8176 695.617 12.9322 695.65 13.0326 695.711L12.7557 695.221C12.7004 695.176 12.6524 695.125 12.597 695.081C12.5269 695.147 12.4605 695.221 12.3866 695.28C12.3613 695.395 12.3109 695.503 12.239 695.597C12.394 695.597 12.5453 695.615 12.7004 695.615ZM-27.7524 671.245C-27.4497 678.947 -17.6982 683.279 -11.7263 686.457C-4.50681 690.299 2.77911 694.915 11.0837 695.545L11.0468 695.486L11.0173 695.449C8.75845 695.007 6.71366 693.469 4.86081 692.186C1.85269 690.103 -1.1628 687.899 -4.89435 687.434C-5.46275 687.36 -5.43692 686.479 -4.85006 686.531C-2.29534 686.801 0.157463 687.678 2.30299 689.089C4.47695 690.465 6.67307 691.766 8.88763 693.06C5.85368 689.819 2.32882 686.63 -1.19971 684.4C-4.52157 682.295 -8.52993 680.661 -11.3129 677.8C-15.8343 673.159 -12.7487 669.431 -11.3572 665.202C-11.3725 665.222 -11.3898 665.241 -11.4089 665.258L-11.5417 665.376C-11.6395 665.465 -11.7596 665.527 -11.8895 665.554C-12.0195 665.582 -12.1543 665.573 -12.2799 665.53C-13.8006 664.937 -16.0964 663.823 -17.4768 662.489C-19.6913 666.706 -23.4967 669.099 -27.7524 671.245ZM-27.4682 669.534C-27.4743 669.597 -27.4945 669.657 -27.5272 669.711C-23.8916 667.448 -20.4775 665.626 -18.5065 661.534C-21.4593 659.978 -25.4308 658.636 -26.538 662.909C-27.1027 665.077 -27.2135 667.333 -27.4682 669.545V669.534ZM-13.8781 654.105C-15.4947 653.736 -17.2 653.342 -18.6099 652.564C-18.6431 655.329 -17.7167 658.3 -17.0634 660.911C-17.0634 660.911 -17.0412 660.933 -17.0339 660.944C-17.0265 660.955 -16.949 661.043 -16.9158 661.095C-16.5245 658.651 -15.8306 655.642 -13.8781 654.09V654.105ZM2.9083 646.621C-2.58013 648.375 -9.13155 647.1 -12.2689 653.168C-12.2098 653.194 -12.1544 653.224 -12.0991 653.253C-8.97653 652.317 -5.45538 653.05 -2.27747 653.22C-2.15645 653.216 -2.03656 653.244 -1.92973 653.301C-1.82288 653.358 -1.73282 653.442 -1.66847 653.544C-1.50195 653.892 -1.2924 654.218 -1.0447 654.514C-1.02255 651.417 0.619919 648.674 2.9083 646.632V646.621ZM12.3903 648.729C10.5892 647.505 8.42626 647.196 6.9462 645.433C2.98212 647.428 0.911499 650.731 -0.221619 654.964C-0.247299 655.067 -0.31221 655.155 -0.402473 655.211C0.136406 655.731 0.738029 656.195 1.26952 656.638C1.44916 656.833 1.55942 657.082 1.58325 657.346H1.65338C1.65338 657.408 1.62016 657.471 1.6054 657.534C1.59064 657.596 1.6054 657.629 1.6054 657.674C2.18857 657.799 2.76804 657.928 3.3549 658.042C3.43236 658.06 3.50523 658.094 3.5688 658.142C3.63237 658.189 3.68524 658.25 3.724 658.319C6.45529 654.798 8.20111 650.208 12.4014 648.733L12.3903 648.729ZM22.1233 660.085C21.8133 662.249 15.6347 657.135 15.3726 656.711C14.5602 655.481 14.0273 654.088 13.8113 652.63C13.6909 651.814 13.6403 650.989 13.66 650.164C13.0142 650.067 12.3543 650.148 11.7509 650.397C11.1475 650.646 10.6234 651.055 10.2348 651.579C8.02026 654.061 6.62138 657.11 4.50278 659.69C4.43094 659.782 4.33622 659.854 4.22807 659.898C4.11992 659.942 4.00211 659.957 3.8864 659.941C4.44004 666.032 10.5891 668.528 12.597 674.077C13.7043 677.107 13.5235 679.647 12.7705 682.781C12.1947 685.185 11.1649 687.725 11.0431 690.181C11.117 690.605 11.1797 691.032 11.2424 691.46L11.6448 692.002C11.7167 691.985 11.7921 691.99 11.8612 692.016C11.9303 692.043 11.9899 692.089 12.0323 692.149L12.1209 692.271C12.9772 685.439 13.9664 678.088 16.3544 671.746C16.4393 671.518 16.8305 671.507 16.8195 671.794C16.5205 678.56 14.2358 685.351 12.9366 692.072C14.7821 687.279 15.4686 682.313 16.5832 677.303C16.5967 677.246 16.6298 677.196 16.6767 677.162C16.7235 677.128 16.7811 677.112 16.8389 677.116C16.8968 677.121 16.9511 677.146 16.9922 677.186C17.0333 677.227 17.0584 677.282 17.0631 677.339C17.0409 678.46 16.9621 679.578 16.8268 680.691C18.3549 675.529 19.7796 670.323 21.0419 665.088C21.4368 663.451 21.8834 661.792 22.1233 660.122V660.085ZM-9.88081 665.597C-11.6082 669.394 -14.3099 673.188 -10.2499 676.753C-7.00188 679.61 -2.80897 681.052 0.453819 683.817C3.77567 686.66 6.93512 689.499 9.80298 692.706C9.7513 692.485 9.70702 692.267 9.6701 692.043C8.29338 690.321 7.08645 688.418 5.89059 686.697C4.49171 684.658 2.33251 682.191 1.86376 679.692C1.78625 679.293 2.30668 679.198 2.53182 679.434C4.14108 681.152 5.34801 683.423 6.67307 685.465C6.05405 683.25 5.73258 680.963 5.71711 678.663C5.72673 678.563 5.77346 678.469 5.84819 678.401C5.92292 678.334 6.02029 678.296 6.12127 678.296C6.22225 678.296 6.31961 678.334 6.39434 678.401C6.46907 678.469 6.5158 678.563 6.52542 678.663C6.67155 681.958 7.59205 685.172 9.21243 688.046C8.44308 684.819 7.91504 681.54 7.63271 678.235C7.57365 677.679 8.42257 677.527 8.50008 678.095C8.86917 680.827 9.57414 683.511 10.2127 686.206C11.3421 681.719 13.2614 677.126 10.3751 672.838C8.32661 669.785 5.39968 667.451 3.56159 664.251C2.99607 663.286 2.62845 662.218 2.48015 661.11C2.17011 657.917 -1.88623 658.16 -4.6692 658.219C-4.79839 658.219 -9.92879 658.164 -9.5191 659.746C-9.29343 660.448 -9.16187 661.177 -9.12786 661.914C-9.11472 663.18 -9.36613 664.436 -9.86605 665.6L-9.88081 665.597ZM-11.9293 654.536C-12.4042 654.718 -12.8346 655 -13.1916 655.362C-14.8304 657.069 -15.4837 659.65 -16.0779 661.932C-14.8008 662.92 -12.8705 663.635 -11.6488 664.188C-11.5378 664.239 -11.4406 664.316 -11.3655 664.412C-11.2903 664.509 -11.2394 664.621 -11.2169 664.741C-10.7039 663.001 -10.523 661.173 -11.3129 659.156C-11.4071 658.988 -11.4317 658.789 -11.3813 658.603C-11.331 658.417 -11.2097 658.258 -11.0435 658.16C-7.39312 656.439 -3.79076 656.649 -0.0850525 657.338C-0.858986 656.718 -1.57658 656.031 -2.22949 655.285C-3.31463 654.075 -5.0789 654.403 -6.76935 654.289C-8.20512 654.193 -10.0617 653.961 -11.5676 654.422C-11.6667 654.51 -11.7965 654.557 -11.9293 654.551V654.536ZM105.443 687.869C105.604 687.914 105.745 688.011 105.846 688.144C105.946 688.277 106.001 688.44 106 688.606C105.631 693.532 105.576 698.609 104.871 703.498C104.553 705.684 105.218 708.88 104.195 710.934C101.903 715.546 94.5249 716.907 89.9813 716.033C85.4378 715.159 82.4407 715.358 78.3733 717.773C76.7013 718.765 74.9998 719.911 73.206 720.642C69.4228 722.172 69.4634 721.357 66.1674 719.167C65.9644 719.034 65.7761 718.901 65.5805 718.769C67.0827 734.515 65.8684 750.284 63.0965 765.82C67.1565 754.579 72.1098 743.117 79.2444 733.826C81.1821 731.304 84.2493 727.189 87.8849 727.215C90.7601 727.245 91.9228 729.354 91.6607 731.99C91.192 736.731 88.3389 741.52 86.0689 745.587C82.3115 752.352 78.1149 758.859 73.9073 765.363C69.7402 771.793 65.5141 778.197 61.5832 784.774C60.1364 787.197 58.5714 789.707 57.2722 792.321C57.262 792.421 57.2145 792.513 57.1393 792.579C56.9585 792.948 56.7887 793.317 56.6189 793.685C55.797 796.635 54.9457 799.571 54.0648 802.493C51.0419 812.544 48.3659 822.771 45.2988 832.821C48.6907 825.639 52.4223 818.605 55.2865 811.202C56.8883 807.061 58.5714 802.951 60.5165 798.954C62.6204 794.626 70.2828 778.068 77.1258 785.431C85.364 794.305 71.2535 809.764 65.9828 816.456C56.785 828.099 46.3802 839.421 38.596 852.137C36.3448 857.353 33.7289 862.404 30.7675 867.253C30.4575 868.543 30.1253 869.834 29.7784 871.113L28.409 874L27.1578 873.889L26.2351 872.599L26.7296 869.978L27.4346 868.901C27.4002 867.672 27.3571 866.443 27.3054 865.214C24.2124 856.145 20.0859 848.033 13.35 841.087C9.62582 837.22 5.16347 834.023 1.08866 830.528C-1.52083 828.29 -16.4581 816.843 -9.98416 812.422C-7.58874 810.781 -3.70956 813.827 -1.99327 815.195C2.3805 818.66 6.23015 822.79 9.85835 827.018C16.7493 835.056 23.035 844.206 26.5562 854.301C26.5229 853.973 26.4934 853.649 26.4565 853.32C25.0134 840.711 21.5697 828.714 16.5353 817.082L16.347 816.666C11.726 810.472 5.51411 805.152 -1.94529 802.7C-6.85424 801.085 -11.9477 800.034 -16.7681 798.143C-20.0124 796.871 -25.2905 794.854 -26.1726 790.924C-26.6082 789.007 -26.1726 786.577 -24.0762 785.807C-17.8569 783.521 -8.7071 789.593 -3.82029 792.653C-0.129349 794.961 5.30003 798.113 9.19766 801.929C7.3522 798.578 5.3923 795.293 3.25894 792.137C3.16334 792.144 3.06866 792.114 2.99495 792.053C2.92124 791.992 2.87428 791.904 2.86401 791.809C2.86401 791.709 2.84556 791.602 2.8271 791.492C2.08891 790.426 1.35072 789.368 0.583008 788.329C-5.60301 779.981 -12.5198 773.776 -21.3781 768.725C-21.413 768.896 -21.5119 769.048 -21.6545 769.148C-21.7972 769.249 -21.9728 769.292 -22.1458 769.267C-28.7637 768.239 -31.3104 776.059 -37.8729 776.641C-42.4792 777.047 -43.5791 773.85 -47.1372 771.586C-50.3225 769.559 -54.6298 769.968 -58.2617 769.773C-59.8857 769.688 -62.1815 769.835 -63.6209 768.906C-63.8598 768.746 -64.0835 768.565 -64.289 768.364C-64.3711 768.37 -64.4534 768.354 -64.5273 768.318C-64.6013 768.282 -64.6642 768.226 -64.7098 768.158C-67.4706 764.198 -73.1067 760.297 -73.9371 755.254C-74.1955 753.672 -73.6788 752.042 -71.9957 751.486C-69.5523 750.678 -70.4602 750.107 -69.7811 747.662C-69.51 746.614 -69.1392 745.595 -68.6738 744.617C-68.899 744.027 -69.1352 743.437 -69.412 742.858C-69.4668 742.758 -69.4975 742.647 -69.5017 742.532C-69.5059 742.418 -69.4835 742.305 -69.4363 742.201C-69.389 742.097 -69.3183 742.005 -69.2295 741.933C-69.1407 741.861 -69.0364 741.811 -68.9248 741.786C-67.8913 741.623 -66.8683 741.399 -65.8613 741.115C-65.6177 738.313 -63.8239 736.089 -61.5688 734.438C-59.3837 732.841 -56.0508 730.633 -53.2199 730.6C-52.9984 730.257 -52.7696 729.921 -52.5297 729.601C-52.4656 729.498 -52.3756 729.414 -52.2687 729.357C-52.1618 729.3 -52.0417 729.272 -51.9206 729.276C-48.7021 729.778 -44.9632 727.599 -41.9145 728.436L-41.837 728.351C-41.8072 728.271 -41.7618 728.199 -41.7035 728.137C-41.6452 728.075 -41.5751 728.026 -41.4975 727.991C-41.4198 727.957 -41.336 727.938 -41.2511 727.937C-41.1662 727.935 -41.0818 727.951 -41.0028 727.982C-37.0683 729.615 -33.2519 731.525 -29.3321 733.184C-29.1792 733.238 -29.0466 733.338 -28.9522 733.47C-28.8579 733.602 -28.8062 733.759 -28.8043 733.922C-27.8409 745.447 -22.2012 755.951 -21.4482 767.513C-12.6195 770.285 -5.20808 778.44 0.169624 785.479C0.383698 785.755 0.579315 786.043 0.789696 786.323C-5.7691 772.645 -25.6338 741.738 -15.5722 738.63C-8.89902 736.569 -5.17856 756.389 -4.182 760.087C-2.33653 766.952 -0.712509 773.872 1.12558 780.734C2.18118 784.656 2.97105 789.678 5.4772 793.007C5.50255 793.048 5.52357 793.091 5.53994 793.136C10.0971 800.218 14.0564 807.667 17.3768 815.405L17.8271 816.463C17.9489 816.647 18.0781 816.832 18.1962 817.023C18.2461 817.098 18.2794 817.183 18.294 817.272C18.3087 817.361 18.3043 817.452 18.2811 817.539C18.8888 818.999 19.4782 820.464 20.049 821.934C18.6183 815.297 17.5512 808.587 16.8527 801.833C11.3679 793.291 5.32956 782.857 10.3382 772.895C10.4195 772.769 10.5413 772.675 10.6835 772.627C10.8257 772.58 10.9798 772.582 11.1207 772.634C13.2803 773.647 15.2395 775.041 16.9044 776.748C16.7789 775.273 16.9413 773.64 16.9302 772.582C16.908 769.832 16.7383 766.543 17.8345 763.936C18.8384 761.547 21.817 759.752 23.6698 762.554C26.3273 766.572 26.1908 772.431 26.1539 777.043C26.1206 781.545 26.0247 786.194 25.209 790.644C27.4604 796.488 28.9405 802.634 30.1142 807.544C31.7346 814.332 33.377 821.58 34.2333 828.84C34.8239 816.905 34.7205 804.875 34.5175 792.941C34.4437 788.517 34.4474 784.059 34.4326 779.602C32.6351 770.775 25.0281 762.587 19.4732 755.98C16.2326 752.124 12.6967 748.58 9.37852 744.798C6.52174 741.535 -8.19775 726.257 -1.56881 721.611C7.18241 715.473 15.3283 732.133 18.2921 737.465C24.5926 748.82 30.428 760.902 34.392 773.319C34.2702 762.753 33.7941 752.201 31.6829 741.837C28.2946 725.246 21.4036 710.834 13.3315 696.271C13.3394 696.364 13.3277 696.456 13.297 696.543C13.2663 696.631 13.2174 696.71 13.1535 696.777C13.0897 696.844 13.0123 696.897 12.9265 696.932C12.8408 696.967 12.7486 696.983 12.6561 696.979C2.5798 696.872 -6.66232 690.973 -15.133 686.074C-20.5218 682.966 -29.4133 678.379 -28.8449 670.998C-28.874 670.882 -28.8649 670.759 -28.8191 670.648C-28.7732 670.537 -28.693 670.444 -28.5902 670.382L-27.8705 669.929C-27.9451 669.946 -28.0227 669.947 -28.0977 669.931C-28.1727 669.915 -28.2433 669.883 -28.3045 669.837C-28.3657 669.791 -28.4161 669.732 -28.4521 669.665C-28.4881 669.597 -28.5087 669.522 -28.5127 669.446C-28.4241 666.201 -28.5127 661.858 -25.929 659.458C-23.9655 657.615 -20.8688 658.854 -18.6247 660.015C-19.3628 657.198 -20.1306 654.116 -19.8316 651.299C-19.7762 650.79 -19.1156 650.665 -18.7686 650.93C-17.1852 652.225 -15.0112 652.243 -13.1141 652.837C-10.5858 646.311 -0.933968 645.433 5.13394 644.652C5.19446 644.642 5.25652 644.647 5.31451 644.667C5.37251 644.687 5.42462 644.721 5.46613 644.766C5.89796 644.519 6.3298 644.287 6.77272 644.084C6.91857 644.002 7.0899 643.979 7.25221 644.019C7.41453 644.059 7.55576 644.158 7.64747 644.298C9.19028 646.55 12.1135 646.573 14.0402 648.276C14.0594 648.296 14.0767 648.319 14.0919 648.342C14.2137 648.342 14.3244 648.298 14.4609 648.291C14.5508 648.293 14.6392 648.314 14.721 648.351C14.8028 648.389 14.8764 648.442 14.9375 648.507C14.9986 648.573 15.046 648.651 15.077 648.735C15.108 648.819 15.1219 648.909 15.1179 648.999C14.7267 654.529 17.1516 658.584 22.8689 659.366C23.0248 659.394 23.1634 659.482 23.2552 659.611C23.3469 659.74 23.3845 659.899 23.3598 660.055C22.3079 666.832 20.1339 673.623 18.1925 680.189C17.0852 684.005 15.9484 687.858 14.4351 691.545C14.1342 692.38 13.788 693.199 13.398 693.997C22.6253 707.096 29.162 722.835 32.5909 738.39C33.2884 741.568 33.8384 744.757 34.2776 747.954C34.8091 742.527 33.4767 736.469 32.9083 731.241C32.1 723.868 31.2326 716.461 31.0333 709.039C30.8967 704.051 30.4132 697.518 33.0116 692.986C34.3108 690.726 37.2562 689.152 39.6553 690.951C42.8148 693.315 42.9993 698.572 43.0731 702.119C43.2023 708.445 42.5084 714.794 41.5968 721.047C39.969 732.222 37.6364 743.275 34.9974 754.251C35.8094 762.83 35.957 771.465 36.0271 780.111C36.0603 780.328 36.1009 780.546 36.1268 780.763C36.1461 780.912 36.1149 781.062 36.0382 781.191C36.064 785.099 36.0862 789.011 36.1526 792.926C36.2166 796.635 36.2646 800.351 36.2966 804.075C36.582 801.263 36.8933 798.455 37.2304 795.651C38.3746 786.312 39.4449 775.034 45.5239 767.395C45.582 767.309 45.6583 767.238 45.7472 767.186C45.8361 767.134 45.9355 767.102 46.0383 767.093C46.141 767.084 46.2445 767.097 46.3412 767.133C46.438 767.169 46.5257 767.225 46.598 767.299C54.4154 774.075 49.4806 788.258 46.9117 796.322C44.6012 803.581 41.7887 810.66 39.3711 817.879C38.0571 821.801 36.6103 825.886 35.8315 830.045C35.2779 840.656 34.1669 851.193 32.0631 861.527C32.8898 860.126 33.6944 858.714 34.4548 857.276C34.4269 857.195 34.4165 857.109 34.4241 857.023C34.4317 856.937 34.4573 856.854 34.4991 856.779C35.0785 855.673 35.6876 854.618 36.3076 853.553C37.3137 851.421 38.2069 849.238 38.9836 847.012C44.0623 832.265 48.1113 817.189 52.5847 802.239C53.8322 798.073 55.0306 793.887 56.1797 789.682C56.2422 787.837 56.5071 786.005 56.9695 784.218C57.1578 777.836 56.7444 771.826 55.1241 765.297C53.6477 759.398 51.6287 753.716 49.9309 747.884C48.4545 742.722 43.0658 727.374 51.3002 724.988C57.2722 723.259 58.4717 740.654 58.8076 743.544C60.1843 755.342 59.7377 766.853 58.7006 778.547C59.0069 777.662 59.3207 776.796 59.6122 775.966C60.8413 770.521 61.8932 765.039 62.7016 759.512C64.6651 746.051 64.9678 732.72 64.3994 719.178C64.3353 719.114 64.2938 719.031 64.2813 718.942C64.237 718.643 64.1816 718.348 64.1263 718.057C64.0351 718 63.9616 717.919 63.914 717.822C63.8664 717.726 63.8466 717.618 63.8568 717.511C59.9038 714.396 57.5453 710.912 55.8327 705.607C53.5333 698.458 50.7761 690.49 54.0574 683.154C55.3972 680.152 56.0579 680.532 53.5923 678.895C52.9095 678.438 52.1676 677.977 51.6878 677.288C50.9754 676.267 50.6359 675.017 51.2707 673.844C53.2343 670.224 58.5197 668.447 62.4912 667.72C64.6578 664.343 68.2158 662.341 71.4417 660.066C71.5536 659.966 71.6953 659.905 71.8452 659.892C71.9951 659.879 72.145 659.916 72.2722 659.996C75.4132 662.404 79.2407 667.805 83.895 665.103C84.0263 665.023 84.1804 664.99 84.3328 665.008C84.4852 665.026 84.6273 665.095 84.7365 665.202C88.2576 669.379 93.1445 672.049 91.86 677.852C93.0516 678.593 94.4863 678.839 95.8573 678.538C96.0148 678.51 96.1769 678.534 96.3193 678.607C96.4618 678.679 96.5768 678.796 96.6472 678.939C97.6548 681.026 99.4117 685.207 101.659 686.265C101.797 686.325 101.906 686.434 101.967 686.57C102.028 686.707 102.035 686.861 101.988 687.003C103.175 687.181 104.34 687.482 105.465 687.902L105.443 687.869Z" fill="#DC9789"/>
<path d="M314.367 -43.6133L320.731 -49.5547L360.406 -38.8315L390.814 -31.8655L413.285 -22.0456L425.77 -6.52259L456.052 1.53553L494.904 27.975L495.857 38.8645L480.208 65.0343L457.998 79.254L431.774 110.012L401.887 138.29L383.182 166.451L374.477 162.909L356.824 133.468L333.414 114.43L313.19 81.3842C313.19 81.3842 292.067 67.9016 290.098 65.9781C288.13 64.0545 283.806 52.6257 283.806 52.6257L293.141 36.869L303.99 6.00278L300.48 -7.92928L308.156 -21.9917L314.354 -43.5639L314.367 -43.6133Z" fill="#FFF6DE"/>
<path d="M346.51 -28.1755L324.717 -19.987L306.125 66.4502L315.428 81.0654L290.359 126.776L323.679 203.973L360.199 204.328L409.307 224.103C427.464 222.453 440.317 220.211 457.737 221.289L470.321 212.404L467.233 188.585L444.232 155.247L439.926 88.7325L346.51 -28.1755ZM324.385 -20.4454L346.694 -28.8271C377.704 10.313 408.921 49.8576 440.461 88.5482L444.767 155.09L467.759 188.41C468.802 196.499 469.835 204.589 470.905 212.678L457.872 221.869L447.342 221.226L409.217 224.691L360.082 204.885L323.311 204.526C312.036 178.672 300.849 152.756 289.748 126.776L314.785 81.1103L305.54 66.576C311.724 37.5883 318.021 8.60067 324.241 -20.369L324.38 -20.4185L324.385 -20.4454Z" fill="#DC9789"/>
</g>
<defs>
<clipPath id="clip0_625_13473">
<rect width="360" height="740" fill="white"/>
</clipPath>
</defs>
</svg>
