<svg width="360" height="502" viewBox="0 0 360 502" fill="none" xmlns="http://www.w3.org/2000/svg">
<g clip-path="url(#clip0_625_13591)">
<path d="M65.0223 400.079L74.2055 403.784L81.3786 417.844L124.359 465.755L123.092 498.441L146.584 528.722L163.724 557.454L157.79 565.824L129.344 575.853L103.087 573.597L63.4865 580.987L22.5307 584.535L-9.5464 594.285L-14.2288 586.839L-9.99253 555.742L-16.7201 528.883L-12.2964 493.747C-12.2964 493.747 -20.6391 472.186 -21.0061 469.682C-21.373 467.177 -20.6749 452.047 -20.6749 452.047L-14.4148 445.739L-0.275727 448.516L32.6806 422.335L44.0607 420.868L65.018 400.078L65.0223 400.079Z" fill="#FFF6DE"/>
<path d="M124.149 481.802C124.684 480.348 120.282 479.472 119.757 479.368C116.848 478.91 113.863 479.081 111.04 479.868C99.8748 482.918 90.7508 490.314 82.0445 497.179C88.2956 495.413 92.5145 490.445 98.7628 488.608C98.8252 488.591 98.8923 488.596 98.9509 488.622C99.0096 488.648 99.0556 488.692 99.0799 488.748C99.1042 488.803 99.1051 488.864 99.0824 488.92C99.0597 488.976 99.015 489.021 98.9571 489.049C93.5277 491.57 89.0838 495.759 83.3619 497.563C89.1405 496.938 93.916 494.032 99.4368 492.325C99.6994 492.243 99.891 492.599 99.6424 492.726C94.0112 495.657 87.8518 498.628 81.2073 498.314C81.1505 498.314 81.0949 498.299 81.0469 498.272C80.9988 498.244 80.9602 498.205 80.9356 498.158L80.7942 498.18C80.6982 498.26 80.5996 498.335 80.5056 498.408C84.7321 499.882 89.0857 497.887 93.4317 498.456C93.7282 498.499 93.6662 498.864 93.4068 498.908C89.5395 499.579 85.1123 500.455 81.2652 499.3C81.6419 499.696 82.0222 500.093 82.3853 500.496C83.6659 501.914 88.3599 500.239 89.6427 499.907C92.2691 499.218 95.2758 498.279 98.0333 498.753C100.857 499.238 103.098 500.737 105.808 501.484C109.094 502.37 112.616 502.178 115.763 500.942C118.26 499.898 118.313 497.591 119.036 495.466C120.055 492.476 121.322 489.527 122.414 486.555L124.155 481.807L124.149 481.802ZM80.5875 461.993C73.4532 468.243 73.2784 476.026 73.9882 484.453C74.3292 488.661 75.2506 491.945 77.506 495.095C77.2311 489.831 75.2609 484.629 76.3143 479.415C76.3203 479.349 76.3546 479.288 76.4099 479.245C76.4651 479.202 76.5366 479.182 76.6087 479.187C76.6808 479.193 76.7475 479.224 76.7942 479.274C76.841 479.325 76.8638 479.39 76.8578 479.456C77.1122 484.211 78.5551 489.125 78.6576 493.939C78.7084 493.761 78.781 493.588 78.839 493.412C78.665 488.106 78.2637 482.731 79.8054 477.562C79.8178 477.519 79.8488 477.481 79.8915 477.458C79.9342 477.435 79.9851 477.429 80.033 477.44C80.0809 477.452 80.1219 477.48 80.1469 477.519C80.1719 477.558 80.179 477.605 80.1665 477.648C79.501 482.166 79.5135 486.688 79.5131 491.227C80.9228 486.129 81.6147 480.856 83.9456 476.03C86.484 470.774 90.9737 467.357 95.8805 463.951C96.9241 463.227 98.3454 462.072 99.9355 461.042C98.413 460.377 97.7222 459.163 96.9237 457.448C95.4923 454.357 92.1248 453.71 88.745 453.592C85.8385 453.492 82.7129 453.565 79.9513 454.524C75.3025 456.122 77.2021 458.87 80.4119 461.014C80.5035 461.064 80.582 461.132 80.6414 461.212C80.7009 461.293 80.7399 461.385 80.7557 461.481C80.7715 461.577 80.7636 461.675 80.7325 461.768C80.7015 461.861 80.6482 461.947 80.5764 462.019L80.5875 461.993ZM104.577 454.974C103.611 454.075 100.066 448.618 98.8979 449.023C95.9556 450.034 93.1243 450.913 90.5049 452.441C92.4657 452.642 94.3647 453.191 96.0949 454.057C98.8555 455.478 98.2152 458.787 101.074 460.285C103.532 458.835 106.236 457.876 108.468 459.136C111.455 460.83 112.14 464.483 113.899 467.022C115.514 463.811 113.542 461.517 111.705 458.794C111.208 458.063 110.629 456.362 109.428 456.449C107.612 456.58 105.896 456.203 104.577 454.974ZM118.092 471.788C117.918 470.951 115.361 470.141 113.921 469.186C113.816 469.187 113.712 469.17 113.615 469.134C113.517 469.099 113.429 469.046 113.354 468.978C113.28 468.911 113.221 468.831 113.181 468.742C113.14 468.654 113.12 468.559 113.121 468.463C111.684 466.403 111.152 463.85 109.603 461.872C106.779 458.255 103.142 460.686 100.137 462.605C93.7011 466.707 86.748 471.295 84.391 478.481C82.7769 483.404 82.5359 489.245 80.3284 494.125C84.256 488.327 87.4963 482.221 91.2505 476.301C91.3786 476.095 91.7883 476.214 91.6933 476.452C88.7892 483.758 84.0392 490.748 79.1148 497.052C79.1934 497.141 79.2803 497.228 79.3625 497.318C83.8555 492.215 87.6144 486.521 92.6314 481.838C92.6667 481.808 92.7127 481.791 92.7607 481.79C92.8088 481.789 92.8556 481.804 92.8924 481.832C92.9292 481.86 92.9536 481.9 92.9609 481.943C92.9682 481.987 92.9579 482.031 92.9321 482.068C89.2408 486.471 85.8174 491.044 81.9629 495.303C91.7836 487.373 107.189 474.661 120.414 478.011C119.012 476.356 118.406 473.254 118.093 471.743L118.092 471.788ZM73.1975 531.44C68.5733 536.712 64.2428 542.194 60.2224 547.864C59.5149 549.139 58.7992 550.416 58.0719 551.68C60.4389 549.061 62.9829 546.581 65.6891 544.253C72.2784 538.426 78.8928 532.538 85.6055 526.847C85.8339 526.655 86.0982 526.985 85.9484 527.186C81.455 533.317 74.2867 538.052 68.4899 543.102C63.1483 547.761 57.9788 552.573 54.2916 558.407C55.8458 557.017 57.4471 555.637 58.9807 554.305C64.7117 549.309 70.6219 544.483 76.429 539.558C81.9831 534.845 87.5789 530.12 92.6696 524.99C94.7083 522.929 101.369 517.299 99.9822 513.916C96.7291 506.02 75.0732 529.301 73.1975 531.44ZM63.6275 502.19C55.3239 499.473 57.4755 524.96 57.7082 528.319C57.9561 532.016 58.0998 535.808 57.9668 539.569C58.7066 535.82 59.1652 532.03 59.3396 528.225C59.4983 523.685 59.0697 519.135 59.1427 514.585C59.1429 514.233 59.7622 514.144 59.7671 514.519C59.8337 519.391 60.4655 524.228 60.2106 529.105C59.9926 533.63 59.4301 538.136 58.5272 542.59C60.7229 536.4 62.7 530.166 63.8094 523.648C64.5377 519.755 65.0505 515.832 65.3461 511.892C65.4587 509.972 66.3783 503.105 63.6227 502.206L63.6275 502.19ZM51.4722 573.034C42.6756 583.159 33.4081 592.962 24.7354 603.18C23.941 604.287 23.1296 605.386 22.3128 606.477C27.4122 601.046 33.2943 596.305 39.1038 591.493C44.8083 586.766 49.9644 581.609 55.5067 576.734C55.5471 576.697 55.6009 576.675 55.658 576.671C55.7152 576.668 55.7717 576.684 55.817 576.716C55.8623 576.748 55.8932 576.794 55.9041 576.845C55.9149 576.896 55.9049 576.949 55.8758 576.994C52.1659 582.922 45.3345 587.638 39.8497 592.15C34.9229 596.206 29.862 600.206 25.168 604.501C32.738 598.806 40.9003 593.657 48.6711 588.379C53.725 584.945 58.8339 581.52 63.4576 577.606C66.9464 574.654 72.4319 570.329 72.7682 565.613C72.9076 563.653 71.9507 559.481 68.9853 559.546C66.8358 559.591 64.8673 560.703 63.2006 561.867C58.7287 564.993 54.9712 568.993 51.4888 573.003L51.4722 573.034ZM7.75853 608.604C7.03198 613.242 6.07134 617.848 5.00046 622.435C5.25259 622.228 5.50661 622.013 5.74885 621.8C8.57453 616.894 11.1234 611.859 13.3855 606.715C15.2454 598.473 16.5596 589.968 15.532 581.546C15.0996 578.278 14.3846 575.046 13.3938 571.881C11.5582 578.012 9.92193 584.039 8.73727 590.321C8.73384 590.347 8.72656 590.372 8.71561 590.397C8.9958 596.478 8.67611 602.569 7.76041 608.598L7.75853 608.604ZM-5.46733 590.954C0.0178833 598.123 3.12318 605.955 4.54834 614.362C4.02086 602.541 -2.88851 592.445 -8.98536 582.298C-9.26536 581.834 -8.46119 581.476 -8.17474 581.931C-4.80581 587.368 -0.79152 593.137 1.99842 599.197C0.553779 594.183 -1.41137 589.306 -3.87035 584.632C-6.07016 580.464 -8.39198 576.277 -11.2226 572.426C-11.9004 571.504 -20.2171 562.122 -20.0329 567.973C-19.9031 572.205 -16.5244 576.432 -14.049 579.825C-11.3018 583.603 -8.32748 587.234 -5.48272 590.954L-5.46733 590.954ZM13.0167 570.703C12.2961 568.419 11.4926 566.167 10.6749 563.899C9.87744 569.878 9.48471 575.846 9.11162 581.838C9.97648 578.115 11.1792 574.463 12.7074 570.922C12.7313 570.862 12.773 570.81 12.8278 570.771C12.8827 570.731 12.9484 570.707 13.0177 570.7L13.0167 570.703ZM10.418 536.693C8.44815 539.565 7.49743 542.923 7.69561 546.307C7.99303 552.815 10.3435 558.995 12.5869 565.118C16.8218 576.429 18.0165 588.504 16.0704 600.325C16.3881 599.536 16.7001 598.746 17.0064 597.952L17.2262 596.98C17.1427 596.927 17.0778 596.853 17.0394 596.767C17.001 596.681 16.9907 596.586 17.0098 596.495C18.7541 586.673 18.1931 577.144 15.8482 567.433C14.3168 561.1 11.9528 554.751 11.4932 548.257C11.4605 547.777 12.2633 547.789 12.3097 548.261C12.9982 555.507 15.9196 562.524 17.4133 569.651C18.5019 574.564 19.117 579.555 19.2517 584.566C19.7497 579.973 20.0179 575.36 20.0944 570.811C20.1815 565.549 20.2168 559.821 19.4819 554.237C19.3965 554.158 19.3415 554.056 19.3249 553.946C19.3084 553.836 19.3312 553.724 19.3899 553.627C19.3935 553.621 19.3954 553.614 19.3956 553.607C18.7414 548.996 17.5335 544.515 15.3498 540.533C14.7135 539.371 12.1286 534.255 10.4244 536.684L10.418 536.693ZM19.5003 533.158C18.8762 535.073 18.7233 539.16 17.3883 541.106C18.9728 544.188 19.9551 547.704 20.557 551.309C23.2493 545.65 25.256 539.109 25.7021 533.144C25.793 531.881 26.2499 527.971 24.2358 527.474C21.4078 526.748 20.0432 531.459 19.4923 533.145L19.5003 533.158ZM32.6805 561.165C31.3265 564.339 30.1399 567.603 28.9608 570.921C30.0278 569.062 31.1742 567.222 32.364 565.393C35.5145 560.614 38.7628 555.506 42.8534 551.339C43.0273 551.162 43.307 551.411 43.1872 551.601C37.8977 560.061 31.3787 567.56 27.0354 576.326C26.0232 579.128 24.9587 581.91 23.7699 584.627C27.0242 579.796 30.9609 575.222 34.2276 570.738C37.7884 565.86 41.3967 560.937 44.2404 555.666C46.3242 551.813 48.6545 547.286 48.2796 542.872C48.2302 541.594 47.8649 540.343 47.2112 539.212C46.7129 538.432 46.6277 539.014 45.825 539.731C43.9411 541.439 42.2929 543.35 40.9173 545.423C37.572 550.384 34.9836 555.733 32.6725 561.152L32.6805 561.165ZM-9.47569 556.059C-4.22932 559.067 0.193384 563.131 3.45363 567.941C1.46893 563.802 -1.30277 560.353 -5.00116 557.124C-7.37169 555.052 -9.96061 553.165 -12.1291 550.912C-12.3671 550.665 -11.9577 550.312 -11.6776 550.52C-6.41067 554.591 0.518584 559.202 3.63935 565.224L3.58499 564.982C0.91776 558.304 -5.64975 552.332 -11.0854 547.555C-13.3491 545.568 -23.271 536.202 -27.051 539.457C-33.3695 544.943 -13.0582 554.058 -9.48497 556.078L-9.47569 556.059ZM-5.40918 498.777C-11.7016 499.039 -7.57418 515.46 -3.98025 529.698C-4.98275 523.673 -5.77407 517.625 -5.76476 511.704C-5.76292 511.374 -5.13737 511.371 -5.12744 511.701C-4.92084 520.202 -2.3407 528.535 -1.31419 536.974C-1.24427 521.144 -0.20893 498.557 -5.40918 498.777ZM-40.443 523.482C-36.92 527.353 -31.6168 524.288 -27.7671 522.503C-31.3264 522.906 -35.0325 522.837 -38.5288 523.276C-39.0818 523.349 -39.1512 522.578 -38.6071 522.497C-36.5905 522.188 -34.5465 521.946 -32.4886 521.749C-37.5575 520.739 -42.2885 518.06 -45.0182 514.167C-45.2588 513.821 -44.6539 513.472 -44.3739 513.774C-39.1841 519.331 -33.5503 520.267 -26.6099 521.004L-26.8898 520.768C-31.2965 519.794 -35.5326 518.263 -39.4756 516.219C-39.5639 516.167 -39.6275 516.087 -39.6538 515.995C-39.68 515.902 -39.6668 515.804 -39.6169 515.72C-39.567 515.636 -39.484 515.572 -39.3847 515.541C-39.2854 515.511 -39.1771 515.516 -39.0817 515.555C-36.0105 517.132 -32.5902 517.918 -29.2505 518.878C-34.5295 514.836 -40.4523 511.387 -44.9003 506.609C-46.7293 504.709 -48.0964 502.476 -48.9114 500.059C-50.5068 500.58 -52.4567 500.426 -54.0812 500.307C-55.438 500.209 -56.8731 499.994 -58.229 500.15C-59.106 500.29 -59.9504 500.565 -60.7256 500.965C-60.5583 500.973 -60.4015 501.042 -60.2895 501.156C-60.1775 501.27 -60.1193 501.419 -60.1276 501.572C-60.1766 504.201 -61.7976 511.714 -58.4898 513.016C-54.6034 514.547 -50.3832 515.207 -46.5499 516.869C-43.3885 518.238 -42.5161 521.207 -40.4483 523.474L-40.443 523.482ZM-63.5038 505.642C-63.0245 506.584 -62.5289 507.522 -62.0514 508.47C-62.0784 505.999 -61.5922 503.364 -61.5368 501.55C-61.5335 501.434 -61.4932 501.321 -61.421 501.225C-61.6614 501.27 -61.9621 501.121 -61.8514 500.855C-61.3694 499.667 -60.0946 499.16 -58.7712 498.997C-58.9125 496.709 -58.8828 494.431 -59.0423 492.153C-59.8645 493.412 -60.6587 494.585 -60.8398 496.719C-60.8698 496.876 -60.9667 497.017 -61.1094 497.109C-61.2522 497.202 -61.4292 497.239 -61.602 497.213C-68.2093 496.309 -65.0401 502.621 -63.5019 505.635L-63.5038 505.642ZM-47.6651 488.604C-50.8442 489.418 -54.6451 489.573 -57.8708 489.361C-57.8523 489.485 -57.8311 489.614 -57.8097 489.728C-57.7971 489.757 -57.7916 489.788 -57.7935 489.82C-57.355 492.829 -57.2482 495.871 -57.4747 498.9C-57.3163 498.899 -57.1579 498.898 -57.0013 498.904C-55.472 498.951 -53.9325 499.138 -52.3938 499.152C-51.33 499.121 -50.2701 499.02 -49.2221 498.851C-49.9706 495.556 -49.3913 492.123 -47.6506 488.607L-47.6651 488.604ZM-47.9876 483.548C-50.6248 484.395 -53.3429 485.674 -54.6262 488.021C-53.4594 487.973 -52.2964 487.868 -51.1421 487.706C-49.7477 487.509 -48.3374 487.19 -46.932 487.225C-46.7797 486.962 -46.6311 486.698 -46.467 486.435C-46.3503 486.296 -46.1796 486.203 -45.9902 486.176C-45.8008 486.149 -45.6073 486.19 -45.4497 486.289C-44.8318 486.651 -44.2218 486.987 -43.6133 487.301C-43.6924 485.444 -42.7548 483.821 -41.4381 482.466C-43.5996 482.863 -45.8473 482.86 -47.9876 483.548ZM-36.5408 482.631C-38.7194 482.278 -39.4728 481.891 -40.9436 483.841C-41.8188 484.941 -42.4389 486.193 -42.7658 487.52C-42.779 487.577 -42.8062 487.631 -42.8453 487.677C-40.7174 488.728 -38.3751 489.367 -35.9646 489.555C-34.4957 487.369 -32.5766 484.903 -30.2929 483.2C-32.3895 483.195 -34.4807 483.005 -36.5372 482.632L-36.5408 482.631ZM-19.3301 492.825C-18.972 489.91 -20.0165 489.65 -22.3559 487.956C-24.3693 486.498 -26.5953 485.108 -28.3823 483.398C-30.0782 484.662 -31.5888 486.12 -32.8767 487.737C-33.1088 488.009 -33.6579 488.878 -34.2902 489.58C-33.4584 489.552 -32.6299 489.468 -31.8117 489.328C-31.6541 489.307 -31.4931 489.334 -31.3542 489.405C-31.2153 489.477 -31.1064 489.588 -31.0448 489.722C-27.793 500.188 -25.8817 511.377 -20.4624 521.154C-20.4281 521.135 -20.396 521.113 -20.3666 521.089C-20.4391 521.075 -20.5028 521.036 -20.5437 520.979C-21.9417 518.717 -22.0637 515.335 -22.7173 512.803C-23.5491 509.597 -24.4209 506.41 -25.2163 503.185C-25.3315 502.711 -24.5563 502.441 -24.4151 502.932C-23.409 506.419 -22.3366 509.889 -21.3968 513.392C-21.7602 510.981 -21.9683 508.552 -22.0198 506.119C-22.0214 505.693 -21.3012 505.642 -21.2923 506.071C-21.1948 509.862 -19.9653 513.687 -19.5628 517.491C-19.0887 511.779 -19.5737 506.103 -19.6028 500.384C-19.6636 497.863 -19.5641 495.341 -19.3048 492.831L-19.3301 492.825ZM-22.837 521.257L-22.6535 521.277C-24.6076 519.61 -26.0877 517.325 -27.4814 515.331C-29.4697 512.501 -31.3087 509.595 -33.4218 506.838C-33.7067 506.485 -33.0938 506.149 -32.8186 506.482C-30.6006 509.168 -28.6351 512.01 -26.5831 514.805C-25.5584 516.201 -24.3781 517.524 -23.246 518.868C-26.623 511.785 -28.3675 504.09 -30.4596 496.655C-30.8125 495.405 -31.2368 490.8 -33.1745 490.927C-35.2551 491.074 -37.3481 490.916 -39.3737 490.458C-40.9196 490.085 -42.4008 489.517 -43.7744 488.769C-46.2953 487.44 -47.1341 490.283 -47.6786 492.203C-48.3325 494.351 -48.4078 496.612 -47.898 498.793C-47.8162 498.806 -47.7404 498.841 -47.6798 498.893C-47.6191 498.945 -47.5763 499.011 -47.5565 499.085C-47.5367 499.159 -47.5408 499.236 -47.5683 499.308C-47.5957 499.379 -47.6453 499.442 -47.7111 499.489C-45.2921 507.333 -35.005 512.152 -28.0382 517.875C-30.6559 515.237 -32.8697 512.171 -34.7885 509.274C-35.0226 508.919 -34.4263 508.613 -34.1848 508.956C-32.5368 511.364 -30.6752 513.645 -28.6188 515.775C-26.7594 517.651 -24.6489 519.337 -22.8342 521.248L-22.837 521.257ZM21.6656 513.988C24.7442 519.031 27.4499 524.256 29.7647 529.629C30.2608 530.768 30.7791 531.951 31.2791 533.159C30.4381 528.499 29.1502 523.916 27.4302 519.463C25.01 513.365 22.0581 507.467 19.3534 501.474C19.2006 501.132 19.7674 500.957 19.9387 501.261C25.1459 511.39 30.8439 522.244 32.7136 533.511C31.3615 524.71 29.4904 515.983 27.1086 507.367C25.6472 501.99 24.1665 496.317 21.3206 491.385C20.4821 489.932 19.4242 487.937 17.6833 487.212C15.7804 486.407 12.0845 485.735 11.453 488.324C10.3872 492.705 13.2734 498.157 15.1323 502.047C17.0897 506.119 19.2816 510.099 21.6693 513.974L21.6656 513.988ZM33.2864 538.771C33.3536 538.995 33.4173 539.218 33.4799 539.444C33.3631 538.385 33.2348 537.322 33.0952 536.253C33.1837 537.091 33.2522 537.932 33.2955 538.766L33.2864 538.771ZM40.3982 519.986L40.2754 519.957C40.2415 520.076 40.2355 520.205 40.2197 520.328L40.3982 519.986ZM43.7802 509.494C43.5928 510.555 43.4301 511.679 43.243 512.807C46.1673 505.676 48.653 498.401 50.6885 491.017C50.6978 490.986 50.7189 490.96 50.7479 490.943C50.777 490.926 50.8119 490.919 50.8461 490.923C50.8803 490.928 50.9115 490.944 50.9337 490.968C50.956 490.992 50.9678 491.023 50.9669 491.055C49.6641 499.425 46.2796 507.846 42.6534 515.695C42.6233 515.801 42.5932 515.906 42.5593 516.025C46.0062 509.735 49.4818 503.467 52.5271 496.99C55.1791 491.364 57.7718 485.621 59.4036 479.664C60.1665 476.898 62.3178 470.554 59.316 468.261C51.6563 462.413 47.3329 488.14 46.7732 491.275C45.6777 497.353 44.8429 503.437 43.7593 509.5L43.7802 509.494ZM32.9006 465.638C33.0148 465.668 33.1184 465.724 33.2011 465.801L33.0555 465.298C33.0126 465.246 32.9789 465.189 32.936 465.136C32.8504 465.179 32.7666 465.23 32.6793 465.265C32.6251 465.362 32.5481 465.447 32.4538 465.514C32.6055 465.55 32.7489 465.602 32.9006 465.638ZM-0.456104 434.419C-2.12711 441.378 6.30779 447.524 11.3393 451.758C17.422 456.875 23.372 462.701 31.3366 465.199L31.3156 465.138L31.2961 465.098C29.1989 464.176 27.5909 462.325 26.1057 460.746C23.6944 458.182 21.307 455.508 17.7745 454.223C17.2372 454.025 17.4875 453.242 18.0486 453.425C20.4793 454.262 22.6551 455.618 24.394 457.38C26.1698 459.116 27.9862 460.792 29.8225 462.465C27.6817 458.86 25.0473 455.187 22.1645 452.37C19.452 449.713 15.9471 447.319 13.9548 444.112C10.7164 438.907 14.6876 436.292 17.1292 432.834C17.1091 432.849 17.0874 432.861 17.0645 432.872L16.9043 432.946C16.7858 433.004 16.6525 433.031 16.5184 433.025C16.3843 433.019 16.2545 432.98 16.1425 432.913C14.8062 432.028 12.8443 430.497 11.8345 428.982C8.59041 432.238 4.25591 433.492 -0.456104 434.419ZM0.258913 432.956C0.236874 433.01 0.201673 433.06 0.155925 433.1C4.29135 431.923 8.09708 431.089 11.0708 427.888C8.57908 425.809 5.03598 423.683 2.86116 427.247C1.75491 429.054 1.07027 431.047 0.256085 432.966L0.258913 432.956ZM17.497 422.322C16.0094 421.616 14.4417 420.866 13.2608 419.841C12.522 422.307 12.6695 425.18 12.642 427.667C12.642 427.667 12.6581 427.692 12.6625 427.703C12.6669 427.715 12.7201 427.812 12.7394 427.866C13.7465 425.771 15.1939 423.242 17.5008 422.309L17.497 422.322ZM35.8333 419.539C30.0149 419.83 23.9304 417.163 19.3108 421.859C19.3619 421.896 19.4086 421.935 19.4552 421.975C22.7497 421.864 26.0076 423.341 29.0737 424.233C29.193 424.258 29.3032 424.311 29.3932 424.386C29.4832 424.462 29.5499 424.558 29.5867 424.665C29.6607 425.015 29.7826 425.355 29.9494 425.677C30.762 422.913 33.0697 420.842 35.8305 419.548L35.8333 419.539ZM44.5724 423.633C43.1226 422.119 41.0854 421.338 40.0874 419.417C35.6993 420.278 32.8295 422.75 30.6398 426.271C30.5884 426.357 30.5023 426.421 30.3998 426.45C30.7943 427.041 31.2643 427.596 31.6713 428.116C31.7972 428.332 31.8416 428.58 31.7975 428.822L31.8661 428.838C31.8501 428.894 31.8016 428.943 31.7711 428.995C31.7407 429.048 31.7466 429.081 31.7353 429.121C32.2739 429.368 32.808 429.619 33.353 429.858C33.4242 429.892 33.4869 429.939 33.5369 429.996C33.587 430.054 33.6233 430.12 33.6435 430.191C37.2152 427.678 40.0958 423.98 44.5823 423.639L44.5724 423.633ZM51.1953 436.057C50.3392 437.92 45.5998 431.907 45.4517 431.467C44.971 430.177 44.8053 428.807 44.9665 427.453C45.0571 426.695 45.2184 425.945 45.4484 425.212C44.8412 424.975 44.1748 424.893 43.5208 424.976C42.8667 425.058 42.2495 425.302 41.7354 425.68C38.9348 427.383 36.7873 429.784 34.0552 431.599C33.9614 431.665 33.8505 431.707 33.7334 431.721C33.6164 431.735 33.4973 431.721 33.3881 431.68C32.3741 437.256 37.7533 440.921 38.3007 446.351C38.61 449.319 37.7843 451.549 36.2471 454.177C35.0698 456.192 33.4134 458.224 32.6671 460.392C32.631 460.788 32.5832 461.185 32.5353 461.583L32.7905 462.161C32.8653 462.163 32.9378 462.185 32.9987 462.224C33.0596 462.264 33.1061 462.319 33.1321 462.383L33.1877 462.513C35.7704 456.602 38.616 450.258 42.5722 445.142C42.7137 444.958 43.0993 445.039 43.015 445.294C40.9945 451.275 37.0245 456.816 34.0366 462.525C37.0665 458.668 39.0067 454.386 41.377 450.165C41.4045 450.117 41.4497 450.081 41.5043 450.061C41.5588 450.041 41.6193 450.04 41.6748 450.058C41.7303 450.075 41.7771 450.11 41.8068 450.156C41.8366 450.202 41.8473 450.257 41.8371 450.31C41.5292 451.306 41.1664 452.288 40.75 453.252C43.5634 448.991 46.2871 444.667 48.8593 440.279C49.6639 438.907 50.5246 437.527 51.1859 436.09L51.1953 436.057ZM18.473 433.531C15.8129 436.525 12.2004 439.289 15.2624 443.423C17.7106 446.735 21.445 449.001 23.9312 452.234C26.4555 455.55 28.8218 458.825 30.8086 462.362C30.8145 462.152 30.8267 461.947 30.8481 461.737C29.9408 459.877 29.2457 457.894 28.5154 456.076C27.6674 453.926 26.1847 451.217 26.3645 448.873C26.3904 448.498 26.9241 448.534 27.0841 448.797C28.2198 450.709 28.8207 453.021 29.5955 455.157C29.5556 453.031 29.8253 450.911 30.3975 448.85C30.4326 448.763 30.5021 448.69 30.5926 448.647C30.683 448.604 30.7879 448.593 30.8867 448.616C30.9855 448.64 31.0712 448.696 31.127 448.774C31.1828 448.852 31.2047 448.947 31.1884 449.039C30.4899 452.02 30.5695 455.109 31.421 458.056C31.4924 454.991 31.8133 451.936 32.3811 448.914C32.4655 448.402 33.3347 448.465 33.2656 448.991C32.9289 451.52 32.9332 454.085 32.8696 456.644C35.1207 452.894 38.1719 449.233 36.443 444.725C35.2183 441.518 32.9506 438.749 31.9694 435.459C31.6626 434.464 31.5756 433.423 31.7136 432.397C32.2257 429.47 28.1946 428.742 25.4566 428.147C25.3302 428.117 20.3244 426.872 20.3213 428.382C20.3628 429.063 20.3053 429.745 20.1504 430.412C19.8397 431.548 19.273 432.613 18.4865 433.538L18.473 433.531ZM19.2937 423.162C18.7824 423.214 18.2894 423.366 17.8476 423.606C15.8082 424.751 14.5098 426.907 13.3454 428.81C14.3426 429.991 16.0487 431.08 17.1028 431.86C17.1984 431.931 17.2739 432.022 17.3228 432.126C17.3717 432.229 17.3928 432.342 17.3841 432.455C18.3306 431.018 18.9746 429.425 18.7168 427.437C18.6676 427.264 18.6942 427.081 18.791 426.927C18.8878 426.772 19.0471 426.658 19.2347 426.609C23.2462 425.92 26.7172 426.947 30.167 428.427C29.5681 427.692 29.0415 426.91 28.5933 426.091C27.8404 424.756 26.0303 424.639 24.4055 424.143C23.0251 423.723 21.2679 423.082 19.6768 423.144C19.5572 423.2 19.4184 423.211 19.2899 423.175L19.2937 423.162ZM125.623 480.314C125.769 480.392 125.883 480.511 125.947 480.654C126.012 480.797 126.023 480.954 125.98 481.104C124.361 485.423 123.01 489.95 121.071 494.159C120.202 496.04 120.036 499.054 118.511 500.652C115.091 504.243 107.524 503.741 103.301 501.901C99.0789 500.061 96.0956 499.541 91.499 500.754C89.6097 501.251 87.652 501.88 85.7104 502.115C81.6179 502.602 81.8658 501.883 79.2001 499.157C79.0354 498.991 78.8851 498.828 78.7276 498.664C76.1756 513.097 70.9599 526.917 64.2796 540.166C71.1233 531.059 78.8974 521.961 88.2513 515.313C90.7914 513.509 94.8434 510.544 98.394 511.414C101.2 512.11 101.799 514.267 100.869 516.564C99.1994 520.695 95.1845 524.313 91.9249 527.422C86.5205 532.597 80.7523 537.439 74.9742 542.276C69.2546 547.056 63.4839 551.799 57.9578 556.766C55.9234 558.595 53.7509 560.476 51.8121 562.511C51.7766 562.598 51.7067 562.669 51.6161 562.711C51.345 562.999 51.0847 563.289 50.8245 563.579C49.267 566.026 47.6841 568.453 46.0757 570.862C40.551 579.146 35.3205 587.67 29.7525 595.944C34.9057 590.311 40.3535 584.888 45.0469 578.935C47.6717 575.605 50.3685 572.32 53.2924 569.199C56.4565 565.818 68.1828 552.794 72.9978 560.973C78.7919 570.829 61.0371 581.368 54.1709 586.125C42.1975 594.395 29.125 602.098 18.2607 611.657C14.7258 615.798 10.8761 619.706 6.74012 623.353C6.10717 624.435 5.45257 625.512 4.78634 626.575L2.70916 628.838L1.51316 628.447L0.939891 627.078L2.09334 624.849L3.05809 624.051C3.33827 622.943 3.61002 621.834 3.87335 620.723C3.16349 611.891 1.19759 603.676 -3.61914 595.894C-6.27525 591.568 -9.82502 587.669 -12.9193 583.594C-14.901 580.985 -26.5925 567.267 -19.129 564.822C-16.3662 563.912 -13.3484 567.54 -12.0185 569.163C-8.6241 573.281 -5.91205 577.871 -3.44213 582.498C1.24754 591.292 5.06056 600.94 5.92756 610.788C5.97887 610.487 6.03285 610.19 6.08055 609.888C7.88898 598.275 7.58371 586.743 5.6287 575.167L5.55092 574.751C2.61144 568.135 -2.10775 561.929 -8.7802 557.999C-13.1709 555.411 -17.8863 553.285 -22.1197 550.471C-24.9693 548.577 -29.6185 545.544 -29.4778 541.824C-29.4143 540.008 -28.3676 537.936 -26.1195 537.735C-19.4504 537.14 -12.0487 544.702 -8.04876 548.577C-5.02683 551.501 -0.519564 555.585 2.31946 559.906C1.36973 556.478 0.291094 553.084 -0.990237 549.764C-1.08564 549.749 -1.17056 549.7 -1.22705 549.628C-1.28352 549.556 -1.30712 549.466 -1.29285 549.379C-1.26743 549.29 -1.25818 549.19 -1.24798 549.087C-1.69813 547.962 -2.15016 546.844 -2.63577 545.735C-6.55657 536.829 -11.7395 529.668 -19.1168 523.087C-19.1947 523.232 -19.33 523.344 -19.4953 523.401C-19.6606 523.458 -19.8434 523.455 -20.0064 523.393C-26.219 520.931 -30.7081 527.332 -37.278 526.324C-41.8886 525.614 -42.1484 522.499 -45.0516 519.645C-47.6503 517.09 -51.9694 516.452 -55.4731 515.432C-57.0405 514.977 -59.3244 514.575 -60.4956 513.408C-60.6886 513.21 -60.861 512.995 -61.0108 512.768C-61.0927 512.754 -61.1691 512.721 -61.2322 512.671C-61.2952 512.621 -61.3427 512.557 -61.3698 512.485C-63.0598 508.301 -67.5781 503.499 -67.1025 498.795C-66.9513 497.32 -66.0295 495.983 -64.2405 495.877C-61.6435 495.724 -62.386 495.002 -61.0972 492.974C-60.5642 492.1 -59.9409 491.274 -59.2359 490.508C-59.3055 489.928 -59.386 489.346 -59.509 488.763C-59.537 488.661 -59.5385 488.554 -59.5135 488.451C-59.4885 488.348 -59.4375 488.251 -59.3648 488.169C-59.292 488.087 -59.1993 488.022 -59.094 487.978C-58.9888 487.934 -58.8739 487.914 -58.7583 487.917C-57.7054 488.012 -56.6472 488.05 -55.5894 488.031C-54.6354 485.582 -52.3124 484.011 -49.684 483.059C-47.1383 482.14 -43.3131 480.942 -40.5347 481.571C-40.2305 481.316 -39.9209 481.07 -39.6042 480.839C-39.5153 480.762 -39.4057 480.707 -39.2866 480.681C-39.1674 480.655 -39.0429 480.658 -38.9254 480.69C-35.9044 481.889 -31.6895 480.811 -28.9202 482.269L-28.8227 482.212C-28.7732 482.148 -28.7103 482.093 -28.6375 482.051C-28.5646 482.01 -28.4835 481.982 -28.3987 481.969C-28.3139 481.957 -28.2272 481.96 -28.1437 481.978C-28.0602 481.996 -27.9816 482.03 -27.9124 482.076C-24.4798 484.453 -21.2333 487.051 -17.8218 489.447C-17.686 489.532 -17.5818 489.652 -17.5231 489.792C-17.4645 489.931 -17.4542 490.084 -17.4937 490.23C-19.4947 500.762 -16.6593 511.47 -18.8756 521.986C-10.9453 526.522 -5.77652 535.542 -2.31234 543.09C-2.1735 543.387 -2.05555 543.69 -1.92127 543.989C-4.84517 530.228 -16.3878 497.959 -5.74927 497.523C1.30655 497.234 -0.11553 515.828 -0.0849393 519.367C-0.0326165 525.937 -0.211097 532.504 -0.165055 539.069C-0.134127 542.823 -0.643835 547.498 0.957988 551.059C0.972392 551.102 0.981921 551.145 0.986427 551.189C3.63653 558.585 5.60804 566.169 6.88056 573.863L7.0509 574.914C7.12299 575.107 7.2023 575.302 7.2689 575.501C7.2985 575.58 7.30946 575.664 7.30105 575.747C7.29265 575.83 7.26506 575.91 7.22013 575.983C7.44191 577.43 7.64438 578.877 7.82753 580.325C8.12281 574.056 8.79264 567.806 9.83402 561.603C6.6493 552.685 3.40594 541.947 10.851 534.204C10.9627 534.111 11.106 534.055 11.2573 534.045C11.4086 534.036 11.5589 534.074 11.6835 534.153C13.5378 535.562 15.0988 537.265 16.2917 539.18C16.5455 537.832 17.1216 536.409 17.381 535.46C18.0618 532.995 18.7357 530.014 20.474 527.938C22.0665 526.035 25.4395 525.123 26.5368 528.061C28.1106 532.274 26.4807 537.482 25.2665 541.598C24.0843 545.616 22.8029 549.752 20.8682 553.542C21.5786 559.293 21.457 565.134 21.3512 569.8C21.203 576.248 20.9587 583.113 19.9424 589.805C23.5684 579.269 26.54 568.486 29.3895 557.765C30.4473 553.791 31.5894 549.805 32.7134 545.815C33.209 537.502 27.8573 528.407 24.1096 521.204C21.9238 517 19.369 513.008 17.0885 508.852C15.1266 505.268 4.62657 488.175 12.2992 485.564C22.4297 482.113 26.1447 498.911 27.683 504.369C30.9474 515.993 33.5712 528.158 34.2783 540.187C36.8579 530.708 39.0871 521.16 39.6684 511.399C40.5906 495.772 37.5291 481.277 33.3505 466.372C33.3347 466.457 33.2995 466.537 33.2472 466.608C33.1949 466.678 33.1267 466.738 33.0471 466.783C32.9675 466.828 32.8784 466.857 32.7856 466.869C32.6928 466.88 32.5984 466.873 32.5088 466.848C22.677 464.405 15.1406 456.977 8.10393 450.621C3.62509 446.586 -3.90336 440.413 -1.46199 433.944C-1.46073 433.833 -1.42057 433.726 -1.34741 433.637C-1.27425 433.549 -1.17195 433.484 -1.05555 433.453L-0.235492 433.215C-0.312972 433.213 -0.389062 433.196 -0.458394 433.164C-0.52773 433.132 -0.588619 433.087 -0.636771 433.032C-0.684926 432.976 -0.719173 432.912 -0.737099 432.843C-0.755025 432.774 -0.756192 432.703 -0.740518 432.633C0.174822 429.752 1.19743 425.847 4.33844 424.303C6.73054 423.111 9.44411 424.941 11.3432 426.502C11.3404 423.811 11.3764 420.875 12.3884 418.426C12.5725 417.984 13.251 418.025 13.5226 418.344C14.7414 419.87 16.8638 420.393 18.5685 421.366C22.7091 416.118 32.377 417.582 38.5138 418.296C38.5756 418.301 38.635 418.32 38.6866 418.352C38.7383 418.383 38.7806 418.426 38.8096 418.476C39.2953 418.355 39.7771 418.248 40.2623 418.17C40.4258 418.131 40.5994 418.15 40.7481 418.224C40.8968 418.297 41.0095 418.419 41.0636 418.565C41.9978 420.939 44.8524 421.64 46.3025 423.612C46.3161 423.635 46.3273 423.659 46.3361 423.684C46.4553 423.712 46.5749 423.698 46.7104 423.723C46.7976 423.747 46.8788 423.786 46.9494 423.838C47.0199 423.891 47.0783 423.955 47.1213 424.028C47.1643 424.101 47.1909 424.182 47.1997 424.264C47.2085 424.347 47.1992 424.43 47.1725 424.509C45.3771 429.364 46.714 433.556 52.1085 435.587C52.2538 435.649 52.367 435.759 52.4239 435.896C52.4808 436.033 52.4767 436.184 52.4127 436.318C49.6526 442.134 45.791 447.701 42.2143 453.121C40.1562 456.276 38.0599 459.457 35.6375 462.402C35.1297 463.079 34.5819 463.731 33.9965 464.353C39.6793 478.218 42.0551 493.817 41.4373 508.528C41.3081 511.533 41.0317 514.513 40.645 517.474C42.5512 512.744 42.7946 507.016 43.5737 502.208C44.6662 495.425 45.7093 488.599 47.4098 481.915C48.5503 477.421 49.7458 471.466 53.4456 468.019C55.294 466.3 58.578 465.578 60.4659 467.746C62.9537 470.596 61.7914 475.341 60.9578 478.53C59.4683 484.218 57.1678 489.735 54.6787 495.115C50.2319 504.73 45.1263 514.072 39.7408 523.274C38.3441 531.136 36.2832 538.893 34.1436 546.641C34.1205 546.844 34.1047 547.048 34.0744 547.248C34.0554 547.386 33.9864 547.513 33.8785 547.61C32.9056 551.111 31.9282 554.615 30.9931 558.132C30.1084 561.464 29.2062 564.799 28.2864 568.137C29.2839 565.689 30.3057 563.25 31.3518 560.82C34.8566 552.734 38.7844 542.897 46.6835 537.481C46.7621 537.418 46.8549 537.373 46.9553 537.347C47.0556 537.321 47.161 537.315 47.2638 537.331C47.3667 537.347 47.4644 537.383 47.55 537.438C47.6357 537.492 47.707 537.563 47.759 537.645C53.6771 545.527 45.2261 557.063 40.6531 563.676C36.5383 569.63 31.9784 575.306 27.7691 581.199C25.4815 584.401 23.0225 587.717 21.1983 591.256C17.9464 600.616 14.1681 609.782 9.47013 618.534C10.6369 617.474 11.7849 616.398 12.8961 615.289C12.8896 615.21 12.9014 615.13 12.9308 615.055C12.9602 614.98 13.0064 614.912 13.0665 614.854C13.916 614 14.7812 613.199 15.6601 612.391C17.189 610.718 18.6205 608.974 19.9489 607.164C28.6848 595.158 36.497 582.618 44.6925 570.289C46.9772 566.854 49.2189 563.389 51.4173 559.896C51.9497 558.261 52.6769 556.684 53.5857 555.193C55.3999 549.529 56.5304 544.058 56.6126 537.841C56.6747 532.221 56.1504 526.67 55.9789 521.058C55.8526 516.098 54.5001 501.115 63.1665 500.9C69.4514 500.745 66.1823 516.581 65.7727 519.245C64.1064 530.117 60.7295 540.307 56.7277 550.525C57.2535 549.805 57.7818 549.103 58.2789 548.429C60.8724 543.845 63.3019 539.187 65.5043 534.433C70.8636 522.851 74.5648 510.999 77.4674 498.755C77.4209 498.683 77.4015 498.599 77.4121 498.516C77.4451 498.239 77.4662 497.962 77.4864 497.689C77.4118 497.617 77.3606 497.527 77.3387 497.43C77.3167 497.332 77.3249 497.231 77.3622 497.138C74.2901 493.431 72.8722 489.766 72.5516 484.622C72.1276 477.692 71.4648 469.924 76.5493 464.127C78.6267 461.755 79.1762 462.249 77.1818 460.21C76.6305 459.642 76.0223 459.057 75.7289 458.329C75.2928 457.25 75.2797 456.053 76.2003 455.152C79.0463 452.371 84.6718 452.013 88.7431 452.289C91.7256 449.773 95.7183 448.811 99.4557 447.528C99.5908 447.465 99.7451 447.443 99.895 447.467C100.045 447.49 100.182 447.558 100.286 447.659C102.745 450.544 105.11 456.266 110.354 454.934C110.503 454.893 110.662 454.9 110.807 454.951C110.951 455.003 111.073 455.097 111.152 455.219C113.531 459.775 117.63 463.3 114.891 468.191C115.868 469.132 117.209 469.686 118.627 469.736C118.789 469.748 118.941 469.807 119.062 469.905C119.183 470.003 119.265 470.135 119.298 470.279C119.751 472.38 120.402 476.529 122.331 477.999C122.45 478.084 122.53 478.207 122.554 478.343C122.579 478.479 122.547 478.619 122.464 478.735C123.58 479.171 124.643 479.712 125.636 480.349L125.623 480.314Z" fill="#DC9789"/>
</g>
<defs>
<clipPath id="clip0_625_13591">
<rect width="360" height="504" fill="white"/>
</clipPath>
</defs>
</svg>
