<svg width="360" height="1128" viewBox="0 0 360 1128" fill="none" xmlns="http://www.w3.org/2000/svg">
<g clip-path="url(#clip0_625_13498)">
<path d="M270.089 -44.6387L258.283 -24.1675L298.951 54.625L315.373 59.9911L325.049 111.189L400.098 149.786L428.627 126.784L479.147 110.87L506.355 84.0082L514.853 77.8556L518.997 62.7461L501.312 46.1579L462.379 35.0258L416.789 -13.6151L270.089 -44.6387Z" fill="#FFF6DE"/>
<path d="M-51.821 453.594L-41.9113 455.202L-31.0847 468.294L23.7447 508.225L31.5511 543.186L62.6511 569.351L87.176 595.476L83.7469 605.844L58.9928 623.65L32.9623 627.884L-3.31499 645.708L-41.9652 659.801L-70.3102 678.228L-76.8988 671.518L-81.393 637.492L-95.325 610.725L-100.754 572.371C-100.754 572.371 -114.785 551.626 -115.832 549.064C-116.879 546.502 -120.385 530.292 -120.385 530.292L-116.07 522.027L-101.621 521.402L-76.9662 485.341L-66.3598 480.914L-51.8255 453.594H-51.821Z" fill="#FFF6DE"/>
<path d="M355.367 396.387L361.731 390.445L401.406 401.168L431.814 408.135L454.285 417.954L466.77 433.477L497.052 441.536L535.904 467.975L536.857 478.864L521.208 505.034L498.998 519.254L472.774 550.012L442.887 578.29L424.182 606.451L415.477 602.909L397.824 573.468L374.414 554.43L354.19 521.384C354.19 521.384 333.067 507.902 331.098 505.978C329.13 504.055 324.806 492.626 324.806 492.626L334.141 476.869L344.99 446.003L341.48 432.071L349.156 418.008L355.354 396.436L355.367 396.387Z" fill="#FFF6DE"/>
<path d="M15.4977 45.0905L22.3559 50.4566L17.9381 91.3135L15.7899 122.436L9.58336 146.165L-3.8049 160.893L-7.05423 192.056L-27.0984 234.562L-37.7092 237.2L-65.9958 225.816L-83.5008 206.087L-117.962 184.964L-150.55 159.846L-181.286 145.761L-179.142 136.611L-152.806 114.589L-137.647 88.5001L-108.147 63.3999C-108.147 63.3999 -98.1205 40.448 -96.5115 38.2009C-94.9026 35.9538 -84.3053 29.9045 -84.3053 29.9045L-67.2857 36.6728L-35.1071 42.5827L-21.8806 36.947L-6.79805 42.34L15.4977 45.0995V45.0905Z" fill="#FFF6DE"/>
<path d="M-48.5358 -13.3117L-71.5866 -10.0534L-108.511 70.2762L-102.606 86.5632L-137.004 125.739L-121.252 208.329L-85.685 216.621L-42.0462 246.611C-23.9614 248.948 -10.9192 249.55 5.83969 254.386L20.0549 248.436L22.2121 224.522L7.02167 186.986L17.246 121.119L-48.5358 -13.3117ZM-71.8068 -10.5792L-48.2167 -13.9094C-26.3703 31.0462 -4.52846 76.3389 17.8078 121.029L7.56546 186.915L22.7739 224.432C22.0054 232.553 21.2863 240.692 20.5717 248.813C15.6775 250.867 10.7833 252.93 5.87566 254.957L-4.27229 252.031L-42.2394 247.128L-85.9007 217.125L-121.724 208.783C-127.063 181.066 -132.353 153.332 -137.593 125.582L-103.23 86.4464L-109.1 70.2672C-96.8576 43.3019 -84.4041 16.3366 -71.9552 -10.5433H-71.8068V-10.5792Z" fill="#DC9789"/>
<path d="M387.51 411.824L365.717 420.013L347.125 506.45L356.428 521.065L331.359 566.776L364.679 643.973L401.199 644.328L450.307 664.102C468.464 662.453 481.317 660.21 498.737 661.289L511.321 652.404L508.233 628.585L485.232 595.247L480.926 528.732L387.51 411.824ZM365.385 419.554L387.694 411.173C418.704 450.313 449.921 489.857 481.461 528.548L485.767 595.089L508.759 628.409C509.802 636.499 510.835 644.589 511.905 652.678L498.872 661.869L488.342 661.226L450.217 664.691L401.082 644.885L364.311 644.526C353.036 618.672 341.849 592.755 330.748 566.776L355.785 521.11L346.54 506.576C352.724 477.588 359.021 448.6 365.241 419.631L365.38 419.581L365.385 419.554Z" fill="#DC9789"/>
<path d="M198.758 567.694L197.104 544.486L119.53 502.083L102.874 506.843L66.179 469.81L-17.3055 479.77L-28.0377 514.685L-60.9668 556.144C-64.5621 574.022 -66.0587 586.988 -72.045 603.374L-67.1014 617.967L-43.4079 621.787L-4.91045 609.203L60.0894 623.993L198.758 567.69V567.694ZM197.644 544.289L199.334 568.054C152.989 586.987 106.589 605.825 60.1343 624.569L-4.88348 609.774L-43.3629 622.357C-51.4076 621.149 -59.4972 619.787 -67.5328 618.47C-69.2496 613.442 -70.9559 608.406 -72.6517 603.36L-69.0159 593.473L-61.4926 555.929L-28.532 514.456L-17.7459 479.302C10.295 475.982 38.3299 472.63 66.3588 469.244L103.014 506.236L119.575 501.504C145.466 515.885 171.595 530.019 197.617 544.163V544.311L197.644 544.289Z" fill="#DC9789"/>
<path d="M497.053 -20.0666L495.403 -43.2882L417.829 -85.6956L401.164 -80.9362L364.469 -117.969L280.989 -107.982L270.257 -73.0669L237.314 -31.6212C233.719 -13.7388 232.222 -0.777451 226.236 15.6129L231.18 30.2012L254.887 34.0168L293.388 21.433L358.384 36.2324L497.053 -20.0666ZM495.938 -43.477L497.628 -19.7071C451.296 -0.771454 404.897 18.0668 358.433 36.8077L293.415 22.0217L254.931 34.6055C246.887 33.3921 238.797 32.0348 230.766 30.718C229.043 25.7025 227.34 20.6734 225.656 15.6309L229.278 5.71669L236.802 -31.828L269.767 -73.3051L280.553 -108.459C308.591 -111.776 336.626 -115.128 364.658 -118.517L401.308 -81.5205L417.892 -86.2888C443.783 -71.9074 469.926 -57.7641 495.929 -43.6253V-43.477H495.938Z" fill="#DC9789"/>
<path d="M64.8172 487.21C64.9566 485.192 59.5365 485.413 58.8894 485.44C55.3481 485.738 51.9263 486.864 48.8987 488.725C36.9037 496.01 28.7332 508.221 20.8728 519.627C27.5692 515.474 30.832 507.852 37.5014 503.61C37.5684 503.569 37.6482 503.555 37.7252 503.57C37.8021 503.585 37.8707 503.628 37.9173 503.691C37.964 503.754 37.9855 503.832 37.9776 503.91C37.9696 503.988 37.9328 504.061 37.8744 504.113C32.387 508.98 28.6028 515.677 22.5357 519.717C29.0613 517.164 33.6588 512.005 39.5238 508.149C39.8024 507.965 40.144 508.36 39.8968 508.598C34.3105 514.05 28.122 519.712 20.2751 521.33C20.2089 521.347 20.1392 521.346 20.074 521.325C20.0089 521.304 19.9508 521.266 19.9065 521.213L19.7493 521.285C19.6639 521.416 19.574 521.542 19.4886 521.663C24.9041 522.261 29.3129 518.391 34.5667 517.798C34.9262 517.762 34.9756 518.247 34.688 518.382C30.405 520.413 25.5378 522.876 20.6706 522.571C21.2413 522.962 21.8166 523.353 22.3739 523.757C24.3378 525.177 29.25 521.613 30.6342 520.8C33.4656 519.124 36.6565 517.011 40.0271 516.778C43.4787 516.54 46.5887 517.771 49.9953 517.901C54.1191 518.034 58.1593 516.719 61.4151 514.185C63.9768 512.095 63.2712 509.133 63.406 506.203C63.5993 502.077 64.0937 497.929 64.3768 493.803L64.8262 487.215L64.8172 487.21ZM7.46657 475.166C1.23309 485.309 3.61952 495.295 7.25084 505.834C9.04852 511.101 11.2147 515.011 14.891 518.346C12.8192 511.713 8.79236 505.672 8.28452 498.697C8.26962 498.612 8.28943 498.523 8.33957 498.452C8.38972 498.381 8.46611 498.333 8.55193 498.318C8.63774 498.303 8.72597 498.323 8.79718 498.373C8.86839 498.423 8.91678 498.499 8.93169 498.585C10.8103 504.576 14.127 510.409 15.8483 516.522C15.8483 516.279 15.8752 516.036 15.8842 515.793C13.9158 509.075 11.6597 502.338 11.7361 495.273C11.7361 495.213 11.7598 495.156 11.8019 495.114C11.844 495.072 11.9012 495.048 11.9608 495.048C12.0204 495.048 12.0775 495.072 12.1197 495.114C12.1618 495.156 12.1855 495.213 12.1855 495.273C12.9136 501.241 14.4326 507.007 15.9427 512.8C15.8887 505.866 14.9404 498.927 16.0505 492.06C17.2595 484.581 21.3537 478.856 25.9378 473.018C26.913 471.777 28.1849 469.872 29.6949 468.074C27.6995 467.687 26.4906 466.348 24.9895 464.402C22.293 460.892 18.1538 461.09 14.1764 461.966C10.7563 462.721 7.13849 463.764 4.23973 465.827C-0.645493 469.278 2.48248 472.209 6.93625 473.97C7.05954 474.006 7.1734 474.068 7.26955 474.153C7.36569 474.238 7.44171 474.343 7.49208 474.461C7.54243 474.579 7.56589 474.707 7.5607 474.835C7.55551 474.963 7.5218 475.088 7.46207 475.202L7.46657 475.166ZM33.0836 458.919C31.6589 458.065 25.7131 452.178 24.4861 453.05C21.3941 455.234 18.3875 457.216 15.8438 459.962C18.1955 459.623 20.5909 459.746 22.8952 460.326C26.585 461.301 26.94 465.719 30.7691 466.762C33.151 464.164 35.9824 462.119 39.0025 463.049C43.0473 464.303 45.0607 468.757 47.9549 471.463C48.7684 466.874 45.7078 464.546 42.6608 461.629C41.8383 460.847 40.5979 458.852 39.2272 459.328C37.1553 460.047 35.0296 460.088 33.0836 458.919ZM54.4266 476.271C53.9457 475.256 50.6964 474.999 48.701 474.217C48.5794 474.251 48.4523 474.261 48.3271 474.245C48.2018 474.229 48.0811 474.188 47.9718 474.125C47.8626 474.062 47.767 473.977 47.6908 473.877C47.6146 473.776 47.5593 473.661 47.528 473.539C45.1685 471.346 43.6989 468.249 41.2361 466.195C36.7419 462.438 33.3128 466.645 30.45 470.006C24.3154 477.197 17.7403 485.165 17.3853 495.053C17.1426 501.825 18.8055 509.353 17.8572 516.252C20.5043 507.659 22.248 498.882 24.6524 490.185C24.7333 489.884 25.2502 489.911 25.2187 490.244C24.2659 500.45 21.0571 510.814 17.4168 520.355C17.5381 520.445 17.6684 520.53 17.7943 520.62C21.3312 512.742 23.8165 504.333 28.104 496.832C28.1353 496.784 28.1832 496.748 28.2389 496.732C28.2945 496.716 28.354 496.721 28.4063 496.746C28.4586 496.771 28.5001 496.814 28.523 496.867C28.546 496.92 28.5488 496.98 28.5309 497.035C25.6951 503.776 23.2278 510.652 20.1537 517.259C28.9579 504.153 42.6787 483.251 59.204 483.507C57.0198 481.822 55.2805 478.047 54.4131 476.213L54.4266 476.271ZM21.9649 566.039C18.3312 574.172 15.1093 582.484 12.3113 590.941C11.9113 592.784 11.5024 594.631 11.0754 596.465C12.9621 592.404 15.1011 588.465 17.4797 584.672C23.2188 575.234 28.9669 565.711 34.8947 556.408C35.097 556.093 35.515 556.435 35.4071 556.736C32.2117 565.926 25.4344 574.146 20.3605 582.353C15.6865 589.921 11.2642 597.633 8.90921 606.199C10.2575 603.952 11.6642 601.705 13.0079 599.539C18.0235 591.422 23.3042 583.467 28.4321 575.418C33.3353 567.715 38.2834 559.985 42.5079 551.891C44.1978 548.642 50.0852 539.433 47.3437 535.537C40.926 526.449 23.439 562.74 21.9649 566.039ZM1.08029 531.618C-9.49908 530.674 1.48927 562.547 2.87798 566.762C4.39702 571.405 5.82619 576.2 6.92278 581.04C6.53748 576.032 5.81071 571.056 4.74757 566.147C3.42178 560.304 1.40837 554.628 -0.0207977 548.799C-0.13765 548.35 0.554474 548.048 0.684799 548.525C2.38361 554.722 4.7296 560.704 6.05539 567.005C7.30716 572.846 8.15111 578.767 8.58113 584.726C9.07999 576.16 9.30919 567.603 8.43282 558.947C7.98611 553.758 7.27812 548.595 6.31155 543.478C5.80371 540.993 4.59027 531.95 1.08029 531.64V531.618ZM10.4912 625.722C3.61053 641.317 -3.92625 656.642 -10.6316 672.318C-11.1889 673.972 -11.7687 675.621 -12.3574 677.262C-8.22273 668.781 -2.94652 660.943 2.22183 653.038C7.29579 645.272 11.5878 637.124 16.4235 629.218C16.4583 629.159 16.5136 629.114 16.579 629.092C16.6445 629.071 16.7156 629.074 16.779 629.101C16.8424 629.128 16.8938 629.177 16.9235 629.239C16.9532 629.301 16.9592 629.372 16.9404 629.439C14.5899 638.13 8.19913 646.225 3.30942 653.649C-1.08142 660.323 -5.64754 666.965 -9.68784 673.873C-2.76225 664.305 5.0352 655.253 12.3338 646.157C17.0797 640.238 21.893 634.315 25.9782 627.915C29.0613 623.088 34.0139 615.902 32.8364 609.781C32.3465 607.237 29.8432 602.204 26.4097 603.188C23.9199 603.898 21.9964 605.916 20.4414 607.907C16.2707 613.255 13.2236 619.502 10.5002 625.677L10.4912 625.722ZM-28.6085 684.398C-27.9119 690.538 -27.4984 696.708 -27.2198 702.888C-26.9951 702.546 -26.7703 702.195 -26.5591 701.849C-24.8992 694.73 -23.6047 687.529 -22.6806 680.277C-23.2559 669.194 -24.5547 657.941 -28.5546 647.505C-30.146 643.466 -32.0545 639.559 -34.2622 635.82C-34.3611 644.202 -34.2622 652.391 -33.5521 660.768C-33.5474 660.802 -33.5474 660.837 -33.5521 660.871C-31.2021 668.546 -29.5476 676.418 -28.6085 684.389V684.398ZM-49.8931 665.891C-41.1159 673.374 -34.8914 682.425 -30.4331 692.722C-34.9813 677.796 -46.3921 667.01 -56.8726 655.914C-57.3535 655.406 -56.5355 654.705 -56.0501 655.199C-50.3155 661.114 -43.718 667.257 -38.4508 674.143C-41.8027 668.183 -45.7154 662.556 -50.1358 657.339C-54.0862 652.687 -58.1849 648.049 -62.7645 643.995C-63.8611 643.025 -76.6741 633.578 -74.5124 640.989C-72.9529 646.35 -67.6093 650.719 -63.5959 654.296C-59.1377 658.282 -54.4637 662.013 -49.9111 665.896L-49.8931 665.891ZM-35.0936 634.432C-36.6936 631.735 -38.3789 629.106 -40.0867 626.459C-39.0261 634.333 -37.498 642.067 -35.9385 649.829C-36.1699 644.814 -35.9835 639.789 -35.3813 634.805C-35.3733 634.721 -35.3422 634.642 -35.2913 634.575C-35.2405 634.508 -35.172 634.457 -35.0936 634.427V634.432ZM-49.4392 591.818C-50.7786 596.082 -50.7692 600.655 -49.4122 604.914C-46.8999 613.129 -42.1046 620.302 -37.4531 627.434C-28.7546 640.583 -23.3443 655.63 -21.6784 671.307C-21.5706 670.204 -21.4702 669.1 -21.3773 667.995L-21.4447 666.687C-21.5597 666.644 -21.6599 666.57 -21.7333 666.472C-21.8067 666.373 -21.8501 666.256 -21.8582 666.134C-23.0941 653.069 -26.9187 641.079 -32.8825 629.398C-36.7745 621.781 -41.6417 614.397 -44.3382 606.249C-44.536 605.646 -43.5967 605.417 -43.3855 606.006C-40.1721 615.044 -34.433 623.111 -30.3208 631.753C-27.4174 637.692 -25.0399 643.875 -23.2154 650.229C-24.1637 644.216 -25.3861 638.247 -26.8108 632.418C-28.4602 625.677 -30.3253 618.356 -33.0398 611.453C-33.1655 611.378 -33.2636 611.264 -33.3195 611.129C-33.3754 610.994 -33.386 610.844 -33.3499 610.702C-33.3478 610.693 -33.3478 610.684 -33.3499 610.675C-35.6464 604.99 -38.5452 599.638 -42.4147 595.22C-43.5428 593.93 -48.2572 588.186 -49.4347 591.804L-49.4392 591.818ZM-40.0328 584.546C-40.1227 587.18 -38.9407 592.442 -39.8485 595.332C-36.9767 598.784 -34.6622 602.972 -32.7611 607.39C-31.5072 599.35 -31.3455 590.393 -32.8106 582.645C-33.1252 581.005 -33.8937 575.877 -36.4059 575.854C-39.9429 575.787 -39.9654 582.213 -40.0462 584.532L-40.0328 584.546ZM-15.355 616.284C-15.8764 620.747 -16.173 625.272 -16.4426 629.866C-15.8179 627.169 -15.0944 624.473 -14.3169 621.776C-12.2361 614.72 -10.1507 607.215 -6.7711 600.653C-6.62729 600.375 -6.21831 600.608 -6.29471 600.887C-9.6429 613.291 -14.7438 624.841 -16.8876 637.348C-17.1348 641.231 -17.4493 645.105 -17.9302 648.935C-15.746 641.78 -12.681 634.746 -10.3665 628.032C-7.84073 620.724 -5.27454 613.345 -3.71504 605.754C-2.56902 600.204 -1.36008 593.719 -3.26562 588.2C-3.74847 586.584 -4.59041 585.098 -5.72844 583.854C-6.56886 583.009 -6.47449 583.777 -7.1711 584.937C-8.7981 587.688 -10.0825 590.628 -10.9957 593.692C-13.2428 601.04 -14.4787 608.653 -15.3685 616.271L-15.355 616.284ZM-66.1756 622.576C-59.0615 624.821 -52.5555 628.664 -47.1561 633.812C-50.8458 629.133 -55.2232 625.574 -60.6073 622.576C-64.0588 620.652 -67.7036 619.03 -70.9799 616.814C-71.3395 616.572 -70.9799 615.996 -70.5844 616.176C-63.0926 619.772 -53.484 623.551 -47.8437 630.288L-47.9875 629.996C-53.3177 622.284 -62.9578 616.657 -70.8811 612.212C-74.1798 610.365 -88.8579 601.426 -92.1791 606.729C-97.716 615.65 -71.0159 621.111 -66.1801 622.603L-66.1756 622.576ZM-80.4987 548.237C-87.7433 550.484 -77.4696 570.187 -68.5441 587.265C-71.717 579.881 -74.6517 572.403 -76.6112 564.843C-76.719 564.421 -75.991 564.228 -75.8696 564.646C-72.8001 575.432 -67.0205 585.283 -63.0162 595.741C-68.2025 575.517 -74.5124 546.377 -80.4987 548.237ZM-113.1 590.411C-107.707 594.28 -102.547 588.757 -98.6553 585.31C-102.669 586.905 -107.01 587.944 -110.938 589.566C-111.558 589.827 -111.895 588.865 -111.289 588.595C-109.041 587.589 -106.74 586.658 -104.408 585.782C-110.65 586.034 -117.055 584.052 -121.531 579.912C-121.926 579.544 -121.338 578.915 -120.911 579.216C-113.014 584.73 -106.138 584.213 -97.8059 583.045L-98.2104 582.829C-103.669 582.925 -109.115 582.258 -114.39 580.847C-114.51 580.808 -114.61 580.725 -114.672 580.615C-114.733 580.505 -114.75 580.376 -114.72 580.253C-114.69 580.131 -114.615 580.024 -114.509 579.955C-114.403 579.886 -114.276 579.86 -114.151 579.881C-110.048 580.96 -105.801 580.924 -101.59 581.135C-109.086 577.58 -117.135 574.978 -123.908 570.232C-126.672 568.362 -129.008 565.929 -130.762 563.091C-132.447 564.241 -134.771 564.637 -136.703 564.978C-138.317 565.266 -140.06 565.428 -141.589 566.039C-142.564 566.483 -143.456 567.091 -144.227 567.836C-144.029 567.797 -143.823 567.837 -143.655 567.948C-143.486 568.059 -143.369 568.232 -143.328 568.43C-142.51 571.8 -141.899 581.881 -137.611 582.537C-132.573 583.31 -127.436 582.87 -122.416 583.827C-118.277 584.613 -116.273 588.137 -113.109 590.402L-113.1 590.411ZM-145.907 574.65C-145.036 575.706 -144.146 576.753 -143.274 577.818C-144.128 574.672 -144.438 571.162 -144.977 568.83C-145.012 568.68 -145.003 568.524 -144.95 568.38C-145.215 568.511 -145.615 568.412 -145.575 568.039C-145.409 566.376 -144.092 565.342 -142.604 564.731C-143.53 561.855 -144.254 558.938 -145.197 556.08C-145.737 557.936 -146.271 559.675 -145.773 562.452C-145.755 562.663 -145.821 562.871 -145.957 563.033C-146.092 563.194 -146.286 563.296 -146.496 563.315C-154.496 564.169 -148.703 571.261 -145.907 574.641V574.65ZM-133.121 548.093C-136.555 550.098 -140.932 551.451 -144.761 552.161C-144.699 552.313 -144.631 552.471 -144.568 552.61C-144.544 552.644 -144.527 552.682 -144.519 552.722C-143.006 556.43 -141.87 560.28 -141.126 564.214C-140.941 564.165 -140.757 564.115 -140.573 564.075C-138.775 563.67 -136.919 563.441 -135.121 562.992C-133.892 562.629 -132.691 562.179 -131.526 561.643C-133.494 557.666 -133.962 553.109 -133.103 548.093H-133.121ZM-135.18 541.739C-137.971 543.622 -140.712 546.08 -141.427 549.464C-140.083 549.049 -138.763 548.561 -137.472 548.003C-135.912 547.329 -134.375 546.493 -132.726 546.111C-132.636 545.729 -132.551 545.347 -132.447 544.961C-132.357 544.748 -132.189 544.578 -131.978 544.486C-131.766 544.394 -131.527 544.387 -131.31 544.467C-130.47 544.741 -129.647 544.983 -128.834 545.199C-129.544 542.853 -128.991 540.498 -127.908 538.368C-130.295 539.532 -132.915 540.211 -135.18 541.739ZM-122.147 537.092C-124.803 537.303 -125.809 537.038 -126.874 539.972C-127.528 541.643 -127.834 543.429 -127.773 545.222C-127.77 545.299 -127.784 545.375 -127.814 545.446C-124.985 546.141 -122.043 546.245 -119.171 545.752C-118.187 542.516 -116.771 538.786 -114.677 535.919C-117.122 536.55 -119.622 536.942 -122.142 537.092H-122.147ZM-98.7002 544.871C-99.253 541.042 -100.556 541.028 -103.846 539.577C-106.677 538.327 -109.734 537.231 -112.385 535.59C-113.941 537.719 -115.215 540.039 -116.178 542.494C-116.358 542.912 -116.709 544.188 -117.212 545.276C-116.252 544.987 -115.314 544.628 -114.408 544.201C-114.231 544.126 -114.034 544.112 -113.849 544.16C-113.663 544.209 -113.499 544.319 -113.383 544.471C-106.111 556.839 -100.161 570.538 -90.5927 581.369C-90.559 581.334 -90.5288 581.297 -90.5028 581.256C-90.5918 581.261 -90.6791 581.23 -90.7455 581.171C-93.1274 578.708 -94.3948 574.429 -95.9992 571.396C-98.0351 567.558 -100.111 563.756 -102.111 559.882C-102.403 559.311 -101.59 558.731 -101.262 559.315C-98.9294 563.459 -96.525 567.562 -94.2644 571.746C-95.4902 568.78 -96.5407 565.744 -97.4104 562.655C-97.5542 562.111 -96.7318 561.828 -96.579 562.372C-95.2037 567.18 -92.4982 571.688 -90.7635 576.42C-92.1117 568.987 -94.5656 561.891 -96.5026 554.601C-97.4123 551.402 -98.1356 548.154 -98.6688 544.871H-98.7002ZM-93.3252 582.222L-93.1049 582.191C-95.9363 580.658 -98.4216 578.191 -100.709 576.07C-103.967 573.063 -107.077 569.913 -110.457 567.036C-110.907 566.672 -110.304 566.057 -109.873 566.398C-106.394 569.153 -103.158 572.182 -99.8373 575.126C-98.1789 576.596 -96.3632 577.926 -94.597 579.297C-100.889 571.283 -105.482 561.994 -110.394 553.14C-111.221 551.653 -113.248 545.905 -115.464 546.655C-117.839 547.476 -120.33 547.91 -122.843 547.941C-124.769 547.934 -126.684 547.659 -128.533 547.123C-131.912 546.192 -131.944 550.075 -131.939 552.691C-131.987 555.631 -131.322 558.539 -130.002 561.167C-129.903 561.159 -129.803 561.18 -129.715 561.228C-129.627 561.276 -129.555 561.348 -129.507 561.437C-129.46 561.525 -129.439 561.625 -129.447 561.724C-129.455 561.824 -129.492 561.919 -129.553 561.998C-124.124 571.275 -110.534 574.299 -100.511 579.485C-104.439 576.915 -108.039 573.674 -111.239 570.56C-111.63 570.178 -111.037 569.607 -110.641 569.971C-107.92 572.544 -104.992 574.889 -101.887 576.982C-99.0957 578.811 -96.0756 580.321 -93.3252 582.209V582.222ZM-43.8888 559.423C-38.6234 564.924 -33.7318 570.77 -29.2467 576.924C-28.2894 578.227 -27.2917 579.58 -26.3074 580.969C-28.8378 575.278 -31.8636 569.82 -35.3498 564.659C-40.1991 557.612 -45.6011 550.983 -50.747 544.156C-51.0391 543.765 -50.4369 543.37 -50.1358 543.707C-40.6979 555.05 -30.4466 567.171 -24.5187 580.982C-29.0227 570.162 -34.1071 559.593 -39.7496 549.32C-43.2416 542.903 -46.855 536.112 -51.8121 530.683C-53.2727 529.083 -55.1693 526.858 -57.4389 526.463C-59.9242 526.013 -64.4543 526.278 -64.3285 529.775C-64.1128 535.689 -58.9354 541.77 -55.4749 546.17C-51.8391 550.772 -47.9606 555.185 -43.8888 559.405V559.423ZM-22.1009 587.521C-21.948 587.786 -21.7997 588.051 -21.6514 588.321C-22.1398 587.006 -22.6432 585.687 -23.1615 584.366C-22.7795 585.409 -22.42 586.46 -22.0919 587.512L-22.1009 587.521ZM-20.065 561.387H-20.2178C-20.2178 561.549 -20.1818 561.715 -20.1594 561.877L-20.065 561.387ZM-19.6156 546.97C-19.4807 548.381 -19.2965 549.864 -19.1392 551.361C-18.1047 541.371 -17.6291 531.332 -17.7145 521.29C-17.7138 521.248 -17.6979 521.208 -17.6698 521.178C-17.6417 521.147 -17.6033 521.127 -17.5619 521.123C-17.5204 521.119 -17.4788 521.129 -17.4449 521.154C-17.4109 521.178 -17.3869 521.213 -17.3774 521.254C-16.1101 532.332 -17.2516 544.107 -18.865 555.226C-18.865 555.37 -18.865 555.513 -18.865 555.675C-16.9415 546.601 -14.9775 537.545 -13.5843 528.355C-12.3664 520.369 -11.2563 512.252 -11.3372 504.153C-11.3687 500.392 -10.9732 491.642 -15.2337 489.628C-26.1052 484.491 -22.5817 518.638 -22.1908 522.809C-21.4447 530.899 -20.3931 538.916 -19.638 546.983L-19.6156 546.97ZM-46.8864 494.307C-46.7437 494.309 -46.6041 494.349 -46.482 494.423L-46.819 493.826C-46.8865 493.772 -46.9449 493.709 -47.0123 493.655C-47.0977 493.736 -47.1786 493.826 -47.2685 493.898C-47.2993 494.038 -47.3607 494.17 -47.4482 494.284C-47.2595 494.284 -47.0752 494.307 -46.8864 494.307ZM-96.143 464.6C-95.7745 473.988 -83.9008 479.269 -76.6292 483.143C-67.8385 487.826 -58.9669 493.453 -48.8549 494.221L-48.8999 494.149L-48.9358 494.104C-51.6863 493.565 -54.1761 491.691 -56.4322 490.127C-60.0949 487.588 -63.7667 484.9 -68.3104 484.334C-69.0025 484.244 -68.971 483.17 -68.2564 483.233C-65.1457 483.562 -62.1591 484.631 -59.5466 486.352C-56.8996 488.028 -54.2255 489.615 -51.529 491.192C-55.2232 487.242 -59.5152 483.354 -63.8117 480.635C-67.8564 478.069 -72.7372 476.078 -76.1258 472.591C-81.6312 466.932 -77.8741 462.389 -76.1797 457.234C-76.1983 457.258 -76.2194 457.281 -76.2427 457.301L-76.4044 457.445C-76.5235 457.554 -76.6698 457.63 -76.8279 457.663C-76.9861 457.696 -77.1503 457.686 -77.3033 457.634C-79.1549 456.91 -81.9503 455.553 -83.6311 453.926C-86.3277 459.067 -90.9612 461.984 -96.143 464.6ZM-95.797 462.515C-95.8045 462.591 -95.8291 462.665 -95.8689 462.73C-91.4421 459.971 -87.2849 457.751 -84.885 452.762C-88.4804 450.866 -93.3162 449.23 -94.6644 454.438C-95.352 457.081 -95.4869 459.832 -95.797 462.528V462.515ZM-79.2493 443.706C-81.2177 443.257 -83.2941 442.776 -85.0109 441.828C-85.0513 445.198 -83.9233 448.821 -83.1278 452.003C-83.1278 452.003 -83.1008 452.03 -83.0918 452.043C-83.0828 452.057 -82.9885 452.164 -82.948 452.227C-82.4716 449.248 -81.6267 445.58 -79.2493 443.688V443.706ZM-58.8096 434.583C-65.4925 436.722 -73.4697 435.167 -77.2898 442.565C-77.2179 442.596 -77.1505 442.632 -77.0831 442.668C-73.281 441.527 -68.9935 442.421 -65.124 442.628C-64.9766 442.623 -64.8306 442.657 -64.7005 442.727C-64.5704 442.796 -64.4608 442.898 -64.3824 443.023C-64.1797 443.447 -63.9245 443.844 -63.6229 444.205C-63.5959 440.43 -61.596 437.086 -58.8096 434.596V434.583ZM-47.264 437.154C-49.4571 435.662 -52.0907 435.284 -53.8929 433.136C-58.7197 435.567 -61.241 439.594 -62.6207 444.753C-62.652 444.879 -62.731 444.987 -62.8409 445.055C-62.1847 445.688 -61.4522 446.254 -60.805 446.794C-60.5863 447.032 -60.452 447.335 -60.423 447.657H-60.3376C-60.3376 447.733 -60.3781 447.809 -60.396 447.886C-60.414 447.962 -60.396 448.003 -60.396 448.057C-59.686 448.209 -58.9804 448.367 -58.2658 448.506C-58.1715 448.528 -58.0828 448.569 -58.0053 448.627C-57.9279 448.685 -57.8636 448.759 -57.8164 448.843C-54.4907 444.551 -52.3649 438.956 -47.2505 437.158L-47.264 437.154ZM-35.4127 450.996C-35.7902 453.634 -43.3136 447.401 -43.6326 446.884C-44.6219 445.384 -45.2708 443.686 -45.5337 441.909C-45.6803 440.913 -45.742 439.908 -45.718 438.902C-46.5043 438.784 -47.3079 438.883 -48.0426 439.187C-48.7773 439.491 -49.4154 439.989 -49.8886 440.628C-52.5851 443.652 -54.2884 447.369 -56.8681 450.515C-56.9556 450.627 -57.0709 450.714 -57.2026 450.768C-57.3343 450.822 -57.4777 450.84 -57.6186 450.821C-56.9445 458.245 -49.4571 461.288 -47.0123 468.051C-45.664 471.746 -45.8842 474.842 -46.8011 478.662C-47.5022 481.593 -48.756 484.689 -48.9044 487.682C-48.8145 488.199 -48.7381 488.72 -48.6617 489.242L-48.1718 489.902C-48.0842 489.882 -47.9923 489.888 -47.9082 489.92C-47.8241 489.952 -47.7515 490.008 -47.6999 490.082L-47.592 490.23C-46.5494 481.903 -45.3449 472.941 -42.4372 465.211C-42.3338 464.932 -41.8574 464.919 -41.8709 465.27C-42.2349 473.516 -45.0169 481.795 -46.5988 489.988C-44.3517 484.145 -43.5158 478.091 -42.1585 471.984C-42.1422 471.915 -42.1019 471.854 -42.0448 471.813C-41.9877 471.771 -41.9176 471.751 -41.8472 471.757C-41.7768 471.762 -41.7106 471.793 -41.6605 471.842C-41.6105 471.892 -41.5799 471.958 -41.5743 472.029C-41.6013 473.395 -41.6973 474.758 -41.8619 476.114C-40.0013 469.822 -38.2665 463.476 -36.7295 457.095C-36.2486 455.099 -35.7048 453.077 -35.4127 451.041V450.996ZM-74.382 457.715C-76.4853 462.344 -79.7751 466.968 -74.8315 471.314C-70.8766 474.797 -65.7711 476.554 -61.7982 479.925C-57.7535 483.39 -53.9064 486.851 -50.4144 490.761C-50.4773 490.491 -50.5313 490.226 -50.5762 489.952C-52.2525 487.853 -53.7221 485.534 -55.1783 483.435C-56.8816 480.95 -59.5107 477.943 -60.0815 474.896C-60.1758 474.411 -59.5422 474.294 -59.268 474.582C-57.3085 476.676 -55.8389 479.444 -54.2255 481.934C-54.9792 479.234 -55.3707 476.446 -55.3895 473.642C-55.3778 473.52 -55.3209 473.406 -55.2299 473.323C-55.1389 473.241 -55.0203 473.195 -54.8974 473.195C-54.7744 473.195 -54.6559 473.241 -54.5649 473.323C-54.4739 473.406 -54.417 473.52 -54.4053 473.642C-54.2273 477.659 -53.1065 481.577 -51.1335 485.08C-52.0703 481.147 -52.7132 477.149 -53.057 473.121C-53.1289 472.442 -52.0952 472.258 -52.0009 472.95C-51.5514 476.28 -50.693 479.552 -49.9156 482.837C-48.5403 477.368 -46.2033 471.768 -49.7178 466.541C-52.2121 462.82 -55.776 459.975 -58.0141 456.074C-58.7027 454.898 -59.1503 453.596 -59.3309 452.245C-59.7084 448.353 -64.6476 448.65 -68.0362 448.722C-68.1935 448.722 -74.4405 448.654 -73.9416 450.582C-73.6668 451.438 -73.5066 452.327 -73.4652 453.225C-73.4492 454.769 -73.7553 456.3 -74.3641 457.719L-74.382 457.715ZM-76.8763 444.232C-77.4546 444.454 -77.9786 444.798 -78.4134 445.239C-80.4088 447.32 -81.2043 450.466 -81.9278 453.247C-80.3728 454.452 -78.0224 455.324 -76.5348 455.998C-76.3996 456.06 -76.2813 456.154 -76.1898 456.271C-76.0983 456.388 -76.0363 456.526 -76.0089 456.672C-75.3843 454.551 -75.164 452.322 -76.1258 449.863C-76.2405 449.658 -76.2705 449.417 -76.2091 449.19C-76.1478 448.963 -76.0001 448.769 -75.7977 448.65C-71.3529 446.551 -66.9666 446.807 -62.4544 447.648C-63.3968 446.892 -64.2705 446.054 -65.0655 445.144C-66.3868 443.67 -68.5351 444.07 -70.5934 443.931C-72.3417 443.814 -74.6023 443.531 -76.4359 444.093C-76.5566 444.201 -76.7146 444.257 -76.8763 444.25V444.232ZM66.0397 484.864C66.2355 484.919 66.4079 485.037 66.5304 485.199C66.653 485.362 66.719 485.56 66.7183 485.763C66.2689 491.767 66.2014 497.956 65.343 503.915C64.9565 506.58 65.7655 510.477 64.5206 512.98C61.7297 518.602 52.7458 520.261 47.2134 519.196C41.681 518.13 38.0317 518.373 33.0791 521.317C31.0432 522.526 28.9714 523.923 26.7872 524.813C22.1806 526.678 22.2301 525.685 18.2167 523.016C17.9695 522.854 17.7403 522.692 17.5022 522.53C19.3313 541.725 17.8527 560.947 14.4775 579.885C19.4212 566.183 25.4524 552.21 34.1397 540.885C36.4992 537.811 40.2339 532.795 44.6607 532.827C48.1617 532.862 49.5774 535.433 49.2583 538.647C48.6875 544.426 45.2135 550.264 42.4495 555.221C37.8744 563.468 32.7645 571.4 27.6411 579.328C22.5671 587.166 17.4212 594.973 12.6349 602.99C10.8732 605.943 8.96764 609.003 7.38568 612.19C7.37325 612.311 7.31546 612.424 7.22388 612.504C7.00366 612.954 6.79694 613.403 6.59021 613.853C5.58949 617.448 4.55283 621.027 3.48019 624.589C-0.200562 636.841 -3.45886 649.308 -7.19356 661.559C-3.06337 652.804 1.48027 644.229 4.96779 635.205C6.91827 630.158 8.96764 625.147 11.3361 620.275C13.8978 614.999 23.2278 594.815 31.5601 603.79C41.5911 614.608 24.4098 633.452 17.992 641.609C6.79243 655.802 -5.87675 669.603 -15.355 685.104C-18.0962 691.462 -21.2815 697.619 -24.8873 703.53C-25.2648 705.103 -25.6693 706.676 -26.0917 708.236L-27.7591 711.755L-29.2826 711.62L-30.4062 710.047L-29.8039 706.852L-28.9455 705.539C-28.9875 704.041 -29.0399 702.543 -29.1028 701.045C-32.869 689.989 -37.8935 680.102 -46.0955 671.635C-50.6301 666.92 -56.0636 663.024 -61.0252 658.763C-64.2027 656.035 -82.3907 642.081 -74.5079 636.692C-71.5911 634.692 -66.8677 638.405 -64.7779 640.072C-59.4523 644.297 -54.7648 649.33 -50.347 654.485C-41.9563 664.282 -34.3027 675.437 -30.0152 687.742C-30.0556 687.342 -30.0916 686.947 -30.1365 686.547C-31.8937 671.176 -36.0869 656.552 -42.217 642.373L-42.4462 641.865C-48.0729 634.315 -55.6367 627.83 -64.7195 624.841C-70.6968 622.873 -76.8988 621.592 -82.7682 619.286C-86.7187 617.736 -93.1454 615.277 -94.2195 610.487C-94.7498 608.15 -94.2195 605.188 -91.6668 604.249C-84.094 601.462 -72.9529 608.864 -67.0025 612.594C-62.5083 615.408 -55.8973 619.25 -51.1515 623.902C-53.3986 619.817 -55.785 615.812 -58.3826 611.965C-58.4991 611.974 -58.6143 611.937 -58.7041 611.863C-58.7938 611.788 -58.851 611.681 -58.8635 611.565C-58.8635 611.444 -58.886 611.313 -58.9085 611.179C-59.8073 609.88 -60.7062 608.59 -61.6409 607.323C-69.1732 597.148 -77.5954 589.584 -88.3815 583.427C-88.4241 583.635 -88.5444 583.82 -88.7181 583.942C-88.8918 584.065 -89.1057 584.117 -89.3163 584.088C-97.3744 582.834 -100.475 592.366 -108.466 593.076C-114.075 593.57 -115.414 589.674 -119.747 586.914C-123.625 584.443 -128.87 584.941 -133.292 584.703C-135.27 584.6 -138.065 584.78 -139.818 583.647C-140.109 583.452 -140.381 583.231 -140.631 582.986C-140.731 582.994 -140.831 582.974 -140.921 582.93C-141.011 582.886 -141.088 582.818 -141.144 582.735C-144.505 577.908 -151.368 573.153 -152.379 567.005C-152.694 565.077 -152.065 563.091 -150.015 562.412C-147.04 561.428 -148.146 560.731 -147.319 557.751C-146.989 556.474 -146.537 555.231 -145.97 554.039C-146.245 553.32 -146.532 552.601 -146.869 551.895C-146.936 551.773 -146.973 551.637 -146.978 551.498C-146.984 551.359 -146.956 551.22 -146.899 551.094C-146.841 550.967 -146.755 550.855 -146.647 550.767C-146.539 550.679 -146.412 550.618 -146.276 550.588C-145.017 550.389 -143.772 550.116 -142.546 549.77C-142.249 546.354 -140.065 543.644 -137.319 541.631C-134.658 539.685 -130.6 536.993 -127.153 536.952C-126.883 536.534 -126.605 536.125 -126.313 535.734C-126.235 535.609 -126.125 535.507 -125.995 535.437C-125.865 535.368 -125.719 535.334 -125.571 535.339C-121.652 535.95 -117.1 533.294 -113.387 534.314L-113.293 534.211C-113.257 534.114 -113.201 534.025 -113.13 533.95C-113.059 533.875 -112.974 533.815 -112.88 533.773C-112.785 533.731 -112.683 533.708 -112.58 533.706C-112.476 533.704 -112.373 533.723 -112.277 533.761C-107.486 535.752 -102.839 538.08 -98.0666 540.103C-97.8804 540.169 -97.719 540.29 -97.6041 540.451C-97.4891 540.612 -97.4263 540.804 -97.4239 541.002C-96.2509 555.05 -89.3837 567.854 -88.4669 581.948C-77.7168 585.328 -68.6924 595.269 -62.1443 603.849C-61.8836 604.186 -61.6454 604.536 -61.3893 604.878C-69.3755 588.204 -93.5634 550.529 -81.3121 546.741C-73.1866 544.228 -68.6564 568.389 -67.443 572.897C-65.1959 581.265 -63.2184 589.701 -60.9803 598.065C-59.695 602.846 -58.7332 608.967 -55.6816 613.026C-55.6508 613.075 -55.6252 613.128 -55.6052 613.183C-50.0563 621.816 -45.2354 630.896 -41.1923 640.328L-40.644 641.618C-40.4957 641.843 -40.3384 642.067 -40.1946 642.301C-40.1338 642.393 -40.0932 642.496 -40.0754 642.605C-40.0576 642.713 -40.063 642.824 -40.0912 642.93C-39.3512 644.71 -38.6336 646.496 -37.9385 648.287C-39.6806 640.197 -40.9799 632.017 -41.8305 623.785C-48.5089 613.372 -55.8614 600.653 -49.7627 588.51C-49.6637 588.356 -49.5154 588.241 -49.3423 588.183C-49.1691 588.125 -48.9814 588.128 -48.81 588.191C-46.1803 589.426 -43.7947 591.125 -41.7675 593.206C-41.9203 591.409 -41.7226 589.418 -41.7361 588.128C-41.763 584.775 -41.9698 580.766 -40.635 577.589C-39.4126 574.677 -35.7857 572.488 -33.5296 575.904C-30.2938 580.802 -30.4601 587.944 -30.505 593.566C-30.5455 599.053 -30.6623 604.72 -31.6556 610.145C-28.9141 617.268 -27.1119 624.76 -25.6827 630.746C-23.7098 639.02 -21.7099 647.856 -20.6672 656.705C-19.9481 642.157 -20.074 627.493 -20.3212 612.945C-20.411 607.552 -20.4065 602.118 -20.4245 596.685C-22.6132 585.926 -31.8758 575.944 -38.6396 567.89C-42.5855 563.189 -46.8909 558.87 -50.9312 554.259C-54.4098 550.282 -72.3327 531.658 -64.2611 525.995C-53.6053 518.512 -43.6866 538.822 -40.0777 545.32C-32.4061 559.163 -25.3007 573.89 -20.474 589.027C-20.6223 576.146 -21.202 563.284 -23.7727 550.651C-27.8984 530.427 -36.2891 512.859 -46.1179 495.107C-46.1083 495.219 -46.1227 495.332 -46.16 495.438C-46.1974 495.545 -46.2569 495.642 -46.3347 495.723C-46.4124 495.805 -46.5067 495.869 -46.6111 495.912C-46.7155 495.954 -46.8278 495.974 -46.9404 495.969C-59.2096 495.839 -70.4631 488.648 -80.7773 482.676C-87.3389 478.887 -98.1654 473.296 -97.4733 464.299C-97.5087 464.157 -97.4977 464.008 -97.4419 463.872C-97.3861 463.737 -97.2884 463.624 -97.1632 463.548L-96.2868 462.995C-96.3777 463.017 -96.4722 463.018 -96.5635 462.998C-96.6548 462.979 -96.7408 462.94 -96.8153 462.884C-96.8899 462.828 -96.9513 462.756 -96.995 462.673C-97.0388 462.591 -97.064 462.5 -97.0688 462.407C-96.961 458.452 -97.0688 453.158 -93.9229 450.232C-91.532 447.985 -87.7613 449.495 -85.0288 450.911C-85.9277 447.477 -86.8625 443.72 -86.4984 440.286C-86.431 439.666 -85.6266 439.513 -85.2041 439.837C-83.2761 441.414 -80.629 441.437 -78.319 442.16C-75.2404 434.206 -63.4881 433.136 -56.0996 432.183C-56.0259 432.171 -55.9503 432.177 -55.8797 432.202C-55.8091 432.226 -55.7456 432.267 -55.6951 432.322C-55.1693 432.021 -54.6435 431.738 -54.1041 431.491C-53.9266 431.392 -53.7179 431.363 -53.5203 431.412C-53.3227 431.46 -53.1507 431.582 -53.039 431.752C-51.1604 434.498 -47.601 434.525 -45.2551 436.601C-45.2316 436.626 -45.2106 436.653 -45.1921 436.682C-45.0438 436.682 -44.909 436.628 -44.7427 436.619C-44.6333 436.622 -44.5257 436.647 -44.4261 436.693C-44.3265 436.738 -44.2369 436.803 -44.1625 436.883C-44.088 436.963 -44.0303 437.058 -43.9926 437.16C-43.9549 437.263 -43.9379 437.372 -43.9427 437.482C-44.4191 444.223 -41.4664 449.167 -34.5049 450.12C-34.3151 450.154 -34.1463 450.261 -34.0346 450.418C-33.9228 450.575 -33.8771 450.77 -33.9072 450.96C-35.188 459.22 -37.8351 467.499 -40.1991 475.503C-41.5473 480.154 -42.9315 484.851 -44.7742 489.345C-45.1406 490.363 -45.5622 491.361 -46.037 492.334C-34.8015 508.302 -26.8423 527.487 -22.6671 546.448C-21.8177 550.322 -21.1481 554.21 -20.6133 558.106C-19.9661 551.491 -21.5885 544.107 -22.2806 537.734C-23.2649 528.746 -24.321 519.717 -24.5637 510.67C-24.73 504.589 -25.3187 496.626 -22.1548 491.102C-20.5728 488.347 -16.9865 486.428 -14.0652 488.621C-10.2182 491.502 -9.99345 497.911 -9.90356 502.234C-9.74626 509.946 -10.5912 517.686 -11.7012 525.308C-13.6832 538.93 -16.5235 552.403 -19.7369 565.783C-18.7482 576.241 -18.5684 586.766 -18.483 597.305C-18.4426 597.57 -18.3931 597.835 -18.3617 598.101C-18.3381 598.281 -18.3761 598.465 -18.4695 598.622C-18.4381 603.386 -18.4111 608.154 -18.3302 612.927C-18.2523 617.448 -18.1939 621.978 -18.1549 626.517C-17.8074 623.09 -17.4284 619.667 -17.0179 616.248C-15.6247 604.864 -14.3214 591.117 -6.91942 581.804C-6.84869 581.701 -6.75583 581.614 -6.64754 581.55C-6.53925 581.487 -6.4182 581.448 -6.29312 581.437C-6.16805 581.426 -6.04205 581.442 -5.92421 581.486C-5.80637 581.529 -5.6996 581.598 -5.6116 581.688C3.90715 589.948 -2.10161 607.237 -5.22958 617.066C-8.04297 625.915 -11.4675 634.544 -14.4113 643.344C-16.0112 648.126 -17.7729 653.105 -18.7212 658.175C-19.3953 671.109 -20.7481 683.953 -23.3098 696.551C-22.3031 694.843 -21.3234 693.122 -20.3976 691.369C-20.4315 691.27 -20.4442 691.164 -20.4349 691.06C-20.4256 690.955 -20.3945 690.854 -20.3436 690.762C-19.638 689.414 -18.8965 688.129 -18.1414 686.83C-16.9164 684.231 -15.8289 681.57 -14.8832 678.857C-8.69913 660.88 -3.76897 642.503 1.67802 624.279C3.19707 619.201 4.65619 614.098 6.05539 608.972C6.13159 606.723 6.4541 604.49 7.01715 602.312C7.24635 594.532 6.743 587.206 4.77003 579.247C2.97235 572.057 0.514008 565.131 -1.55333 558.021C-3.35101 551.729 -9.91255 533.02 0.114044 530.112C7.38568 528.004 8.8463 549.208 9.25526 552.731C10.9316 567.113 10.3878 581.144 9.12494 595.399C9.49796 594.321 9.87996 593.265 10.235 592.254C11.7316 585.616 13.0124 578.933 13.9967 572.196C16.3876 555.787 16.7561 539.536 16.064 523.029C15.9859 522.952 15.9354 522.851 15.9202 522.742C15.8663 522.377 15.7988 522.018 15.7314 521.663C15.6204 521.593 15.5309 521.494 15.473 521.377C15.415 521.259 15.3909 521.128 15.4034 520.998C10.59 517.2 7.71825 512.953 5.63293 506.486C2.83304 497.772 -0.524139 488.06 3.47122 479.116C5.10262 475.458 5.90707 475.921 2.90494 473.925C2.07352 473.368 1.17018 472.806 0.585922 471.966C-0.281464 470.721 -0.694931 469.197 0.0780792 467.768C2.46899 463.355 8.90471 461.189 13.7405 460.303C16.3786 456.187 20.711 453.746 24.6389 450.973C24.7752 450.851 24.9477 450.776 25.1302 450.761C25.3128 450.745 25.4953 450.79 25.6501 450.888C29.4747 453.823 34.1352 460.407 39.8024 457.113C39.9624 457.016 40.15 456.975 40.3356 456.997C40.5212 457.019 40.6941 457.103 40.8271 457.234C45.1146 462.326 51.0649 465.58 49.5009 472.653C50.9519 473.557 52.6989 473.857 54.3682 473.489C54.5599 473.456 54.7573 473.486 54.9308 473.574C55.1042 473.662 55.2443 473.805 55.3299 473.979C56.5569 476.523 58.6961 481.619 61.4331 482.909C61.6001 482.982 61.7338 483.115 61.8079 483.281C61.8819 483.447 61.8909 483.635 61.8331 483.808C63.2786 484.025 64.6974 484.393 66.0666 484.905L66.0397 484.864Z" fill="#DC9789"/>
<path d="M424.539 -35.2735C424.387 -36.9783 419.866 -36.0879 419.332 -35.9585C416.404 -35.2324 413.688 -33.8327 411.4 -31.8715C402.324 -24.1732 397.12 -12.8712 392.062 -2.27706C397.117 -6.64944 398.826 -13.4611 403.827 -17.8791C403.878 -17.9296 403.947 -17.9579 404.018 -17.9579C404.09 -17.9579 404.158 -17.9296 404.209 -17.8791C404.259 -17.8287 404.288 -17.7602 404.288 -17.6889C404.288 -17.6175 404.259 -17.5491 404.209 -17.4986C400.264 -12.719 397.998 -6.61519 393.45 -2.42546C398.578 -5.43552 401.737 -10.3635 406.135 -14.3744C406.341 -14.5646 406.681 -14.2792 406.517 -14.0509C402.565 -8.72338 398.124 -3.18274 391.779 -0.777733C391.726 -0.755554 391.668 -0.748093 391.611 -0.756126C391.554 -0.764168 391.5 -0.787399 391.455 -0.823395L391.333 -0.743484L391.165 -0.393394C395.785 -0.621712 398.959 -4.44612 403.282 -5.64482C403.583 -5.72473 403.69 -5.32517 403.465 -5.17295C400.138 -2.88592 396.388 -0.222153 392.275 0.207855C392.809 0.459015 393.34 0.706367 393.866 0.968933C395.701 1.88984 399.341 -1.74811 400.39 -2.61573C402.538 -4.39285 404.93 -6.58855 407.726 -7.23547C410.588 -7.89761 413.357 -7.28494 416.23 -7.61601C419.703 -8.06412 422.909 -9.70906 425.295 -12.2662C427.16 -14.3553 426.172 -16.7375 425.89 -19.2072C425.508 -22.6815 425.356 -26.2167 425.039 -29.7025C424.871 -31.5595 424.705 -33.4165 424.539 -35.2735ZM374.852 -37.6443C370.991 -28.3249 374.344 -20.2994 378.793 -11.9732C381.021 -7.81008 383.371 -4.83047 386.881 -2.53582C384.264 -7.80247 380.067 -12.3157 378.701 -18.077C378.677 -18.1466 378.681 -18.2231 378.714 -18.2894C378.746 -18.3558 378.803 -18.4067 378.873 -18.4309C378.943 -18.4551 379.019 -18.4507 379.086 -18.4186C379.152 -18.3865 379.203 -18.3293 379.228 -18.2597C381.605 -13.5029 385.175 -9.06967 387.438 -4.17975C387.415 -4.38524 387.396 -4.59453 387.369 -4.79622C384.817 -10.1504 382.028 -15.4817 381.135 -21.3953C381.132 -21.4405 381.145 -21.4853 381.173 -21.5212C381.2 -21.5571 381.241 -21.5815 381.285 -21.5895C381.33 -21.5976 381.376 -21.5888 381.415 -21.5649C381.453 -21.5409 381.481 -21.5036 381.494 -21.46C382.905 -16.5701 384.95 -11.9465 386.999 -7.31919C386.019 -13.111 384.29 -18.7848 384.298 -24.6755C384.298 -31.0876 386.969 -36.4228 390.021 -41.9215C390.673 -43.0898 391.489 -44.8479 392.504 -46.5755C390.776 -46.6288 389.586 -47.5878 388.063 -49.011C385.32 -51.5834 381.887 -50.8642 378.675 -49.597C375.909 -48.5049 373.017 -47.1425 370.865 -45.0305C367.233 -41.4915 370.247 -39.4595 374.23 -38.5842C374.338 -38.5718 374.442 -38.5354 374.534 -38.4778C374.626 -38.4202 374.704 -38.3427 374.762 -38.2511C374.82 -38.1596 374.857 -38.0562 374.87 -37.9485C374.883 -37.8409 374.871 -37.7317 374.837 -37.6291L374.852 -37.6443ZM394.16 -54.662C392.851 -55.1871 387.075 -59.3007 386.148 -58.4179C383.859 -56.1765 381.593 -54.1178 379.831 -51.4807C381.756 -52.0777 383.78 -52.2961 385.79 -52.1238C389.013 -51.8003 389.91 -48.1586 393.256 -47.7971C394.904 -50.2858 396.998 -52.3635 399.654 -51.983C403.217 -51.4807 405.502 -48.0254 408.291 -46.1493C408.356 -50.0955 405.479 -51.6291 402.53 -53.6612C401.737 -54.2053 400.428 -55.7084 399.345 -55.1262C397.704 -54.2472 395.911 -53.9275 394.141 -54.6429L394.16 -54.662ZM414.38 -43.0137C413.842 -43.8014 411.084 -43.5807 409.306 -43.965C409.209 -43.9204 409.104 -43.8953 408.997 -43.8913C408.891 -43.8872 408.784 -43.9043 408.684 -43.9414C408.584 -43.9786 408.493 -44.0351 408.415 -44.1077C408.337 -44.1803 408.274 -44.2676 408.23 -44.3646C405.941 -45.8868 404.312 -48.2727 401.977 -49.6617C397.704 -52.1999 395.396 -48.2271 393.454 -45.0305C389.28 -38.1809 384.84 -30.6538 385.87 -22.339C386.579 -16.631 388.983 -10.5728 389.113 -4.67825C390.177 -12.2167 390.459 -19.7856 391.31 -27.366C391.337 -27.6285 391.772 -27.6742 391.791 -27.3888C392.367 -18.7277 391.07 -9.63667 389.303 -1.13163L389.658 -0.964203C391.566 -8.01938 392.512 -15.3866 395.098 -22.2325C395.12 -22.2743 395.155 -22.3074 395.198 -22.3261C395.241 -22.3447 395.29 -22.3478 395.335 -22.3347C395.38 -22.3216 395.419 -22.2932 395.446 -22.2544C395.472 -22.2156 395.484 -22.1689 395.48 -22.1221C394.007 -16.1172 392.863 -10.0248 391.18 -4.077C396.796 -16.2124 405.487 -35.5285 419.374 -37.5263C417.317 -38.6451 415.349 -41.5676 414.376 -42.9832L414.38 -43.0137ZM399.219 36.378C397.266 43.6649 395.682 51.0453 394.473 58.4911C394.384 60.0843 394.286 61.68 394.179 63.2783C395.215 59.6284 396.479 56.0468 397.964 52.5547C401.504 43.9013 405.044 35.1641 408.76 26.5906C408.886 26.3014 409.283 26.5335 409.237 26.7961C407.791 34.9092 403.217 42.6912 400.081 50.2411C397.181 57.1973 394.507 64.2411 393.687 71.7148C394.507 69.6371 395.392 67.5936 396.224 65.5996C399.341 58.1372 402.709 50.7814 405.914 43.3609C408.966 36.2677 412.095 29.1402 414.548 21.8034C415.536 18.8504 419.221 10.3492 416.402 7.47234C409.802 0.736809 400.02 33.4212 399.234 36.3932L399.219 36.378ZM377.091 10.3987C368.095 11.0304 381.593 36.203 383.317 39.5403C385.225 43.2201 387.056 47.0255 388.659 50.9336C387.665 46.793 386.39 42.7245 384.844 38.7564C382.936 34.0339 380.494 29.574 378.514 24.8934C378.354 24.5128 378.896 24.1856 379.067 24.5661C381.326 29.5131 384.08 34.2128 386.053 39.3006C387.886 44.0112 389.391 48.843 390.555 53.761C389.822 46.5308 388.861 39.3462 386.965 32.2302C385.891 27.9452 384.602 23.7171 383.1 19.562C382.337 17.5528 380.109 10.1551 377.122 10.3644L377.091 10.3987ZM397.616 87.7926C393.95 101.751 389.689 115.572 386.171 129.579C385.917 131.041 385.662 132.497 385.408 133.948C387.732 126.307 391.104 119.042 394.37 111.744C397.582 104.567 400.092 97.1805 403.076 89.9426C403.098 89.8894 403.138 89.8457 403.189 89.8197C403.241 89.7937 403.3 89.787 403.356 89.8008C403.412 89.8147 403.461 89.8481 403.494 89.8951C403.528 89.9421 403.543 89.9995 403.537 90.0568C402.736 97.6371 398.467 105.278 395.369 112.128C392.584 118.293 389.647 124.461 387.194 130.774C391.714 121.847 397.033 113.235 401.92 104.65C405.102 99.0679 408.341 93.4702 410.904 87.5719C412.839 83.1234 416.024 76.4525 414.216 71.4903C413.453 69.4278 410.691 65.5577 407.94 66.8401C405.948 67.7686 404.609 69.7132 403.576 71.5854C400.798 76.6162 399.085 82.2405 397.628 87.7773L397.616 87.7926ZM372.723 142.099C374.135 147.138 375.31 152.241 376.378 157.37L376.79 156.415C377.225 150.244 377.343 144.055 377.145 137.871C375.168 128.685 372.567 119.45 367.813 111.264C365.936 108.098 363.811 105.085 361.457 102.253C362.502 109.27 363.677 116.108 365.406 123.011C365.408 123.041 365.408 123.07 365.406 123.099C368.411 129.201 370.86 135.56 372.723 142.099ZM352.396 129.481C360.763 134.557 367.195 141.277 372.315 149.303C366.497 137.434 355.483 129.945 345.228 122.075C344.755 121.714 345.346 121.017 345.819 121.367C351.423 125.553 357.776 129.793 363.117 134.846C359.508 130.316 355.475 126.139 351.073 122.372C347.135 119.008 343.061 115.686 338.696 112.912C337.647 112.246 325.637 106.062 328.445 111.972C330.475 116.245 335.541 119.179 339.383 121.634C343.66 124.37 348.074 126.862 352.415 129.496L352.396 129.481ZM360.572 101.184C358.871 99.1555 357.104 97.169 355.315 95.1864C357.261 101.625 359.584 107.889 361.934 114.171C361.066 110.01 360.547 105.785 360.381 101.538C360.377 101.467 360.392 101.396 360.426 101.334C360.46 101.271 360.51 101.219 360.572 101.184ZM342.824 67.5137C342.272 71.2496 342.888 75.0644 344.587 78.4389C347.799 84.9728 352.782 90.3232 357.638 95.6621C366.699 105.489 373.257 117.345 376.759 130.23C376.698 129.289 376.633 128.352 376.565 127.418C376.489 127.057 376.412 126.695 376.332 126.333C376.23 126.314 376.135 126.264 376.06 126.192C375.985 126.12 375.932 126.028 375.909 125.926C373.124 115.169 368.301 105.659 361.736 96.6896C357.459 90.8559 352.393 85.3305 349.043 78.8842C348.795 78.4047 349.554 78.0889 349.806 78.5531C353.716 85.6806 359.611 91.655 364.219 98.3411C367.443 102.92 370.259 107.771 372.635 112.84C371.033 107.938 369.202 103.113 367.226 98.4324C364.936 93.0326 362.388 87.1457 359.187 81.7382C359.071 81.6943 358.973 81.6134 358.908 81.5081C358.843 81.4027 358.815 81.2789 358.829 81.156C358.829 81.156 358.829 81.1369 358.829 81.1293C356.15 76.6694 352.999 72.5824 349.165 69.4164C348.047 68.4917 343.301 64.321 342.824 67.5137ZM349.73 60.1731C350.008 62.384 351.702 66.6422 351.332 69.1424C354.201 71.6463 356.7 74.8276 358.89 78.2753C358.859 71.3838 357.791 63.8795 355.521 57.5968C355.04 56.265 353.705 52.0829 351.595 52.4025C348.638 52.8439 349.485 58.2209 349.73 60.1731ZM374.692 83.4164C374.856 87.2218 375.218 91.0614 375.607 94.9162C375.764 92.5645 375.989 90.2166 376.302 87.8839C377.099 81.7078 377.828 75.1549 379.789 69.2109C379.872 68.9559 380.246 69.1005 380.22 69.3403C379.075 80.159 376.359 90.502 376.244 101.245C376.557 104.525 376.817 107.809 376.927 111.07C377.793 104.799 379.418 98.5123 380.456 92.5835C381.601 86.1334 382.745 79.6186 383.039 73.0657C383.249 68.271 383.394 62.6846 381.063 58.3275C380.444 57.0397 379.54 55.909 378.419 55.0206C377.599 54.427 377.778 55.0587 377.355 56.1242C376.36 58.6426 375.677 61.2725 375.321 63.9556C374.428 70.3982 374.417 76.932 374.692 83.4164ZM332.943 95.4832C339.206 96.4 345.175 98.7339 350.393 102.306C346.691 98.9385 342.342 96.3558 337.609 94.7146C334.458 93.573 331.185 92.7015 328.14 91.2897C327.804 91.1337 328.041 90.6009 328.388 90.6999C335.145 92.6901 343.709 94.5738 349.344 99.4523C349.291 99.38 349.241 99.3038 349.184 99.2278C343.679 93.4968 334.843 90.0948 327.602 87.4311C324.592 86.3275 311.075 80.8097 309.019 85.7034C305.585 93.904 328.686 94.8744 332.943 95.4871V95.4832ZM310.946 35.2326C305.173 38.0828 316.435 53.175 326.206 66.2579C322.555 60.5156 319.087 54.6515 316.432 48.5933C316.287 48.2546 316.867 47.9959 317.023 48.3269C321.048 56.9309 327.217 64.3933 331.978 72.6015C324.909 56.3791 315.711 32.8733 310.942 35.2326H310.946ZM289.268 74.8619C294.32 77.3696 297.89 72.0649 300.714 68.6629C297.562 70.5352 294.06 71.9812 290.989 73.8687C290.504 74.1655 290.092 73.4082 290.562 73.1076C292.309 71.966 294.117 70.8776 295.952 69.8312C290.752 70.8776 285.121 70.0785 280.814 67.2207C280.433 66.9657 280.841 66.3607 281.238 66.5547C288.601 70.1051 294.293 68.7504 301.118 66.6575L300.736 66.5281C296.177 67.3412 291.526 67.5141 286.918 67.0418C286.81 67.028 286.711 66.973 286.642 66.8882C286.574 66.8033 286.54 66.6953 286.55 66.5866C286.559 66.478 286.61 66.3772 286.692 66.3052C286.775 66.2333 286.882 66.1959 286.991 66.2008C290.573 66.5509 294.129 65.9535 297.673 65.5653C290.913 63.6017 283.813 62.502 277.499 59.4425C274.93 58.2522 272.645 56.5294 270.796 54.3889C269.537 55.58 267.641 56.2193 266.069 56.7673C264.757 57.2239 263.314 57.5892 262.117 58.3085C261.358 58.8128 260.692 59.4436 260.148 60.1731C260.308 60.1141 260.486 60.1211 260.641 60.1924C260.796 60.2638 260.917 60.3937 260.976 60.5536C262.12 63.2631 263.986 71.5892 267.667 71.5892C271.994 71.5588 276.236 70.5047 280.574 70.6303C284.152 70.733 286.296 73.412 289.257 74.8809L289.268 74.8619ZM259.682 66.0791C260.556 66.8401 261.445 67.6012 262.319 68.3623C261.174 65.8698 260.446 62.9586 259.682 61.094C259.634 60.9732 259.622 60.8409 259.648 60.7135C259.442 60.8581 259.091 60.8276 259.076 60.5118C258.992 59.1 259.957 58.0763 261.121 57.3495C259.976 55.0663 258.958 52.726 257.786 50.4656C257.584 52.0867 257.367 53.5974 258.168 55.8654C258.211 56.0384 258.184 56.2214 258.092 56.3745C258.001 56.5277 257.853 56.6387 257.68 56.6836C251.087 58.4721 256.894 63.6208 259.69 66.0752L259.682 66.0791ZM266.832 42.1622C264.222 44.297 260.728 46.0171 257.622 47.1092L257.847 47.4898C257.873 47.5156 257.893 47.5468 257.905 47.5811C259.67 50.4717 261.141 53.5313 262.296 56.714C262.445 56.6493 262.59 56.5808 262.735 56.5237C264.196 55.9453 265.714 55.5039 267.16 54.8874C268.138 54.4254 269.082 53.8938 269.983 53.2968C267.79 50.1992 266.786 46.4471 266.832 42.1432V42.1622ZM264.253 37.1239C262.166 39.076 260.201 41.4963 260.056 44.4226C261.125 43.8941 262.166 43.3098 263.173 42.6721C264.39 41.9111 265.565 40.994 266.901 40.4536C266.923 40.1225 266.943 39.7915 266.977 39.4528C267.023 39.2623 267.142 39.097 267.307 38.9913C267.473 38.8857 267.673 38.8479 267.866 38.8858C268.603 39.005 269.328 39.0989 270.04 39.1674C269.129 37.2989 269.277 35.2593 269.895 33.3337C268.049 34.6238 265.947 35.5447 264.253 37.1391V37.1239ZM274.554 31.4957C272.36 32.0209 271.479 31.9371 270.979 34.54C270.659 36.026 270.643 37.5611 270.933 39.0532C270.949 39.1156 270.949 39.1811 270.933 39.2435C273.394 39.4427 275.87 39.1317 278.205 38.3302C278.586 35.499 279.281 32.1883 280.646 29.5093C278.68 30.3657 276.636 31.031 274.542 31.4957H274.554ZM295.254 34.8521C294.278 31.7241 293.183 31.8915 290.23 31.1152C287.689 30.4492 284.98 29.9431 282.539 28.9233C281.523 30.9133 280.767 33.0247 280.288 35.206C280.196 35.5865 280.07 36.6939 279.796 37.6681C280.562 37.2995 281.301 36.8746 282.004 36.3971C282.142 36.3102 282.304 36.2717 282.466 36.2876C282.628 36.3034 282.779 36.3728 282.897 36.4846C290.657 45.8496 297.482 56.5047 306.963 64.2639L307.024 64.1611C306.949 64.1748 306.871 64.1599 306.806 64.1193C304.475 62.3802 302.839 58.963 301.084 56.6531C298.859 53.7154 296.609 50.8042 294.415 47.8475C294.091 47.406 294.697 46.8162 295.048 47.2576C297.559 50.4085 300.126 53.5175 302.583 56.714C301.151 54.3996 299.859 52.0017 298.714 49.5332C298.516 49.1032 299.168 48.7722 299.371 49.1908C301.168 53.0266 304.044 56.421 306.135 60.1579C304.021 54.1187 300.992 48.5172 298.39 42.6798C297.192 40.1298 296.143 37.5123 295.25 34.8407L295.254 34.8521ZM304.735 65.3674L304.918 65.3104C302.335 64.4085 299.92 62.6808 297.719 61.212C294.609 59.1418 291.557 56.9157 288.341 54.9559C287.933 54.7086 288.341 54.1187 288.746 54.347C292.03 56.1812 295.151 58.278 298.329 60.2949C299.916 61.2995 301.618 62.1671 303.289 63.0804C296.956 57.2201 291.844 50.0736 286.533 43.3267C285.644 42.185 283.172 37.6643 281.413 38.5852C279.533 39.5915 277.503 40.2892 275.401 40.6515C273.785 40.9006 272.144 40.9275 270.521 40.7314C267.564 40.4041 268.064 43.6539 268.415 45.8382C268.767 48.3106 269.715 50.661 271.177 52.6879C271.261 52.6636 271.349 52.6646 271.432 52.6909C271.514 52.7172 271.587 52.7676 271.641 52.8355C271.695 52.9034 271.727 52.9858 271.733 53.072C271.74 53.1583 271.72 53.2445 271.677 53.3196C277.472 60.3443 289.272 61.0559 298.383 64.0432C294.743 62.4221 291.29 60.1959 288.189 58.0193C287.807 57.7567 288.231 57.1973 288.608 57.4484C291.237 59.2331 294.007 60.8011 296.891 62.1367C299.477 63.2783 302.232 64.1497 304.773 65.3598L304.735 65.3674ZM343.126 39.6735C348.277 43.5676 353.162 47.7997 357.749 52.3416C358.729 53.3006 359.744 54.2976 360.759 55.3288C357.871 50.9093 354.599 46.7518 350.981 42.9043C345.968 37.6643 340.551 32.8466 335.339 27.8311C335.042 27.5457 335.496 27.1271 335.797 27.3897C345.247 35.6055 355.452 44.3655 362.281 55.1195C357.05 46.676 351.368 38.5194 345.258 30.6852C341.47 25.7877 337.529 20.5971 332.642 16.7194C331.204 15.5778 329.311 13.9757 327.358 13.9491C325.218 13.9187 321.452 14.7368 322.017 17.6403C322.994 22.5531 328.121 26.9483 331.642 30.1638C335.309 33.5202 339.154 36.6863 343.133 39.6773L343.126 39.6735ZM365.188 60.253L365.665 60.8657C365.073 59.8281 364.472 58.793 363.864 57.7605C364.315 58.5786 364.757 59.412 365.188 60.253ZM363.38 38.1323C363.337 38.136 363.293 38.136 363.25 38.1323L363.365 38.5357C363.365 38.3949 363.365 38.2579 363.365 38.1209L363.38 38.1323ZM361.797 26.035C362.098 27.1766 362.453 28.4096 362.785 29.6425C362.31 21.1506 361.358 12.692 359.935 4.30626C359.93 4.27127 359.939 4.23579 359.958 4.2065C359.978 4.17721 360.008 4.15613 360.042 4.14724C360.076 4.13835 360.113 4.14226 360.144 4.15823C360.176 4.1742 360.2 4.20114 360.213 4.23396C362.766 13.3212 363.391 23.3218 363.533 32.8352C363.555 32.9532 363.586 33.075 363.605 33.1929C363.987 25.35 364.425 17.5185 364.368 9.64902C364.315 2.79932 364.151 -4.12647 363.006 -10.9001C362.476 -14.0395 361.629 -21.4105 357.787 -22.5217C347.982 -25.3567 355.529 2.71561 356.414 6.15187C358.127 12.7961 360.068 19.3794 361.804 26.0236L361.797 26.035ZM331.867 -14.363C331.987 -14.3814 332.11 -14.3669 332.222 -14.3211L331.841 -14.7777C331.78 -14.812 331.719 -14.8577 331.658 -14.8919C331.597 -14.812 331.539 -14.7283 331.474 -14.656C331.469 -14.5345 331.435 -14.416 331.375 -14.3097C331.532 -14.3287 331.688 -14.3401 331.848 -14.363H331.867ZM286.598 -32.5984C288.17 -24.7973 298.829 -21.9775 305.448 -19.7095C313.46 -16.9734 321.632 -13.4573 330.216 -14.1727L330.166 -14.226L330.128 -14.2602C327.755 -14.3401 325.412 -15.5769 323.31 -16.5777C319.903 -18.214 316.443 -19.9645 312.578 -19.8313C311.983 -19.8123 311.865 -20.7179 312.472 -20.756C315.116 -20.8988 317.757 -20.4055 320.17 -19.3176C322.616 -18.2711 325.069 -17.3045 327.53 -16.3456C323.905 -19.1539 319.781 -21.8253 315.817 -23.5225C312.075 -25.1246 307.726 -26.1406 304.418 -28.5989C299.039 -32.5907 301.58 -36.8946 302.304 -41.4306C302.293 -41.4077 302.279 -41.3861 302.262 -41.366L302.144 -41.2252C302.06 -41.1202 301.95 -41.0393 301.825 -40.9905C301.7 -40.9417 301.564 -40.9268 301.431 -40.9474C299.794 -41.3203 297.28 -42.0814 295.643 -43.2002C294.068 -38.5386 290.581 -35.479 286.598 -32.5984ZM286.598 -34.3869C286.602 -34.322 286.592 -34.2569 286.567 -34.1966C289.905 -37.0963 293.095 -39.5242 294.434 -44.0031C291.164 -45.1067 286.895 -45.8259 286.464 -41.2898C286.243 -39.0066 286.495 -36.6891 286.602 -34.3869H286.598ZM297.944 -52.3217C296.231 -52.4244 294.423 -52.5538 292.862 -53.1132C293.278 -50.2934 294.712 -47.4051 295.807 -44.8631C295.807 -44.8631 295.83 -44.8631 295.842 -44.8289C295.853 -44.7946 295.945 -44.7413 295.991 -44.6995C295.991 -47.2529 296.2 -50.4304 297.944 -52.3102V-52.3217ZM313.849 -62.6875C308.534 -60.0238 301.641 -60.2635 299.432 -53.5546C299.493 -53.5546 299.554 -53.5165 299.619 -53.4937C302.648 -54.9588 306.368 -54.7875 309.633 -55.1338C309.756 -55.157 309.883 -55.1477 310.002 -55.107C310.12 -55.0663 310.226 -54.9956 310.308 -54.9017C310.536 -54.5725 310.803 -54.2733 311.106 -54.0112C310.633 -57.1659 311.85 -60.233 313.849 -62.6875ZM323.871 -62.0863C321.834 -63.0376 319.575 -63.0034 317.767 -64.556C314.032 -61.8922 312.475 -58.1819 312.01 -53.684C312.001 -53.5756 311.95 -53.4748 311.869 -53.4024C312.502 -52.961 313.193 -52.5842 313.807 -52.2227C314.022 -52.0516 314.176 -51.8152 314.246 -51.5492H314.318L314.295 -51.3513C314.309 -51.304 314.32 -51.2556 314.326 -51.2067C314.94 -51.1762 315.554 -51.1382 316.176 -51.1001C316.255 -51.0926 316.332 -51.0688 316.402 -51.0302C316.471 -50.9915 316.532 -50.9389 316.58 -50.8756C318.793 -54.9093 319.819 -59.8868 323.863 -62.0787L323.871 -62.0863ZM335.667 -52.1009C335.702 -49.8444 328.564 -54.0341 328.224 -54.4375C327.19 -55.5639 326.416 -56.9033 325.958 -58.3608C325.7 -59.1727 325.514 -60.0054 325.401 -60.8495C324.725 -60.8422 324.065 -60.6517 323.489 -60.2984C322.914 -59.9451 322.446 -59.4424 322.135 -58.8441C320.273 -55.9558 319.354 -52.6147 317.611 -49.6579C317.553 -49.5532 317.468 -49.4655 317.366 -49.4034C317.264 -49.3413 317.147 -49.3071 317.027 -49.304C318.587 -43.1887 325.271 -41.6476 328.232 -36.32C329.849 -33.4127 330.086 -30.7908 329.834 -27.4763C329.639 -24.9343 329.006 -22.1792 329.281 -19.6524C329.426 -19.2338 329.563 -18.8076 329.693 -18.3814C329.865 -18.2216 330.029 -18.058 330.196 -17.8944C330.266 -17.923 330.343 -17.9304 330.417 -17.9155C330.491 -17.9006 330.559 -17.8641 330.612 -17.8106L330.723 -17.6965C330.479 -24.7973 330.273 -32.4499 331.68 -39.3072C331.734 -39.5546 332.131 -39.6269 332.169 -39.3339C332.97 -32.3891 331.753 -25.0979 331.524 -18.0237C332.611 -23.2105 332.508 -28.382 332.825 -33.6715C332.844 -33.9455 333.279 -33.9911 333.321 -33.7095C333.484 -32.5653 333.586 -31.4131 333.626 -30.258C334.343 -35.772 334.942 -41.2937 335.373 -46.8457C335.511 -48.581 335.694 -50.3429 335.663 -52.0857L335.667 -52.1009ZM303.907 -41.2708C302.762 -37.1192 300.63 -32.8115 305.341 -29.8547C309.122 -27.4687 313.639 -26.6848 317.412 -24.3978C321.292 -22.0498 324.977 -19.6829 328.434 -16.8707C328.342 -17.0876 328.262 -17.3045 328.19 -17.5252C326.5 -19.0474 324.943 -20.7941 323.455 -22.3543C321.693 -24.2075 319.087 -26.3689 318.198 -28.8234C318.057 -29.2039 318.58 -29.4056 318.835 -29.2039C320.743 -27.7122 322.364 -25.5964 324.054 -23.7356C323.057 -25.8902 322.354 -28.1684 321.964 -30.5092C321.872 -31.0381 322.677 -31.1561 322.788 -30.6348C323.478 -27.2981 324.944 -24.1697 327.068 -21.5019C325.755 -24.664 324.679 -27.9189 323.848 -31.2398C323.699 -31.803 324.539 -32.096 324.71 -31.529C325.534 -28.8044 326.694 -26.2015 327.789 -23.5377C328.201 -28.2983 329.411 -33.2909 325.763 -37.1915C323.169 -39.9656 319.804 -41.8683 317.405 -44.8289C316.663 -45.7245 316.111 -46.7598 315.779 -47.8732C314.94 -51.0735 310.82 -50.1564 308.012 -49.6541C307.878 -49.6313 302.633 -48.8511 303.308 -47.3024C303.657 -46.6253 303.913 -45.9048 304.071 -45.1599C304.289 -43.8664 304.234 -42.5415 303.907 -41.2708ZM300 -52.1923C299.548 -51.9288 299.158 -51.572 298.856 -51.1458C297.459 -49.1366 297.219 -46.4005 296.986 -43.9803C298.451 -43.1811 300.538 -42.7663 301.862 -42.401C301.984 -42.3675 302.096 -42.3055 302.189 -42.2201C302.281 -42.1347 302.353 -42.0285 302.396 -41.9101C302.636 -43.7633 302.518 -45.6584 301.381 -47.584C301.319 -47.6632 301.273 -47.754 301.247 -47.851C301.22 -47.948 301.213 -48.0493 301.225 -48.1491C301.238 -48.2489 301.271 -48.3452 301.321 -48.4324C301.371 -48.5195 301.438 -48.5959 301.519 -48.6571C304.952 -51.0088 308.672 -51.3817 312.582 -51.2866C311.69 -51.7918 310.845 -52.375 310.057 -53.0295C308.756 -54.0835 307.005 -53.4633 305.261 -53.3034C303.781 -53.1665 301.828 -53.098 300.37 -52.3825C300.327 -52.3293 300.274 -52.285 300.214 -52.2524C300.154 -52.2197 300.087 -52.1993 300.019 -52.1923H300ZM425.272 -37.3855C425.441 -37.3665 425.6 -37.2931 425.723 -37.1765C425.847 -37.0598 425.93 -36.9061 425.959 -36.7386C426.39 -31.6546 427.168 -26.4641 427.244 -21.3763C427.282 -19.093 428.484 -15.9498 427.778 -13.6856C426.191 -8.59399 418.885 -6.02536 414.105 -6.17377C409.325 -6.32218 406.299 -5.62579 402.542 -2.50537C401.016 -1.22296 399.451 0.223083 397.727 1.26196C394.118 3.43863 394.026 2.60145 390.307 0.919472C390.078 0.816727 389.86 0.710175 389.639 0.607422C393.756 16.4112 395.098 32.6792 394.816 48.9662C397.105 36.8461 400.295 24.3568 406.051 13.7208C407.616 10.8363 410.073 6.13284 413.788 5.57726C416.73 5.13583 418.26 7.09941 418.424 9.82787C418.721 14.733 416.585 20.1024 414.944 24.5966C412.22 32.1046 409.004 39.4376 405.788 46.7363C402.587 53.9665 399.326 61.1967 396.388 68.5297C395.308 71.2354 394.126 74.0513 393.225 76.9244C393.23 76.9757 393.225 77.0274 393.209 77.0765C393.193 77.1255 393.167 77.1709 393.134 77.2098C393.008 77.6208 392.897 78.0318 392.786 78.4427C392.433 81.5835 392.051 84.714 391.642 87.8344C390.204 98.5694 389.143 109.411 387.663 120.18C389.952 112.307 392.603 104.532 394.313 96.5183C395.27 92.0356 396.315 87.5719 397.643 83.1995C399.081 78.4465 404.19 60.3215 412.369 66.7069C422.235 74.409 410.37 92.4846 406.086 100.145C398.604 113.513 389.837 126.748 383.958 140.98C382.515 146.658 380.671 152.226 378.442 157.644C378.339 159.01 378.213 160.373 378.06 161.739L377.133 164.909L375.84 165L374.695 163.817L374.772 161.065C374.951 160.662 375.134 160.258 375.313 159.851C375.077 158.608 374.831 157.366 374.577 156.126C369.927 147.373 364.391 139.801 356.379 133.807C351.927 130.478 346.864 127.947 342.134 125.055C339.105 123.202 321.986 113.974 327.85 108.414C330.025 106.351 334.477 108.821 336.461 109.936C341.493 112.756 346.098 116.337 350.489 120.055C358.84 127.121 366.756 135.421 372.002 145.117C371.914 144.79 371.83 144.462 371.739 144.135C368.202 131.52 362.72 119.857 355.673 108.825L355.418 108.444C349.695 102.885 342.473 98.4781 334.462 97.1957C329.185 96.3547 323.814 96.1149 318.583 94.9733C315.066 94.2122 309.347 93.0135 307.802 89.1549C307.039 87.2522 307.092 84.7178 309.103 83.5914C315.077 80.2465 325.409 84.9461 330.898 87.2636C335.038 89.0141 341.1 91.343 345.705 94.5928C343.282 91.4762 340.745 88.4585 338.04 85.5854C337.943 85.6086 337.841 85.5929 337.755 85.5416C337.67 85.4904 337.608 85.4078 337.582 85.3115C337.56 85.2163 337.529 85.106 337.491 84.9956C336.571 84.0291 335.641 83.0739 334.683 82.1416C327.022 74.6564 318.953 69.4582 309.095 65.7556C309.088 65.936 309.011 66.1067 308.881 66.2326C308.751 66.3585 308.578 66.4302 308.397 66.433C301.477 66.4672 300.16 74.8505 293.556 76.5134C288.921 77.6779 287.273 74.6107 283.256 72.8717C279.673 71.3267 275.343 72.4493 271.605 72.8412C269.934 73.0201 267.618 73.5452 265.993 72.8412C265.725 72.7163 265.47 72.5673 265.23 72.396C265.147 72.416 265.061 72.4135 264.979 72.3887C264.898 72.364 264.825 72.3178 264.768 72.2552C261.3 68.6705 254.906 65.6148 253.243 60.6145C252.72 59.0429 252.983 57.3 254.608 56.459C256.97 55.2337 255.948 54.7999 256.257 52.1932C256.364 51.0808 256.577 49.9812 256.894 48.9092C256.569 48.3422 256.234 47.7676 255.867 47.2348C255.795 47.1416 255.746 47.033 255.723 46.9175C255.7 46.802 255.704 46.6828 255.735 46.5692C255.766 46.4556 255.823 46.3507 255.902 46.2628C255.98 46.1749 256.078 46.1065 256.188 46.0627C257.215 45.729 258.222 45.3338 259.202 44.8793C258.992 41.9834 260.461 39.4223 262.494 37.375C264.459 35.3924 267.5 32.5955 270.384 32.097C270.555 31.7164 270.735 31.3359 270.925 30.9554C270.974 30.8404 271.053 30.7403 271.152 30.6649C271.252 30.5894 271.37 30.5413 271.494 30.5254C274.859 30.5254 278.319 27.6789 281.57 28.0366C281.57 28.0062 281.612 27.9681 281.634 27.9377C281.674 27.7674 281.78 27.6198 281.929 27.5272C282.078 27.4345 282.257 27.4042 282.428 27.443C286.708 28.4628 290.913 29.7871 295.189 30.8412C295.354 30.8707 295.506 30.9501 295.624 31.0686C295.742 31.187 295.821 31.3388 295.849 31.5033C298.722 43.0945 306.2 52.8744 308.863 64.5379C318.324 65.9192 327.24 73.0201 333.867 79.318C334.13 79.5653 334.378 79.8279 334.63 80.0791C325.695 67.2093 300.355 38.9505 310.118 34.1443C316.603 30.9554 323.635 50.5493 325.256 54.153C328.266 60.8466 331.059 67.6355 334.061 74.3215C335.778 78.1497 337.399 83.1386 340.512 86.1182C340.544 86.1548 340.572 86.1943 340.596 86.2362C346.386 92.7078 351.628 99.6472 356.269 106.983L356.902 107.984C357.058 108.155 357.219 108.323 357.371 108.498C357.435 108.563 357.484 108.641 357.516 108.726C357.548 108.811 357.562 108.902 357.558 108.992C358.42 110.378 359.262 111.773 360.084 113.178C357.535 106.648 355.345 99.9838 353.526 93.2152C346.529 85.4066 338.647 75.7599 342.134 64.789C342.201 64.6504 342.312 64.5379 342.45 64.469C342.588 64.4001 342.745 64.3789 342.897 64.4085C345.267 65.0903 347.494 66.1911 349.474 67.6583C349.092 66.1856 349.001 64.4846 348.818 63.4077C348.341 60.6069 347.631 57.2848 348.322 54.4498C348.955 51.8545 351.702 49.5332 354.044 52.0905C357.413 55.7512 358.241 61.7409 358.951 66.4482C359.656 71.0413 360.316 75.7942 360.213 80.4634C363.471 86.0535 365.986 92.0736 367.989 96.8874C370.754 103.543 373.62 110.659 375.684 117.916C374.333 105.659 372.25 93.4207 370.094 81.2892C369.289 76.7798 368.568 72.2438 367.805 67.7078C364.521 59.0048 355.418 51.9002 348.665 46.0742C344.728 42.6759 340.535 39.6392 336.529 36.3248C333.096 33.4669 315.547 20.3003 321.559 14.4819C329.487 6.79879 340.531 22.4465 344.43 27.4202C352.721 37.9649 360.656 49.3278 366.733 61.3337C364.879 50.5835 362.663 39.9056 358.809 29.692C352.637 13.3288 343.24 -0.225952 332.619 -13.7503C332.641 -13.6577 332.644 -13.5614 332.626 -13.4678C332.608 -13.3742 332.571 -13.2854 332.517 -13.2071C332.462 -13.1288 332.392 -13.0629 332.31 -13.0135C332.229 -12.9642 332.138 -12.9326 332.043 -12.9207C321.742 -11.3986 311.327 -15.9156 301.881 -19.5078C295.872 -21.7911 286.048 -25.018 285.415 -32.6326C285.366 -32.7469 285.356 -32.874 285.385 -32.9947C285.415 -33.1155 285.483 -33.2234 285.579 -33.3023L286.235 -33.8808C286.163 -33.8512 286.084 -33.8378 286.006 -33.8415C285.927 -33.8451 285.851 -33.8658 285.781 -33.902C285.711 -33.9382 285.65 -33.9891 285.602 -34.0511C285.554 -34.1132 285.52 -34.1849 285.503 -34.2613C285.064 -37.5834 284.255 -41.99 286.502 -44.8631C288.208 -47.0436 291.569 -46.3053 294.049 -45.4872C292.847 -48.2385 291.542 -51.2676 291.378 -54.1749C291.351 -54.7 292.004 -54.936 292.404 -54.7076C294.232 -53.6459 296.452 -53.9808 298.486 -53.6878C300.012 -60.7506 309.717 -63.2013 315.772 -65.005C315.832 -65.0254 315.896 -65.0306 315.959 -65.0199C316.021 -65.0093 316.08 -64.9832 316.13 -64.9441C316.512 -65.2676 316.931 -65.572 317.347 -65.8536C317.483 -65.9604 317.655 -66.0118 317.828 -65.9977C318 -65.9836 318.161 -65.9049 318.278 -65.7775C320.22 -63.734 323.207 -64.1868 325.454 -62.7712C325.481 -62.7522 325.492 -62.7294 325.519 -62.7104C325.637 -62.7446 325.748 -62.7903 325.87 -62.8207C326.056 -62.8433 326.243 -62.7914 326.39 -62.6766C326.538 -62.5617 326.633 -62.3932 326.656 -62.208C327.163 -56.5 330.303 -52.7517 336.251 -52.9039C336.414 -52.9009 336.57 -52.8344 336.685 -52.7185C336.799 -52.6026 336.864 -52.4465 336.865 -52.2836C336.9 -45.2018 335.797 -37.9259 334.9 -30.9202C334.382 -26.8446 333.863 -22.7348 332.924 -18.743C332.753 -17.8438 332.532 -16.9545 332.264 -16.0792C343.839 -4.24063 353.079 10.7374 359.126 26.0274C360.362 29.1554 361.446 32.3139 362.419 35.5028C362.102 29.8404 359.748 23.8964 358.321 18.6602C356.276 11.2739 354.182 3.87244 352.759 -3.64699C351.805 -8.70815 350.237 -15.2877 352.152 -20.3298C353.102 -22.8452 355.853 -24.9305 358.6 -23.4883C362.213 -21.5856 363.262 -16.258 363.918 -12.6658C365.085 -6.23846 365.421 0.344856 365.516 6.86728C365.688 18.5232 365.116 30.1638 364.219 41.7817C366.455 50.3933 368.034 59.1647 369.511 67.9665C369.579 68.1834 369.656 68.3965 369.721 68.6134C369.764 68.7627 369.756 68.9222 369.698 69.0663C370.365 73.0467 371.029 77.031 371.739 81.0076C372.41 84.7749 373.068 88.5549 373.711 92.3476C373.539 89.4327 373.391 86.5216 373.284 83.5952C372.902 73.8915 372.17 62.2204 377.099 53.4414C377.145 53.3455 377.211 53.2609 377.293 53.1936C377.375 53.1263 377.472 53.078 377.575 53.0522C377.678 53.0264 377.786 53.0237 377.89 53.0442C377.994 53.0648 378.093 53.1081 378.179 53.1712C387.27 58.7993 384.557 74.0627 383.256 82.6972C382.089 90.4754 380.38 98.147 379.09 105.91C378.392 110.119 377.587 114.518 377.473 118.867C378.644 129.774 379.235 140.695 378.781 151.567C379.396 150.007 379.987 148.435 380.529 146.848C380.486 146.77 380.46 146.683 380.454 146.594C380.447 146.504 380.46 146.415 380.491 146.331C380.906 145.128 381.349 143.937 381.807 142.75C382.499 140.409 383.064 138.032 383.501 135.63C386.267 119.754 387.93 103.745 390.047 87.7812C390.635 83.3289 391.173 78.8664 391.661 74.3938C391.421 72.5002 391.39 70.586 391.569 68.6857C390.715 62.1519 389.307 56.0975 386.591 49.7045C384.134 43.9279 381.124 38.4748 378.438 32.8086C376.065 27.8083 368.069 13.0206 376.084 9.25326C381.894 6.51338 385.969 24.0448 386.785 26.9369C390.124 38.7336 391.554 50.5303 392.413 62.6276C392.58 61.6724 392.756 60.7249 392.92 59.8458C393.279 54.0921 393.458 48.3345 393.374 42.5694C393.176 28.5313 391.299 14.8966 388.498 1.18584C388.422 1.13241 388.367 1.05446 388.342 0.965134C388.247 0.668312 388.14 0.379105 388.037 0.0860901C387.931 0.0463638 387.839 -0.022789 387.771 -0.113159C387.704 -0.203537 387.663 -0.311356 387.655 -0.423836C383.108 -2.95061 380.128 -6.13191 377.515 -11.2463C373.997 -18.1569 369.885 -25.821 372.021 -33.8351C372.899 -37.1153 373.635 -36.8337 370.85 -38.1047C370.087 -38.4548 369.244 -38.8049 368.645 -39.429C367.748 -40.3537 367.199 -41.5753 367.657 -42.8539C369.064 -46.8647 374.169 -49.5361 378.102 -50.9289C379.762 -54.7343 383.062 -57.341 385.984 -60.1912C386.082 -60.3102 386.216 -60.3944 386.366 -60.4314C386.516 -60.4684 386.674 -60.4563 386.816 -60.3967C390.417 -58.4559 395.209 -53.5774 399.52 -57.0898C399.641 -57.1911 399.792 -57.2494 399.949 -57.2556C400.107 -57.2618 400.262 -57.2155 400.39 -57.1241C404.67 -53.4404 410.095 -51.5187 409.733 -45.3959C411.072 -44.8342 412.579 -44.8179 413.93 -45.3502C414.086 -45.4033 414.255 -45.4045 414.411 -45.3538C414.568 -45.303 414.704 -45.203 414.799 -45.0686C416.169 -43.1088 418.645 -39.1322 421.113 -38.4244C421.26 -38.3858 421.388 -38.2948 421.473 -38.1686C421.557 -38.0424 421.592 -37.8897 421.571 -37.7394C422.812 -37.7515 424.051 -37.6342 425.268 -37.3893L425.272 -37.3855Z" fill="#DC9789"/>
</g>
<defs>
<clipPath id="clip0_625_13498">
<rect width="360" height="1128" fill="white"/>
</clipPath>
</defs>
</svg>
