<svg width="360" height="527" viewBox="0 0 360 527" fill="none" xmlns="http://www.w3.org/2000/svg">
<g clip-path="url(#clip0_625_13562)">
<path d="M280.089 -56.6388L268.283 -36.1677L308.951 42.6249L325.373 47.991L335.049 99.1891L410.098 137.785L438.627 114.784L489.147 98.87L516.355 72.0081L524.853 65.8555L528.997 50.7459L511.312 34.1578L472.379 23.0256L426.789 -25.6152L280.089 -56.6388Z" fill="#FFF6DE"/>
<path d="M345.367 265.387L351.731 259.445L391.406 270.168L421.814 277.135L444.285 286.954L456.77 302.477L487.052 310.536L525.904 336.975L526.857 347.864L511.208 374.034L488.998 388.254L462.774 419.012L432.887 447.29L414.182 475.451L405.477 471.909L387.824 442.468L364.414 423.43L344.19 390.384C344.19 390.384 323.067 376.902 321.098 374.978C319.13 373.055 314.806 361.626 314.806 361.626L324.141 345.869L334.99 315.003L331.48 301.071L339.156 287.008L345.354 265.436L345.367 265.387Z" fill="#FFF6DE"/>
<path d="M36.4977 183.09L43.3559 188.457L38.9381 229.313L36.7899 260.436L30.5834 284.165L17.1951 298.893L13.9458 330.056L-6.09842 372.562L-16.7092 375.2L-44.9958 363.816L-62.5008 344.087L-96.9624 322.964L-129.55 297.846L-160.286 283.761L-158.142 274.611L-131.806 252.589L-116.647 226.5L-87.1471 201.4C-87.1471 201.4 -77.1205 178.448 -75.5115 176.201C-73.9026 173.954 -63.3053 167.905 -63.3053 167.905L-46.2857 174.673L-14.1071 180.583L-0.88063 174.947L14.202 180.34L36.4977 183.099V183.09Z" fill="#FFF6DE"/>
<path d="M-27.5358 124.688L-50.5866 127.946L-87.5111 208.276L-81.6057 224.563L-116.004 263.739L-100.252 346.329L-64.685 354.621L-21.0462 384.611C-2.96143 386.948 10.0808 387.55 26.8397 392.386L41.0549 386.436L43.2121 362.522L28.0217 324.986L38.246 259.119L-27.5358 124.688ZM-50.8068 127.421L-27.2167 124.09C-5.37034 169.046 16.4715 214.339 38.8078 259.029L28.5655 324.914L43.7739 362.432C43.0054 370.553 42.2863 378.692 41.5717 386.813C36.6775 388.867 31.7833 390.93 26.8757 392.957L16.7277 390.031L-21.2394 385.128L-64.9007 355.125L-100.724 346.783C-106.063 319.066 -111.353 291.332 -116.593 263.582L-82.2304 224.446L-88.0998 208.267C-75.8576 181.302 -63.4041 154.337 -50.9552 127.457H-50.8068V127.421Z" fill="#DC9789"/>
<path d="M377.51 290.824L355.717 299.013L337.125 385.45L346.428 400.065L321.359 445.776L354.679 522.973L391.199 523.328L440.307 543.102C458.464 541.453 471.317 539.21 488.737 540.289L501.321 531.404L498.233 507.585L475.232 474.247L470.926 407.732L377.51 290.824ZM355.385 298.554L377.694 290.173C408.704 329.313 439.921 368.857 471.461 407.548L475.767 474.089L498.759 507.409C499.802 515.499 500.835 523.589 501.905 531.678L488.872 540.869L478.342 540.226L440.217 543.691L391.082 523.885L354.311 523.526C343.036 497.672 331.849 471.755 320.748 445.776L345.785 400.11L336.54 385.576C342.724 356.588 349.021 327.6 355.241 298.631L355.38 298.581L355.385 298.554Z" fill="#DC9789"/>
<path d="M538.053 -33.0666L536.403 -56.2882L458.829 -98.6956L442.164 -93.9362L405.469 -130.969L321.989 -120.982L311.257 -86.0669L278.314 -44.6212C274.719 -26.7388 273.222 -13.7775 267.236 2.61295L272.18 17.2012L295.887 21.0168L334.388 8.43295L399.384 23.2324L538.053 -33.0666ZM536.938 -56.477L538.628 -32.7071C492.296 -13.7715 445.897 5.06679 399.433 23.8077L334.415 9.0217L295.931 21.6055C287.887 20.3921 279.797 19.0348 271.766 17.718C270.043 12.7025 268.34 7.67343 266.656 2.63092L270.278 -7.28331L277.802 -44.828L310.767 -86.3051L321.553 -121.459C349.591 -124.776 377.626 -128.128 405.658 -131.517L442.308 -94.5205L458.892 -99.2888C484.783 -84.9074 510.926 -70.7641 536.929 -56.6253V-56.477H536.938Z" fill="#DC9789"/>
<path d="M464.442 -42.2618C464.262 -44.2752 458.937 -43.2235 458.307 -43.0707C454.859 -42.2132 451.659 -40.5601 448.964 -38.2439C438.272 -29.1522 432.142 -15.8043 426.183 -3.29245C432.138 -8.4563 434.151 -16.5009 440.043 -21.7187C440.103 -21.7783 440.183 -21.8118 440.268 -21.8118C440.352 -21.8118 440.433 -21.7783 440.492 -21.7187C440.552 -21.6591 440.585 -21.5783 440.585 -21.494C440.585 -21.4097 440.552 -21.3289 440.492 -21.2693C435.845 -15.6246 433.176 -8.41586 427.819 -3.46772C433.859 -7.02264 437.58 -12.8427 442.762 -17.5796C443.005 -17.8043 443.405 -17.4672 443.211 -17.1975C438.555 -10.9056 433.324 -4.36207 425.85 -1.52173C425.788 -1.49554 425.719 -1.48672 425.652 -1.49621C425.585 -1.5057 425.521 -1.53314 425.468 -1.57565L425.324 -1.48129L425.127 -1.06782C430.569 -1.33747 434.308 -5.85415 439.4 -7.26982C439.755 -7.3642 439.881 -6.89231 439.616 -6.71255C435.697 -4.01152 431.279 -0.865578 426.434 -0.357727C427.064 -0.0611115 427.688 0.23101 428.309 0.541115C430.47 1.62872 434.758 -2.66776 435.994 -3.69244C438.524 -5.79123 441.342 -8.38439 444.636 -9.14841C448.007 -9.9304 451.269 -9.20683 454.654 -9.59783C458.745 -10.1271 462.522 -12.0698 465.332 -15.0898C467.53 -17.5571 466.366 -20.3705 466.033 -23.2872C465.584 -27.3904 465.404 -31.5655 465.031 -35.6822C464.833 -37.8754 464.637 -40.0686 464.442 -42.2618ZM405.909 -45.0617C401.361 -34.0553 405.312 -24.577 410.552 -14.7437C413.176 -9.82703 415.945 -6.30806 420.08 -3.59805C416.997 -9.81805 412.053 -15.1482 410.444 -21.9524C410.415 -22.0347 410.421 -22.1249 410.459 -22.2033C410.496 -22.2817 410.564 -22.3418 410.646 -22.3704C410.729 -22.399 410.819 -22.3938 410.897 -22.3558C410.976 -22.3179 411.036 -22.2504 411.064 -22.1681C413.864 -16.5504 418.071 -11.3146 420.736 -5.53956C420.709 -5.78224 420.686 -6.02942 420.655 -6.26762C417.648 -12.591 414.363 -18.8874 413.311 -25.8714C413.307 -25.9247 413.323 -25.9777 413.355 -26.0201C413.388 -26.0625 413.435 -26.0912 413.488 -26.1008C413.541 -26.1103 413.595 -26.0999 413.64 -26.0716C413.686 -26.0434 413.719 -25.9992 413.734 -25.9478C415.397 -20.1727 417.806 -14.7122 420.219 -9.24728C419.064 -16.0875 417.028 -22.7883 417.037 -29.7454C417.037 -37.3181 420.183 -43.619 423.778 -50.1132C424.547 -51.4929 425.509 -53.5692 426.704 -55.6096C424.668 -55.6725 423.266 -56.805 421.473 -58.4859C418.241 -61.524 414.197 -60.6746 410.413 -59.178C407.154 -57.8882 403.748 -56.2792 401.213 -53.7849C396.934 -49.6053 400.485 -47.2054 405.177 -46.1717C405.304 -46.1571 405.426 -46.1141 405.535 -46.046C405.643 -45.978 405.735 -45.8865 405.803 -45.7784C405.872 -45.6702 405.915 -45.5481 405.931 -45.421C405.946 -45.2939 405.932 -45.165 405.891 -45.0437L405.909 -45.0617ZM428.655 -65.1598C427.113 -65.78 420.309 -70.6382 419.217 -69.5956C416.52 -66.9485 413.851 -64.5171 411.774 -61.4026C414.043 -62.1078 416.427 -62.3657 418.794 -62.1621C422.592 -61.7801 423.648 -57.4792 427.589 -57.0522C429.531 -59.9914 431.998 -62.4453 435.126 -61.9959C439.324 -61.4026 442.016 -57.3219 445.301 -55.1062C445.378 -59.7667 441.989 -61.5779 438.515 -63.9778C437.58 -64.6205 436.039 -66.3957 434.762 -65.7081C432.83 -64.6699 430.717 -64.2924 428.632 -65.1373L428.655 -65.1598ZM452.474 -51.403C451.84 -52.3333 448.591 -52.0726 446.497 -52.5266C446.382 -52.4739 446.259 -52.4443 446.133 -52.4395C446.008 -52.4347 445.882 -52.4548 445.765 -52.4987C445.647 -52.5425 445.539 -52.6093 445.447 -52.695C445.355 -52.7808 445.281 -52.8839 445.229 -52.9984C442.533 -54.7961 440.614 -57.614 437.863 -59.2544C432.83 -62.252 430.111 -57.5601 427.823 -53.7849C422.906 -45.6954 417.675 -36.8058 418.889 -26.9859C419.725 -20.2446 422.556 -13.0898 422.709 -6.1283C423.963 -15.0313 424.295 -23.9703 425.297 -32.9228C425.329 -33.2329 425.841 -33.2868 425.864 -32.9498C426.542 -22.7209 425.014 -11.9843 422.933 -1.93969L423.351 -1.74194C425.599 -10.0742 426.713 -18.775 429.76 -26.8601C429.785 -26.9095 429.827 -26.9486 429.878 -26.9706C429.929 -26.9926 429.986 -26.9963 430.039 -26.9808C430.092 -26.9654 430.138 -26.9319 430.169 -26.886C430.201 -26.8402 430.215 -26.785 430.21 -26.7298C428.475 -19.6379 427.127 -12.4427 425.145 -5.41821C431.76 -19.7503 441.998 -42.5629 458.357 -44.9223C455.934 -46.2436 453.615 -49.6952 452.469 -51.3671L452.474 -51.403ZM434.614 42.3598C432.313 50.9657 430.447 59.682 429.023 68.4756C428.918 70.3572 428.803 72.2418 428.677 74.1294C429.897 69.8188 431.386 65.5889 433.135 61.4647C437.306 51.2448 441.477 40.9261 445.854 30.8007C446.002 30.4591 446.47 30.7332 446.416 31.0433C444.712 40.625 439.324 49.8157 435.63 58.7322C432.214 66.9476 429.064 75.2664 428.097 84.093C429.064 81.6392 430.106 79.2258 431.086 76.8708C434.758 68.0577 438.726 59.3704 442.501 50.6066C446.097 42.2294 449.782 33.8118 452.672 25.1469C453.836 21.6594 458.177 11.6194 454.856 8.22173C447.081 0.266975 435.558 38.8678 434.632 42.3777L434.614 42.3598ZM408.547 11.6778C397.95 12.4238 413.851 42.153 415.882 46.0945C418.129 50.4404 420.286 54.9346 422.174 59.5501C421.004 54.66 419.502 49.8551 417.68 45.1686C415.433 39.5913 412.556 34.3241 410.224 28.7962C410.035 28.3468 410.673 27.9603 410.875 28.4097C413.536 34.2522 416.781 39.8026 419.104 45.8113C421.264 51.3747 423.036 57.081 424.408 62.8893C423.545 54.3503 422.412 45.8653 420.178 37.4611C418.914 32.4004 417.395 27.407 415.626 22.4998C414.727 20.1269 412.102 11.3901 408.583 11.6373L408.547 11.6778ZM432.726 103.081C428.407 119.566 423.387 135.889 419.244 152.432C418.944 154.158 418.644 155.878 418.345 157.591C421.082 148.567 425.055 139.988 428.902 131.368C432.686 122.892 435.643 114.168 439.158 105.62C439.183 105.557 439.231 105.506 439.291 105.475C439.352 105.444 439.422 105.436 439.488 105.453C439.554 105.469 439.612 105.509 439.651 105.564C439.69 105.62 439.708 105.688 439.701 105.755C438.758 114.708 433.729 123.732 430.079 131.822C426.798 139.102 423.338 146.387 420.448 153.843C425.774 143.3 432.039 133.129 437.796 122.99C441.544 116.397 445.36 109.786 448.38 102.82C450.658 97.5667 454.411 89.6883 452.281 83.8279C451.382 81.392 448.128 76.8214 444.888 78.336C442.542 79.4325 440.964 81.7291 439.746 83.9402C436.474 89.8816 434.457 96.524 432.74 103.063L432.726 103.081ZM403.402 167.218C405.064 173.168 406.449 179.195 407.707 185.253L408.192 184.125C408.705 176.837 408.844 169.527 408.61 162.225C406.282 151.376 403.217 140.468 397.618 130.801C395.407 127.062 392.903 123.503 390.13 120.159C391.362 128.446 392.746 136.523 394.782 144.675C394.784 144.709 394.784 144.744 394.782 144.778C398.322 151.985 401.207 159.495 403.402 167.218ZM379.456 152.315C389.312 158.31 396.889 166.247 402.921 175.726C396.067 161.708 383.092 152.863 371.012 143.569C370.455 143.143 371.151 142.32 371.708 142.734C378.31 147.677 385.793 152.684 392.085 158.652C387.834 153.302 383.083 148.369 377.897 143.92C373.259 139.947 368.459 136.024 363.318 132.747C362.082 131.961 347.934 124.658 351.242 131.637C353.633 136.684 359.601 140.149 364.127 143.048C369.165 146.279 374.364 149.223 379.479 152.333L379.456 152.315ZM389.088 118.896C387.083 116.501 385.002 114.155 382.894 111.813C385.187 119.418 387.923 126.815 390.692 134.235C389.669 129.321 389.058 124.33 388.863 119.314C388.858 119.23 388.876 119.147 388.916 119.073C388.955 118.999 389.015 118.938 389.088 118.896ZM368.18 79.1314C367.53 83.5436 368.255 88.049 370.257 92.0343C374.041 99.7509 379.91 106.07 385.631 112.375C396.305 123.98 404.03 137.983 408.156 153.201C408.085 152.089 408.008 150.982 407.927 149.879C407.837 149.452 407.747 149.025 407.653 148.598C407.532 148.575 407.421 148.517 407.333 148.432C407.244 148.346 407.182 148.237 407.154 148.118C403.873 135.412 398.193 124.181 390.458 113.589C385.42 106.699 379.452 100.173 375.506 92.5601C375.214 91.9939 376.108 91.6208 376.405 92.1691C381.011 100.587 387.955 107.643 393.384 115.539C397.182 120.947 400.499 126.676 403.298 132.662C401.411 126.873 399.253 121.175 396.925 115.647C394.229 109.27 391.227 102.317 387.456 95.9308C387.32 95.879 387.204 95.7834 387.128 95.659C387.051 95.5346 387.018 95.3884 387.034 95.2432C387.034 95.2432 387.034 95.2207 387.034 95.2117C383.879 89.9445 380.167 85.1177 375.65 81.3785C374.333 80.2864 368.742 75.3608 368.18 79.1314ZM376.315 70.4621C376.643 73.0732 378.638 78.1022 378.203 81.0549C381.582 84.0121 384.526 87.7693 387.106 91.8411C387.07 83.702 385.811 74.8394 383.137 67.4195C382.571 65.8465 380.998 60.9074 378.513 61.2849C375.03 61.8062 376.027 68.1566 376.315 70.4621ZM405.721 97.9128C405.914 102.407 406.341 106.942 406.799 111.494C406.983 108.717 407.249 105.944 407.617 103.189C408.556 95.8948 409.415 88.1558 411.725 81.1358C411.824 80.8347 412.264 81.0055 412.233 81.2887C410.884 94.0657 407.685 106.281 407.55 118.968C407.918 122.842 408.224 126.721 408.354 130.572C409.374 123.166 411.289 115.741 412.511 108.739C413.86 101.122 415.208 93.4275 415.554 85.6885C415.801 80.0258 415.972 73.4283 413.226 68.2824C412.497 66.7615 411.432 65.4261 410.111 64.3769C409.145 63.6758 409.356 64.4219 408.858 65.6803C407.686 68.6545 406.882 71.7605 406.462 74.9293C405.41 82.538 405.397 90.2546 405.721 97.9128ZM356.54 112.164C363.918 113.247 370.949 116.003 377.097 120.222C372.736 116.245 367.612 113.194 362.037 111.256C358.325 109.908 354.469 108.879 350.882 107.211C350.487 107.027 350.765 106.398 351.174 106.515C359.134 108.865 369.223 111.09 375.861 116.851C375.798 116.766 375.74 116.676 375.672 116.586C369.187 109.818 358.779 105.8 350.249 102.654C346.703 101.351 330.78 94.8342 328.357 100.614C324.312 110.299 351.525 111.445 356.54 112.168V112.164ZM330.627 41.007C323.827 44.3732 337.094 62.1972 348.604 77.6483C344.303 70.8666 340.217 63.941 337.089 56.7862C336.919 56.3862 337.602 56.0806 337.786 56.4716C342.527 66.633 349.795 75.4462 355.403 85.1402C347.076 65.9814 336.24 38.2206 330.622 41.007H330.627ZM305.091 87.8098C311.041 90.7714 315.248 84.5065 318.573 80.4887C314.861 82.6998 310.735 84.4076 307.118 86.6368C306.547 86.9873 306.061 86.093 306.614 85.7379C308.673 84.3897 310.803 83.1043 312.965 81.8684C306.839 83.1043 300.205 82.1605 295.132 78.7854C294.682 78.4843 295.163 77.7697 295.63 77.9989C304.304 82.192 311.01 80.592 319.05 78.1202L318.6 77.9674C313.229 78.9277 307.75 79.1319 302.322 78.5741C302.194 78.5579 302.078 78.4929 301.997 78.3927C301.916 78.2925 301.877 78.1649 301.888 78.0365C301.899 77.9082 301.959 77.7892 302.056 77.7042C302.153 77.6193 302.279 77.5751 302.408 77.5809C306.628 77.9944 310.816 77.2888 314.991 76.8304C307.028 74.5114 298.664 73.2126 291.226 69.5992C288.2 68.1935 285.508 66.1589 283.33 63.6309C281.847 65.0376 279.613 65.7926 277.761 66.4398C276.215 66.9791 274.517 67.4105 273.105 68.2599C272.212 68.8556 271.427 69.6005 270.786 70.4621C270.975 70.3924 271.184 70.4006 271.367 70.4849C271.55 70.5692 271.692 70.7226 271.762 70.9115C273.11 74.1114 275.308 83.9447 279.644 83.9447C284.741 83.9088 289.738 82.6639 294.848 82.8122C299.064 82.9335 301.59 86.0975 305.077 87.8322L305.091 87.8098ZM270.238 77.4371C271.267 78.336 272.314 79.2348 273.344 80.1336C271.995 77.1899 271.137 73.7518 270.238 71.5497C270.181 71.407 270.167 71.2508 270.198 71.1003C269.955 71.271 269.541 71.2351 269.523 70.8621C269.425 69.1947 270.562 67.9858 271.932 67.1274C270.584 64.4309 269.384 61.6669 268.004 58.9973C267.766 60.9119 267.51 62.6961 268.454 65.3746C268.504 65.579 268.472 65.795 268.365 65.9759C268.257 66.1568 268.082 66.2879 267.879 66.3409C260.113 68.4532 266.953 74.5338 270.247 77.4326L270.238 77.4371ZM278.66 49.191C275.586 51.7122 271.469 53.7436 267.811 55.0334L268.076 55.4829C268.106 55.5134 268.129 55.5503 268.144 55.5907C270.223 59.0047 271.956 62.618 273.317 66.3768C273.492 66.3004 273.663 66.2195 273.833 66.1521C275.555 65.469 277.343 64.9477 279.047 64.2196C280.199 63.674 281.31 63.0462 282.372 62.341C279.788 58.6828 278.606 54.2515 278.66 49.1685V49.191ZM275.622 43.2406C273.164 45.5462 270.849 48.4045 270.678 51.8605C271.938 51.2363 273.163 50.5462 274.35 49.7932C275.784 48.8944 277.168 47.8113 278.741 47.1731C278.768 46.7821 278.791 46.3911 278.831 45.9911C278.886 45.7661 279.025 45.5709 279.22 45.4461C279.415 45.3214 279.651 45.2767 279.878 45.3215C280.747 45.4623 281.601 45.5731 282.44 45.654C281.366 43.4474 281.541 41.0385 282.269 38.7644C280.094 40.2879 277.618 41.3755 275.622 43.2586V43.2406ZM287.756 36.5937C285.172 37.2139 284.134 37.115 283.545 40.1891C283.168 41.944 283.15 43.757 283.491 45.5192C283.511 45.5929 283.511 45.6702 283.491 45.7439C286.391 45.9791 289.307 45.6119 292.057 44.6653C292.507 41.3216 293.325 37.4116 294.934 34.2477C292.618 35.2592 290.21 36.0448 287.743 36.5937H287.756ZM312.142 40.5576C310.992 36.8633 309.702 37.0611 306.223 36.1443C303.23 35.3578 300.039 34.7601 297.163 33.5556C295.967 35.9059 295.076 38.3994 294.511 40.9756C294.403 41.425 294.255 42.7328 293.932 43.8833C294.835 43.448 295.705 42.9463 296.534 42.3822C296.695 42.2797 296.887 42.2342 297.077 42.2529C297.268 42.2717 297.447 42.3536 297.585 42.4856C306.727 53.5459 314.767 66.1297 325.935 75.2934L326.007 75.172C325.918 75.1882 325.827 75.1706 325.751 75.1226C323.005 73.0687 321.077 69.0329 319.009 66.3049C316.389 62.8354 313.738 59.3973 311.153 55.9053C310.771 55.384 311.486 54.6874 311.899 55.2087C314.857 58.9299 317.881 62.6017 320.775 66.3768C319.089 63.6434 317.567 60.8115 316.218 57.8963C315.985 57.3884 316.753 56.9974 316.991 57.4918C319.108 62.022 322.497 66.0308 324.96 70.4441C322.47 63.3118 318.901 56.6963 315.836 49.8022C314.425 46.7906 313.19 43.6993 312.138 40.5441L312.142 40.5576ZM323.31 76.5967L323.526 76.5293C320.483 75.4642 317.639 73.4238 315.045 71.689C311.383 69.2442 307.787 66.615 303.999 64.3005C303.518 64.0084 303.999 63.3118 304.475 63.5814C308.344 65.7477 312.021 68.224 315.764 70.6059C317.634 71.7924 319.638 72.8171 321.607 73.8957C314.147 66.9746 308.124 58.5344 301.868 50.5662C300.821 49.2179 297.909 43.8788 295.837 44.9664C293.622 46.155 291.231 46.979 288.754 47.4068C286.852 47.701 284.917 47.7327 283.006 47.5011C279.523 47.1146 280.112 50.9527 280.525 53.5324C280.94 56.4523 282.057 59.2281 283.779 61.622C283.877 61.5933 283.982 61.5945 284.079 61.6256C284.176 61.6566 284.262 61.7161 284.325 61.7963C284.389 61.8765 284.426 61.9738 284.434 62.0756C284.442 62.1775 284.419 62.2793 284.368 62.368C291.195 70.6643 305.095 71.5047 315.827 75.0327C311.54 73.1182 307.473 70.4891 303.819 67.9184C303.369 67.6083 303.868 66.9476 304.313 67.2442C307.41 69.352 310.673 71.2037 314.07 72.7811C317.117 74.1294 320.362 75.1585 323.355 76.5877L323.31 76.5967ZM368.535 46.2518C374.603 50.8507 380.358 55.8489 385.762 61.213C386.917 62.3455 388.112 63.523 389.308 64.741C385.906 59.5214 382.051 54.6113 377.789 50.0674C371.884 43.8788 365.502 38.1891 359.363 32.2658C359.012 31.9287 359.547 31.4343 359.902 31.7444C371.034 41.4474 383.056 51.7931 391.101 64.4938C384.939 54.5219 378.245 44.8888 371.048 35.6364C366.585 29.8524 361.942 23.7223 356.185 19.1427C354.491 17.7944 352.262 15.9023 349.961 15.8709C347.44 15.8349 343.004 16.8012 343.669 20.2303C344.82 26.0323 350.86 31.2231 355.008 35.0207C359.327 38.9846 363.857 42.7238 368.544 46.2563L368.535 46.2518ZM394.526 70.5565L395.087 71.28C394.389 70.0546 393.682 68.8322 392.966 67.6127C393.496 68.579 394.018 69.5632 394.526 70.5565ZM392.395 44.4316C392.344 44.4359 392.293 44.4359 392.242 44.4316L392.377 44.908C392.377 44.7417 392.377 44.5799 392.377 44.4181L392.395 44.4316ZM390.53 30.1445C390.885 31.4928 391.303 32.9489 391.694 34.405C391.135 24.376 390.014 14.3862 388.337 4.48254C388.331 4.44122 388.341 4.39931 388.365 4.36472C388.388 4.33013 388.423 4.30524 388.463 4.29474C388.504 4.28424 388.546 4.28886 388.584 4.30772C388.621 4.32658 388.65 4.35839 388.665 4.39715C391.672 15.1293 392.409 26.9401 392.575 38.1757C392.602 38.315 392.638 38.4588 392.66 38.5981C393.11 29.3355 393.627 20.0864 393.559 10.7924C393.496 2.70283 393.303 -5.47664 391.955 -13.4763C391.33 -17.1841 390.332 -25.8894 385.807 -27.2017C374.257 -30.5499 383.146 2.60397 384.189 6.66224C386.207 14.5091 388.494 22.2841 390.539 30.131L390.53 30.1445ZM355.273 -17.5661C355.414 -17.5879 355.559 -17.5708 355.691 -17.5166L355.242 -18.0559C355.17 -18.0964 355.098 -18.1503 355.026 -18.1908C354.954 -18.0964 354.887 -17.9975 354.81 -17.9121C354.803 -17.7686 354.763 -17.6287 354.693 -17.5032C354.878 -17.5256 355.062 -17.5391 355.251 -17.5661H355.273ZM301.945 -39.1023C303.796 -29.8892 316.353 -26.559 324.151 -23.8804C333.588 -20.6491 343.215 -16.4964 353.327 -17.3414L353.269 -17.4043L353.224 -17.4447C350.428 -17.5391 347.669 -18.9997 345.193 -20.1817C341.179 -22.1142 337.103 -24.1816 332.55 -24.0243C331.849 -24.0018 331.71 -25.0714 332.424 -25.1163C335.54 -25.285 338.65 -24.7024 341.494 -23.4175C344.375 -22.1816 347.264 -21.0401 350.163 -19.9076C345.894 -23.2243 341.035 -26.3792 336.366 -28.3836C331.957 -30.2757 326.834 -31.4757 322.937 -34.3789C316.6 -39.0934 319.593 -44.1763 320.447 -49.5334C320.434 -49.5063 320.417 -49.4807 320.398 -49.457L320.259 -49.2907C320.16 -49.1668 320.03 -49.0712 319.883 -49.0136C319.735 -48.956 319.575 -48.9384 319.418 -48.9626C317.49 -49.4031 314.529 -50.3019 312.601 -51.6232C310.744 -46.1178 306.637 -42.5045 301.945 -39.1023ZM301.945 -41.2146C301.95 -41.138 301.938 -41.0611 301.909 -40.9899C305.841 -44.4145 309.598 -47.2818 311.176 -52.5715C307.324 -53.8748 302.295 -54.7242 301.787 -49.3671C301.527 -46.6706 301.823 -43.9336 301.949 -41.2146H301.945ZM315.311 -62.3959C313.293 -62.5172 311.162 -62.67 309.324 -63.3306C309.814 -60.0004 311.504 -56.5893 312.794 -53.5872C312.794 -53.5872 312.821 -53.5872 312.834 -53.5467C312.848 -53.5063 312.956 -53.4434 313.009 -53.3939C313.009 -56.4096 313.257 -60.1622 315.311 -62.3824V-62.3959ZM334.047 -74.6381C327.786 -71.4921 319.665 -71.7753 317.063 -63.852C317.135 -63.852 317.207 -63.807 317.283 -63.7801C320.852 -65.5103 325.234 -65.3081 329.081 -65.7171C329.226 -65.7444 329.375 -65.7335 329.515 -65.6854C329.654 -65.6373 329.779 -65.5538 329.876 -65.4429C330.144 -65.0541 330.459 -64.7008 330.816 -64.3913C330.258 -68.117 331.692 -71.7393 334.047 -74.6381ZM345.853 -73.928C343.453 -75.0516 340.793 -75.0111 338.662 -76.8447C334.263 -73.6988 332.429 -69.3169 331.881 -64.0048C331.87 -63.8768 331.81 -63.7578 331.714 -63.6722C332.46 -63.1509 333.274 -62.706 333.997 -62.279C334.251 -62.0769 334.433 -61.7977 334.514 -61.4835H334.6L334.573 -61.2498C334.589 -61.194 334.601 -61.1369 334.609 -61.079C335.332 -61.0431 336.056 -60.9981 336.788 -60.9532C336.882 -60.9443 336.972 -60.9162 337.054 -60.8706C337.136 -60.8249 337.208 -60.7628 337.265 -60.688C339.871 -65.4519 341.08 -71.3303 345.844 -73.919L345.853 -73.928ZM359.749 -62.1352C359.79 -59.4701 351.381 -64.4182 350.981 -64.8946C349.763 -66.225 348.851 -67.8068 348.312 -69.5282C348.008 -70.487 347.789 -71.4705 347.655 -72.4674C346.86 -72.4587 346.081 -72.2337 345.403 -71.8165C344.726 -71.3993 344.174 -70.8056 343.808 -70.0989C341.615 -66.6878 340.532 -62.7419 338.478 -59.2499C338.41 -59.1263 338.311 -59.0227 338.19 -58.9494C338.069 -58.876 337.932 -58.8356 337.791 -58.8319C339.629 -51.6097 347.503 -49.7896 350.99 -43.4977C352.896 -40.0641 353.174 -36.9676 352.878 -33.0531C352.648 -30.051 351.902 -26.7972 352.226 -23.813C352.397 -23.3187 352.559 -22.8153 352.711 -22.312C352.914 -22.1232 353.107 -21.93 353.305 -21.7367C353.387 -21.7706 353.477 -21.7792 353.565 -21.7616C353.652 -21.744 353.732 -21.7009 353.794 -21.6378L353.925 -21.503C353.637 -29.8892 353.394 -38.9271 355.053 -47.0256C355.116 -47.3178 355.583 -47.4032 355.628 -47.0571C356.572 -38.8552 355.138 -30.2442 354.869 -21.8895C356.149 -28.0151 356.028 -34.1228 356.401 -40.3697C356.424 -40.6933 356.936 -40.7472 356.985 -40.4146C357.178 -39.0633 357.298 -37.7026 357.345 -36.3384C358.19 -42.8505 358.895 -49.3716 359.403 -55.9287C359.565 -57.978 359.781 -60.0589 359.745 -62.1172L359.749 -62.1352ZM322.335 -49.3447C320.987 -44.4415 318.474 -39.354 324.025 -35.862C328.479 -33.0441 333.8 -32.1183 338.244 -29.4173C342.815 -26.6444 347.156 -23.849 351.228 -20.5278C351.12 -20.7839 351.026 -21.0401 350.941 -21.3008C348.95 -23.0984 347.116 -25.1613 345.363 -27.0039C343.287 -29.1926 340.217 -31.7453 339.17 -34.6441C339.004 -35.0935 339.62 -35.3317 339.921 -35.0935C342.168 -33.3318 344.078 -30.833 346.069 -28.6353C344.894 -31.18 344.066 -33.8704 343.606 -36.635C343.498 -37.2597 344.446 -37.399 344.577 -36.7833C345.39 -32.8426 347.117 -29.148 349.619 -25.9972C348.072 -29.7317 346.805 -33.5758 345.826 -37.4979C345.651 -38.163 346.64 -38.5091 346.842 -37.8395C347.813 -34.6216 349.179 -31.5476 350.469 -28.4016C350.954 -34.0239 352.379 -39.9203 348.082 -44.5269C345.026 -47.8031 341.062 -50.0502 338.235 -53.5467C337.362 -54.6045 336.711 -55.8272 336.321 -57.1421C335.332 -60.9217 330.478 -59.8386 327.171 -59.2454C327.013 -59.2184 320.834 -58.2971 321.629 -56.468C322.04 -55.6683 322.343 -54.8174 322.528 -53.9377C322.786 -52.41 322.72 -50.8453 322.335 -49.3447ZM317.733 -62.243C317.201 -61.9318 316.741 -61.5105 316.385 -61.0071C314.74 -58.6342 314.457 -55.4029 314.182 -52.5445C315.908 -51.6007 318.367 -51.1109 319.926 -50.6794C320.07 -50.6399 320.201 -50.5666 320.311 -50.4658C320.42 -50.3649 320.504 -50.2394 320.555 -50.0997C320.838 -52.2884 320.699 -54.5265 319.36 -56.8006C319.287 -56.8942 319.233 -57.0013 319.201 -57.1159C319.17 -57.2305 319.161 -57.3501 319.176 -57.468C319.191 -57.5858 319.23 -57.6995 319.289 -57.8025C319.348 -57.9055 319.427 -57.9957 319.522 -58.0679C323.566 -60.8453 327.948 -61.2858 332.555 -61.1734C331.504 -61.7701 330.508 -62.4589 329.58 -63.2318C328.047 -64.4767 325.984 -63.7441 323.93 -63.5554C322.187 -63.3936 319.886 -63.3127 318.169 -62.4678C318.118 -62.4048 318.056 -62.3526 317.985 -62.314C317.914 -62.2754 317.836 -62.2513 317.755 -62.243H317.733ZM465.305 -44.7561C465.504 -44.7336 465.691 -44.6469 465.837 -44.5091C465.983 -44.3713 466.08 -44.1899 466.114 -43.992C466.622 -37.9878 467.538 -31.8577 467.628 -25.8489C467.673 -23.1524 469.089 -19.4402 468.258 -16.7661C466.388 -10.7528 457.782 -7.71925 452.15 -7.89452C446.519 -8.0698 442.955 -7.24735 438.528 -3.5621C436.731 -2.04755 434.888 -0.339752 432.857 0.887169C428.605 3.45786 428.497 2.46914 424.115 0.482697C423.846 0.361351 423.59 0.235512 423.329 0.114166C428.178 18.7786 429.76 37.9914 429.428 57.2266C432.124 42.9126 435.881 28.1626 442.663 15.6012C444.506 12.1946 447.4 6.63976 451.777 5.9836C455.242 5.46228 457.044 7.7813 457.238 11.0036C457.588 16.7967 455.072 23.138 453.139 28.4457C449.93 37.3128 446.142 45.9731 442.353 54.593C438.582 63.132 434.74 71.671 431.279 80.3314C430.007 83.5268 428.614 86.8525 427.553 90.2456C427.559 90.3062 427.553 90.3673 427.534 90.4252C427.516 90.4832 427.485 90.5367 427.446 90.5827C427.297 91.0681 427.167 91.5534 427.037 92.0388C426.62 95.748 426.171 99.4453 425.688 103.131C423.994 115.809 422.745 128.613 421.001 141.331C423.697 132.033 426.821 122.851 428.834 113.386C429.962 108.092 431.194 102.82 432.758 97.6566C434.452 92.0433 440.47 70.6374 450.105 78.1786C461.727 87.2749 447.75 108.622 442.703 117.669C433.89 133.457 423.563 149.088 416.637 165.897C414.937 172.602 412.765 179.178 410.138 185.577C410.017 187.19 409.869 188.799 409.689 190.413L408.597 194.156L407.073 194.264L405.725 192.866L405.815 189.617C406.026 189.141 406.242 188.664 406.453 188.184C406.174 186.715 405.885 185.249 405.586 183.784C400.107 173.447 393.586 164.503 384.148 157.425C378.904 153.493 372.94 150.504 367.367 147.088C363.799 144.9 343.633 134.001 350.541 127.435C353.102 124.999 358.347 127.916 360.684 129.233C366.612 132.563 372.036 136.792 377.209 141.183C387.047 149.529 396.373 159.331 402.552 170.782C402.449 170.395 402.35 170.009 402.242 169.622C398.076 154.724 391.618 140.949 383.317 127.921L383.016 127.471C376.275 120.905 367.767 115.701 358.329 114.186C352.114 113.193 345.786 112.91 339.624 111.562C335.481 110.663 328.744 109.247 326.924 104.69C326.025 102.443 326.088 99.4498 328.456 98.1195C335.494 94.1691 347.664 99.7194 354.132 102.456C359.008 104.524 366.149 107.274 371.574 111.112C368.72 107.431 365.731 103.868 362.545 100.474C362.43 100.502 362.31 100.483 362.209 100.423C362.108 100.362 362.035 100.265 362.005 100.151C361.978 100.039 361.942 99.9082 361.898 99.7778C360.814 98.6363 359.718 97.5083 358.59 96.4072C349.565 87.5671 340.06 81.428 328.447 77.0551C328.438 77.2682 328.348 77.4697 328.195 77.6185C328.042 77.7672 327.838 77.8518 327.625 77.8551C319.472 77.8955 317.922 87.7963 310.142 89.7602C304.682 91.1355 302.74 87.5131 298.008 85.4593C293.788 83.6346 288.687 84.9604 284.282 85.4233C282.314 85.6346 279.586 86.2547 277.671 85.4233C277.356 85.2758 277.056 85.0999 276.773 84.8975C276.675 84.9212 276.574 84.9182 276.478 84.8889C276.382 84.8597 276.296 84.8052 276.229 84.7312C272.144 80.4977 264.611 76.8888 262.652 70.9834C262.036 69.1273 262.346 67.069 264.261 66.0757C267.043 64.6286 265.838 64.1163 266.202 61.0377C266.329 59.724 266.58 58.4253 266.953 57.1592C266.571 56.4896 266.175 55.811 265.744 55.1818C265.659 55.0717 265.6 54.9435 265.573 54.807C265.546 54.6706 265.551 54.5298 265.588 54.3956C265.624 54.2615 265.692 54.1376 265.784 54.0338C265.877 53.9301 265.992 53.8492 266.121 53.7975C267.332 53.4035 268.517 52.9367 269.672 52.3999C269.425 48.9798 271.155 45.9551 273.55 43.5373C275.865 41.1958 279.447 37.8925 282.844 37.3038C283.047 36.8544 283.258 36.4049 283.482 35.9555C283.54 35.8198 283.632 35.7015 283.75 35.6124C283.867 35.5233 284.006 35.4665 284.152 35.4477C288.116 35.4477 292.192 32.086 296.021 32.5085C296.021 32.4725 296.071 32.4276 296.098 32.3916C296.145 32.1905 296.27 32.0162 296.445 31.9068C296.62 31.7973 296.831 31.7616 297.033 31.8074C302.075 33.0118 307.028 34.5758 312.066 35.8207C312.26 35.8556 312.439 35.9493 312.578 36.0892C312.717 36.2291 312.809 36.4083 312.843 36.6027C316.227 50.2921 325.036 61.8422 328.173 75.6169C339.319 77.2484 349.822 85.6346 357.628 93.0725C357.938 93.3646 358.23 93.6747 358.527 93.9713C348.001 78.7719 318.151 45.3979 329.652 39.7217C337.292 35.9555 345.575 59.0962 347.485 63.3522C351.031 71.2576 354.32 79.2752 357.857 87.1716C359.88 91.6928 361.79 97.5847 365.457 101.104C365.494 101.147 365.527 101.193 365.556 101.243C372.377 108.886 378.552 117.082 384.018 125.745L384.764 126.927C384.948 127.13 385.137 127.327 385.317 127.534C385.392 127.611 385.45 127.703 385.487 127.803C385.525 127.904 385.542 128.011 385.537 128.118C386.553 129.754 387.544 131.402 388.512 133.062C385.509 125.35 382.93 117.479 380.787 109.485C372.544 100.263 363.259 88.8704 367.367 75.9136C367.446 75.7498 367.577 75.6169 367.74 75.5356C367.902 75.4543 368.087 75.4292 368.266 75.4641C371.057 76.2694 373.682 77.5694 376.014 79.3022C375.564 77.5629 375.457 75.554 375.241 74.2822C374.679 70.9744 373.843 67.051 374.657 63.7028C375.403 60.6377 378.638 57.8963 381.398 60.9164C385.366 65.2398 386.342 72.3137 387.177 77.873C388.009 83.2976 388.786 88.9108 388.665 94.4252C392.503 101.027 395.465 108.137 397.824 113.822C401.083 121.683 404.458 130.087 406.889 138.657C405.298 124.181 402.844 109.728 400.305 95.4005C399.357 90.0748 398.507 84.7177 397.609 79.3606C393.739 69.0824 383.016 60.6917 375.061 53.811C370.423 49.7977 365.484 46.2113 360.765 42.2969C356.72 38.9217 336.047 23.3717 343.13 16.5001C352.469 7.42625 365.479 25.9065 370.073 31.7804C379.838 44.2339 389.186 57.6536 396.346 71.8328C394.161 59.1367 391.55 46.5259 387.011 34.4634C379.74 15.1383 368.67 -0.870064 356.158 -16.8425C356.185 -16.7331 356.187 -16.6195 356.167 -16.5089C356.146 -16.3984 356.102 -16.2935 356.038 -16.201C355.974 -16.1086 355.891 -16.0307 355.795 -15.9724C355.699 -15.9141 355.591 -15.8767 355.48 -15.8628C343.345 -14.0651 331.076 -19.3997 319.949 -23.6422C312.87 -26.3388 301.298 -30.1499 300.552 -39.1428C300.494 -39.2778 300.481 -39.4279 300.516 -39.5705C300.551 -39.7131 300.631 -39.8406 300.745 -39.9338L301.518 -40.6169C301.432 -40.582 301.34 -40.5662 301.247 -40.5705C301.155 -40.5748 301.064 -40.5992 300.982 -40.642C300.9 -40.6847 300.828 -40.7448 300.772 -40.8181C300.715 -40.8914 300.675 -40.9761 300.655 -41.0663C300.138 -44.9898 299.185 -50.1941 301.832 -53.5872C303.841 -56.1624 307.801 -55.2905 310.722 -54.3242C309.306 -57.5736 307.769 -61.151 307.576 -64.5845C307.545 -65.2047 308.313 -65.4834 308.785 -65.2137C310.938 -63.9598 313.553 -64.3553 315.949 -64.0093C317.746 -72.3505 329.18 -75.2448 336.312 -77.3751C336.383 -77.3992 336.459 -77.4053 336.532 -77.3927C336.606 -77.3801 336.676 -77.3494 336.734 -77.3032C337.184 -77.6852 337.678 -78.0447 338.168 -78.3773C338.328 -78.5033 338.531 -78.5641 338.734 -78.5475C338.937 -78.5308 339.127 -78.4379 339.265 -78.2874C341.552 -75.874 345.071 -76.4088 347.718 -74.737C347.75 -74.7145 347.763 -74.6875 347.795 -74.6651C347.934 -74.7055 348.064 -74.7594 348.208 -74.7954C348.427 -74.822 348.647 -74.7608 348.821 -74.6252C348.994 -74.4895 349.107 -74.2905 349.134 -74.0718C349.732 -67.3305 353.43 -62.9037 360.437 -63.0835C360.629 -63.0799 360.813 -63.0014 360.948 -62.8645C361.083 -62.7276 361.159 -62.5433 361.16 -62.3509C361.201 -53.9872 359.902 -45.3942 358.846 -37.1204C358.235 -32.3071 357.624 -27.4533 356.518 -22.7389C356.316 -21.677 356.056 -20.6268 355.74 -19.593C369.376 -5.61147 380.261 12.0778 387.384 30.1355C388.84 33.8298 390.117 37.56 391.263 41.3261C390.89 34.6387 388.117 27.6188 386.436 21.4347C384.027 12.7114 381.56 3.97021 379.883 -4.91036C378.76 -10.8877 376.913 -18.6582 379.169 -24.613C380.288 -27.5837 383.528 -30.0465 386.764 -28.3432C391.02 -26.0961 392.256 -19.8042 393.029 -15.5617C394.404 -7.97092 394.8 -0.195938 394.912 7.50715C395.114 21.2729 394.44 35.0207 393.384 48.7416C396.018 58.912 397.878 69.2711 399.617 79.6662C399.698 79.9224 399.788 80.1741 399.865 80.4303C399.916 80.6065 399.906 80.7949 399.838 80.9651C400.624 85.666 401.406 90.3715 402.242 95.0679C403.033 99.5172 403.808 103.981 404.566 108.461C404.363 105.018 404.188 101.58 404.062 98.124C403.613 86.6637 402.75 72.88 408.556 62.5118C408.61 62.3986 408.688 62.2987 408.785 62.2192C408.882 62.1397 408.996 62.0827 409.117 62.0522C409.239 62.0217 409.365 62.0185 409.488 62.0428C409.611 62.0671 409.727 62.1183 409.828 62.1927C420.538 68.8397 417.343 86.866 415.81 97.0633C414.435 106.25 412.421 115.31 410.902 124.478C410.08 129.449 409.132 134.644 408.997 139.781C410.377 152.661 411.073 165.56 410.538 178.4C411.262 176.557 411.959 174.701 412.597 172.827C412.546 172.734 412.516 172.631 412.509 172.526C412.501 172.421 412.516 172.315 412.552 172.216C413.042 170.795 413.563 169.389 414.102 167.987C414.918 165.221 415.584 162.415 416.098 159.578C419.356 140.828 421.316 121.921 423.81 103.068C424.502 97.8094 425.136 92.5392 425.711 87.257C425.428 85.0206 425.392 82.7599 425.603 80.5157C424.596 72.7991 422.938 65.6488 419.738 58.0985C416.844 51.2763 413.298 44.8361 410.134 38.1442C407.339 32.2388 397.919 14.7743 407.361 10.325C414.206 7.08919 419.005 27.794 419.967 31.2096C423.9 45.1417 425.585 59.0737 426.596 73.3609C426.794 72.2328 427.001 71.1138 427.194 70.0756C427.616 63.2803 427.828 56.4806 427.729 49.6719C427.495 33.0927 425.284 16.9899 421.985 0.797287C421.896 0.734177 421.831 0.642113 421.801 0.536621C421.689 0.186073 421.563 -0.155487 421.441 -0.501541C421.317 -0.548454 421.208 -0.630127 421.128 -0.736862C421.049 -0.843597 421.001 -0.970932 420.992 -1.10377C415.635 -4.08793 412.125 -7.84509 409.046 -13.8853C404.903 -22.0468 400.058 -31.0981 402.575 -40.563C403.608 -44.437 404.476 -44.1044 401.195 -45.6055C400.296 -46.0189 399.303 -46.4324 398.597 -47.1695C397.541 -48.2615 396.894 -49.7042 397.433 -51.2142C399.092 -55.9511 405.105 -59.1061 409.738 -60.751C411.693 -65.2452 415.581 -68.3237 419.023 -71.6899C419.139 -71.8304 419.297 -71.9299 419.473 -71.9736C419.65 -72.0173 419.836 -72.0029 420.003 -71.9326C424.246 -69.6405 429.89 -63.8789 434.969 -68.0271C435.111 -68.1467 435.289 -68.2156 435.474 -68.2229C435.66 -68.2302 435.843 -68.1756 435.994 -68.0675C441.036 -63.7171 447.427 -61.4476 447 -54.2164C448.577 -53.5531 450.352 -53.5337 451.944 -54.1624C452.127 -54.2251 452.327 -54.2266 452.511 -54.1667C452.696 -54.1067 452.856 -53.9886 452.968 -53.8299C454.582 -51.5154 457.498 -46.8189 460.406 -45.983C460.579 -45.9374 460.73 -45.8299 460.829 -45.6809C460.929 -45.5318 460.97 -45.3515 460.945 -45.174C462.408 -45.1883 463.867 -45.0497 465.3 -44.7606L465.305 -44.7561Z" fill="#DC9789"/>
</g>
<defs>
<clipPath id="clip0_625_13562">
<rect width="360" height="527" fill="white"/>
</clipPath>
</defs>
</svg>
