<svg width="100" height="100" viewBox="0 0 100 100" fill="none" xmlns="http://www.w3.org/2000/svg">
<path d="M16.6667 75H25V92.0042L46.2542 75H66.6667C71.2625 75 75 71.2625 75 66.6667V33.3333C75 28.7375 71.2625 25 66.6667 25H16.6667C12.0708 25 8.33334 28.7375 8.33334 33.3333V66.6667C8.33334 71.2625 12.0708 75 16.6667 75Z" fill="white"/>
<path d="M83.3333 8.33325H33.3333C28.7375 8.33325 25 12.0708 25 16.6666H75C79.5958 16.6666 83.3333 20.4041 83.3333 24.9999V58.3333C87.9292 58.3333 91.6667 54.5957 91.6667 49.9999V16.6666C91.6667 12.0708 87.9292 8.33325 83.3333 8.33325Z" fill="white"/>
</svg>
