<svg width="146" height="132" viewBox="0 0 146 132" fill="none" xmlns="http://www.w3.org/2000/svg">
<g clip-path="url(#clip0_222_7704)">
<g style="mix-blend-mode:overlay">
<g style="mix-blend-mode:overlay">
<path d="M130.056 83.3701C137.76 49.8136 116.802 16.3655 83.2457 8.66155C49.6892 0.957601 16.2411 21.9152 8.53712 55.4716C0.833173 89.0281 21.7908 122.476 55.3472 130.18C88.9036 137.884 122.352 116.927 130.056 83.3701Z" fill="#89A58F"/>
</g>
</g>
<g style="mix-blend-mode:overlay">
<g style="mix-blend-mode:overlay">
<path d="M133.623 79.8037C141.327 46.2472 120.369 12.7991 86.8126 5.09515C53.2561 -2.6088 19.808 18.3488 12.104 51.9052C4.40007 85.4617 25.3577 118.91 58.9141 126.614C92.4705 134.318 125.919 113.36 133.623 79.8037Z" fill="white"/>
</g>
</g>
<path d="M72.8601 129.63C60.2476 129.63 47.9183 125.89 37.4314 118.883C26.9445 111.876 18.7709 101.917 13.9443 90.2641C9.11772 78.6116 7.85486 65.7896 10.3154 53.4195C12.776 41.0493 18.8495 29.6866 27.7679 20.7682C36.6863 11.8498 48.049 5.77626 60.4192 3.31568C72.7894 0.855104 85.6114 2.11796 97.2638 6.94456C108.916 11.7712 118.876 19.9447 125.883 30.4316C132.89 40.9186 136.63 53.2478 136.63 65.8604C136.609 82.7667 129.884 98.9746 117.929 110.929C105.974 122.884 89.7665 129.609 72.8601 129.63ZM72.8601 4.94036C60.8113 4.94036 49.033 8.51326 39.0148 15.2072C28.9965 21.9012 21.1883 31.4156 16.5774 42.5473C11.9665 53.679 10.7601 65.9279 13.1107 77.7453C15.4613 89.5626 21.2634 100.417 29.7832 108.937C38.303 117.457 49.1579 123.259 60.9752 125.61C72.7925 127.96 85.0415 126.754 96.1732 122.143C107.305 117.532 116.819 109.724 123.513 99.7057C130.207 89.6875 133.78 77.9092 133.78 65.8604C133.759 49.7099 127.334 34.2269 115.914 22.8068C104.494 11.3867 89.0106 4.96153 72.8601 4.94036Z" fill="#869554"/>
<g clip-path="url(#clip1_222_7704)">
<path d="M75.6 105.503C72.934 105.387 70.3317 104.651 68 103.353C65.6168 102.204 63.1656 101.202 60.66 100.353C52.66 97.473 43.5401 94.203 37.0401 81.773L0.550049 77.463L7.17005 38.003L38.67 45.243C39.4282 45.4139 40.2029 45.5011 40.98 45.503C42.8156 45.5042 44.618 45.0139 46.2001 44.083C53.7801 39.623 63.4 34.313 66.2 34.313H66.45C69.78 34.723 78.97 37.193 80.97 38.523C82.97 39.853 104.78 66.523 107.27 69.573L111.53 78.103L112.53 80.043C112.63 80.363 114.16 86.163 106.08 90.943C105.64 91.203 105.16 91.463 104.66 91.713C104.543 92.1468 104.403 92.574 104.24 92.993C103.43 95.093 101.42 98.723 97.14 99.473C96.5994 99.5752 96.0502 99.6254 95.5 99.623C94.8697 99.6188 94.2409 99.5619 93.62 99.453C93.519 99.6874 93.4021 99.9146 93.27 100.133C92.5765 101.27 91.6131 102.218 90.4652 102.893C89.3174 103.568 88.0206 103.949 86.69 104.003C86.3801 104.003 86.05 104.003 85.69 104.003C84.2241 103.981 82.7678 103.763 81.36 103.353L80.97 103.243C80.3006 103.997 79.4707 104.591 78.5414 104.982C77.6122 105.373 76.6071 105.551 75.6 105.503Z" fill="white"/>
<path d="M66.15 34.8232H66.34C69.73 35.2432 78.75 37.6932 80.66 38.9632C82.57 40.2332 106.85 69.9632 106.85 69.9632L111.09 78.4432L112.09 80.3832C112.09 80.3832 113.69 86.0232 105.83 90.6632C105.34 90.9532 104.83 91.2432 104.24 91.5232C104.126 92.0105 103.976 92.4885 103.79 92.9532C103.01 94.9532 101.1 98.4332 97.05 99.1332C96.536 99.232 96.0134 99.2789 95.49 99.2732C94.7459 99.2604 94.0053 99.1699 93.28 99.0032C93.1592 99.3523 93.0017 99.6875 92.81 100.003C92.1558 101.075 91.2461 101.967 90.1623 102.601C89.0786 103.234 87.8546 103.589 86.6 103.633C86.3 103.633 85.99 103.633 85.66 103.633C84.2145 103.611 82.7784 103.396 81.39 102.993L80.76 102.803C80.76 102.803 79.37 105.003 75.6 105.003C73.0196 104.887 70.5024 104.168 68.25 102.903C58.8 98.1332 45.86 97.7832 37.38 81.3432L1.1 77.0532L2.24 70.2832L7.55 38.6132L38.55 45.7432C39.3544 45.9214 40.1762 46.0086 41 46.0032C42.9202 46.0017 44.8052 45.4873 46.46 44.5132C52.3 41.0732 63.34 34.8032 66.17 34.8032L66.15 34.8232ZM66.17 33.8032C63.87 33.8032 57.08 37.1132 45.98 43.6432C44.4653 44.5365 42.7384 45.0062 40.98 45.0032C40.2398 45.0002 39.502 44.9164 38.78 44.7532L7.78 37.6232L6.78 37.3932L6.61 38.3932L1.3 70.1232L0.17 76.8932L0 77.8932L1 78.0032L36.78 82.2632C43.36 94.6732 52.48 97.9532 60.54 100.843C63.0267 101.699 65.4609 102.701 67.83 103.843C70.218 105.155 72.8778 105.894 75.6 106.003C76.6057 106.052 77.6108 105.895 78.5533 105.541C79.4958 105.186 80.3557 104.643 81.08 103.943H81.21C82.6395 104.345 84.1152 104.56 85.6 104.583C85.95 104.583 86.29 104.583 86.6 104.583C88.006 104.523 89.3756 104.117 90.5877 103.402C91.7999 102.687 92.8172 101.685 93.55 100.483L93.77 100.093C94.3005 100.164 94.8349 100.2 95.37 100.203C95.9533 100.205 96.5356 100.154 97.11 100.053C101.6 99.2632 103.7 95.4632 104.55 93.2732C104.696 92.9067 104.823 92.5328 104.93 92.1532C105.38 91.9232 105.8 91.6932 106.2 91.4532C114.59 86.4532 112.96 80.3632 112.88 80.1032V80.0132V79.9432L111.88 78.0032L107.7 69.5032V69.4032L107.64 69.3232C103.57 64.3232 83.16 39.4732 81.23 38.1832C79.14 36.7932 69.96 34.3232 66.5 33.8932H66.2L66.17 33.8032Z" fill="#4D4D4D"/>
<path d="M105.79 90.6232C105.49 90.7932 105.18 90.9732 104.85 91.1432C104.52 91.3132 104.43 91.3732 104.2 91.4832C104.086 91.9705 103.936 92.4485 103.75 92.9132C102.97 94.9132 101.06 98.3932 97.0101 99.0932C96.7601 99.0932 96.5201 99.1732 96.2601 99.2032H95.9601H95.4901C94.7484 99.2157 94.0075 99.1486 93.2801 99.0032C93.1593 99.3523 93.0018 99.6875 92.8101 100.003C92.1559 101.075 91.2462 101.967 90.1624 102.601C89.0787 103.234 87.8547 103.589 86.6001 103.633C86.4469 103.643 86.2933 103.643 86.1401 103.633H85.6601C85.3701 103.633 85.0601 103.633 84.7401 103.633H84.4301H84.0201C83.1279 103.524 82.2453 103.347 81.3801 103.103L80.7601 102.913C80.7601 102.913 77.6801 107.793 68.2501 103.023C58.8201 98.2532 45.8601 97.8132 37.3801 81.3732L1.1001 77.0532L2.2401 70.2832C2.74262 70.891 3.33633 71.4173 4.0001 71.8432C5.09056 72.4668 6.27651 72.906 7.5101 73.1432C10.7701 73.9432 14.0701 74.5732 17.3801 75.0632C20.4901 75.5232 23.6401 75.8932 26.7701 76.0632C29.4901 76.2132 32.5401 75.9432 34.9001 74.4732C35.3301 74.2132 35.7301 73.9032 36.1601 73.6232C37.7793 72.4714 39.7477 71.9165 41.7301 72.0532C42.7138 72.1382 43.6567 72.4855 44.4604 73.0589C45.2642 73.6323 45.8995 74.4108 46.3001 75.3132C46.0041 74.9449 45.6318 74.6452 45.2089 74.4345C44.7859 74.2239 44.3224 74.1075 43.8501 74.0932C42.9089 74.0821 41.9747 74.2553 41.1001 74.6032C42.3391 74.5479 43.5679 74.8499 44.6401 75.4732C44.9166 75.6255 45.1693 75.8176 45.3901 76.0432C46.2801 77.0432 46.1401 78.5032 45.7901 79.7532C45.3843 81.1357 44.7815 82.4526 44.0001 83.6632C43.5946 84.1888 43.3173 84.8017 43.1901 85.4532C43.9036 85.3517 44.5568 84.9967 45.0301 84.4532C45.2601 84.2032 45.3501 83.8732 45.5501 83.6132C45.8522 83.3353 46.1882 83.0968 46.5501 82.9032C47.9238 81.8877 49.2084 80.7569 50.3901 79.5232C51.2001 78.6632 52.1101 77.6632 53.2901 77.6932C53.984 77.7768 54.6415 78.0501 55.1901 78.4832C56.4101 79.2632 57.7501 80.2732 57.7901 81.7232C57.7303 82.5921 57.4213 83.4254 56.9001 84.1232C55.3901 86.5932 53.9001 89.1232 52.5101 91.6232C52.8201 91.9732 53.4001 91.7832 53.8001 91.5432C56.6701 89.8532 58.6101 86.9932 60.8001 84.4732C61.7201 83.4132 62.9501 82.3032 64.3201 82.5732C64.7578 82.6863 65.1622 82.9023 65.4996 83.2032C65.8371 83.5041 66.0978 83.8812 66.2601 84.3032C66.5811 85.1677 66.7503 86.0811 66.7601 87.0032C66.8889 87.8844 66.8618 88.7814 66.6801 89.6532C66.4801 90.3832 66.0901 91.0432 65.9201 91.7832C65.8096 92.1393 65.8087 92.5204 65.9175 92.877C66.0262 93.2337 66.2397 93.5494 66.5301 93.7832C67.1801 94.1832 68.0401 93.9132 68.7701 94.1132C69.1081 94.2241 69.4176 94.4079 69.6768 94.6515C69.936 94.8951 70.1385 95.1927 70.2701 95.5232C70.5245 96.1668 70.7024 96.8381 70.8001 97.5232C70.9552 98.5855 71.3224 99.6058 71.8801 100.523C72.1471 100.915 72.4917 101.247 72.8925 101.5C73.2933 101.753 73.7418 101.921 74.2101 101.993C75.1392 102.168 76.1001 102.016 76.9301 101.563C78.2301 100.453 75.4601 99.2432 74.8301 98.7332C74.2001 98.2232 73.7201 97.7932 73.2001 97.2832C72.7933 96.7246 72.3309 96.2086 71.8201 95.7432C73.4501 96.7432 75.1101 97.7432 76.8201 98.6232C78.3002 99.6198 79.9911 100.26 81.7601 100.493C83.3859 100.741 85.0379 100.764 86.6701 100.563C87.9475 100.274 89.0936 99.571 89.9301 98.5632L90.0801 98.3832C84.8201 95.5132 79.4801 92.4832 75.7301 87.8332C76.3342 88.3241 77.0083 88.7219 77.7301 89.0132L79.8201 90.2332C81.3101 91.0932 82.8201 91.9132 84.3701 92.6432C85.9201 93.3732 87.2301 94.5032 88.8601 95.1332C91.0201 95.9732 92.8601 95.6832 95.1401 95.5132C97.5399 95.2986 99.7845 94.2349 101.47 92.5132C101.66 92.3262 101.841 92.1293 102.01 91.9232C100.41 91.1032 98.8301 90.2432 97.2601 89.3832C91.7501 86.3832 85.9901 83.2832 81.9501 78.3832C83.8501 79.2132 85.6801 80.4532 87.5001 81.4632L92.0001 84.0532C93.4601 84.8632 95.0001 85.4932 96.4901 86.3232C97.8227 87.1566 99.3028 87.7269 100.85 88.0032C101.828 88.1371 102.823 88.0307 103.75 87.6932C104.55 87.2453 105.304 86.7195 106 86.1232C107.46 85.2132 110.3 83.6832 108.73 81.6232C108.081 80.913 107.262 80.3796 106.35 80.0732C100.949 77.6829 95.9257 74.5161 91.4401 70.6732C86.7001 66.6732 82.8401 61.7532 78.7901 57.0432C78.6308 56.8266 78.4215 56.6516 78.1801 56.5332C77.8453 56.4618 77.4968 56.4932 77.1801 56.6232C75.6503 57.0361 74.0416 57.0601 72.5001 56.6932C72.1149 56.5583 71.6953 56.5583 71.3101 56.6932C71.07 56.828 70.8673 57.0205 70.7201 57.2532C69.6399 58.6267 68.2918 59.7662 66.7576 60.6025C65.2234 61.4389 63.5352 61.9545 61.7955 62.1182C60.0558 62.2819 58.3011 62.0902 56.6378 61.5547C54.9745 61.0192 53.4375 60.1511 52.1201 59.0032C53.4371 59.5035 54.8108 59.8393 56.2101 60.0032C58.7285 60.0516 61.2053 59.3559 63.3301 58.0032C65.5001 56.7532 67.4701 55.1932 69.6201 53.9132C72.5497 52.0901 75.8941 51.0406 79.3401 50.8632C82.8137 50.7081 86.2075 51.9341 88.7801 54.2732C89.8262 55.3877 90.8015 56.5667 91.7001 57.8032C93.6698 60.2417 96.0363 62.3309 98.7001 63.9832C101.7 65.8532 105.19 67.1932 107.61 69.8132C109.265 71.7434 110.428 74.0457 111 76.5232C111.32 77.7332 111.41 79.0332 111.81 80.2032C112.061 80.7935 112.177 81.4323 112.15 82.0732C111.92 85.8932 108.89 88.7732 105.79 90.6232Z" fill="#C4C4C4"/>
<path d="M110.8 80.2633C105.755 77.8095 100.91 74.9641 96.3101 71.7533C92.9516 69.3946 89.7911 66.7659 86.8601 63.8933C85.4002 62.3948 84.0215 60.8192 82.7301 59.1733C81.8701 58.1033 81.0001 57.0033 80.0501 56.0033C79.8631 55.7745 79.6958 55.5303 79.5501 55.2733C79.4292 55.0685 79.2956 54.8714 79.1501 54.6833H79.0801C78.9104 54.6394 78.7354 54.6192 78.5601 54.6233C77.9995 54.6449 77.4412 54.7084 76.8901 54.8133C76.5401 54.8733 76.2101 54.9233 75.9801 54.9433L71.9801 55.1933H71.7501C70.4301 55.2733 69.8401 55.9933 69.0301 56.9833C68.7537 57.3312 68.46 57.6649 68.1501 57.9833C66.8333 59.4976 65.1594 60.6593 63.2801 61.3633C62.1713 61.7122 61.0215 61.9139 59.8601 61.9633H59.1601C56.4691 62.1073 53.8293 61.1879 51.8101 59.4033L51.6901 59.2933C51.0701 58.7633 51.4901 57.6533 51.6901 57.0633V56.9333C51.7801 56.6833 51.8601 56.4633 51.9601 56.2333C52.0601 56.0033 52.1901 55.7233 52.3101 55.4733C52.6863 54.7125 53.1071 53.9746 53.5701 53.2633C54.8592 51.2206 56.3355 49.3023 57.9801 47.5333C58.4401 47.0533 58.8901 46.6133 59.3101 46.2333C61.466 44.2312 63.914 42.5688 66.5701 41.3033C69.2868 40.1373 72.1145 39.2494 75.0101 38.6533C76.0101 38.4133 77.0101 38.1733 78.0101 37.9133L78.7601 37.7033C80.5901 37.2133 82.4901 36.7033 84.3901 36.3933C84.6232 36.378 84.857 36.378 85.0901 36.3933C89.4701 36.3933 96.6801 42.0433 100.55 45.0833C101.21 45.5933 101.75 46.0233 102.16 46.3233C103.6 47.3014 105.31 47.8017 107.05 47.7533C107.549 47.7561 108.047 47.7193 108.54 47.6433L136.03 38.9733L145.09 72.8033L112 80.8433L110.8 80.2633Z" fill="white"/>
<path d="M85.1999 36.803C90.1999 36.803 99.1999 44.603 101.99 46.633C103.509 47.6751 105.318 48.2106 107.16 48.163C107.689 48.1673 108.218 48.1271 108.74 48.043L135.81 39.503L144 70.003L144.64 72.363L112.07 80.363L111.07 79.853C106.046 77.4171 101.224 74.5848 96.6499 71.383C93.3101 69.0465 90.1694 66.4376 87.2599 63.583C84.7699 61.113 82.7799 58.253 80.4599 55.683C80.2199 55.413 79.6899 54.403 79.4599 54.303C79.3845 54.2505 79.2996 54.2132 79.2099 54.193C79.0006 54.1418 78.7854 54.1182 78.5699 54.123C77.6899 54.123 76.5699 54.403 75.9599 54.443L71.7499 54.703C69.7499 54.823 69.1399 56.303 67.8399 57.643C66.5781 59.1006 64.9731 60.221 63.1699 60.903C62.0999 61.238 60.9903 61.4296 59.8699 61.473H59.1899C54.6899 61.473 52.7299 59.523 52.0299 58.913C51.6199 58.563 52.1099 57.443 52.2399 57.073C52.3699 56.703 52.4099 56.623 52.4999 56.403C52.5899 56.183 52.7299 55.913 52.8499 55.663C53.2165 54.9191 53.6272 54.1978 54.0799 53.503C55.355 51.4855 56.8146 49.5907 58.4399 47.843C58.8599 47.403 59.2899 46.963 59.7399 46.563C61.8627 44.592 64.2737 42.9565 66.8899 41.713C70.4099 40.043 74.4899 39.353 78.2499 38.353C80.3357 37.7403 82.4519 37.2363 84.5899 36.843C84.7963 36.8275 85.0036 36.8275 85.2099 36.843L85.1999 36.803ZM85.2099 35.893C84.9521 35.8924 84.6946 35.9124 84.4399 35.953C82.5237 36.2879 80.6275 36.7286 78.7599 37.273L77.9999 37.473C76.9999 37.733 75.9999 37.983 74.9999 38.213C72.069 38.8114 69.2073 39.7095 66.4599 40.893C63.7573 42.1754 61.2655 43.8613 59.0699 45.893C58.6499 46.273 58.1999 46.713 57.7299 47.203C56.0609 48.989 54.5674 50.9313 53.2699 53.003C52.802 53.727 52.3779 54.4783 51.9999 55.253L51.6399 56.023L51.3599 56.743L51.3099 56.873C51.0499 57.573 50.5499 58.873 51.4199 59.633L51.5299 59.733C53.6332 61.6037 56.389 62.5701 59.1999 62.423H59.9199C61.1263 62.3822 62.3211 62.1735 63.4699 61.803C65.4227 61.0724 67.1645 59.87 68.5399 58.303C68.8799 57.953 69.1599 57.603 69.4399 57.303C70.2699 56.303 70.7599 55.753 71.8199 55.683H72.0699L76.0699 55.433C76.3499 55.433 76.6699 55.363 77.0699 55.303C77.5587 55.1673 78.0567 55.0671 78.5599 55.003C78.6664 54.9941 78.7735 54.9941 78.8799 55.003L79.1499 55.423C79.3079 55.7063 79.4921 55.9741 79.6999 56.223C80.6099 57.223 81.4999 58.343 82.3599 59.403C83.6644 61.0626 85.0564 62.6516 86.5299 64.163C89.461 67.0768 92.6285 69.7425 95.9999 72.133C100.615 75.3645 105.481 78.2235 110.55 80.683L111.07 80.943L111.59 81.193L111.9 81.343L112.24 81.263L144.8 73.263L145.75 73.033L145.49 72.103L144.86 69.733L136.69 39.213L136.43 38.213L135.48 38.513L108.48 47.033C108.034 47.1044 107.582 47.1379 107.13 47.133C105.494 47.1807 103.884 46.7118 102.53 45.793C102.12 45.493 101.53 45.063 100.93 44.553C96.9999 41.563 89.7399 35.853 85.1999 35.853L85.2099 35.893Z" fill="#4D4D4D"/>
<path d="M46.47 94.3832C45.8641 94.3841 45.2795 94.1595 44.83 93.7532L42.62 91.7532C41.8458 91.0685 41.32 90.1469 41.1247 89.1321C40.9293 88.1172 41.0753 87.0663 41.54 86.1432C41.7542 85.7214 42.0344 85.3365 42.37 85.0032L49.56 77.5932C50.273 76.8579 51.2008 76.3677 52.21 76.1932C52.4905 76.1418 52.7749 76.115 53.06 76.1132C54.144 76.0996 55.2009 76.4519 56.06 77.1132L56.25 77.2732L57 78.0032C57.6054 78.5345 57.9835 79.2781 58.0561 80.0803C58.1287 80.8824 57.8902 81.6818 57.39 82.3132L48.39 93.4932C48.1545 93.7729 47.8606 93.9976 47.5288 94.1513C47.1971 94.3051 46.8357 94.3843 46.47 94.3832Z" fill="white"/>
<path d="M53.0601 76.5833C54.0265 76.5816 54.9659 76.9018 55.7301 77.4933L55.9201 77.6533L56.7101 78.3333C57.2268 78.7868 57.5462 79.424 57.6003 80.1094C57.6545 80.7947 57.4391 81.4742 57.0001 82.0033L48.0001 93.1633C47.8118 93.3953 47.574 93.5822 47.304 93.7103C47.0341 93.8383 46.7389 93.9043 46.4401 93.9033C45.9539 93.9026 45.4847 93.7248 45.1201 93.4033L42.9001 91.4033C42.4745 91.0227 42.1301 90.5601 41.8876 90.0432C41.6451 89.5262 41.5096 88.9657 41.489 88.3951C41.4685 87.8245 41.5634 87.2557 41.7681 86.7226C41.9727 86.1896 42.2829 85.7035 42.6801 85.2933L49.8701 77.8833C50.5139 77.2199 51.35 76.7756 52.2601 76.6133C52.5145 76.5697 52.772 76.5463 53.0301 76.5433L53.0601 76.5833ZM53.0301 75.6033C52.7149 75.6002 52.4002 75.627 52.0901 75.6833C50.9845 75.876 49.9689 76.4153 49.1901 77.2233L42.0001 84.6733C41.6297 85.0626 41.3287 85.5124 41.1101 86.0033C40.6015 87.0192 40.4424 88.1747 40.6576 89.2903C40.8728 90.4059 41.4501 91.4193 42.3001 92.1733L44.5201 94.1733C45.0563 94.6524 45.751 94.916 46.4701 94.9133C46.9082 94.9098 47.3403 94.8105 47.7359 94.6221C48.1316 94.4338 48.4811 94.1611 48.7601 93.8233L57.7601 82.6433C58.0757 82.2502 58.3048 81.795 58.4323 81.3073C58.5598 80.8196 58.5829 80.3105 58.5001 79.8133C58.3714 78.9808 57.9494 78.2218 57.3101 77.6733L56.5201 76.9933L56.3001 76.8133C55.3647 76.0954 54.2191 75.7053 53.0401 75.7033L53.0301 75.6033Z" fill="#4D4D4D"/>
<path d="M57.0001 82.0032L48.0001 93.1632C47.8303 93.3731 47.6196 93.5465 47.381 93.6728C47.1423 93.7992 46.8805 93.8759 46.6114 93.8983C46.3423 93.9207 46.0714 93.8884 45.8151 93.8033C45.5588 93.7182 45.3224 93.5821 45.1201 93.4032L42.9001 91.4032C42.2137 90.791 41.7449 89.9722 41.5645 89.0703C41.3841 88.1684 41.5019 87.2323 41.9001 86.4032C42.1119 87.4016 42.5161 88.3493 43.0901 89.1932C43.4466 89.7383 43.9308 90.1882 44.5007 90.5036C45.0706 90.819 45.7089 90.9905 46.3601 91.0032C47.3667 90.9203 48.3071 90.468 49.0001 89.7332C49.6962 89.0158 50.2886 88.2046 50.7601 87.3232C50.9707 87.018 51.1295 86.6801 51.2301 86.3232C51.2896 85.9706 51.2722 85.6093 51.1789 85.2641C51.0857 84.9189 50.919 84.5979 50.6901 84.3232C50.3095 83.8445 49.8615 83.4234 49.3601 83.0732C49.8977 83.4958 50.5286 83.7838 51.2001 83.9132C51.586 83.9852 51.9826 83.9762 52.3648 83.8867C52.747 83.7971 53.1064 83.6291 53.4201 83.3932C53.7584 83.0662 54.048 82.6924 54.2801 82.2832C55.1701 80.8432 56.0301 79.1632 55.7001 77.5132L55.8901 77.6732L56.6801 78.3532C57.1954 78.8019 57.5167 79.4329 57.5764 80.1136C57.6361 80.7943 57.4295 81.4716 57.0001 82.0032Z" fill="#C4C4C4"/>
<path d="M39 86.2132C38.3519 86.207 37.7209 86.0048 37.19 85.6332C36.3203 85.0184 35.63 84.1831 35.19 83.2132C34.9592 82.7255 34.817 82.2007 34.77 81.6632C34.7582 81.4239 34.7946 81.1846 34.8771 80.9595C34.9595 80.7345 35.0863 80.5283 35.25 80.3532L35.36 80.2132V80.1432C36.2942 78.7204 37.3991 77.4174 38.65 76.2632L38.78 76.1432C39.6426 75.1979 40.7849 74.5532 42.04 74.3032H42.22C42.8513 74.3067 43.4748 74.443 44.05 74.7032L44.33 74.8332L44.61 75.0032C45.0303 75.2687 45.4195 75.5806 45.77 75.9332C46.2268 76.3992 46.5243 76.9978 46.62 77.6432C46.6594 77.8984 46.6594 78.1581 46.62 78.4132C46.4698 79.1567 46.1246 79.8469 45.62 80.4132L44.77 81.4132C43.8612 82.6328 42.8364 83.7614 41.71 84.7832L41.52 84.9532C41.003 85.4707 40.3682 85.8551 39.67 86.0732C39.4532 86.1472 39.2282 86.1942 39 86.2132Z" fill="white"/>
<path d="M42.2501 74.7732C42.8127 74.7772 43.3681 74.8999 43.8801 75.1332C44.0581 75.2071 44.2289 75.2975 44.3901 75.4032C44.7757 75.6477 45.1314 75.9363 45.4501 76.2632C45.8392 76.6489 46.0919 77.1509 46.1701 77.6932C46.2045 77.9052 46.2045 78.1213 46.1701 78.3332C46.0249 79.007 45.7001 79.629 45.2301 80.1332C44.0705 81.6942 42.7791 83.1529 41.3701 84.4932C40.8616 85.0323 40.2303 85.4405 39.5301 85.6832C39.3561 85.7224 39.1784 85.7425 39.0001 85.7432C38.4438 85.7333 37.9036 85.5555 37.4501 85.2332C36.6428 84.6712 36.0034 83.9004 35.6001 83.0032C35.391 82.5671 35.2655 82.0956 35.2301 81.6132C35.2301 81.1332 35.4201 80.8932 35.7001 80.5132C36.6466 79.0907 37.7539 77.7821 39.0001 76.6132C39.8501 75.8632 40.9301 74.8632 42.1101 74.7832H42.2601L42.2501 74.7732ZM42.2601 73.7832H42.0001C40.6444 74.0521 39.4126 74.7539 38.4901 75.7832L38.3501 75.9032C37.0752 77.0984 35.9473 78.4412 34.9901 79.9032V79.9832L34.9101 80.0932C34.711 80.313 34.558 80.5705 34.4601 80.8505C34.3622 81.1305 34.3214 81.4272 34.3401 81.7232C34.3871 82.3198 34.543 82.9028 34.8001 83.4432C35.2654 84.4647 35.9893 85.3471 36.9001 86.0032C37.5121 86.427 38.2358 86.6601 38.9801 86.6732C39.2328 86.6729 39.4845 86.6427 39.7301 86.5832C40.5038 86.3524 41.2082 85.9332 41.7801 85.3632L41.9701 85.2032C43.1146 84.1558 44.1591 83.0042 45.0901 81.7632L45.9401 80.7632C46.5183 80.1299 46.9155 79.3528 47.0901 78.5132C47.1299 78.2112 47.1299 77.9052 47.0901 77.6032C46.9776 76.8618 46.6265 76.1773 46.0901 75.6532C45.7191 75.2665 45.2988 74.9303 44.8401 74.6532H44.7701L44.2101 74.3932C43.5815 74.1085 42.9002 73.9586 42.2101 73.9532L42.2601 73.7832Z" fill="#4D4D4D"/>
<path d="M46.15 78.3329C46.0048 79.0067 45.68 79.6287 45.21 80.1329C44.0504 81.6939 42.759 83.1526 41.35 84.4929C40.8415 85.032 40.2102 85.4402 39.51 85.6829C39.1511 85.7575 38.7805 85.7561 38.4222 85.6786C38.0639 85.6011 37.7259 85.4492 37.43 85.2329C36.6301 84.6681 35.9978 83.8976 35.6 83.0029C35.3909 82.5667 35.2654 82.0953 35.23 81.6129C35.23 81.1329 35.42 80.8929 35.7 80.5129C36.1126 81.3008 36.5945 82.0504 37.14 82.7529C37.3529 83.0687 37.6307 83.3356 37.9549 83.5356C38.2791 83.7356 38.6422 83.8642 39.02 83.9129C39.7316 83.862 40.3953 83.5355 40.87 83.0029C41.29 82.6129 41.73 82.2229 41.37 81.6229C41.2289 81.4086 41.0532 81.2194 40.85 81.0629C40.2515 80.6137 39.8217 79.9761 39.63 79.2529L40.04 79.8129C40.1474 79.9721 40.2752 80.1167 40.42 80.2429C40.6061 80.3699 40.8123 80.4646 41.03 80.5229C41.5344 80.773 42.101 80.8703 42.66 80.8029C43.04 80.6729 43.3 80.0129 43.51 79.6729C43.923 79.0667 44.2181 78.3883 44.38 77.6729C44.5274 76.8128 44.3491 75.9286 43.88 75.1929C44.058 75.2668 44.2287 75.3572 44.39 75.4629C44.7756 75.7073 45.1313 75.996 45.45 76.3229C45.839 76.7086 46.0918 77.2106 46.17 77.7529C46.1915 77.9461 46.1848 78.1415 46.15 78.3329Z" fill="#C4C4C4"/>
<path d="M55 101.433C53.6609 101.398 52.357 100.997 51.23 100.273C49.8406 99.4597 48.7794 98.1863 48.23 96.673C48.0317 95.8452 48.0733 94.978 48.35 94.173C48.5757 93.4761 48.9473 92.8352 49.44 92.293C49.72 91.963 51.1 90.433 58.44 82.293C59.3091 81.3565 60.4817 80.7578 61.75 80.603H62.27C62.5112 80.6031 62.752 80.6232 62.99 80.663C63.6022 80.7591 64.1838 80.996 64.6888 81.3553C65.1938 81.7145 65.6084 82.1861 65.9 82.733V82.823C66.5408 84.079 66.8244 85.4869 66.72 86.893C66.6862 87.4727 66.5856 88.0465 66.42 88.603C66.0316 89.5991 65.462 90.5146 64.74 91.303C64.6 91.493 64.45 91.673 64.31 91.853L63.16 93.323C62.7 93.903 62.24 94.483 61.8 95.073L61.44 95.553C60.58 96.693 59.69 97.873 58.87 99.063C58.5042 99.7213 57.9886 100.284 57.3649 100.706C56.7413 101.129 56.027 101.398 55.28 101.493L55 101.433Z" fill="white"/>
<path d="M62.2801 81.0032C62.4929 80.9831 62.7072 80.9831 62.9201 81.0032C63.4687 81.0963 63.9879 81.3166 64.4359 81.6466C64.884 81.9765 65.2485 82.4069 65.5001 82.9032C65.5001 82.9032 65.5001 82.9832 65.5701 83.0232C66.1561 84.1887 66.4087 85.4933 66.3001 86.7932C66.2779 87.3366 66.1837 87.8746 66.0201 88.3932C65.5401 89.5357 64.8632 90.585 64.0201 91.4932C63.2001 92.5732 62.3301 93.6332 61.5101 94.7232C60.5101 96.0432 59.5101 97.3632 58.5701 98.7232C58.2402 99.3297 57.7741 99.8512 57.2084 100.247C56.6427 100.642 55.9929 100.901 55.3101 101.003H55.0001C53.7514 100.964 52.536 100.591 51.4801 99.9232C50.1766 99.18 49.1724 98.0062 48.6401 96.6032C48.4643 95.8645 48.5025 95.0911 48.7501 94.3732C48.9648 93.7387 49.3049 93.1538 49.7501 92.6532L58.7501 82.6532C59.5369 81.8018 60.5996 81.2563 61.7501 81.1132H62.2101L62.2801 81.0032ZM62.2101 80.1132H61.7001C60.3174 80.2723 59.0389 80.9258 58.1001 81.9532C51.1001 89.7132 49.4801 91.5232 49.1001 91.9532C48.5526 92.5441 48.1338 93.2422 47.8701 94.0032C47.5679 94.893 47.5262 95.8506 47.7501 96.7632C48.3309 98.4159 49.4837 99.8063 51.0001 100.683C52.1979 101.445 53.5807 101.867 55.0001 101.903H55.3401C56.1678 101.814 56.9624 101.529 57.658 101.072C58.3536 100.614 58.9302 99.9978 59.3401 99.2732C60.1601 98.0932 61.0401 96.9132 61.9001 95.7732L62.2601 95.2932C62.7001 94.7132 63.1601 94.1332 63.6101 93.5532L64.7701 92.0832C64.9001 91.9032 65.0501 91.7232 65.1901 91.5432C65.9535 90.7107 66.5509 89.74 66.9501 88.6832C67.1328 88.089 67.2403 87.4742 67.2701 86.8532C67.3838 85.3789 67.0898 83.9017 66.4201 82.5832C66.3864 82.5286 66.3563 82.4718 66.3301 82.4132C66.0002 81.8129 65.5379 81.2955 64.9782 80.9004C64.4186 80.5054 63.7763 80.243 63.1001 80.1332C62.8353 80.093 62.5679 80.073 62.3001 80.0732L62.2101 80.1132Z" fill="#4D4D4D"/>
<path d="M66.3001 86.793C66.2779 87.3363 66.1838 87.8743 66.0201 88.393C65.5401 89.5354 64.8632 90.5847 64.0201 91.493C63.2001 92.573 62.3301 93.633 61.5101 94.723C60.5101 96.043 59.5101 97.363 58.5701 98.723C58.2402 99.3294 57.7741 99.8509 57.2084 100.247C56.6427 100.642 55.9929 100.901 55.3101 101.003C53.9647 101.025 52.6427 100.649 51.5101 99.923C50.2066 99.1797 49.2025 98.0059 48.6701 96.603C48.5517 96.0889 48.544 95.5556 48.6474 95.0384C48.7509 94.5212 48.9631 94.0319 49.2701 93.603C49.3815 93.4645 49.454 93.2988 49.4801 93.123C49.3124 93.5353 49.2774 93.9898 49.3801 94.423C49.4851 94.8545 49.6359 95.2735 49.8301 95.673C50.0982 96.3791 50.5676 96.991 51.1801 97.433C52.0376 97.9437 53.0171 98.2133 54.0151 98.2133C55.0132 98.2133 55.9927 97.9437 56.8501 97.433C57.7587 96.8713 58.501 96.0773 59.0001 95.1329C59.326 94.6749 59.54 94.1468 59.6251 93.5911C59.7102 93.0355 59.664 92.4676 59.4901 91.933C59.1755 91.3978 58.7996 90.9012 58.3701 90.4529C57.751 89.6287 57.4017 88.6333 57.3701 87.603C57.4876 88.1756 57.762 88.7042 58.1628 89.1298C58.5635 89.5553 59.0748 89.8609 59.6394 90.0124C60.2039 90.1639 60.7995 90.1554 61.3595 89.9877C61.9195 89.82 62.4217 89.4998 62.8101 89.063C63.143 88.6609 63.422 88.2172 63.6401 87.743C64.0534 86.903 64.4334 86.053 64.7801 85.193C65.0701 84.473 65.2401 83.7429 65.5601 83.0229C66.1495 84.1874 66.4056 85.4921 66.3001 86.793Z" fill="#C4C4C4"/>
<path d="M64.26 106.283C62.848 106.126 61.485 105.673 60.26 104.953C59.347 104.553 58.6285 103.809 58.26 102.883C58.1075 102.287 58.0978 101.662 58.2315 101.061C58.3653 100.46 58.6389 99.899 59.03 99.4233L59.09 99.3233C59.8798 98.0289 60.7516 96.7864 61.7 95.6033C62.6592 94.2526 63.9556 93.1769 65.46 92.4833H65.59C65.915 92.3896 66.2517 92.3425 66.59 92.3433C67.3721 92.3638 68.1347 92.5916 68.8 93.0033L69.03 93.1433C69.1656 93.2285 69.2959 93.322 69.42 93.4233C70.1857 94.0535 70.7089 94.9301 70.9 95.9033C70.9762 96.285 71.0097 96.6741 71 97.0633C70.9125 99.1762 70.164 101.208 68.86 102.873C67.86 104.363 66.47 106.283 64.43 106.283H64.26Z" fill="white"/>
<path d="M66.5801 92.773C67.2872 92.7894 67.9773 92.993 68.5801 93.363C68.7798 93.4745 68.9704 93.6015 69.1501 93.743C69.8281 94.3248 70.2839 95.1233 70.4401 96.003C70.5172 96.3514 70.5608 96.7063 70.5701 97.063C70.4674 99.0771 69.7483 101.011 68.5101 102.603C67.5101 103.963 66.2901 105.813 64.5101 105.813H64.3301C62.9893 105.663 61.6948 105.234 60.5301 104.553C60.0784 104.365 59.6794 104.07 59.3681 103.692C59.0567 103.315 58.8424 102.867 58.7438 102.388C58.6452 101.908 58.6653 101.412 58.8024 100.943C58.9394 100.473 59.1893 100.044 59.5301 99.693C59.5265 99.6665 59.5265 99.6395 59.5301 99.613C60.3062 98.3288 61.1647 97.0962 62.1001 95.923C63.0004 94.6294 64.2245 93.5949 65.6501 92.923H65.7401H65.8101C66.0711 92.8528 66.3399 92.8158 66.6101 92.813L66.5801 92.773ZM66.6101 91.813C66.2515 91.8123 65.8945 91.8628 65.5501 91.963H65.4901H65.3801H65.3101C63.7142 92.6758 62.3345 93.7968 61.3101 95.213C60.3618 96.4159 59.4869 97.6748 58.6901 98.983L58.6101 99.123C58.1749 99.5817 57.859 100.14 57.6903 100.75C57.5215 101.359 57.5051 102.001 57.6424 102.618C57.7796 103.235 58.0664 103.809 58.4776 104.29C58.8887 104.77 59.4115 105.142 60.0001 105.373C61.2861 106.118 62.713 106.588 64.1901 106.753H64.4301C66.7101 106.753 68.1401 104.753 69.1901 103.213V103.143C70.557 101.394 71.3405 99.2607 71.4301 97.043C71.4178 96.6227 71.3676 96.2043 71.2801 95.793C71.0938 94.7099 70.5392 93.7244 69.7101 93.003L69.5101 92.853L69.0001 92.543C68.2585 92.089 67.4095 91.8405 66.5401 91.823L66.6101 91.813Z" fill="#4D4D4D"/>
<path d="M70.57 97.063C70.4672 99.0772 69.7481 101.011 68.51 102.603C67.51 104.013 66.22 105.923 64.29 105.803C62.9491 105.653 61.6546 105.224 60.49 104.543C60.0382 104.355 59.6393 104.06 59.3279 103.682C59.0166 103.305 58.8023 102.857 58.7036 102.378C58.605 101.898 58.6251 101.402 58.7622 100.933C58.8992 100.463 59.1491 100.034 59.49 99.683C59.5052 99.6552 59.5301 99.6338 59.56 99.623C59.6627 100.418 59.8922 101.191 60.24 101.913C60.5808 102.54 61.0832 103.065 61.6951 103.432C62.3071 103.8 63.0062 103.997 63.72 104.003C64.4993 104.014 65.2537 103.728 65.83 103.203C66.1122 102.937 66.3151 102.598 66.4157 102.224C66.5164 101.85 66.5109 101.455 66.4 101.083C65.5289 100.936 64.696 100.616 63.95 100.143C63.5764 99.9054 63.267 99.5795 63.049 99.1941C62.831 98.8088 62.7111 98.3757 62.7 97.933C63.1957 98.4998 63.8679 98.8831 64.6081 99.0209C65.3483 99.1588 66.1134 99.0433 66.78 98.693C67.6218 98.0399 68.209 97.1132 68.44 96.073C68.764 95.2657 68.8235 94.3764 68.61 93.533C68.6142 93.4798 68.6142 93.4263 68.61 93.373C68.8097 93.4845 69.0002 93.6116 69.18 93.753C69.8448 94.3369 70.2895 95.1311 70.44 96.003C70.5171 96.3514 70.5606 96.7064 70.57 97.063Z" fill="#C4C4C4"/>
<path d="M144.62 72.3833L112.05 80.3833L111.05 79.8733C106.026 77.4374 101.204 74.6051 96.63 71.4033C93.2902 69.0668 90.1495 66.4579 87.24 63.6033C84.75 61.1333 82.76 58.2733 80.44 55.7033C80.2 55.4333 79.67 54.4233 79.44 54.3233C79.3646 54.2708 79.2797 54.2334 79.19 54.2133C78.1003 54.1424 77.0061 54.2266 75.94 54.4633L71.73 54.7233C69.73 54.8433 69.12 56.3233 67.82 57.6633C66.5582 59.1208 64.9532 60.2412 63.15 60.9233C62.08 61.2582 60.9704 61.4499 59.85 61.4933C54.85 61.7133 52.74 59.5933 52.01 58.9533C51.6 58.6033 52.09 57.4833 52.22 57.1133C52.3943 56.6312 52.598 56.1603 52.83 55.7033C52.9239 56.0519 53.0875 56.3779 53.3109 56.6615C53.5344 56.9451 53.813 57.1805 54.13 57.3533C55.1263 57.8012 56.2244 57.9739 57.31 57.8533C59.5365 57.8778 61.7323 57.334 63.69 56.2733C64.6674 55.7333 65.4694 54.9244 66.0011 53.9425C66.5329 52.9606 66.7719 51.8469 66.69 50.7333C68.44 52.9333 71.77 53.0933 74.47 52.3433C77.17 51.5933 79.67 50.1033 82.47 49.6333C82.229 50.7846 82.2428 51.9747 82.5106 53.12C82.7783 54.2654 83.2935 55.3382 84.02 56.2633C85.4632 58.0776 87.1607 59.674 89.06 61.0033L99.06 68.6433C100.78 69.9633 107.59 76.3233 109.21 71.8333C109.389 71.2126 109.423 70.5592 109.31 69.9233C109.092 67.769 108.717 65.6334 108.19 63.5333C109.978 67.566 112.926 70.9744 116.66 73.3233C117.219 73.6926 117.816 74.0011 118.44 74.2433C121.89 75.4633 126.73 73.4633 130.14 72.7233L142.14 70.1333C142.746 69.9688 143.377 69.9246 144 70.0033L144.62 72.3833Z" fill="#C4C4C4"/>
<path d="M61.91 52.0033C61.5889 53.1058 61.0305 54.1247 60.2738 54.9884C59.5172 55.8522 58.5807 56.5399 57.53 57.0033C56.52 57.5057 55.408 57.7691 54.28 57.7733C53.67 57.7733 52.08 57.4333 52.49 56.4733C52.58 56.2433 52.69 56.0133 52.8 55.7833C53.1285 55.0944 53.4992 54.4265 53.91 53.7833C55.0548 51.9186 56.3705 50.1644 57.84 48.5433C58.22 48.1333 58.62 47.7333 59.02 47.3633C59.22 47.1733 61.31 49.4433 61.5 49.6933C61.7529 50.015 61.9226 50.3941 61.9941 50.797C62.0656 51.1999 62.0368 51.6142 61.91 52.0033Z" fill="white"/>
<path d="M54.5001 58.0531H54.2701C54.2101 58.0531 52.7601 57.9731 52.2701 57.2531C52.1991 57.1263 52.1619 56.9834 52.1619 56.8381C52.1619 56.6928 52.1991 56.5499 52.2701 56.4231C52.3701 56.1931 52.4701 55.9631 52.5801 55.7331C52.9166 55.0446 53.2939 54.3767 53.7101 53.7331C54.8735 51.8506 56.2128 50.0827 57.7101 48.4531C58.1201 48.0131 58.5201 47.6131 58.9001 47.2631L58.9701 47.2031H59.0901C59.6201 47.2031 61.7101 49.6131 61.7301 49.6431C61.9747 49.9788 62.1389 50.3662 62.21 50.7754C62.2811 51.1846 62.2571 51.6046 62.1401 52.0031C61.8222 53.1555 61.2528 54.2231 60.473 55.1292C59.6932 56.0352 58.7223 56.7572 57.6301 57.2431C56.6564 57.733 55.5892 58.0092 54.5001 58.0531ZM59.0901 47.6531C58.7501 47.9831 58.3801 48.3431 58.0101 48.7431C56.5483 50.3705 55.2425 52.1316 54.1101 54.0031C53.7075 54.6494 53.3403 55.3171 53.0101 56.0031C52.9001 56.2331 52.8001 56.4531 52.7001 56.6831C52.6677 56.743 52.6507 56.81 52.6507 56.8781C52.6507 56.9462 52.6677 57.0132 52.7001 57.0731C52.9201 57.4331 53.7601 57.6231 54.2901 57.6531C55.3775 57.6496 56.4491 57.3929 57.4201 56.9031C58.4486 56.4462 59.3631 55.7672 60.0979 54.9147C60.8328 54.0623 61.3697 53.0577 61.6701 51.9731C61.7682 51.6339 61.7858 51.2766 61.7216 50.9294C61.6574 50.5822 61.513 50.2548 61.3001 49.9731C60.6288 49.1401 59.8896 48.3641 59.0901 47.6531Z" fill="#4D4D4D"/>
<path d="M57.5899 79.9129C57.1099 80.5529 56.5899 81.1929 56.0899 81.7829C55.7184 82.29 55.2403 82.7096 54.6891 83.0119C54.138 83.3143 53.5272 83.4921 52.8999 83.5329C52.4439 83.5131 51.9991 83.3849 51.6026 83.1588C51.2061 82.9327 50.8692 82.6153 50.6199 82.2329C50.2897 81.7672 50.077 81.2286 49.9999 80.6629C49.8882 80.1514 49.9815 79.6164 50.2599 79.1729C50.8275 78.2588 51.4986 77.4133 52.2599 76.6529C52.9013 76.5385 53.5601 76.5689 54.1881 76.7419C54.8162 76.9149 55.3977 77.2262 55.8899 77.6529L56.6799 78.3329C57.1654 78.7313 57.489 79.293 57.5899 79.9129Z" fill="white"/>
<path d="M53 83.7732H52.9C52.4036 83.7555 51.9188 83.6181 51.4869 83.3726C51.0551 83.1271 50.689 82.7808 50.42 82.3632C50.0623 81.8693 49.829 81.2964 49.74 80.6932C49.6221 80.1283 49.7297 79.5397 50.04 79.0532C50.6301 78.1208 51.3282 77.2615 52.12 76.4932L52.17 76.4332H52.25C52.9211 76.3093 53.6113 76.3347 54.2714 76.5075C54.9316 76.6804 55.5457 76.9964 56.07 77.4332L56.86 78.1132C57.3919 78.5496 57.7473 79.1644 57.86 79.8432V80.0032V80.0832C57.31 80.8332 56.86 81.4432 56.35 81.9732C55.9559 82.4986 55.4521 82.9318 54.8735 83.2426C54.295 83.5535 53.6557 83.7345 53 83.7732ZM52.45 76.8732C51.6947 77.6023 51.0238 78.4141 50.45 79.2932C50.2067 79.691 50.1244 80.1667 50.22 80.6232C50.3012 81.1536 50.5068 81.6574 50.82 82.0932C51.0448 82.4464 51.351 82.7406 51.7129 82.9511C52.0748 83.1616 52.4819 83.2823 52.9 83.3032L52.96 83.5332V83.3032C53.5438 83.2526 54.1098 83.0763 54.619 82.7863C55.1283 82.4963 55.5687 82.0995 55.91 81.6232C56.4161 81.0602 56.8902 80.4693 57.33 79.8532C57.2362 79.3285 56.9599 78.8539 56.55 78.5132L55.76 77.8332C55.3025 77.4433 54.7668 77.1559 54.189 76.9903C53.6112 76.8247 53.0046 76.7848 52.41 76.8732H52.45Z" fill="#4D4D4D"/>
<path d="M66.3 86.7933C66.01 87.1733 65.7 87.5433 65.38 87.9033C64.9403 88.4823 64.3817 88.9603 63.7417 89.3053C63.1018 89.6503 62.3954 89.8542 61.67 89.9033C61.1411 89.8787 60.6249 89.7324 60.1618 89.4757C59.6987 89.219 59.3011 88.8588 59 88.4233C58.6185 87.8742 58.3687 87.2446 58.27 86.5833C58.1389 85.9928 58.2468 85.3745 58.57 84.8633C59.5006 83.4583 60.5876 82.1633 61.81 81.0033C62.1783 80.9533 62.5517 80.9533 62.92 81.0033C63.4683 81.0971 63.9872 81.3177 64.4351 81.6476C64.8831 81.9775 65.2477 82.4075 65.5 82.9033C66.1366 84.0955 66.4145 85.4466 66.3 86.7933Z" fill="white"/>
<path d="M61.71 90.1829C61.1394 90.1569 60.5831 89.9967 60.0861 89.7152C59.5892 89.4337 59.1656 89.0389 58.85 88.5629C58.4176 87.9923 58.1264 87.3276 58 86.6229C57.8675 85.9759 57.9893 85.3026 58.34 84.7429C59.0953 83.5675 59.9883 82.4866 61 81.5229L61.62 80.8729L61.69 80.7929H61.79C62.172 80.7487 62.5579 80.7487 62.94 80.7929C63.5196 80.8935 64.0683 81.1262 64.5435 81.473C65.0187 81.8199 65.4075 82.2715 65.68 82.7929C66.3389 84.0177 66.6305 85.4066 66.52 86.7929V86.8629L66.47 86.9229C66.15 87.3329 65.84 87.7029 65.54 88.0429C65.0946 88.6557 64.5215 89.1645 63.8602 89.534C63.1989 89.9035 62.4653 90.1249 61.71 90.1829ZM61.92 81.2629C61.74 81.4629 61.55 81.6529 61.36 81.8429C60.3804 82.7927 59.5146 83.8532 58.78 85.0029C58.6313 85.2329 58.53 85.4902 58.4819 85.7597C58.4338 86.0293 58.44 86.3058 58.5 86.5729C58.5958 87.1961 58.8355 87.7885 59.2 88.3029C59.4703 88.7201 59.8365 89.0666 60.2678 89.3136C60.6992 89.5606 61.1834 89.7009 61.68 89.7229V89.9629V89.7029C62.3721 89.6432 63.0429 89.4333 63.6456 89.0879C64.2483 88.7425 64.7685 88.2699 65.17 87.7029C65.46 87.3929 65.74 87.0529 66.04 86.7029C66.1538 85.423 65.8933 84.1375 65.29 83.0029C65.0497 82.5496 64.7082 82.1577 64.292 81.8577C63.8758 81.5577 63.396 81.3576 62.89 81.2729C62.5683 81.2293 62.2425 81.226 61.92 81.2629Z" fill="#4D4D4D"/>
<path d="M46.17 77.6932C45.81 78.1432 45.44 78.5732 45.04 78.9832C44.7254 79.3771 44.3292 79.6982 43.8786 79.9243C43.428 80.1505 42.9338 80.2763 42.43 80.2932C42.0617 80.2613 41.706 80.1434 41.3916 79.9488C41.0772 79.7543 40.8129 79.4886 40.62 79.1732C40.3672 78.7854 40.2096 78.3434 40.16 77.8832C40.0923 77.4711 40.1854 77.0487 40.42 76.7032C40.9004 75.9977 41.4645 75.353 42.1 74.7832H42.25C43.0086 74.786 43.7508 75.0045 44.39 75.4132C44.7756 75.6577 45.1313 75.9463 45.45 76.2732C45.8371 76.6563 46.0898 77.1545 46.17 77.6932Z" fill="white"/>
<path d="M42.5501 80.5332H42.4101C42.003 80.5018 41.6092 80.3739 41.2614 80.16C40.9136 79.9461 40.6218 79.6524 40.4101 79.3032C40.131 78.8875 39.9561 78.4108 39.9001 77.9132C39.8265 77.4447 39.9338 76.9657 40.2001 76.5732C40.6894 75.8416 41.2633 75.1703 41.9101 74.5732H41.9701H42.2301C43.0318 74.5768 43.8159 74.8093 44.4901 75.2432C44.8994 75.4954 45.2757 75.7977 45.6101 76.1432C46.0337 76.564 46.3076 77.1119 46.3901 77.7032V77.8032L46.3301 77.8832C45.9201 78.3832 45.5501 78.8032 45.1801 79.1832C44.858 79.577 44.4583 79.9 44.0058 80.1323C43.5532 80.3646 43.0577 80.5011 42.5501 80.5332ZM42.2001 75.0032C41.6063 75.5446 41.0762 76.1518 40.6201 76.8132C40.4202 77.1056 40.3414 77.464 40.4001 77.8132C40.441 78.2382 40.5852 78.6467 40.8201 79.0032C40.994 79.2842 41.231 79.5207 41.5121 79.6943C41.7933 79.8679 42.111 79.9736 42.4401 80.0032C42.9127 79.9893 43.3762 79.8698 43.7967 79.6535C44.2171 79.4372 44.5839 79.1296 44.8701 78.7532C45.2101 78.4032 45.5501 78.0132 45.9201 77.5632C45.8291 77.1091 45.6065 76.6918 45.2801 76.3632C44.9807 76.051 44.6449 75.7757 44.2801 75.5432C43.6799 75.1673 42.9882 74.9632 42.2801 74.9532L42.2001 75.0032Z" fill="#4D4D4D"/>
<path d="M70.4399 96.0032C70.1099 96.5432 69.7699 97.0832 69.4399 97.5932C69.1509 98.0898 68.7568 98.5171 68.2853 98.8454C67.8137 99.1736 67.276 99.3947 66.7099 99.4932C66.2902 99.5128 65.8718 99.4324 65.4893 99.2585C65.1068 99.0847 64.7711 98.8223 64.5099 98.4932C64.1614 98.1008 63.9112 97.6312 63.7799 97.1232C63.7042 96.898 63.674 96.66 63.6912 96.4231C63.7084 96.1862 63.7725 95.955 63.8799 95.7432C64.4116 94.7043 65.0627 93.7311 65.8199 92.8432C66.3309 92.7462 66.8559 92.7511 67.365 92.8576C67.874 92.9641 68.357 93.17 68.7862 93.4636C69.2155 93.7572 69.5825 94.1327 69.8663 94.5685C70.1501 95.0043 70.345 95.4918 70.4399 96.0032Z" fill="white"/>
<path d="M66.4699 99.7433C66.052 99.7324 65.6412 99.6322 65.2652 99.4493C64.8892 99.2665 64.5567 99.0053 64.2899 98.6833C63.9192 98.2645 63.652 97.7644 63.5099 97.2233C63.4253 96.9722 63.3915 96.7067 63.4104 96.4423C63.4292 96.1779 63.5005 95.9199 63.6199 95.6833C64.1313 94.6714 64.7625 93.7246 65.4999 92.8633L65.6399 92.6833H65.7199C66.344 92.5497 66.9906 92.5633 67.6086 92.723C68.2265 92.8827 68.7987 93.1841 69.2799 93.6033C70.0147 94.212 70.5077 95.0632 70.6699 96.0033V96.0933V96.1833C70.2699 96.8433 69.9399 97.3433 69.6699 97.7833C69.3645 98.3103 68.9459 98.7631 68.4445 99.1089C67.943 99.4547 67.3711 99.6851 66.7699 99.7833L66.4699 99.7433ZM65.9199 93.0933V93.1533C65.2092 93.9895 64.5984 94.9056 64.0999 95.8833C63.9062 96.2607 63.8703 96.6995 63.9999 97.1033C64.119 97.5739 64.3487 98.0093 64.6699 98.3733C64.911 98.6672 65.2173 98.9007 65.5645 99.0552C65.9118 99.2097 66.2903 99.281 66.6699 99.2633C67.2034 99.1681 67.7093 98.9566 68.1517 98.6437C68.5942 98.3309 68.9623 97.9245 69.23 97.4533C69.53 97.0433 69.83 96.5833 70.23 95.9633C70.0644 95.1814 69.642 94.4773 69.0299 93.9633C68.6114 93.592 68.114 93.3208 67.5752 93.17C67.0364 93.0193 66.4704 92.9931 65.9199 93.0933Z" fill="#4D4D4D"/>
<g opacity="0.3">
<path d="M18.4071 -0.000142074L7.21362 11.1934L127.316 131.295L138.509 120.102L18.4071 -0.000142074Z" fill="#FF0000"/>
</g>
<g opacity="0.2">
<path d="M129.16 129.443L127.32 131.293L7.20996 11.2033L9.06996 9.34326L129.16 129.443Z" fill="#4A0000"/>
</g>
</g>
</g>
<defs>
<clipPath id="clip0_222_7704">
<rect width="145.79" height="131.76" fill="white"/>
</clipPath>
<clipPath id="clip1_222_7704">
<rect x="11" y="4" width="124" height="124" rx="62" fill="white"/>
</clipPath>
</defs>
</svg>
