<svg width="132" height="134" viewBox="0 0 132 134" fill="none" xmlns="http://www.w3.org/2000/svg">
<g clip-path="url(#clip0_222_7647)">
<g style="mix-blend-mode:overlay">
<g style="mix-blend-mode:overlay">
<path d="M106.421 113.289C130.766 88.9438 130.766 49.4723 106.421 25.127C82.0756 0.781687 42.6041 0.781687 18.2588 25.127C-6.08651 49.4723 -6.08651 88.9438 18.2588 113.289C42.6041 137.634 82.0756 137.634 106.421 113.289Z" fill="#89A58F"/>
</g>
</g>
<g style="mix-blend-mode:overlay">
<g style="mix-blend-mode:overlay">
<path d="M65.8998 127.99C100.329 127.99 128.24 100.079 128.24 65.6501C128.24 31.2206 100.329 3.31006 65.8998 3.31006C31.4704 3.31006 3.55981 31.2206 3.55981 65.6501C3.55981 100.079 31.4704 127.99 65.8998 127.99Z" fill="white"/>
</g>
</g>
<path d="M65.8999 129.41C53.287 129.41 40.9573 125.67 30.4702 118.662C19.983 111.655 11.8095 101.695 6.98316 90.0416C2.15685 78.3885 0.894576 65.566 3.35597 53.1956C5.81736 40.8251 11.8919 29.4624 20.8112 20.5444C29.7306 11.6264 41.0943 5.5537 53.4651 3.09425C65.836 0.634799 78.6583 1.89909 90.3106 6.72722C101.963 11.5554 111.922 19.7305 118.928 30.2187C125.934 40.7069 129.672 53.0372 129.67 65.6501C129.651 82.5564 122.926 98.7647 110.971 110.718C99.0156 122.672 82.8062 129.394 65.8999 129.41ZM65.8999 4.73015C53.8511 4.73015 42.0728 8.30304 32.0546 14.997C22.0363 21.691 14.2281 31.2054 9.61717 42.3371C5.00628 53.4687 3.79986 65.7177 6.15047 77.535C8.50108 89.3524 14.3032 100.207 22.823 108.727C31.3428 117.247 42.1977 123.049 54.015 125.4C65.8323 127.75 78.0813 126.544 89.213 121.933C100.345 117.322 109.859 109.514 116.553 99.4955C123.247 89.4772 126.82 77.699 126.82 65.6501C126.799 49.4997 120.374 34.0167 108.953 22.5966C97.5333 11.1764 82.0504 4.75131 65.8999 4.73015Z" fill="#869554"/>
<g clip-path="url(#clip1_222_7647)">
<path d="M85.908 116.192V79.0016C85.9241 74.9053 87.2581 70.923 89.7127 67.6435C92.1674 64.3641 95.6123 61.9617 99.538 60.7916C97.1904 59.6409 95.2916 57.7431 94.1394 55.3963C92.9873 53.0495 92.6472 50.3865 93.1724 47.8254C93.6977 45.2643 95.0586 42.9502 97.0415 41.2464C99.0244 39.5425 101.517 38.5454 104.128 38.4116H104.738C107.332 38.4123 109.854 39.2677 111.913 40.8456C113.972 42.4235 115.453 44.6359 116.128 47.1406C116.803 49.6453 116.634 52.3026 115.647 54.7016C114.66 57.1005 112.91 59.1073 110.668 60.4116L110.058 60.7516C114.03 61.8796 117.527 64.2711 120.019 67.5641C122.511 70.857 123.862 74.8721 123.868 79.0016V116.182L85.908 116.192Z" fill="white"/>
<path d="M104.748 38.8619C107.404 38.886 109.967 39.8406 111.991 41.5596C114.016 43.2786 115.373 45.653 115.828 48.2697C116.282 50.8863 115.804 53.5795 114.478 55.8803C113.151 58.1811 111.06 59.9439 108.568 60.8619L108.888 60.9219C113.003 61.8345 116.684 64.1235 119.322 67.4108C121.96 70.6981 123.398 74.7869 123.398 79.0019V115.702H86.398V79.0019C86.3982 74.765 87.8519 70.6565 90.5164 67.3623C93.1808 64.0681 96.8948 61.7877 101.038 60.9019C98.5671 60.0327 96.4737 58.3343 95.1139 56.0956C93.7541 53.857 93.212 51.2163 93.5798 48.6229C93.9476 46.0296 95.2025 43.6438 97.1311 41.8714C99.0597 40.0991 101.543 39.0497 104.158 38.9019H104.738L104.748 38.8619ZM104.738 37.9619H104.118C101.505 38.1039 99.0059 39.0768 96.9848 40.7388C94.9637 42.4007 93.5263 44.6649 92.8822 47.2011C92.2381 49.7373 92.421 52.4129 93.4042 54.8379C94.3874 57.2629 96.1195 59.3104 98.348 60.6819C94.5763 62.043 91.3141 64.5305 89.0031 67.8073C86.6921 71.0842 85.4441 74.9921 85.428 79.0019V116.652H124.348V79.0019C124.346 74.9528 123.082 71.0049 120.733 67.7072C118.383 64.4095 115.064 61.9259 111.238 60.6019C113.499 59.1914 115.239 57.0832 116.195 54.5961C117.152 52.109 117.273 49.3781 116.54 46.8162C115.806 44.2544 114.259 42.0008 112.132 40.3961C110.005 38.7915 107.413 37.923 104.748 37.9219L104.738 37.9619Z" fill="#4D4D4D"/>
<path d="M115.108 53.9118C114.451 55.6561 113.415 57.2328 112.075 58.5281C110.735 59.8233 109.124 60.8049 107.358 61.4018C105.198 62.1218 100.798 61.6118 100.748 64.8818C100.784 65.589 100.861 66.2934 100.978 66.9918C101.046 68.8539 100.588 70.6975 99.6579 72.3118C99.2179 73.0418 98.5479 73.6218 98.1279 74.3818C96.7979 76.7918 98.5579 78.1118 100.218 79.6618C105.088 84.2318 105.358 90.7218 103.338 96.6618C102.568 98.9618 101.578 101.192 100.698 103.452C100.018 105.222 99.1779 107.022 99.6979 108.932C100.218 110.842 100.448 113.082 101.758 114.452C102.758 115.522 104.588 115.662 106.008 115.662H86.3779V79.0018C86.3779 71.4718 91.1979 64.1918 98.3779 61.7718L101.008 60.8818C98.5055 60.0395 96.3771 58.3475 94.9921 56.0995C93.6071 53.8515 93.0531 51.1895 93.4262 48.5756C93.7993 45.9617 95.0759 43.561 97.0344 41.7903C98.993 40.0195 101.51 38.9905 104.148 38.8818C102.214 39.6938 100.54 41.0195 99.3059 42.7153C98.072 44.4111 97.3257 46.4122 97.1479 48.5018C97.0156 50.0897 97.2952 51.6849 97.9597 53.133C98.6242 54.5812 99.6512 55.8335 100.941 56.7686C102.231 57.7037 103.741 58.2902 105.324 58.4712C106.907 58.6522 108.51 58.4216 109.978 57.8018C112.012 56.9993 113.786 55.6538 115.108 53.9118Z" fill="#C4C4C4"/>
<path d="M48.8879 116.192V79.0016C48.9041 74.9053 50.2381 70.923 52.6927 67.6435C55.1474 64.3641 58.5923 61.9617 62.5179 60.7916C60.1699 59.6404 58.2708 57.7418 57.119 55.394C55.9672 53.0463 55.6279 50.3824 56.1544 47.8209C56.6809 45.2594 58.0433 42.9453 60.0278 41.2422C62.0122 39.5391 64.5062 38.5434 67.1179 38.4116H67.7179C70.312 38.4123 72.8336 39.2677 74.8926 40.8456C76.9516 42.4235 78.4332 44.6359 79.1083 47.1406C79.7835 49.6453 79.6144 52.3026 78.6274 54.7016C77.6403 57.1005 75.8903 59.1073 73.6479 60.4116L73.0379 60.7516C77.0122 61.8778 80.5113 64.2685 83.005 67.5616C85.4988 70.8547 86.8514 74.8708 86.8579 79.0016V116.182L48.8879 116.192Z" fill="white"/>
<path d="M67.748 38.8619C70.241 38.8638 72.6638 39.6879 74.6409 41.2065C76.6181 42.7251 78.0391 44.8534 78.6839 47.2616C79.3287 49.6698 79.1612 52.2235 78.2073 54.5268C77.2535 56.8301 75.5666 58.7546 73.408 60.0019C72.8136 60.3532 72.1875 60.6479 71.538 60.8819L71.858 60.9419C75.9715 61.8518 79.6518 64.137 82.2916 67.4203C84.9313 70.7037 86.3728 74.789 86.378 79.0019V115.702H49.378V79.0019C49.38 74.7655 50.8344 70.6579 53.4986 67.3641C56.1627 64.0703 59.8756 61.7894 64.018 60.9019C61.5471 60.0327 59.4536 58.3343 58.0939 56.0956C56.7341 53.857 56.192 51.2163 56.5598 48.6229C56.9275 46.0296 58.1825 43.6438 60.1111 41.8714C62.0397 40.0991 64.5228 39.0497 67.138 38.9019H67.718L67.748 38.8619ZM67.718 37.9619H67.098C64.4762 38.0947 61.9661 39.0641 59.9356 40.728C57.9052 42.3919 56.4614 44.6627 55.8161 47.2072C55.1707 49.7517 55.3578 52.4361 56.3497 54.8666C57.3417 57.297 59.0864 59.3456 61.328 60.7119C57.5621 62.0717 54.3046 64.555 51.9958 67.826C49.6869 71.097 48.438 74.9981 48.418 79.0019V116.652H87.328V79.0019C87.3261 74.9528 86.0625 71.0049 83.7129 67.7072C81.3633 64.4095 78.0445 61.9259 74.218 60.6019C76.4773 59.1923 78.2167 57.0859 79.1735 54.6008C80.1304 52.1156 80.2528 49.3867 79.5223 46.8258C78.7918 44.265 77.2479 42.0114 75.1239 40.4051C72.9999 38.7989 70.4109 37.9273 67.748 37.9219L67.718 37.9619Z" fill="#4D4D4D"/>
<path d="M78.0979 53.9118C77.4394 55.6568 76.4017 57.2338 75.0598 58.5291C73.7178 59.8243 72.1051 60.8055 70.3379 61.4018C67.8679 62.2318 65.0779 62.3218 62.8279 63.7618C61.7189 64.4409 60.9052 65.5115 60.5479 66.7618C60.2644 68.5796 59.5324 70.2981 58.4179 71.7618C57.8373 72.2946 57.3946 72.9603 57.1279 73.7018C57.0373 74.4256 57.1848 75.1592 57.5479 75.7918C57.9093 76.5685 58.3447 77.3086 58.8479 78.0018C58.2838 77.7417 57.6723 77.6004 57.0512 77.5866C56.4302 77.5728 55.813 77.6869 55.2379 77.9218C53.5879 78.6318 53.1579 80.0418 53.2379 81.6618C53.3579 83.8018 53.1479 101.892 53.3779 104.052C53.6079 106.212 53.8479 108.372 55.1579 110.152C57.3779 113.152 61.2279 114.592 64.7879 115.152C66.1679 115.382 67.5579 115.532 68.9579 115.672H49.3579V79.0018C49.3579 71.4718 54.1779 64.1918 61.3579 61.7718L63.9879 60.8818C61.4855 60.0395 59.3571 58.3475 57.9721 56.0995C56.5871 53.8515 56.0331 51.1895 56.4062 48.5756C56.7792 45.9617 58.0559 43.561 60.0144 41.7903C61.973 40.0195 64.4898 38.9905 67.1279 38.8818C65.2055 39.7024 63.5434 41.0319 62.3205 42.727C61.0976 44.4221 60.3603 46.4187 60.1879 48.5018C60.0526 50.0905 60.3303 51.6873 60.9939 53.137C61.6576 54.5868 62.6848 55.8404 63.9758 56.7762C65.2667 57.7119 66.7777 58.2981 68.362 58.4778C69.9463 58.6576 71.5501 58.4247 73.0179 57.8018C75.0306 56.9862 76.7857 55.6422 78.0979 53.9118Z" fill="#C4C4C4"/>
<path d="M11.8679 116.192V79.0016C11.884 74.9053 13.2181 70.923 15.6727 67.6435C18.1273 64.3641 21.5722 61.9617 25.4979 60.7916C23.1499 59.6404 21.2508 57.7418 20.099 55.394C18.9472 53.0463 18.6079 50.3824 19.1343 47.8209C19.6608 45.2594 21.0233 42.9453 23.0078 41.2422C24.9922 39.5391 27.4862 38.5434 30.0979 38.4116H30.7079C33.2979 38.4204 35.8131 39.2802 37.8664 40.8588C39.9197 42.4374 41.3971 44.6472 42.0711 47.1479C42.7452 49.6486 42.5785 52.3016 41.5968 54.6983C40.615 57.0949 38.8726 59.1024 36.6379 60.4116C36.4379 60.5316 36.2279 60.6416 36.0179 60.7516C39.9922 61.8778 43.4913 64.2685 45.985 67.5616C48.4787 70.8547 49.8313 74.8708 49.8379 79.0016V116.182L11.8679 116.192Z" fill="white"/>
<path d="M30.7479 38.8619C33.4036 38.886 35.9668 39.8406 37.9913 41.5596C40.0157 43.2786 41.3733 45.653 41.8276 48.2697C42.282 50.8863 41.8043 53.5795 40.4779 55.8803C39.1514 58.1811 37.0601 59.9439 34.5679 60.8619L34.878 60.9219C38.9874 61.8404 42.6611 64.132 45.2934 67.4187C47.9257 70.7054 49.3593 74.791 49.3579 79.0019V115.702H12.3579V79.0019C12.3582 74.765 13.8119 70.6565 16.4763 67.3623C19.1408 64.0681 22.8547 61.7877 26.9979 60.9019C24.5271 60.0327 22.4336 58.3343 21.0738 56.0956C19.7141 53.857 19.172 51.2163 19.5397 48.6229C19.9075 46.0296 21.1625 43.6438 23.0911 41.8714C25.0197 40.0991 27.5028 39.0497 30.118 38.9019H30.7079L30.7479 38.8619ZM30.7079 37.9619H30.0879C27.4654 38.0927 24.9539 39.0608 22.9219 40.724C20.89 42.3871 19.4447 44.6578 18.7981 47.2028C18.1515 49.7477 18.3377 52.4329 19.3294 54.8643C20.321 57.2956 22.0659 59.3451 24.3079 60.7119C20.5437 62.0742 17.2878 64.558 14.9793 67.8285C12.6708 71.099 11.4209 74.9988 11.3979 79.0019V116.652H50.308V79.0019C50.3053 74.9543 49.0426 71.008 46.6951 67.7108C44.3476 64.4135 41.0318 61.9289 37.2079 60.6019C39.4665 59.1927 41.2056 57.0872 42.1627 54.6031C43.1197 52.1189 43.2429 49.3909 42.5137 46.8306C41.7844 44.2703 40.2423 42.0166 38.1199 40.4096C35.9975 38.8026 33.4101 37.9294 30.7479 37.9219L30.7079 37.9619Z" fill="#4D4D4D"/>
<path d="M41.0779 53.9118C40.4198 55.6554 39.3835 57.2314 38.0434 58.5265C36.7034 59.8216 35.0929 60.8036 33.3279 61.4018C31.7579 61.9218 30.0479 61.9318 28.5179 62.5218C27.1601 63.1457 25.911 63.983 24.8179 65.0018C20.9278 68.2571 18.1692 72.6611 16.9379 77.5818C15.9379 81.8818 16.2779 86.4218 16.2679 90.8018C16.2579 95.1818 15.8979 99.7318 16.3779 104.082C16.6079 106.242 16.8379 108.402 18.1479 110.182C20.3679 113.182 24.2179 114.622 27.7779 115.182C29.1579 115.412 30.5579 115.562 31.9579 115.702H12.3479V79.0018C12.3479 71.4718 17.1579 64.1918 24.3479 61.7718L26.9779 60.8818C24.4755 60.0395 22.347 58.3475 20.9621 56.0995C19.5771 53.8515 19.0231 51.1895 19.3962 48.5756C19.7692 45.9617 21.0458 43.561 23.0044 41.7903C24.963 40.0195 27.4798 38.9905 30.1179 38.8818C28.1936 39.701 26.5294 41.0298 25.3047 42.7251C24.08 44.4203 23.3412 46.4177 23.1679 48.5018C23.0714 50.59 23.6507 52.6537 24.8198 54.3866C25.9889 56.1196 27.6855 57.4294 29.6579 58.1218C31.7474 58.7285 33.9801 58.6158 35.9979 57.8018C38.0106 56.9862 39.7657 55.6422 41.0779 53.9118Z" fill="#C4C4C4"/>
<path d="M26.7478 124.852V95.0018C26.7534 90.8953 28.0852 86.9004 30.5447 83.612C33.0043 80.3235 36.4602 77.9174 40.3978 76.7518C38.053 75.598 36.1571 73.699 35.0071 71.3522C33.8571 69.0055 33.518 66.3436 34.0428 63.7835C34.5676 61.2234 35.9268 58.9097 37.9074 57.2048C39.888 55.4998 42.3781 54.5 44.9878 54.3618H45.5978C48.1877 54.3705 50.703 55.2304 52.7563 56.809C54.8095 58.3876 56.287 60.5974 56.961 63.0981C57.6351 65.5988 57.4684 68.2518 56.4866 70.6485C55.5049 73.0451 53.7625 75.0526 51.5278 76.3618C51.3278 76.4818 51.1278 76.6018 50.9178 76.7018C54.9022 77.8285 58.4095 80.2259 60.906 83.5293C63.4025 86.8327 64.7515 90.8612 64.7478 95.0018V124.892L26.7478 124.852Z" fill="white"/>
<path d="M45.5978 54.8216C48.0871 54.8244 50.5061 55.647 52.4811 57.1621C54.4561 58.6773 55.8772 60.8007 56.5247 63.2042C57.1723 65.6078 57.0103 68.1577 56.0637 70.4599C55.1171 72.7622 53.4387 74.6886 51.2878 75.9416C50.6966 76.2987 50.0699 76.5936 49.4178 76.8216L49.7378 76.8916C53.8597 77.8034 57.5464 80.096 60.1871 83.3896C62.8278 86.6832 64.264 90.7801 64.2578 95.0016V124.422H27.2578V95.0016C27.2572 90.7615 28.7131 86.6498 31.3818 83.3548C34.0505 80.0599 37.7701 77.7817 41.9178 76.9016C39.4469 76.0324 37.3535 74.334 35.9937 72.0953C34.634 69.8567 34.0918 67.216 34.4596 64.6226C34.8274 62.0293 36.0824 59.6435 38.011 57.8711C39.9396 56.0988 42.4227 55.0494 45.0378 54.9016H45.6178L45.5978 54.8216ZM45.6178 53.9016H44.9978C42.3761 54.0344 39.8659 55.0038 37.8355 56.6677C35.8051 58.3316 34.3613 60.6024 33.716 63.1469C33.0706 65.6914 33.2576 68.3758 34.2496 70.8063C35.2416 73.2367 36.9863 75.2853 39.2278 76.6516C35.4468 78.01 32.1761 80.5003 29.8608 83.7836C27.5454 87.067 26.2978 90.984 26.2878 95.0016V125.372H65.2078V95.0016C65.2167 90.9463 63.9577 86.9897 61.6071 83.6851C59.2564 80.3806 55.9317 77.8935 52.0978 76.5716C54.3615 75.16 56.1039 73.0496 57.0615 70.5597C58.0192 68.0698 58.1399 65.3358 57.4055 62.7711C56.6712 60.2065 55.1216 57.9507 52.9912 56.3451C50.8609 54.7394 48.2656 53.8711 45.5978 53.8716L45.6178 53.9016Z" fill="#4D4D4D"/>
<path d="M55.9778 69.8719C55.4053 71.1429 54.705 72.3525 53.8878 73.4819C52.7739 74.8077 51.416 75.9076 49.8878 76.7219C48.4219 77.3218 46.8918 77.7513 45.3278 78.0019C43.8101 78.3947 42.3385 78.9478 40.9378 79.6519C37.6786 81.1681 34.9556 83.6366 33.1278 86.7319C31.3878 89.8919 31.4878 93.3718 31.1878 96.8419C30.9778 99.2318 31.0078 110.312 31.2678 112.702C31.5078 114.852 31.7278 117.012 33.0478 118.802C35.2678 121.802 39.1178 123.232 42.6778 123.802C44.0478 124.042 45.4478 124.192 46.8478 124.332H27.2378V95.0019C27.2371 90.7617 28.693 86.6501 31.3617 83.3551C34.0304 80.0602 37.75 77.782 41.8978 76.9019C39.4269 76.0327 37.3335 74.3343 35.9737 72.0956C34.6139 69.8569 34.0718 67.2163 34.4396 64.6229C34.8074 62.0296 36.0623 59.6437 37.9909 57.8714C39.9196 56.0991 42.4027 55.0497 45.0178 54.9019C41.6678 56.9619 38.7278 59.3119 38.1278 63.4519C37.4378 68.1719 40.4478 73.4519 45.2878 74.3919C47.3144 74.7206 49.3927 74.4709 51.2837 73.6713C53.1747 72.8717 54.8018 71.5548 55.9778 69.8719Z" fill="#C4C4C4"/>
<path d="M67.3979 124.852V95.0018C67.4023 90.8979 68.7311 86.9049 71.1869 83.6168C73.6426 80.3287 77.0941 77.921 81.0279 76.7518C78.6831 75.598 76.7872 73.699 75.6373 71.3522C74.4873 69.0055 74.1481 66.3436 74.673 63.7835C75.1978 61.2234 76.5569 58.9097 78.5375 57.2048C80.5181 55.4998 83.0083 54.5 85.618 54.3618H86.228C88.822 54.3625 91.3436 55.2179 93.4026 56.7958C95.4616 58.3737 96.9432 60.5861 97.6184 63.0908C98.2935 65.5955 98.1244 68.2528 97.1374 70.6518C96.1503 73.0507 94.4003 75.0575 92.158 76.3618C91.958 76.4818 91.7579 76.6018 91.548 76.7018C95.5305 77.8303 99.0355 80.2285 101.53 83.5318C104.025 86.835 105.372 90.8625 105.368 95.0018V124.892L67.3979 124.852Z" fill="white"/>
<path d="M86.228 54.8216C88.7172 54.8244 91.1362 55.647 93.1112 57.1621C95.0862 58.6773 96.5073 60.8007 97.1549 63.2042C97.8024 65.6078 97.6404 68.1577 96.6938 70.4599C95.7473 72.7622 94.0689 74.6886 91.918 75.9416C91.3267 76.2987 90.7 76.5936 90.048 76.8216L90.368 76.8916C94.4898 77.8034 98.1765 80.096 100.817 83.3896C103.458 86.6832 104.894 90.7801 104.888 95.0016V124.422H67.888V95.0016C67.8873 90.7615 69.3432 86.6498 72.0119 83.3548C74.6806 80.0599 78.4002 77.7817 82.548 76.9016C80.0771 76.0324 77.9836 74.334 76.6239 72.0953C75.2641 69.8567 74.722 67.216 75.0898 64.6226C75.4575 62.0293 76.7125 59.6435 78.6411 57.8711C80.5697 56.0988 83.0528 55.0494 85.668 54.9016H86.248L86.228 54.8216ZM86.248 53.9016H85.628C83.0062 54.0344 80.4961 55.0038 78.4656 56.6677C76.4352 58.3316 74.9915 60.6024 74.3461 63.1469C73.7007 65.6914 73.8878 68.3758 74.8797 70.8063C75.8717 73.2367 77.6164 75.2853 79.858 76.6516C76.0769 78.01 72.8062 80.5003 70.4909 83.7836C68.1755 87.067 66.928 90.984 66.918 95.0016V125.372H105.838V95.0016C105.848 90.9487 104.592 86.9939 102.245 83.6897C99.8985 80.3854 96.578 77.8968 92.748 76.5716C95.0116 75.16 96.754 73.0496 97.7117 70.5597C98.6693 68.0698 98.79 65.3358 98.0557 62.7711C97.3213 60.2065 95.7717 57.9507 93.6414 56.3451C91.511 54.7394 88.9157 53.8711 86.248 53.8716V53.9016Z" fill="#4D4D4D"/>
<path d="M96.5979 69.8716C95.9411 71.6147 94.905 73.1901 93.5647 74.4837C92.2243 75.7774 90.6132 76.757 88.8479 77.3516C87.2179 77.9016 85.4979 78.1216 83.8479 78.6116C82.5307 78.8858 81.3012 79.48 80.2679 80.3416C79.6095 81.1442 79.2775 82.1653 79.3379 83.2016C79.2234 84.418 78.7924 85.5833 78.0879 86.5816C77.3025 87.6301 76.632 88.7599 76.0879 89.9516C75.6879 91.1116 76.5579 92.4216 77.2779 93.2916C77.9291 94.0898 78.6558 94.8232 79.4479 95.4816C77.7148 95.1745 75.9296 95.5315 74.4479 96.4816C71.4479 98.4816 71.7779 101.902 71.7679 105.062C71.6645 107.628 71.7012 110.199 71.8779 112.762C72.1179 114.912 72.3379 117.072 73.6579 118.862C75.8779 121.862 79.7279 123.292 83.2879 123.862C84.6579 124.102 86.0579 124.252 87.4579 124.392H67.8679V95.0016C67.8679 87.4716 72.6879 80.1916 79.8679 77.7716L82.4979 76.8916C80.006 76.0397 77.8894 74.3449 76.5134 72.0994C75.1373 69.854 74.5879 67.1988 74.96 64.5917C75.3321 61.9845 76.6024 59.589 78.5517 57.8182C80.501 56.0474 83.0071 55.0124 85.6379 54.8916C83.7271 55.7168 82.0765 57.0461 80.8629 58.737C79.6493 60.428 78.9182 62.4171 78.7479 64.4916C78.6115 66.0803 78.8886 67.6773 79.5522 69.1273C80.2159 70.5772 81.2434 71.8307 82.535 72.7659C83.8265 73.7011 85.3381 74.2862 86.9227 74.4641C88.5074 74.6421 90.1111 74.407 91.5779 73.7816C93.5726 72.9537 95.3069 71.6029 96.5979 69.8716Z" fill="#C4C4C4"/>
<path d="M47.0779 129.652V108.422C47.0966 104.32 48.4364 100.334 50.8987 97.0541C53.361 93.774 56.8147 91.3747 60.7479 90.2118C58.3948 89.0632 56.4906 87.1645 55.3352 84.8148C54.1797 82.4651 53.8386 79.7979 54.3655 77.233C54.8925 74.6681 56.2576 72.3514 58.2458 70.6476C60.2341 68.9438 62.7326 67.9496 65.3479 67.8218H65.9579C68.5478 67.8305 71.0631 68.6904 73.1164 70.269C75.1696 71.8476 76.647 74.0574 77.3211 76.5581C77.9951 79.0588 77.8285 81.7117 76.8467 84.1084C75.865 86.5051 74.1226 88.5126 71.8879 89.8218C71.6879 89.9318 71.4779 90.0518 71.2679 90.1518C75.238 91.2862 78.7306 93.683 81.2169 96.9795C83.7033 100.276 85.0481 104.293 85.0479 108.422V129.652H47.0779Z" fill="white"/>
<path d="M65.9179 68.2818C68.4103 68.2808 70.8335 69.1018 72.8121 70.6175C74.7907 72.1332 76.2143 74.259 76.8623 76.6657C77.5104 79.0724 77.3468 81.6256 76.3969 83.9299C75.447 86.2342 73.7638 88.161 71.6079 89.4118C71.0143 89.7619 70.388 90.0532 69.7379 90.2818L70.0479 90.3518C74.1631 91.262 77.8447 93.5487 80.4846 96.8341C83.1246 100.12 84.565 104.207 84.5679 108.422V129.172H47.5679V108.422C47.5668 104.183 49.0212 100.072 51.688 96.7777C54.3547 93.4829 58.072 91.2039 62.2179 90.3218C59.747 89.4526 57.6536 87.7542 56.2938 85.5155C54.934 83.2768 54.3919 80.6362 54.7597 78.0428C55.1275 75.4495 56.3824 73.0637 58.3111 71.2913C60.2397 69.519 62.7228 68.4696 65.3379 68.3218H65.9279L65.9179 68.2818ZM65.9279 67.3218H65.3079C62.6756 67.4413 60.1515 68.4043 58.1086 70.0686C56.0657 71.7329 54.6123 74.0103 53.9632 76.5641C53.3141 79.1179 53.5037 81.8128 54.504 84.2506C55.5042 86.6884 57.2621 88.7398 59.5179 90.1018C55.7473 91.4633 52.4864 93.9512 50.1771 97.2282C47.8679 100.505 46.6218 104.413 46.6079 108.422V130.122H85.5179V108.422C85.5239 104.37 84.2648 100.417 81.9164 97.1148C79.568 93.8127 76.2474 91.326 72.4179 90.0018C74.6816 88.5902 76.424 86.4798 77.3816 83.9899C78.3392 81.5 78.46 78.766 77.7256 76.2013C76.9912 73.6367 75.4417 71.3809 73.3113 69.7752C71.1809 68.1696 68.5856 67.3013 65.9179 67.3018L65.9279 67.3218Z" fill="#4D4D4D"/>
<path d="M76.2879 83.3318C75.7237 84.6239 75.0266 85.8539 74.2079 87.0018C73.0886 88.3195 71.7318 89.4152 70.2079 90.2318C68.7329 90.8401 67.1928 91.2763 65.6179 91.5318C64.104 91.9264 62.6359 92.4795 61.2379 93.1818C57.9778 94.7006 55.2522 97.1682 53.4179 100.262C51.6779 103.422 51.7879 106.902 51.4879 110.372C51.2794 112.765 51.3062 115.173 51.5679 117.562C51.7979 119.722 52.0279 121.882 53.3379 123.672C55.5579 126.672 59.4079 128.102 62.9679 128.672C64.3479 128.902 65.7479 129.052 67.1479 129.192H47.5579V108.422C47.5567 104.183 49.0112 100.072 51.6779 96.7777C54.3447 93.483 58.0619 91.2039 62.2079 90.3218C59.737 89.4526 57.6435 87.7542 56.2838 85.5155C54.924 83.2769 54.3819 80.6362 54.7496 78.0428C55.1174 75.4495 56.3724 73.0637 58.301 71.2913C60.2296 69.519 62.7127 68.4696 65.3279 68.3218C61.9879 70.3818 59.0379 72.7318 58.4379 76.8718C57.7579 81.5918 60.7679 86.8718 65.6079 87.8118C67.6292 88.1452 69.7036 87.9017 71.5928 87.1093C73.482 86.3168 75.1093 85.0075 76.2879 83.3318Z" fill="#C4C4C4"/>
<g opacity="0.3">
<path d="M11.1935 -3.00014L0 8.19336L120.102 128.295L131.296 117.102L11.1935 -3.00014Z" fill="#FF0000"/>
</g>
<g opacity="0.2">
<path d="M121.948 126.442L120.108 128.292L0.0078125 8.2018L1.85781 6.3418L121.948 126.442Z" fill="#4A0000"/>
</g>
</g>
</g>
<defs>
<clipPath id="clip0_222_7647">
<rect width="131.55" height="133.12" fill="white"/>
</clipPath>
<clipPath id="clip1_222_7647">
<rect x="4" y="2" width="124" height="124" rx="62" fill="white"/>
</clipPath>
</defs>
</svg>
