<svg width="130" height="130" viewBox="0 0 130 130" fill="none" xmlns="http://www.w3.org/2000/svg">
<g clip-path="url(#clip0_222_8411)">
<g style="mix-blend-mode:overlay">
<g style="mix-blend-mode:overlay">
<path d="M123.914 77.1286C129.324 43.1268 106.146 11.1775 72.1439 5.76778C38.1421 0.35809 6.19283 23.5366 0.783145 57.5383C-4.62654 91.5401 18.5519 123.489 52.5537 128.899C86.5555 134.309 118.505 111.13 123.914 77.1286Z" fill="#89A58F"/>
</g>
</g>
<g style="mix-blend-mode:overlay">
<g style="mix-blend-mode:overlay">
<path d="M126.789 77.1575C134.182 43.5312 112.916 10.2783 79.2901 2.88511C45.6638 -4.5081 12.4109 16.758 5.0177 50.3843C-2.37551 84.0105 18.8906 117.263 52.5169 124.657C86.1431 132.05 119.396 110.784 126.789 77.1575Z" fill="white"/>
</g>
</g>
<path d="M65.8999 127.54C53.2874 127.54 40.9581 123.8 30.4712 116.793C19.9843 109.786 11.8107 99.8262 6.98411 88.1738C2.15751 76.5213 0.894655 63.6993 3.35523 51.3291C5.81581 38.959 11.8893 27.5962 20.8077 18.6778C29.7261 9.75943 41.0888 3.68593 53.459 1.22535C65.8292 -1.23523 78.6512 0.0276303 90.3036 4.85423C101.956 9.68083 111.916 17.8544 118.923 28.3413C125.93 38.8282 129.67 51.1575 129.67 63.77C129.651 80.6772 122.927 96.8866 110.972 108.842C99.0165 120.797 82.8071 127.521 65.8999 127.54ZM65.8999 2.85003C53.8511 2.85003 42.0728 6.42292 32.0546 13.1169C22.0363 19.8109 14.2281 29.3253 9.61717 40.457C5.00628 51.5886 3.79986 63.8376 6.15047 75.6549C8.50108 87.4723 14.3032 98.3272 22.823 106.847C31.3428 115.367 42.1977 121.169 54.015 123.519C65.8323 125.87 78.0813 124.664 89.213 120.053C100.345 115.442 109.859 107.634 116.553 97.6154C123.247 87.5971 126.82 75.8189 126.82 63.77C126.799 47.6195 120.374 32.1366 108.953 20.7165C97.5333 9.29633 82.0504 2.8712 65.8999 2.85003Z" fill="#869554"/>
<path d="M31.5901 78.3101C31.1287 78.3119 30.6687 78.2581 30.2201 78.1501C29.282 77.909 28.4171 77.4422 27.7008 76.7904C26.9844 76.1385 26.4383 75.3214 26.1101 74.4101C25.7471 73.1507 25.605 71.838 25.6901 70.5301C25.733 69.5254 25.6625 68.5191 25.4801 67.5301C25.3229 66.9044 25.1156 66.2925 24.8601 65.7001C24.7201 65.3401 24.5801 64.9901 24.4601 64.6301C23.7421 62.4913 23.6416 60.1934 24.1701 58.0001C24.3 57.222 24.6016 56.4826 25.0531 55.8356C25.5046 55.1887 26.0945 54.6505 26.7801 54.2601C27.3956 53.997 28.061 53.8707 28.7301 53.8901H28.8401C29.6113 53.9061 30.3747 54.0479 31.1001 54.3101L31.3001 54.3901L31.3801 54.5901C31.6901 55.4001 32.0501 56.2201 32.4801 57.0901C33.4855 59.1223 34.1831 61.2927 34.5501 63.5301C34.8974 65.6123 34.9512 67.733 34.7101 69.8301C34.8021 69.7899 34.8893 69.7396 34.9701 69.6801L35.7201 69.1501V76.6601L35.5701 76.8001C35.1753 77.1616 34.7308 77.4646 34.2501 77.7001C33.4206 78.1011 32.5114 78.3096 31.5901 78.3101Z" fill="white"/>
<path d="M28.7401 54.3397H28.8401C29.554 54.3575 30.2601 54.4926 30.9301 54.7397C31.2401 55.5497 31.6101 56.3897 32.0501 57.2797C33.0214 59.2705 33.6953 61.3932 34.0501 63.5797C34.4267 65.8422 34.4537 68.149 34.1301 70.4197C34.5232 70.4134 34.9044 70.284 35.2201 70.0497V76.4297C34.8592 76.7608 34.4515 77.0371 34.0101 77.2497C33.2377 77.6383 32.3849 77.8404 31.5201 77.8397C31.0957 77.8392 30.6728 77.7889 30.2601 77.6897C29.4002 77.4644 28.6078 77.0336 27.9511 76.4344C27.2944 75.8352 26.7931 75.0855 26.4901 74.2497C25.7301 72.0897 26.3901 69.6597 25.8701 67.4197C25.5891 66.403 25.2553 65.4017 24.8701 64.4197C24.1785 62.3617 24.0815 60.1504 24.5901 58.0397C24.718 57.3349 25.0005 56.6671 25.4172 56.0844C25.8339 55.5017 26.3745 55.0186 27.0001 54.6697C27.5599 54.4348 28.1634 54.3223 28.7701 54.3397H28.7401ZM28.7701 53.3397C28.0281 53.3199 27.2907 53.4633 26.6101 53.7597C25.8591 54.1643 25.2103 54.7349 24.7129 55.4281C24.2156 56.1212 23.8829 56.9186 23.7401 57.7597C23.1885 60.0488 23.2924 62.4469 24.0401 64.6797C24.1601 65.0497 24.3101 65.4097 24.4501 65.7697C24.6946 66.3403 24.8952 66.9286 25.0501 67.5297C25.2267 68.4856 25.2905 69.4589 25.2401 70.4297C25.1577 71.779 25.31 73.1324 25.6901 74.4297C26.0497 75.4069 26.6419 76.2818 27.4155 76.9788C28.1891 77.6757 29.1208 78.1737 30.1301 78.4297C30.6178 78.5492 31.1181 78.6097 31.6201 78.6097C32.6337 78.6084 33.6332 78.3722 34.5401 77.9197C35.0605 77.6587 35.5391 77.3217 35.9601 76.9197L36.2701 76.6397V76.2197V69.8297V68.2097L35.3601 68.8597C35.4496 67.0419 35.3288 65.2198 35.0001 63.4297C34.6255 61.1461 33.9109 58.9315 32.8801 56.8597C32.4601 55.9997 32.1001 55.1997 31.8001 54.3997L31.6401 53.9997L31.2401 53.8497C30.4714 53.5637 29.6602 53.4082 28.8401 53.3897L28.7701 53.3397Z" fill="#4D4D4D"/>
<path d="M35.29 76.4299C34.929 76.761 34.5213 77.0373 34.08 77.2499C33.3978 77.602 32.648 77.8034 31.8812 77.8406C31.1144 77.8777 30.3486 77.7498 29.6356 77.4653C28.9226 77.1809 28.279 76.7466 27.7484 76.1918C27.2178 75.6371 26.8125 74.9748 26.56 74.2499C26 72.6499 26.28 70.9699 26.27 69.3099C26.312 69.6712 26.4463 70.0155 26.66 70.3099C26.91 70.7599 27.1 71.3099 27.31 71.7299C27.4826 72.2252 27.7868 72.6643 28.19 72.9999C28.6524 73.2589 29.1817 73.3738 29.71 73.3299C30.1752 73.392 30.6486 73.3418 31.0905 73.1835C31.5324 73.0252 31.93 72.7633 32.25 72.4199C32.4972 72.0202 32.6288 71.5598 32.63 71.0899C32.703 70.5932 32.63 70.0859 32.42 69.6299C32.1257 69.2386 31.7905 68.8799 31.42 68.5599C30.948 67.9723 30.7062 67.2328 30.74 66.4799C30.7833 65.7372 30.999 65.0148 31.37 64.3699C31.55 64.0299 31.76 63.7199 31.91 63.3699C32.2001 62.7236 32.2703 62 32.11 61.3099C32.0143 60.7811 31.73 60.305 31.31 59.9699C30.9262 59.7048 30.4759 59.5524 30.01 59.5299C29.0277 59.4063 28.0337 59.6406 27.21 60.1899C26.808 60.4722 26.4855 60.8533 26.2736 61.2964C26.0617 61.7395 25.9674 62.2298 26 62.7199C25.9356 61.813 26.0651 60.9028 26.38 60.0499C26.4967 59.7231 26.6511 59.411 26.84 59.1199C27.3185 58.4198 28.0179 57.9004 28.8265 57.6448C29.6351 57.3891 30.506 57.4121 31.3 57.7099C31.0301 56.7504 30.3996 55.9324 29.5403 55.4273C28.681 54.9221 27.6596 54.769 26.69 54.9999C27.3578 54.5112 28.1736 54.2676 29 54.3099C29.28 54.3099 30.86 54.4699 31 54.7399C31.31 55.5499 31.68 56.3899 32.12 57.2799C33.0913 59.2707 33.7651 61.3934 34.12 63.5799C34.4965 65.8424 34.5235 68.1492 34.2 70.4199C34.5931 70.4136 34.9743 70.2842 35.29 70.0499V76.4299Z" fill="#C4C4C4"/>
<path d="M100.22 78.3099C99.2824 78.3105 98.3576 78.0913 97.52 77.6699C97.0353 77.4456 96.5896 77.1452 96.2 76.7799L96 76.6399V69.2499L96.94 69.1699C97 69.4799 97.03 69.7899 97.07 70.0999H97.42C97.01 67.6399 97.33 60.4999 97.34 60.4299C97.6291 58.6707 98.1259 56.952 98.82 55.3099V55.1699L98.95 55.0799C100.157 54.2997 101.562 53.88 103 53.8699H103.11C103.796 53.8445 104.479 53.9708 105.11 54.2399C105.782 54.6422 106.357 55.1877 106.795 55.8376C107.232 56.4875 107.52 57.2258 107.64 57.9999C108.165 60.2002 108.065 62.5036 107.35 64.6499C107.22 65.0299 107.07 65.3999 106.93 65.7699C106.684 66.3476 106.48 66.9425 106.32 67.5499C106.136 68.5386 106.069 69.5455 106.12 70.5499C106.21 71.8579 106.068 73.1715 105.7 74.4299C105.372 75.3411 104.826 76.1583 104.109 76.8102C103.393 77.462 102.528 77.9288 101.59 78.1699C101.141 78.2712 100.681 78.3182 100.22 78.3099Z" fill="white"/>
<path d="M103.07 54.3398C103.674 54.3233 104.274 54.4358 104.83 54.6698C105.451 55.03 105.984 55.5237 106.39 56.1152C106.797 56.7067 107.066 57.3812 107.18 58.0898C107.689 60.2005 107.592 62.4119 106.9 64.4698C106.57 65.4698 106.09 66.4098 105.9 67.4698C105.39 69.7098 106.06 72.1398 105.29 74.2998C104.987 75.1372 104.484 75.8881 103.826 76.4875C103.167 77.0869 102.372 77.5168 101.51 77.7398C101.101 77.8395 100.681 77.8899 100.26 77.8898C99.3954 77.8906 98.5426 77.6885 97.7701 77.2998C97.3288 77.0873 96.9211 76.811 96.5601 76.4798V69.2998C96.6301 69.7398 96.6801 70.1798 96.7201 70.6198H98.1601C97.5801 70.6198 97.7801 61.4098 97.8901 60.5398C98.1712 58.8211 98.658 57.1423 99.3401 55.5398C100.424 54.8055 101.692 54.3897 103 54.3398H103.1H103.07ZM103.1 53.3398H103C101.532 53.3782 100.104 53.8287 98.8801 54.6398L98.6201 54.7998L98.5101 55.0898C97.7936 56.7783 97.2865 58.5481 97.0001 60.3598C96.8387 63.2843 96.8387 66.2154 97.0001 69.1398L95.6901 69.2398L95.6401 76.4298V76.8398L95.9501 77.1298C96.3786 77.5319 96.8638 77.8688 97.3901 78.1298C98.2916 78.5766 99.284 78.8093 100.29 78.8098C100.789 78.8104 101.286 78.7499 101.77 78.6298C102.78 78.3722 103.712 77.8737 104.487 77.1771C105.262 76.4805 105.857 75.6065 106.22 74.6298C106.6 73.3326 106.753 71.9792 106.67 70.6298C106.62 69.6591 106.684 68.6858 106.86 67.7298C107.004 67.1475 107.198 66.5786 107.44 66.0298C107.58 65.6598 107.74 65.2698 107.87 64.8698C108.612 62.6431 108.719 60.2541 108.18 57.9698C108.032 57.1215 107.697 56.3169 107.199 55.6146C106.7 54.9122 106.052 54.3298 105.3 53.9098C104.619 53.6146 103.882 53.4713 103.14 53.4898L103.1 53.3398Z" fill="#4D4D4D"/>
<path d="M96.1499 76.4298C96.5053 76.7633 96.91 77.0399 97.3499 77.2498C98.0321 77.6019 98.7819 77.8033 99.5487 77.8405C100.315 77.8776 101.081 77.7497 101.794 77.4652C102.507 77.1808 103.151 76.7465 103.681 76.1917C104.212 75.637 104.617 74.9747 104.87 74.2498C105.44 72.6498 105.16 70.9698 105.16 69.3098C105.118 69.6711 104.984 70.0154 104.77 70.3098C104.52 70.7598 104.33 71.3098 104.12 71.7298C103.947 72.2252 103.643 72.6642 103.24 72.9998C102.778 73.2599 102.248 73.3749 101.72 73.3298C101.255 73.3919 100.781 73.3417 100.339 73.1834C99.8975 73.0251 99.4999 72.7632 99.1799 72.4198C98.9326 72.0201 98.8011 71.5597 98.7999 71.0898C98.7258 70.5973 98.7952 70.0938 98.9999 69.6398C99.2945 69.2488 99.6297 68.8901 99.9999 68.5698C100.464 67.9786 100.702 67.2409 100.67 66.4898C100.631 65.7462 100.415 65.0227 100.04 64.3798C99.8599 64.0398 99.6499 63.7298 99.4999 63.3798C99.2147 62.7322 99.1447 62.0102 99.2999 61.3198C99.3956 60.791 99.6798 60.3149 100.1 59.9798C100.484 59.7147 100.934 59.5623 101.4 59.5398C102.382 59.4153 103.377 59.6497 104.2 60.1998C104.602 60.48 104.926 60.859 105.139 61.3003C105.353 61.7416 105.45 62.2304 105.42 62.7198C105.489 61.8127 105.36 60.9015 105.04 60.0498C104.927 59.7233 104.776 59.4112 104.59 59.1198C104.11 58.4211 103.411 57.9027 102.603 57.6472C101.794 57.3918 100.924 57.4138 100.13 57.7098C100.398 56.7489 101.028 55.9293 101.888 55.4238C102.748 54.9183 103.77 54.7663 104.74 54.9998C104.078 54.5248 103.274 54.2886 102.46 54.3298C102.18 54.3298 100.6 54.4898 100.46 54.7598C100.15 55.5698 99.7799 56.4098 99.3399 57.2998C98.3686 59.2906 97.6948 61.4133 97.3399 63.5998C96.9667 65.8628 96.9431 68.1696 97.2699 70.4398C96.8735 70.4349 96.4887 70.3054 96.1699 70.0698L96.1499 76.4298Z" fill="#C4C4C4"/>
<path d="M65.9101 114.21C56.9101 114.21 48.8501 107.11 42.8101 100.93C41.0866 99.205 39.4797 97.3676 38.0001 95.4297C35.0244 91.5691 33.4894 86.791 33.6601 81.9197V63.5797L34.6 63.5097C34.9474 65.5919 35.0012 67.7125 34.76 69.8097C34.852 69.7695 34.9392 69.7192 35.0201 69.6597C35.4285 69.3776 35.7394 68.9759 35.9101 68.5097C36.1778 67.6501 36.2796 66.7474 36.21 65.8497C36.21 61.6897 36.2701 57.4997 36.5601 53.3497C36.5099 51.8311 36.9752 50.3403 37.8801 49.1197C38.2019 48.7786 38.557 48.4704 38.94 48.1997L39.4001 47.8497C40.2612 47.1293 40.9204 46.1976 41.3131 45.1458C41.7058 44.094 41.8185 42.9582 41.64 41.8497L42.5701 41.6997L42.12 41.7797L42.5701 41.6997C43.5701 47.8597 51.89 51.7597 58.73 53.0497C58.1588 52.4967 57.7358 51.809 57.5 51.0497L58.3801 50.6997C58.9101 51.7897 60.1201 52.5797 62.0801 53.1197C64.5502 53.7672 67.0967 54.0767 69.6501 54.0397C72.5985 53.9858 75.5423 53.7822 78.4701 53.4297C81.4573 53.0672 84.4613 52.8602 87.4701 52.8097H87.74C88.7046 52.7225 89.6688 52.9813 90.46 53.5397C91.46 54.3897 91.46 55.6697 91.46 56.9097C91.4476 57.4147 91.4777 57.9198 91.5501 58.4197C91.632 58.9464 91.8262 59.4494 92.1195 59.8946C92.4128 60.3397 92.7984 60.7166 93.25 60.9997L93.74 61.2597C94.2011 61.4287 94.6279 61.6794 95 61.9997C95.3667 62.4352 95.6299 62.948 95.77 63.4997C96.3526 65.3549 96.7643 67.2595 97 69.1897C97 69.4797 97.0801 69.7897 97.1201 70.0997H98.1201V81.9197C98.2875 86.8705 96.756 91.7296 93.78 95.6897C91.8798 98.1189 89.7463 100.356 87.4101 102.37C81.9401 107.37 74.3401 114.21 65.9101 114.21Z" fill="white"/>
<path d="M42.0501 41.8099C43.3401 49.4799 54.7701 53.3499 61.3601 53.9999C60.5654 53.864 59.8233 53.5123 59.2149 52.9832C58.6064 52.4541 58.1551 51.7681 57.9101 50.9999C58.6301 52.4799 60.3101 53.2299 61.9101 53.6699C64.4223 54.3309 67.0127 54.6471 69.6101 54.6099C75.4801 54.6099 81.4901 53.3699 87.4201 53.3699H87.6801C88.5341 53.2915 89.389 53.5105 90.1001 53.9899C91.3301 54.9899 90.7801 56.9899 91.1001 58.5999C91.2168 59.1827 91.4552 59.7343 91.7999 60.2186C92.1446 60.7028 92.5876 61.1088 93.1001 61.4099C93.6792 61.6638 94.2182 62.0007 94.7001 62.4099C95.0166 62.7961 95.2452 63.2465 95.3701 63.7299C95.9683 65.5436 96.4001 67.408 96.6601 69.2999C96.7301 69.7399 96.7801 70.1799 96.8201 70.6199H97.8201V81.9199C97.989 86.7689 96.4927 91.5295 93.5801 95.4099C91.6725 97.815 89.5284 100.023 87.1801 102C81.5401 107.07 74.0801 113.71 65.9101 113.71C56.9901 113.71 48.9101 106.48 43.1501 100.58C41.4263 98.8703 39.8162 97.0497 38.3301 95.1299C35.4119 91.3516 33.9083 86.6709 34.0801 81.8999V63.5799C34.4566 65.8424 34.4836 68.1493 34.1601 70.4199C34.5532 70.4136 34.9344 70.2842 35.2501 70.0499C35.7116 69.7023 36.0597 69.2255 36.2501 68.6799C36.544 67.7431 36.6594 66.7594 36.5901 65.7799C36.5301 61.6399 36.6434 57.5066 36.9301 53.3799C36.8895 51.9708 37.3109 50.5871 38.1301 49.4399C38.5832 48.9907 39.0751 48.5825 39.6001 48.2199C40.5156 47.4483 41.2179 46.4548 41.6398 45.3343C42.0618 44.2138 42.1893 43.0038 42.0101 41.8199L42.0501 41.8099ZM42.9401 41.6699H42.6501L42.0001 41.7699L41.0701 41.9299L42.0701 41.7699L41.0701 41.9399C41.2199 42.957 41.1085 43.9955 40.7464 44.9576C40.3843 45.9198 39.7833 46.774 39.0001 47.4399L38.5601 47.7799C38.145 48.071 37.7628 48.4063 37.4201 48.7799C36.458 50.0909 35.9586 51.6843 36.0001 53.3099C35.7101 57.4799 35.5901 61.6799 35.6501 65.7899V65.8599C35.7149 66.6929 35.6233 67.5306 35.3801 68.3299C35.3428 68.426 35.2994 68.5195 35.2501 68.6099C35.3559 66.8793 35.2721 65.1423 35.0001 63.4299L33.1101 63.5799V81.9199C32.9387 86.8965 34.5089 91.777 37.5501 95.7199C39.0596 97.6726 40.6965 99.5233 42.4501 101.26C48.5601 107.51 56.7501 114.68 65.8901 114.68C74.5001 114.68 82.1801 107.77 87.7901 102.68C90.1551 100.668 92.3187 98.431 94.2501 95.9999C97.28 91.975 98.8431 87.0352 98.6801 81.9999V69.6199H97.5801C97.5801 69.4499 97.5801 69.2699 97.5001 69.0899C97.233 67.154 96.7912 65.2462 96.1801 63.3899C96.0161 62.7762 95.7191 62.206 95.3101 61.7199C94.9356 61.333 94.4911 61.0208 94.0001 60.7999C93.8501 60.7199 93.6901 60.6399 93.5501 60.5499C93.1537 60.32 92.8105 60.0086 92.5434 59.6362C92.2762 59.2639 92.091 58.8391 92.0001 58.3899C91.9316 57.9298 91.8982 57.4651 91.9001 56.9999C91.9001 55.7199 91.9001 54.2699 90.7101 53.2699C89.8397 52.6464 88.7777 52.349 87.7101 52.4299H87.4301C84.4213 52.4848 81.4173 52.6951 78.4301 53.0599C75.519 53.4117 72.5919 53.6153 69.6601 53.6699C67.1503 53.7056 64.6473 53.3994 62.2201 52.7599C60.4001 52.2599 59.2901 51.5499 58.8201 50.5899L57.0601 51.2899C57.1793 51.6827 57.3473 52.059 57.5601 52.4099C51.1001 50.8899 43.9301 47.2299 43.0001 41.6699H42.9401Z" fill="#4D4D4D"/>
<path d="M96.2601 70.6199C96.0295 68.3117 95.55 66.0351 94.8301 63.8299C94.7283 63.4108 94.5373 63.0185 94.2701 62.6799C93.974 62.4211 93.6358 62.2148 93.2701 62.0699C93.0801 61.9799 92.9001 61.8799 92.7201 61.7799C92.1546 61.4414 91.6676 60.9863 91.2917 60.4448C90.9158 59.9034 90.6596 59.2881 90.5401 58.6399C90.4719 58.0961 90.4518 57.5473 90.4801 56.9999C90.4801 55.9299 90.4801 54.9099 89.7801 54.3399C89.1529 53.9411 88.4096 53.7649 87.6701 53.8399H87.4101C84.4347 53.8915 81.464 54.0985 78.5101 54.4599C75.5511 54.7904 72.5773 54.9706 69.6001 54.9999C66.9567 55.025 64.3223 54.6886 61.7701 53.9999L61.3701 53.8899V54.3499C55.2501 53.7899 45.5701 50.6299 42.4901 44.4199C42.147 46.0482 41.2708 47.5156 40.0001 48.5899L39.4901 48.9699C39.1631 49.2009 38.8584 49.4621 38.5801 49.7499C37.8349 50.8211 37.4593 52.106 37.5101 53.4099C37.2201 57.5099 37.1001 61.6699 37.1601 65.7699C37.2371 66.8101 37.1149 67.8555 36.8001 68.8499C36.617 69.4061 36.2752 69.8966 35.8168 70.2609C35.3583 70.6252 34.8033 70.8473 34.2201 70.8999H33.6601L33.7401 70.3399C34.3639 65.9436 33.6459 61.4614 31.6801 57.4799C30.099 54.445 29.1853 51.107 29.0001 47.6899C28.7363 44.5406 28.8167 41.3718 29.2401 38.2399C29.5299 36.1308 30.0982 34.0695 30.9301 32.1099C32.3001 28.8399 34.9301 24.7899 39.8301 24.0199C40.0122 23.9901 40.1958 23.97 40.3801 23.9599C40.8701 23.9599 41.1801 23.8899 41.3801 23.6599C41.6764 23.3391 41.9165 22.9706 42.0901 22.5699L42.2001 22.3499C44.2701 18.3499 48.5401 15.4299 53.6301 14.3499C57.339 13.6242 61.1109 13.2691 64.8901 13.2899C66.2901 13.2899 67.7401 13.2899 69.2201 13.4199H69.5701C74.621 13.791 79.5361 15.2278 83.9916 17.6357C88.4472 20.0436 92.3422 23.368 95.4201 27.3899C98.0642 30.7325 99.9476 34.6114 100.939 38.7564C101.93 42.9014 102.006 47.2128 101.16 51.3899C100.82 52.8393 100.369 54.2602 99.8101 55.6399C99.1368 57.2448 98.6535 58.9228 98.3701 60.6399C98.2401 61.6399 98.1201 69.5499 98.5101 70.3599C98.4723 70.3076 98.4228 70.265 98.3654 70.2354C98.3081 70.2059 98.2446 70.1903 98.1801 70.1899V71.1899H96.3001L96.2601 70.6199Z" fill="white"/>
<path d="M64.88 13.7999C66.32 13.7999 67.75 13.7999 69.18 13.9299H69.56C88 15.1299 104.66 31.9999 100.7 51.2399C100.03 54.4699 98.33 57.2399 97.9 60.4899C97.78 61.3599 97.59 70.5699 98.18 70.5699H96.73C96.4986 68.2306 96.0124 65.9236 95.28 63.6899C95.1574 63.2026 94.9286 62.7484 94.61 62.3599C94.1265 61.9527 93.5879 61.6161 93.01 61.3599C92.4943 61.0628 92.0486 60.658 91.7035 60.1731C91.3583 59.6881 91.1218 59.1345 91.01 58.5499C90.72 56.9599 91.27 54.9899 90.01 53.9399C89.3014 53.4634 88.4507 53.2446 87.6 53.3199H87.33C81.4 53.3199 75.4 54.5599 69.53 54.5599C66.9293 54.5977 64.3355 54.2815 61.82 53.6199C60.23 53.1699 58.55 52.4399 57.82 50.9499C58.065 51.718 58.5164 52.4041 59.1248 52.9331C59.7332 53.4622 60.4753 53.8139 61.27 53.9499C54.67 53.3399 43.27 49.4699 41.97 41.7999C42.1498 42.9861 42.0217 44.1987 41.5979 45.3212C41.1741 46.4437 40.4689 47.4384 39.55 48.2099C39.0301 48.575 38.5418 48.9831 38.09 49.4299C37.2996 50.5858 36.9161 51.972 37 53.3699C36.7134 57.5032 36.5934 61.6399 36.64 65.7799C36.716 66.758 36.6075 67.7418 36.32 68.6799C36.167 69.146 35.8828 69.5581 35.5014 69.8667C35.1201 70.1753 34.6578 70.3674 34.17 70.4199C34.8058 65.9284 34.0741 61.3495 32.07 57.2799C30.5155 54.2988 29.6218 51.0176 29.45 47.6599C29.1864 44.5408 29.2636 41.4022 29.68 38.2999C29.9689 36.237 30.5235 34.2203 31.33 32.2999C32.93 28.5199 35.64 25.1699 39.88 24.4899C40.52 24.3899 41.21 24.4899 41.71 24.0199C42.0897 23.5926 42.3971 23.1062 42.62 22.5799C44.8 18.4199 49.22 15.7899 53.73 14.8699C57.4012 14.1388 61.1368 13.7803 64.88 13.7999ZM64.88 12.8599C61.0705 12.8377 57.2683 13.1961 53.53 13.9299C48.3 14.9999 43.9 18.0599 41.77 22.1299L41.66 22.3499C41.5057 22.7129 41.2966 23.0502 41.04 23.3499C40.93 23.4699 40.69 23.4899 40.31 23.5199C40.1125 23.5294 39.9155 23.5495 39.72 23.5799C35.72 24.2199 32.49 27.1199 30.45 31.9499C29.6106 33.9506 29.0325 36.0513 28.73 38.1999C28.3019 41.3649 28.2215 44.5673 28.49 47.7499C28.6705 51.2395 29.5981 54.6496 31.21 57.7499C33.1219 61.6481 33.8187 66.0309 33.21 70.3299L33.05 71.4399H34.17C34.8441 71.3811 35.4865 71.1277 36.0191 70.7105C36.5517 70.2932 36.9516 69.7302 37.17 69.0899C37.5072 68.0519 37.6397 66.9583 37.56 65.8699C37.56 61.7399 37.63 57.5999 37.91 53.5099C37.8814 52.3094 38.2312 51.1304 38.91 50.1399C39.1715 49.8752 39.456 49.6342 39.76 49.4199L40.28 49.0199C41.324 48.1537 42.1237 47.03 42.6 45.7599C46.25 51.4899 55.4 54.4299 61.3 54.9799L61.36 54.5199L61.67 54.6099C64.2785 55.3074 66.9702 55.6438 69.67 55.6099C72.6786 55.5553 75.6824 55.3484 78.67 54.9899C81.6077 54.6341 84.5615 54.4271 87.52 54.3699H87.78C88.4061 54.3079 89.0358 54.4443 89.58 54.7599C90.06 55.1699 90.1 55.8999 90.11 57.0599C90.1055 57.6487 90.1457 58.2371 90.23 58.8199C90.3643 59.5342 90.6485 60.2119 91.0639 60.8084C91.4793 61.4048 92.0165 61.9063 92.64 62.2799C92.8247 62.3897 93.015 62.4898 93.21 62.5799C93.5093 62.7084 93.7861 62.884 94.03 63.0999C94.2514 63.3975 94.4081 63.7381 94.49 64.0999C95.1986 66.2728 95.6713 68.5158 95.9 70.7899L95.98 71.6399H98.29V69.7399C98.4509 69.7377 98.6089 69.7819 98.7454 69.8669C98.8819 69.952 98.9911 70.0745 99.06 70.2199C98.71 69.2199 98.83 61.6199 98.95 60.7299C99.2321 59.06 99.7087 57.4289 100.37 55.8699C100.938 54.4685 101.393 53.0239 101.73 51.5499C102.588 47.2887 102.501 42.8913 101.477 38.6672C100.452 34.443 98.5146 30.4946 95.8 27.0999C92.6794 23.0342 88.7329 19.6756 84.2205 17.2453C79.7081 14.815 74.7321 13.3681 69.62 12.9999H69.39H69.24C67.75 12.9199 66.29 12.8799 64.88 12.8799V12.8599Z" fill="#4D4D4D"/>
<path d="M61.3599 54.0001C60.5652 53.8641 59.8231 53.5124 59.2147 52.9833C58.6063 52.4543 58.1549 51.7682 57.9099 51.0001C58.6299 52.4901 60.3099 53.2201 61.9099 53.6701C70.2299 55.9701 79.0499 53.3201 87.6899 53.3701C88.5406 53.2948 89.3913 53.5136 90.0999 53.9901C91.3299 54.9901 90.7799 56.9901 91.0999 58.6001C91.2117 59.1847 91.4482 59.7383 91.7934 60.2233C92.1385 60.7082 92.5842 61.113 93.0999 61.4101C93.6778 61.6662 94.2164 62.0029 94.6999 62.4101C95.0185 62.7986 95.2473 63.2528 95.3699 63.7401C96.1023 65.9738 96.5885 68.2808 96.8199 70.6201H98.2699C97.6799 70.6201 97.8699 61.4101 97.9899 60.5401C98.4199 57.2601 100.12 54.5401 100.79 51.2901C101.625 47.5191 101.625 43.6111 100.79 39.8401C100.401 38.33 99.7218 36.9102 98.7899 35.6601C98.2641 34.9816 97.6637 34.3644 96.9999 33.8201C96.6399 33.5101 95.5599 33.0401 95.3599 32.6601C96.2259 34.1785 96.9618 35.7675 97.5599 37.4101C98.8299 41.2501 98.5599 45.4101 98.2699 49.4101C98.5029 48.7572 98.5543 48.0534 98.4187 47.3736C98.2831 46.6938 97.9656 46.0636 97.4999 45.5501C96.5394 44.5331 95.3345 43.7792 93.9999 43.3601C95.107 44.777 95.7993 46.4732 95.9999 48.2601C94.6399 46.0501 91.7899 45.3101 89.1999 45.1001C86.6099 44.8901 83.7299 45.0101 81.0199 44.7201C77.3098 44.3053 73.7304 43.1053 70.5199 41.2001C72.9385 43.6044 75.7837 45.5373 78.9099 46.9001C75.9099 46.4401 72.9899 45.9001 70.0399 45.4001C66.6172 44.8518 63.2641 43.9331 60.0399 42.6601C58.4706 42.0054 56.9727 41.1911 55.5699 40.2301C54.8525 39.7339 54.1647 39.1963 53.5099 38.6201C53.1699 38.3001 51.9999 37.5001 51.8599 37.0001C52.298 39.1483 53.1989 41.1754 54.4999 42.9401C55.6524 44.565 57.1696 45.8973 58.9299 46.8301C57.9299 46.3101 56.4699 46.2301 55.3599 45.7501C54.3086 45.2911 53.3039 44.7318 52.3599 44.0801C50.3811 42.6887 48.6844 40.9343 47.3599 38.9101C45.6358 36.1945 44.4604 33.1675 43.8999 30.0001C43.4797 28.0288 43.3851 26.0019 43.6199 24.0001C43.8689 21.9943 44.6958 20.1042 45.9999 18.5601C44.7599 19.9501 43.4799 20.8801 42.5899 22.5601C42.3731 23.085 42.0725 23.5714 41.6999 24.0001C41.1999 24.4801 40.5099 24.3701 39.8699 24.4701C38.6344 24.6712 37.4514 25.1165 36.3899 25.7801C35.5299 26.3301 34.8499 27.2801 33.8799 27.6401C34.559 27.402 35.2953 27.381 35.9869 27.5798C36.6784 27.7787 37.291 28.1876 37.7399 28.7501C38.0893 29.2488 38.3591 29.7986 38.5399 30.3801C39.4753 33.2607 39.9478 36.2714 39.9399 39.3001C40.0109 40.7529 39.8898 42.2088 39.5799 43.6301C39.2636 45.0637 38.5044 46.3616 37.4099 47.3401C38.1728 45.7888 38.5175 44.0654 38.4099 42.3401C37.2799 45.0201 35.9699 47.8801 33.4099 49.3401C33.606 47.3926 33.1825 45.4329 32.1999 43.7401C31.7405 45.7351 31.6794 47.8013 32.0199 49.8201C30.1864 46.4643 29.485 42.6064 30.0199 38.8201C28.6899 41.3201 29.1899 44.9401 29.3899 47.6601C29.5617 51.0178 30.4554 54.299 32.0099 57.2801C34.0139 61.3497 34.7457 65.9286 34.1099 70.4201C34.5977 70.3676 35.06 70.1755 35.4413 69.8669C35.8227 69.5583 36.1069 69.1462 36.2599 68.6801C36.5473 67.742 36.6559 66.7582 36.5799 65.7801C36.5266 61.6401 36.6466 57.5034 36.9399 53.3701C36.8889 51.9611 37.3075 50.5752 38.1299 49.4301C38.5844 48.9894 39.0726 48.5848 39.5899 48.2201C40.5088 47.4486 41.214 46.4539 41.6378 45.3314C42.0616 44.2089 42.1897 42.9963 42.0099 41.8101C43.3299 49.4801 54.7599 53.3501 61.3599 54.0001Z" fill="#C4C4C4"/>
<path d="M65.9099 114.21C56.9099 114.21 48.8499 107.11 42.8099 100.93C41.0864 99.2051 39.4796 97.3677 37.9999 95.4297L37.8999 95.2998L38.6699 75.5798L65.9599 68.2397L93.2399 75.5798L94.0199 95.5798L93.9199 95.7097C93.2426 96.6258 92.5113 97.5007 91.7299 98.3298C90.6299 99.5298 89.2999 100.82 87.5499 102.39C81.9399 107.37 74.3399 114.21 65.9099 114.21Z" fill="white"/>
<path d="M65.9099 68.73L66.1199 68.79L92.7299 75.94L93.4899 95.41C92.8193 96.3133 92.0982 97.1781 91.3299 98C90.0999 99.34 88.6999 100.66 87.1799 102C81.5399 107.07 74.0799 113.71 65.9099 113.71C56.9899 113.71 48.9099 106.48 43.1499 100.58C41.4262 98.8703 39.8161 97.0498 38.3299 95.13L39.0799 75.92L65.9099 68.71V68.73ZM65.9099 67.71L65.6699 67.78L38.8299 75L38.1599 75.18V75.88L37.4199 95.08V95.42L37.6199 95.68C39.1264 97.6382 40.7635 99.4924 42.5199 101.23C48.6299 107.48 56.8199 114.65 65.9599 114.65C74.5699 114.65 82.2499 107.74 87.8599 102.65C89.6599 101.04 90.9599 99.77 92.0799 98.55C92.8505 97.7413 93.575 96.89 94.2499 96L94.4499 95.73V95.4L93.6899 75.94V75.24L92.9999 75L66.3599 67.87L66.1499 67.82L65.8999 67.75L65.9099 67.71Z" fill="#4D4D4D"/>
<path d="M92.7301 76.4197C92.637 76.418 92.5464 76.3894 92.4693 76.3371C92.3922 76.2849 92.332 76.2114 92.296 76.1255C92.2599 76.0397 92.2496 75.9452 92.2663 75.8536C92.283 75.762 92.326 75.6773 92.39 75.6097L97.84 70.2297C97.8838 70.1853 97.9359 70.1499 97.9934 70.1259C98.051 70.1018 98.1127 70.0894 98.1751 70.0894C98.2374 70.0894 98.2991 70.1018 98.3567 70.1259C98.4142 70.1499 98.4663 70.1853 98.51 70.2297C98.5558 70.2727 98.5922 70.3246 98.6171 70.3822C98.642 70.4398 98.6548 70.5019 98.6548 70.5647C98.6548 70.6275 98.642 70.6895 98.6171 70.7472C98.5922 70.8048 98.5558 70.8567 98.51 70.8997L93.06 76.2697C93.0177 76.3153 92.9667 76.352 92.9101 76.3778C92.8534 76.4035 92.7922 76.4178 92.7301 76.4197Z" fill="#4D4D4D"/>
<path d="M39.0801 76.42C39.0121 76.4203 38.9449 76.4062 38.8829 76.3787C38.8208 76.3511 38.7653 76.3107 38.7201 76.26L33.8001 70.74C33.7127 70.6504 33.6638 70.5302 33.6638 70.405C33.6638 70.2799 33.7127 70.1597 33.8001 70.07C33.8438 70.0256 33.8959 69.9903 33.9534 69.9662C34.011 69.9421 34.0727 69.9297 34.1351 69.9297C34.1974 69.9297 34.2591 69.9421 34.3167 69.9662C34.3742 69.9903 34.4263 70.0256 34.4701 70.07L39.3901 75.59C39.4483 75.6588 39.4861 75.7427 39.4989 75.8319C39.5118 75.9212 39.4992 76.0123 39.4627 76.0947C39.4261 76.1772 39.3671 76.2477 39.2924 76.2981C39.2176 76.3486 39.1302 76.377 39.0401 76.38L39.0801 76.42Z" fill="#4D4D4D"/>
<path d="M91.3301 98C90.1001 99.34 88.7001 100.66 87.1801 102C81.5401 107.07 74.0801 113.71 65.9101 113.71C56.9901 113.71 48.9101 106.48 43.1501 100.58C41.4263 98.8703 39.8162 97.0498 38.3301 95.13L39.0801 75.92L65.9101 68.71L66.1201 68.77C65.4121 69.7264 64.6188 70.6167 63.7501 71.43C62.1401 72.55 60.2401 72.91 58.5301 73.75C57.2471 74.3448 55.9069 74.8072 54.5301 75.13C53.6201 75.37 51.6901 75.49 51.3301 76.58C51.2713 76.8186 51.2477 77.0645 51.2601 77.31C51.2601 78.24 51.2601 79.16 51.2601 80.09C51.2601 80.82 51.1601 82.2 51.8101 82.73C52.2301 83.07 52.9601 82.9 53.4601 82.89C55.4426 82.8891 57.4152 82.6097 59.3201 82.06C61.3201 81.47 63.0701 80.23 65.1701 80.28C67.2701 80.33 69.0801 81.53 70.9201 82.5C75.5128 84.947 80.6573 86.1729 85.8601 86.06C84.8899 86.2877 83.932 86.5648 82.9901 86.89C81.956 87.0299 80.9136 87.1001 79.8701 87.1C77.7916 86.9976 75.7082 87.1318 73.6601 87.5C71.6601 88.01 69.6601 88.8 67.5701 89.12C64.7613 89.5908 61.8876 89.5093 59.1101 88.88C57.3701 88.45 55.7101 87.65 53.9401 87.36C52.5601 87.13 51.4401 87.08 50.9401 88.6C50.6614 89.3902 50.4899 90.2142 50.4301 91.05C50.3601 92.17 50.4301 92.24 51.4801 92.58C53.2501 93.15 55.0601 93.58 56.8501 94.11C58.0701 94.47 59.1801 95.51 60.3901 96C61.6846 96.538 63.0537 96.8752 64.4501 97C67.8401 97.27 71.2601 96.32 74.6501 96.64C73.8601 97.02 73.0601 97.38 72.2601 97.72C71.6153 98.009 70.946 98.24 70.2601 98.41C69.3906 98.5783 68.5054 98.652 67.6201 98.63C63.98 98.6928 60.3425 98.3981 56.7601 97.75C55.9301 97.59 51.6901 96.02 51.2701 96.65C51.1473 96.8657 51.0883 97.112 51.1001 97.36L50.8701 102.22C50.8701 102.55 50.8701 102.88 50.8701 103.22C50.8001 104.63 52.7401 105.13 53.8701 105.6C55.7901 106.41 57.3701 107.6 59.6001 107.34C60.9396 107.034 62.2509 106.616 63.5201 106.09C65.9212 105.36 68.4993 105.47 70.8301 106.4C71.6065 106.787 72.4083 107.121 73.2301 107.4C75.1369 107.761 77.1099 107.405 78.7701 106.4C81.0661 105.341 83.279 104.111 85.3901 102.72C86.4761 101.911 87.5145 101.039 88.5001 100.11C88.9301 99.72 91.3401 97.92 91.3101 97.4C91.3101 97.59 91.3301 97.79 91.3301 98Z" fill="#C4C4C4"/>
</g>
<defs>
<clipPath id="clip0_222_8411">
<rect width="129.67" height="129.67" fill="white"/>
</clipPath>
</defs>
</svg>
