<svg width="130" height="153" viewBox="0 0 130 153" fill="none" xmlns="http://www.w3.org/2000/svg">
<g clip-path="url(#clip0_222_7612)">
<g style="mix-blend-mode:overlay">
<g style="mix-blend-mode:overlay">
<path d="M123.101 81.2759C130.805 47.7194 109.848 14.2713 76.2913 6.56731C42.7349 -1.13664 9.28672 19.821 1.58277 53.3774C-6.12117 86.9338 14.8364 120.382 48.3929 128.086C81.9493 135.79 115.397 114.832 123.101 81.2759Z" fill="#89A58F"/>
</g>
</g>
<g style="mix-blend-mode:overlay">
<g style="mix-blend-mode:overlay">
<path d="M65.9001 126.11C100.329 126.11 128.24 98.1996 128.24 63.7702C128.24 29.3407 100.329 1.43018 65.9001 1.43018C31.4706 1.43018 3.56006 29.3407 3.56006 63.7702C3.56006 98.1996 31.4706 126.11 65.9001 126.11Z" fill="white"/>
</g>
</g>
<path d="M66.7801 31.7803H59.1401V39.1403H66.7801V31.7803Z" fill="white"/>
<g style="mix-blend-mode:overlay">
<g style="mix-blend-mode:overlay">
<path d="M55.9403 32.7105C55.1533 32.6974 54.403 32.3755 53.8512 31.8143C53.2993 31.2531 52.9901 30.4975 52.9903 29.7105C52.9888 29.3217 53.0651 28.9366 53.2145 28.5777C53.3639 28.2189 53.5834 27.8934 53.8603 27.6205C54.1432 27.3348 54.4842 27.1131 54.8603 26.9705C55.2129 26.8274 55.5896 26.7527 55.9703 26.7505H88.5202C89.5554 26.7517 90.5687 27.0476 91.4418 27.6037C92.3149 28.1598 93.0115 28.953 93.4502 29.8905C93.7938 30.6085 93.9715 31.3945 93.9703 32.1905V32.6705L55.9403 32.7105Z" fill="white"/>
</g>
<g style="mix-blend-mode:overlay">
<path d="M88.5202 27.2703C89.4621 27.2692 90.3846 27.538 91.1786 28.0448C91.9725 28.5517 92.6047 29.2754 93.0002 30.1303C93.322 30.7832 93.4864 31.5024 93.4802 32.2303H55.9402C55.4528 32.2242 54.978 32.0753 54.5745 31.8019C54.171 31.5285 53.8566 31.1427 53.6703 30.6924C53.4839 30.242 53.4339 29.7469 53.5263 29.2683C53.6187 28.7898 53.8495 28.3489 54.1902 28.0003C54.4258 27.7687 54.7043 27.5852 55.0102 27.4603C55.3049 27.3383 55.6212 27.2771 55.9402 27.2803H88.5202V27.2703ZM88.5202 26.3303H55.9402C55.4904 26.3265 55.0444 26.4131 54.6287 26.5848C54.213 26.7566 53.8361 27.0101 53.5202 27.3303C53.044 27.8112 52.7204 28.422 52.5897 29.086C52.459 29.75 52.527 30.4379 52.7854 31.0634C53.0437 31.689 53.4808 32.2244 54.042 32.6027C54.6031 32.981 55.2634 33.1854 55.9402 33.1903H94.4402V32.1903C94.444 31.3211 94.2491 30.4625 93.8702 29.6803C93.3944 28.6632 92.6382 27.803 91.6906 27.2008C90.7429 26.5985 89.643 26.2792 88.5202 26.2803V26.3303Z" fill="#105C8E"/>
</g>
</g>
<path d="M53 46.2002V41.5302C52.9988 41.0867 53.0866 40.6475 53.2584 40.2386C53.4302 39.8298 53.6824 39.4596 54 39.1502C54.2088 38.9346 54.4521 38.7554 54.72 38.6202C55.1596 38.3588 55.6588 38.2143 56.17 38.2002C56.223 38.1922 56.277 38.1922 56.33 38.2002H69.6C69.6797 38.1898 69.7603 38.1898 69.84 38.2002C70.3333 38.2196 70.8142 38.3604 71.24 38.6102C71.4984 38.7597 71.7369 38.9411 71.95 39.1502C72.2669 39.4581 72.5187 39.8266 72.6904 40.2337C72.8622 40.6408 72.9505 41.0783 72.95 41.5202V46.2002H53Z" fill="white"/>
<path d="M48.1802 53.2602V48.8002C48.1828 47.8569 48.5587 46.9529 49.2258 46.2858C49.8929 45.6188 50.7968 45.2429 51.7402 45.2402H74.2002C75.1435 45.2429 76.0475 45.6188 76.7146 46.2858C77.3816 46.9529 77.7575 47.8569 77.7602 48.8002V53.2602H48.1802Z" fill="white"/>
<path d="M65.9002 127.54C53.2876 127.54 40.9584 123.8 30.4714 116.793C19.9845 109.786 11.811 99.8262 6.98436 88.1738C2.15776 76.5213 0.894899 63.6993 3.35548 51.3291C5.81606 38.959 11.8896 27.5962 20.808 18.6778C29.7264 9.75943 41.0891 3.68593 53.4592 1.22535C65.8294 -1.23523 78.6514 0.0276303 90.3039 4.85423C101.956 9.68083 111.916 17.8544 118.923 28.3413C125.93 38.8282 129.67 51.1575 129.67 63.77C129.652 80.6772 122.927 96.8866 110.972 108.842C99.0167 120.797 82.8073 127.521 65.9002 127.54ZM65.9002 2.85003C53.8513 2.85003 42.0731 6.42292 32.0548 13.1169C22.0366 19.8109 14.2283 29.3253 9.61741 40.457C5.00652 51.5886 3.80011 63.8376 6.15072 75.6549C8.50133 87.4723 14.3034 98.3272 22.8232 106.847C31.343 115.367 42.1979 121.169 54.0153 123.519C65.8326 125.87 78.0816 124.664 89.2132 120.053C100.345 115.442 109.859 107.634 116.553 97.6154C123.247 87.5971 126.82 75.8189 126.82 63.77C126.799 47.6195 120.374 32.1366 108.954 20.7165C97.5336 9.29633 82.0506 2.8712 65.9002 2.85003Z" fill="#869554"/>
<g clip-path="url(#clip1_222_7612)">
<path d="M67.9398 34.97V41.38H61.2498V34.97H67.9398ZM68.9398 34.02H60.2998V42.33H68.8898V34.02H68.9398Z" fill="#4D4D4D"/>
<path d="M63.7 36.8397C63.5242 37.1823 63.4415 37.5651 63.46 37.9497C63.4294 38.3537 63.4701 38.7598 63.58 39.1497C63.6372 39.3436 63.7369 39.5223 63.8718 39.6728C64.0067 39.8233 64.1735 39.9418 64.36 40.0197C64.5789 40.0935 64.8092 40.1273 65.04 40.1197L67.94 40.1697V41.3797H61.25V34.9697H67.94V35.3097C66.7101 35.4451 65.5071 35.7618 64.37 36.2497C64.1012 36.3877 63.8709 36.5905 63.7 36.8397Z" fill="#C4C4C4"/>
<path d="M90.15 29.99C91.092 29.9889 92.0145 30.2577 92.8085 30.7646C93.6024 31.2714 94.2345 31.9951 94.63 32.85C94.9519 33.5029 95.1163 34.2221 95.11 34.95H57.57C57.0827 34.9439 56.6078 34.795 56.2043 34.5216C55.8009 34.2482 55.4865 33.8625 55.3001 33.4121C55.1138 32.9617 55.0638 32.4666 55.1562 31.988C55.2486 31.5095 55.4794 31.0686 55.82 30.72C56.0557 30.4884 56.3342 30.305 56.64 30.18C56.9348 30.058 57.2511 29.9968 57.57 30H90.15V29.99ZM90.15 29.05H57.57C57.1203 29.0462 56.6743 29.1328 56.2586 29.3046C55.8429 29.4763 55.466 29.7298 55.15 30.05C54.6739 30.531 54.3503 31.1417 54.2195 31.8057C54.0888 32.4698 54.1569 33.1576 54.4152 33.7831C54.6736 34.4087 55.1107 34.9441 55.6718 35.3224C56.233 35.7008 56.8933 35.9051 57.57 35.91H96.07V34.91C96.0739 34.0408 95.8789 33.1823 95.5 32.4C95.0243 31.3829 94.2681 30.5227 93.3204 29.9205C92.3728 29.3182 91.2729 28.9989 90.15 29V29.05Z" fill="#4D4D4D"/>
<path d="M95.1199 34.9502H57.5699C57.0825 34.9441 56.6077 34.7952 56.2042 34.5218C55.8007 34.2484 55.4863 33.8626 55.3 33.4123C55.1137 32.9619 55.0636 32.4668 55.156 31.9882C55.2484 31.5097 55.4793 31.0688 55.8199 30.7202C56.0555 30.4886 56.334 30.3051 56.6399 30.1802C56.6341 30.2267 56.6341 30.2737 56.6399 30.3202C56.5529 30.7176 56.6047 31.1329 56.7866 31.4968C56.9686 31.8607 57.2697 32.1513 57.6399 32.3202C58.0169 32.4286 58.4076 32.4825 58.7999 32.4802C68.2999 32.7902 72.7999 32.9602 82.2799 32.9202C85.8999 32.9202 89.5299 32.8702 93.1499 32.7902C93.6499 32.7902 94.1499 32.7902 94.6699 32.7902C94.9859 33.4653 95.14 34.205 95.1199 34.9502Z" fill="#C4C4C4"/>
<path d="M71.23 41.3801H71.38C72.078 41.4103 72.7388 41.7032 73.23 42.2001C73.5001 42.4594 73.7161 42.7696 73.8654 43.1129C74.0148 43.4562 74.0945 43.8258 74.1 44.2001V48.4001H55.1V44.2001C55.1118 43.4461 55.4209 42.7273 55.96 42.2001C56.1354 42.0198 56.3378 41.868 56.56 41.7501C56.9399 41.5258 57.3692 41.3987 57.81 41.3801H71.23ZM71.23 40.4301H57.96C57.8802 40.4217 57.7998 40.4217 57.72 40.4301C57.1527 40.459 56.6005 40.6236 56.11 40.9101C55.7982 41.0739 55.5146 41.2866 55.27 41.5401C54.9119 41.89 54.6281 42.3087 54.4357 42.7709C54.2432 43.2331 54.1461 43.7294 54.15 44.2301V49.3801H75.05V44.2501C75.0501 43.7428 74.9484 43.2407 74.7508 42.7735C74.5533 42.3063 74.264 41.8835 73.9 41.5301C73.6656 41.2946 73.3998 41.0927 73.11 40.9301C72.6087 40.6433 72.0468 40.4788 71.47 40.4501C71.3902 40.4417 71.3098 40.4417 71.23 40.4501V40.4301Z" fill="#4D4D4D"/>
<path d="M74.1001 46.5402V48.4502H55.1001V44.2502C55.1119 43.4962 55.421 42.7774 55.9601 42.2502C56.1355 42.0699 56.3379 41.9181 56.5601 41.8002C56.94 41.5758 57.3693 41.4487 57.8101 41.4302H58.0001C57.9868 42.4019 58.0638 43.3727 58.2301 44.3302C58.2613 44.8029 58.4397 45.2539 58.7401 45.6202C59.1527 45.9783 59.6743 46.1862 60.2201 46.2102C64.7901 46.8402 69.4701 46.3602 74.1001 46.5402Z" fill="#C4C4C4"/>
<path d="M75.8301 48.4397C76.647 48.4397 77.4304 48.7642 78.008 49.3419C78.5856 49.9195 78.9101 50.7029 78.9101 51.5197V55.5197H50.2801V51.5197C50.2801 51.1144 50.3601 50.7131 50.5155 50.3388C50.6709 49.9644 50.8987 49.6244 51.1858 49.3383C51.4728 49.0522 51.8135 48.8255 52.1884 48.6713C52.5632 48.5171 52.9648 48.4384 53.3701 48.4397H75.8301ZM75.8301 47.4897H53.3701C52.3093 47.4897 51.2918 47.9112 50.5417 48.6613C49.7915 49.4115 49.3701 50.4289 49.3701 51.4897V56.4197H79.8601V51.5197C79.8601 50.4589 79.4387 49.4415 78.6885 48.6913C77.9384 47.9412 76.921 47.5197 75.8601 47.5197L75.8301 47.4897Z" fill="#4D4D4D"/>
<path d="M78.9098 53.7202V55.5102H50.2798V51.5102C50.2798 51.1049 50.3598 50.7035 50.5152 50.3292C50.6706 49.9549 50.8984 49.6149 51.1854 49.3288C51.4725 49.0426 51.8132 48.816 52.188 48.6618C52.5629 48.5076 52.9645 48.4289 53.3698 48.4302H53.4798L53.2698 50.4802C53.1947 50.88 53.1947 51.2904 53.2698 51.6902C53.5898 52.8102 54.9298 53.2502 56.0898 53.4002C57.5084 53.5421 58.9343 53.5988 60.3598 53.5702H75.2698C76.4852 53.5289 77.7019 53.579 78.9098 53.7202Z" fill="#C4C4C4"/>
<path d="M42.24 154.6C37.96 154.6 34.48 150.68 34.48 145.86V71.8598C34.48 62.5998 41.14 55.0698 49.33 55.0698H79.86C88.05 55.0698 94.72 62.6098 94.72 71.8698V145.87C94.72 150.69 91.23 154.61 86.95 154.61L42.24 154.6Z" fill="white"/>
<path d="M79.86 55.5C87.8 55.5 94.24 62.8 94.24 71.82V145.82C94.24 150.39 90.98 154.09 86.95 154.09H42.24C38.24 154.09 34.95 150.39 34.95 145.82V71.82C34.95 62.82 41.39 55.51 49.33 55.51H79.86V55.5ZM79.86 54.51H49.33C40.88 54.51 34 62.25 34 71.77V145.77C34 150.85 37.7 154.99 42.24 154.99H86.95C91.5 154.99 95.19 150.85 95.19 145.77V71.77C95.19 62.24 88.31 54.5 79.86 54.5V54.51Z" fill="#4D4D4D"/>
<path d="M58.3 57.9199C56.6 57.2999 54.41 57.6399 52.63 57.6399C49.453 57.5669 46.3133 58.3363 43.53 59.8699C42.0406 60.7187 40.7642 61.8956 39.7974 63.3111C38.8305 64.7267 38.1988 66.3438 37.95 68.0399C37.71 69.4099 37.83 70.7699 37.68 72.1299C37.68 72.5099 37.5 72.8699 37.47 73.2499C37.44 73.6299 37.7 74.3299 37.59 74.7699C38.1595 72.0768 39.0143 69.452 40.14 66.9399C41.276 64.4072 43.1928 62.3046 45.61 60.9399C47.3528 60.1474 49.2025 59.615 51.1 59.3599L56.1 58.4399C56.8474 58.3328 57.5837 58.1588 58.3 57.9199Z" fill="#C4C4C4"/>
<path d="M65.15 55.7803H64.04V85.4303H65.15V55.7803Z" fill="#4D4D4D"/>
<path d="M42.2399 150.72C41.0325 150.638 39.9065 150.082 39.1068 149.174C38.3072 148.266 37.8986 147.078 37.9699 145.87V85.4302H91.2299V145.86C91.3012 147.071 90.8916 148.261 90.09 149.171C89.2885 150.081 88.1599 150.638 86.9499 150.72H42.2399Z" fill="#98E6F9"/>
<g style="mix-blend-mode:overlay">
<path d="M86.71 61.3403H86.16C85.5249 61.3403 85.01 61.8552 85.01 62.4903V145.28C85.01 145.915 85.5249 146.43 86.16 146.43H86.71C87.3451 146.43 87.86 145.915 87.86 145.28V62.4903C87.86 61.8552 87.3451 61.3403 86.71 61.3403Z" fill="white"/>
</g>
<path opacity="0.4" d="M65.15 85.4302H64.04V119.85H65.15V85.4302Z" fill="#4D4D4D"/>
</g>
</g>
<defs>
<clipPath id="clip0_222_7612">
<rect width="129.67" height="152.36" fill="white"/>
</clipPath>
<clipPath id="clip1_222_7612">
<rect x="3" width="124" height="124" rx="62" fill="white"/>
</clipPath>
</defs>
</svg>
