<svg width="47" height="24" viewBox="0 0 47 24" fill="none" xmlns="http://www.w3.org/2000/svg">
<path d="M12.9439 12.7013C10.7223 14.1287 7.51485 13.9384 5.49301 12.2731C5.31828 12.1304 5.14356 11.952 5.10611 11.7379C5.03123 11.274 5.60533 10.9647 6.10455 10.8695C7.34013 10.6554 8.62562 10.9171 9.79878 11.3572C10.972 11.7973 12.0702 12.404 13.206 12.9155" fill="#C0C37C"/>
<path d="M12.9439 12.7133C11.7458 13.5697 10.1732 13.8909 8.68804 13.7006C7.93921 13.6054 7.22782 13.3556 6.57883 13.0226C6.41659 12.9393 6.25434 12.8561 6.10458 12.749L5.86744 12.6063L5.64279 12.4397C5.49303 12.3327 5.34326 12.2256 5.21845 12.0829C5.09365 11.952 5.00629 11.7498 5.03125 11.5595C5.05621 11.3573 5.1935 11.2027 5.35574 11.0837C5.50551 10.9648 5.69272 10.8815 5.86744 10.8339C6.24186 10.7388 6.61627 10.7031 6.99069 10.6912C7.73952 10.6793 8.50083 10.8101 9.19974 11.0361C10.635 11.4762 11.8831 12.2494 13.1935 12.9036L13.181 12.9274C11.8082 12.3803 10.5227 11.6785 9.12485 11.2502C8.42595 11.048 7.71456 10.9053 6.97821 10.8934C6.61628 10.8934 6.24186 10.9172 5.90488 11.0005C5.73016 11.048 5.56791 11.1075 5.43062 11.2027C5.29334 11.2978 5.16854 11.4287 5.14357 11.5833C5.11861 11.7379 5.16853 11.9045 5.28086 12.0353C5.39318 12.1662 5.53047 12.2851 5.68023 12.3922L5.89241 12.5587L6.11705 12.7014C6.26682 12.8085 6.42906 12.8799 6.59131 12.9631C7.2403 13.2843 7.96417 13.4627 8.68804 13.5341C10.1358 13.6887 11.6334 13.427 12.9065 12.7133H12.9439Z" fill="#8C6239"/>
<path d="M13.0687 12.4756C10.947 10.739 10.0235 7.76525 10.8222 5.20785C10.972 4.73205 11.284 4.19678 11.7957 4.19678C11.9829 4.19678 12.1576 4.25626 12.3199 4.33953C13.0063 4.69637 13.5055 5.36248 13.6303 6.09996C13.7052 6.55197 13.6428 7.01587 13.5804 7.46788C13.3682 9.08559 13.1561 10.7033 12.9439 12.3091C12.9189 12.4994 12.9189 12.7492 13.1061 12.8444" fill="#C0C37C"/>
<path d="M13.0562 12.4753C11.7458 11.488 10.8472 9.98922 10.5726 8.4072C10.4977 8.01466 10.4853 7.61024 10.4728 7.20581C10.4853 6.80138 10.5102 6.40885 10.5851 6.01632L10.6475 5.71895C10.6725 5.62379 10.6974 5.52863 10.7224 5.43347C10.7723 5.24315 10.8222 5.04093 10.9096 4.8625C10.997 4.68408 11.1093 4.50567 11.259 4.35103C11.4213 4.20829 11.6335 4.11313 11.8706 4.12503C12.0952 4.13692 12.2949 4.23209 12.4821 4.33914C12.6693 4.44619 12.8441 4.57703 12.9938 4.71977C13.2934 5.01714 13.5305 5.374 13.6553 5.76653C13.7801 6.17096 13.7926 6.58727 13.7552 6.9917C13.7177 7.39612 13.6553 7.78866 13.6054 8.18119C13.5055 8.96625 13.3807 9.75132 13.2684 10.5483L13.0812 11.7259L12.9814 12.3087C12.9689 12.4039 12.9564 12.499 12.9689 12.5942C12.9814 12.6894 13.0188 12.7845 13.1186 12.8321L13.1062 12.8559C13.0063 12.8202 12.9439 12.7132 12.919 12.6061C12.894 12.4991 12.894 12.4039 12.9065 12.2968L12.9689 11.7021L13.0937 10.5126C13.1811 9.72753 13.2684 8.93058 13.3807 8.14551L13.5305 6.96791C13.5679 6.57538 13.5804 6.19475 13.4681 5.826C13.3558 5.45726 13.1561 5.1242 12.8815 4.83872C12.7442 4.69598 12.5945 4.57703 12.4197 4.46998C12.245 4.36293 12.0703 4.26776 11.8831 4.24397C11.6959 4.22018 11.4962 4.29155 11.3464 4.4224C11.1966 4.55324 11.0843 4.71977 10.997 4.89819C10.9096 5.07662 10.8597 5.26693 10.7973 5.45725C10.7349 5.64757 10.7099 5.83789 10.6725 6.0401C10.5352 6.82517 10.5976 7.62214 10.7598 8.38341C11.0718 9.92975 11.8706 11.369 13.0812 12.4634L13.0562 12.4753Z" fill="#8C6239"/>
<path d="M6.7286 7.93186C4.17009 7.8248 1.71143 6.48068 0.338574 4.42286C0.201289 4.22064 0.0764821 4.01843 0.0640016 3.78053C0.0140795 3.26905 0.513299 2.81705 1.03748 2.73378C1.57414 2.65052 2.1108 2.85272 2.57258 3.12631C4.43218 4.24443 5.26838 6.39742 6.7286 7.96755" fill="#C0C37C"/>
<path d="M6.72859 7.94326C5.20597 7.95516 3.67086 7.46747 2.42281 6.61104C1.79879 6.18282 1.26212 5.65944 0.787861 5.08848C0.675537 4.94574 0.55073 4.80301 0.450886 4.64838C0.338561 4.49374 0.226237 4.351 0.138873 4.18447C0.0515093 4.01794 -0.0108902 3.82763 0.00159029 3.63731C0.0140708 3.44699 0.101433 3.25667 0.226238 3.11393C0.463368 2.81655 0.875228 2.62624 1.2746 2.62624C1.67398 2.61434 2.06087 2.74519 2.41033 2.92361C3.09676 3.28046 3.67086 3.79194 4.1576 4.36289C5.13108 5.50481 5.78007 6.82514 6.72859 7.95515L6.71611 7.96706C5.65526 6.92031 4.9314 5.61186 3.98288 4.50563C3.49614 3.95846 2.95947 3.45888 2.32296 3.10204C1.99847 2.93551 1.64902 2.80467 1.28708 2.79277C0.925147 2.78088 0.575696 2.92361 0.338566 3.18529C0.226241 3.31614 0.138879 3.47078 0.113918 3.6492C0.0889569 3.81573 0.138874 3.99415 0.226238 4.14878C0.301121 4.30341 0.413449 4.45805 0.525773 4.61268C0.625618 4.76732 0.750424 4.89816 0.862749 5.0409C1.33701 5.59996 1.92359 6.06386 2.54762 6.46829C3.78319 7.27714 5.23093 7.78863 6.74107 7.93137L6.72859 7.94326Z" fill="#8C6239"/>
<path d="M12.1325 7.59861C12.2823 9.0141 12.2574 10.608 12.6068 12.0235C11.9703 11.5715 11.3338 11.1195 10.6973 10.6675C7.87669 8.64536 5.05609 6.63513 2.16062 4.70815C2.12317 4.68436 2.08573 4.74383 2.12318 4.76762C4.96873 6.96818 7.86421 9.08547 10.7722 11.2266C11.4212 11.7024 12.0577 12.1781 12.6942 12.6539C10.9843 12.7015 9.27451 12.6064 7.58964 12.4517C7.57716 12.4517 7.57716 12.4636 7.58964 12.4636C9.36187 12.8086 11.1091 12.8918 12.9188 12.8205C13.6177 13.3439 14.3166 13.8672 15.0155 14.3906C16.326 15.3779 17.6989 16.6982 19.209 17.3643C19.4337 17.4595 19.5959 17.2216 19.4461 17.0551C18.3478 15.8061 16.5881 14.8545 15.2152 13.8791C14.5288 13.3914 13.8424 12.9038 13.156 12.428C13.1435 10.8459 12.5694 9.13305 12.2449 7.59861C12.2199 7.52724 12.1325 7.55103 12.1325 7.59861Z" fill="#8C6239"/>
<path d="M22.5039 16.5436C22.0796 19.3032 19.8331 21.6346 17.1123 22.6814C14.3916 23.7281 11.2964 23.6092 8.48828 22.7884C9.21215 21.7655 9.97347 20.7663 10.7847 19.8028C11.3089 19.1724 11.8705 18.5419 12.5195 18.0186C15.1903 15.8775 19.0842 15.8061 22.4789 16.5555" fill="#899B73"/>
<path d="M22.504 16.544C22.4042 17.2339 22.192 17.9119 21.88 18.5543C21.568 19.1847 21.1562 19.7794 20.6819 20.3147C19.7209 21.3734 18.4853 22.2179 17.1249 22.7413C15.7521 23.2528 14.2794 23.4669 12.8067 23.4669C11.334 23.455 9.87377 23.2409 8.47595 22.8364L8.42603 22.8245L8.45099 22.7889C9.22478 21.6707 10.0485 20.5764 10.9346 19.5415C11.3714 19.0182 11.8457 18.5067 12.3823 18.0666C12.9315 17.6264 13.5181 17.2577 14.1671 16.9722L14.6538 16.77C14.8161 16.7106 14.9908 16.663 15.153 16.6035C15.3153 16.544 15.49 16.5083 15.6647 16.4607L15.9268 16.4013L16.1889 16.3537C16.5384 16.2823 16.8878 16.2347 17.2373 16.1991L17.7614 16.1634C17.9362 16.1515 18.1109 16.1515 18.2856 16.1396C18.9845 16.1277 19.6959 16.1515 20.3948 16.2348C21.0938 16.318 21.7927 16.437 22.4666 16.6035V16.6154C21.0937 16.3418 19.6834 16.1753 18.2856 16.2228C18.1109 16.2347 17.9362 16.2348 17.7614 16.2466L17.2373 16.2942C16.8878 16.3418 16.5384 16.3894 16.2014 16.4607C15.515 16.6035 14.8535 16.8057 14.217 17.0912C13.5805 17.3767 13.0064 17.7454 12.4697 18.1736C11.9455 18.6018 11.4713 19.1133 11.0345 19.6248C10.1483 20.6597 9.29966 21.7421 8.51339 22.8483L8.48843 22.8007C9.88625 23.2052 11.3465 23.455 12.8067 23.455C14.2669 23.455 15.7396 23.2052 17.0875 22.6818C17.7615 22.4201 18.398 22.0752 18.997 21.6826C19.5961 21.2782 20.1327 20.8143 20.6195 20.2909C21.568 19.2085 22.2669 17.9238 22.504 16.544Z" fill="#8C6239"/>
<path d="M10.2356 22.4079C10.4478 22.396 10.6599 22.3366 10.8721 22.2771C11.0843 22.2176 11.3089 22.1462 11.5211 22.063C11.9579 21.9083 12.3822 21.7299 12.7941 21.5158C13.6677 21.0757 14.4415 20.4691 15.3027 20.0052C16.8003 19.2082 18.4727 18.7443 20.0453 18.0901C20.9064 17.7332 21.7926 17.3169 22.5039 16.7341C22.5414 16.6984 22.4915 16.6389 22.4415 16.6746C21.7426 17.1504 21.0188 17.5548 20.2325 17.8998C19.4712 18.2328 18.6724 18.5064 17.8861 18.7919C17.0999 19.0774 16.3011 19.3866 15.5523 19.7673C14.6911 20.1955 13.9423 20.7783 13.1186 21.2422C12.6693 21.492 12.2075 21.718 11.7208 21.9083C11.4712 22.0035 11.2091 22.0987 10.947 22.1819C10.7099 22.2533 10.4602 22.3009 10.2356 22.4079Z" fill="#8C6239"/>
<path d="M27.7208 16.5429C30.2044 15.0679 33.5368 15.1988 36.1202 16.5072C38.7162 17.8156 40.6132 20.147 41.7739 22.7164C40.4884 22.8472 39.1904 22.9423 37.8924 22.978C37.0438 23.0018 36.1826 23.0018 35.3464 22.871C31.9143 22.3119 29.3433 19.5166 27.7458 16.5667" fill="#899B73"/>
<path d="M27.7208 16.5432C28.3324 16.1626 29.0188 15.8771 29.7302 15.6987C30.4416 15.5203 31.1779 15.437 31.9143 15.437C33.387 15.4489 34.8597 15.8058 36.1577 16.4719C37.4556 17.138 38.5789 18.0777 39.5274 19.1482C40.4634 20.2188 41.2372 21.432 41.8238 22.7048L41.8488 22.7524H41.7989C40.401 22.907 38.9907 23.0141 37.5929 23.0379C36.894 23.0498 36.1826 23.0379 35.4712 22.9427C34.7723 22.8238 34.0859 22.6334 33.4369 22.348L32.9626 22.122C32.8129 22.0387 32.6631 21.9554 32.5009 21.8722C32.3511 21.7889 32.2013 21.6818 32.0516 21.5986L31.8394 21.4558L31.6272 21.3012C31.3402 21.099 31.0906 20.873 30.8285 20.647L30.4541 20.2901C30.3293 20.1712 30.2169 20.0404 30.0921 19.9214C29.6303 19.4218 29.1935 18.8865 28.8066 18.3275C28.4197 17.7684 28.0703 17.1856 27.7583 16.5789H27.7708C28.4322 17.7565 29.2185 18.8865 30.1545 19.8738C30.2793 19.9928 30.3917 20.1236 30.5165 20.2426L30.8909 20.5875C31.153 20.8135 31.4151 21.0276 31.6896 21.2298C32.2513 21.6343 32.8378 21.9911 33.4743 22.2647C34.1109 22.5383 34.7848 22.7286 35.4712 22.8476C36.1577 22.9546 36.869 22.9665 37.568 22.9546C38.9783 22.9308 40.3761 22.8475 41.7739 22.7048L41.7489 22.7524C41.1748 21.4677 40.426 20.2545 39.49 19.1839C38.5539 18.1134 37.4057 17.2094 36.1077 16.567C35.4587 16.2459 34.7723 15.9961 34.0734 15.8295C33.3745 15.6511 32.6382 15.556 31.9143 15.5441C30.4541 15.5084 28.9814 15.8295 27.7208 16.5432Z" fill="#8C6239"/>
<path d="M40.3386 21.6817C40.1888 21.5271 40.0016 21.42 39.8269 21.313C39.6396 21.194 39.44 21.087 39.2403 20.9799C38.8284 20.7658 38.4166 20.5636 37.9797 20.3971C37.0562 20.0402 36.0702 19.8737 35.1467 19.5406C33.5367 18.9697 32.0889 18.0538 30.5538 17.3282C29.7052 16.9357 28.8066 16.555 27.883 16.4123C27.8331 16.4004 27.8206 16.4837 27.8705 16.4956C28.7067 16.6978 29.493 16.9595 30.2793 17.3163C31.0406 17.6613 31.7769 18.0538 32.5133 18.4463C33.2621 18.8389 34.0109 19.2195 34.7972 19.5169C35.6958 19.8618 36.6443 20.0402 37.5554 20.3376C38.0421 20.5041 38.5289 20.6945 38.9907 20.9205C39.2403 21.0394 39.4774 21.1703 39.7145 21.3011C39.9017 21.4438 40.1014 21.5985 40.3386 21.6817C40.3386 21.6936 40.3386 21.6936 40.3386 21.6817Z" fill="#8C6239"/>
<path d="M33.6616 11.2506C32.6506 8.88355 33.4993 5.9336 35.6335 4.38726C35.8207 4.25642 36.0328 4.12558 36.27 4.13747C36.7692 4.16126 36.9689 4.76791 36.9564 5.24371C36.9314 6.44509 36.3948 7.587 35.7084 8.59807C35.0219 9.59724 34.1608 10.5013 33.3995 11.4528" fill="#C0C37C"/>
<path d="M33.6491 11.2504C33.025 9.96572 33.0001 8.41938 33.5118 7.07526C33.7614 6.39725 34.1732 5.7906 34.635 5.24344C34.7598 5.11259 34.8722 4.96985 35.0094 4.8509L35.2091 4.66058L35.4213 4.48216C35.5586 4.36321 35.6959 4.24427 35.8706 4.161C36.0328 4.06584 36.2575 4.03015 36.4447 4.08962C36.6444 4.16099 36.7817 4.31563 36.869 4.48216C36.9564 4.64869 37.0063 4.82711 37.0188 5.01743C37.0438 5.38617 37.0063 5.74302 36.9314 6.09986C36.7817 6.80166 36.4946 7.47968 36.1202 8.09822C35.3714 9.34718 34.323 10.3582 33.387 11.4407L33.3745 11.4288C34.2107 10.2631 35.2091 9.20444 35.9205 7.99116C36.27 7.38452 36.5695 6.7422 36.7193 6.06419C36.7942 5.73113 36.8441 5.37427 36.8316 5.04121C36.8191 4.87468 36.7817 4.70816 36.7193 4.55353C36.6569 4.39889 36.5445 4.26804 36.3948 4.20857C36.245 4.14909 36.0578 4.17289 35.908 4.24426C35.7458 4.31563 35.6085 4.43458 35.4587 4.54163L35.2466 4.70816L35.0469 4.88659C34.9096 5.00554 34.7973 5.14827 34.6849 5.27911C34.2232 5.82628 33.8987 6.45671 33.674 7.12282C33.2247 8.44316 33.1748 9.89434 33.6615 11.2266L33.6491 11.2504Z" fill="#8C6239"/>
<path d="M33.8738 11.4163C36.0953 9.78672 39.3403 9.53692 41.7989 10.8097C42.2482 11.0476 42.735 11.4401 42.6476 11.9278C42.6102 12.0943 42.5103 12.249 42.3855 12.3798C41.8863 12.9508 41.0875 13.2719 40.3137 13.2362C39.827 13.2124 39.3652 13.0578 38.9159 12.9151C37.3059 12.3798 35.6835 11.8564 34.0735 11.3212C33.8738 11.2617 33.6242 11.2022 33.4994 11.3687" fill="#C0C37C"/>
<path d="M33.8612 11.4048C35.1467 10.3818 36.869 9.84657 38.5539 9.91794C38.9782 9.92984 39.3901 9.98932 39.8019 10.0726C40.2138 10.1677 40.6132 10.2748 41.0001 10.4294L41.2871 10.5484C41.387 10.5841 41.4743 10.6316 41.5742 10.6792C41.7614 10.7625 41.9486 10.8576 42.1233 10.9766C42.298 11.0955 42.4478 11.2383 42.5726 11.4048C42.6849 11.5832 42.7348 11.8092 42.6724 12.0234C42.61 12.2375 42.4728 12.404 42.323 12.5467C42.1732 12.7014 42.011 12.8322 41.8238 12.9393C41.4618 13.1653 41.0375 13.308 40.6132 13.3437C40.1763 13.3794 39.7395 13.2961 39.3401 13.189C38.9283 13.0701 38.5539 12.9274 38.1545 12.8084C37.3682 12.5467 36.5819 12.285 35.7957 12.0115L34.6225 11.5951L34.0359 11.381C33.9361 11.3453 33.8487 11.3216 33.7364 11.3097C33.6365 11.2978 33.5367 11.3215 33.4618 11.3929L33.4493 11.381C33.5117 11.2978 33.6365 11.2621 33.7364 11.2621C33.8487 11.2621 33.9486 11.2859 34.0484 11.3097L34.6475 11.4881L35.8456 11.8449C36.6444 12.0947 37.4306 12.3326 38.2169 12.5943L39.4025 12.9749C39.7894 13.0939 40.1888 13.1772 40.5882 13.1415C40.9876 13.1177 41.3745 12.9987 41.7239 12.7965C41.8987 12.7014 42.0609 12.5824 42.1982 12.4397C42.3355 12.3088 42.4728 12.1542 42.5352 11.9758C42.5976 11.7973 42.5601 11.607 42.4603 11.4405C42.3604 11.274 42.2107 11.1312 42.0484 11.0242C41.8862 10.9052 41.699 10.8101 41.5118 10.7268C41.3245 10.6316 41.1373 10.5603 40.9376 10.4889C40.1639 10.2034 39.3277 10.0964 38.5039 10.0964C36.8565 10.0726 35.2091 10.5246 33.8362 11.4167L33.8612 11.4048Z" fill="#8C6239"/>
<path d="M39.827 6.43291C40.451 4.06582 42.348 2.04369 44.7443 1.18725C44.9689 1.10399 45.2185 1.03261 45.4682 1.0564C46.0048 1.11587 46.3668 1.66304 46.3418 2.18641C46.3168 2.69789 45.9923 3.1618 45.6179 3.53054C44.0953 5.0412 41.7115 5.37425 39.802 6.40911" fill="#C0C37C"/>
<path d="M39.8144 6.43296C40.1264 5.00557 40.9251 3.67334 42.0609 2.68606C42.635 2.19837 43.284 1.79394 43.9704 1.47277C44.1451 1.38951 44.3198 1.31815 44.4946 1.24678C44.6693 1.17541 44.844 1.10403 45.0312 1.05645C45.2185 1.00887 45.4181 0.985085 45.6178 1.04456C45.8175 1.09214 45.9798 1.21109 46.117 1.35382C46.3791 1.6393 46.4915 2.05564 46.4041 2.43627C46.3292 2.81691 46.117 3.14996 45.8674 3.43544C45.3557 4.00639 44.7192 4.43462 44.0328 4.76768C42.6475 5.44569 41.1623 5.77874 39.8144 6.43296L39.7894 6.40917C41.0874 5.636 42.5726 5.23157 43.908 4.56545C44.5695 4.2324 45.1935 3.82797 45.6927 3.30459C45.9298 3.04291 46.1295 2.73364 46.2169 2.40058C46.3043 2.06753 46.2294 1.71068 46.0172 1.4371C45.9049 1.30625 45.7676 1.1873 45.5929 1.13972C45.4181 1.08025 45.2309 1.09214 45.0562 1.13972C44.8815 1.17541 44.6943 1.24678 44.5195 1.31815C44.3448 1.37762 44.1701 1.46089 44.0078 1.54415C43.3339 1.86532 42.7348 2.32921 42.1982 2.81691C41.1124 3.80418 40.3011 5.05315 39.8393 6.43296H39.8144Z" fill="#8C6239"/>
<path d="M39.0656 11.5475C37.5804 11.3928 35.9455 11.0479 34.4229 11.0717C35.0219 10.5721 35.621 10.0725 36.2076 9.57291C38.8659 7.34856 41.5118 5.13609 44.0828 2.82848C44.1077 2.80469 44.0703 2.75711 44.0329 2.7809C41.1873 4.98146 38.4166 7.2534 35.6335 9.52533C35.0095 10.0249 34.3979 10.5245 33.7739 11.0241C34.0734 9.41827 34.5227 7.84815 35.0344 6.30181C35.0344 6.28991 35.0219 6.2899 35.0219 6.2899C34.2981 7.87192 33.8612 9.48964 33.5617 11.1906C32.8878 11.7378 32.2013 12.273 31.5149 12.8202C30.2419 13.8432 28.5945 14.8424 27.596 16.1151C27.4463 16.3054 27.6709 16.5076 27.8706 16.4006C29.3807 15.6274 30.7162 14.1881 31.9892 13.1057C32.6257 12.5704 33.2622 12.0233 33.8987 11.488C35.5336 11.8091 37.3932 11.6188 39.0531 11.6307C39.128 11.6426 39.128 11.5475 39.0656 11.5475Z" fill="#8C6239"/>
<path d="M30.2544 4.52928C30.2294 3.89885 30.4541 3.2803 30.5414 2.66177C30.6288 2.03134 30.5289 1.31765 30.0048 0.925113C29.206 0.330367 27.9954 0.925122 27.4213 1.72208C26.6725 2.78073 26.5477 4.27948 27.3215 5.33812C26.348 4.75527 25.1873 4.4817 24.0516 4.54117C23.6771 4.56496 23.2778 4.63634 23.0032 4.87423C22.6787 5.17161 22.6163 5.67119 22.7661 6.07562C22.9158 6.48004 23.2403 6.8012 23.6023 7.06289C24.8004 7.94311 26.4603 8.21669 27.8956 7.77658C27.5336 8.84713 27.2965 10.2507 28.2575 10.905C28.5071 11.0715 28.8191 11.1666 29.1186 11.1904C30.1795 11.2975 31.2778 10.6433 31.6522 9.69168C32.0266 8.72819 31.6272 7.56248 30.7411 6.97963C31.6272 7.15805 32.5508 7.14616 33.4244 6.95584C33.7489 6.88447 34.0859 6.77741 34.348 6.5752C34.9595 6.08751 34.9845 5.11213 34.4977 4.51739C34.011 3.91075 33.1374 3.67284 32.3386 3.768C31.5399 3.86316 30.816 4.25569 30.192 4.73149" fill="white"/>
<path d="M30.2419 4.5295C30.192 3.64928 30.6288 2.79284 30.4915 1.9364C30.454 1.72229 30.3916 1.52008 30.2918 1.34166C30.192 1.16323 30.0297 1.0086 29.8425 0.90155C29.6553 0.794496 29.4431 0.746907 29.2185 0.758802C29.0063 0.770697 28.7817 0.818286 28.582 0.90155C28.1701 1.06808 27.8207 1.35355 27.5586 1.68661C27.2965 2.03156 27.1093 2.42409 26.9969 2.84041C26.8971 3.25674 26.8597 3.68496 26.9221 4.11318C26.972 4.5295 27.1467 4.94583 27.3838 5.29078L27.621 5.62383L27.259 5.40973C26.4478 4.92204 25.4868 4.62466 24.5133 4.58897C24.2762 4.57708 24.0266 4.57707 23.7894 4.61276C23.5523 4.63655 23.3152 4.69603 23.1155 4.82687C22.9158 4.95772 22.791 5.15993 22.7411 5.37404C22.6912 5.60004 22.7036 5.82604 22.7785 6.05204C22.9283 6.49215 23.2902 6.83711 23.6896 7.0988C23.8893 7.24154 24.1015 7.34859 24.3136 7.46754C24.5383 7.5627 24.7629 7.65787 24.9876 7.72924C25.9111 8.01471 26.9345 8.01471 27.8581 7.72924L27.9704 7.69354L27.933 7.8006C27.7957 8.20503 27.6958 8.62135 27.6459 9.04957C27.6334 9.26368 27.621 9.47778 27.6459 9.67999C27.6709 9.8822 27.7208 10.0963 27.8082 10.2747C27.9829 10.6435 28.3324 10.929 28.7442 11.036C29.1561 11.155 29.6054 11.1312 30.0172 11.0003C30.4291 10.8695 30.8035 10.6435 31.0905 10.3223C31.2278 10.1677 31.3526 10.0012 31.4525 9.81085C31.5398 9.62053 31.6023 9.43021 31.6272 9.22799C31.752 8.41914 31.3651 7.53891 30.6537 7.06311L30.2044 6.76574L30.7411 6.87279C31.6147 7.05122 32.5258 7.03933 33.3994 6.84901C33.6116 6.80143 33.8238 6.74195 34.0235 6.64679C34.2107 6.55163 34.3854 6.42079 34.4977 6.25426C34.7349 5.92121 34.7848 5.4692 34.6849 5.07666C34.635 4.87445 34.5352 4.68413 34.3979 4.5295C34.2606 4.36297 34.0984 4.23213 33.9111 4.11318C33.5367 3.88717 33.0874 3.79201 32.6506 3.78011C32.2013 3.78011 31.7645 3.88717 31.3526 4.0537C30.9408 4.22023 30.5539 4.45813 30.192 4.71982L30.1795 4.70792C30.5289 4.43434 30.9158 4.18454 31.3277 4.00612C31.7395 3.8277 32.1888 3.69686 32.6631 3.68496C33.1249 3.68496 33.5991 3.78012 33.9985 4.00612C34.1982 4.12507 34.3854 4.26781 34.5352 4.43433C34.6849 4.61276 34.7973 4.81497 34.8597 5.04097C34.9845 5.48108 34.9345 5.96879 34.6725 6.36132C34.5352 6.55164 34.348 6.71816 34.1358 6.81332C33.9236 6.92037 33.699 6.99174 33.4743 7.03932C32.5757 7.25343 31.6272 7.25344 30.7286 7.07502L30.816 6.88469C31.6023 7.40806 32.0141 8.34776 31.8893 9.25178C31.8519 9.47778 31.7895 9.69189 31.6896 9.906C31.5898 10.1082 31.4525 10.2985 31.2902 10.4651C30.9782 10.7981 30.5664 11.0479 30.1171 11.1907C29.6678 11.3215 29.181 11.3453 28.7192 11.2144C28.2575 11.0955 27.8581 10.7624 27.6709 10.3342C27.5835 10.1201 27.5336 9.90599 27.5086 9.67999C27.4837 9.45399 27.4962 9.23988 27.5211 9.01388C27.571 8.57377 27.6834 8.15745 27.8331 7.74113L27.908 7.81249C26.947 8.08608 25.9111 8.06228 24.9751 7.76491C24.738 7.69354 24.5133 7.59839 24.2887 7.49134C24.0765 7.38428 23.8518 7.26532 23.6646 7.12258C23.465 6.99174 23.2777 6.82521 23.1155 6.64679C22.9533 6.46836 22.816 6.26615 22.7286 6.04015C22.6537 5.81415 22.6288 5.56435 22.6787 5.32645C22.7286 5.08856 22.8784 4.86255 23.0905 4.73171C23.3027 4.58897 23.5523 4.5176 23.8019 4.49381C24.0515 4.45812 24.3012 4.45813 24.5508 4.45813C25.5492 4.48192 26.5352 4.74361 27.3838 5.2432L27.259 5.36214C26.9845 4.9934 26.8097 4.55329 26.7473 4.11318C26.6724 3.67307 26.7099 3.20916 26.8222 2.78094C26.947 2.35272 27.1342 1.93641 27.4213 1.56766C27.7083 1.21082 28.0827 0.913442 28.5196 0.735018C28.7442 0.651754 28.9689 0.592285 29.2185 0.592285C29.4556 0.592285 29.7052 0.65176 29.9174 0.770709C30.1296 0.889658 30.2918 1.06808 30.4041 1.27029C30.5164 1.4725 30.5788 1.69851 30.6038 1.91262C30.6288 2.13862 30.6288 2.36462 30.6038 2.57873C30.5788 2.80473 30.5289 3.01884 30.479 3.23295C30.3792 3.66117 30.2668 4.08939 30.2793 4.51761L30.2419 4.5295Z" fill="#8C6239"/>
<path d="M26.273 13.1059C26.2481 12.4755 26.4727 11.857 26.5601 11.2384C26.6475 10.608 26.5476 9.89431 26.0234 9.50177C25.2247 8.90703 24.0141 9.50178 23.44 10.2987C22.6911 11.3574 22.5663 12.8562 23.3401 13.9148C22.3666 13.3319 21.206 13.0584 20.0702 13.1178C19.6958 13.1416 19.2964 13.213 19.0219 13.4509C18.6974 13.7483 18.635 14.2479 18.7847 14.6523C18.9345 15.0567 19.259 15.3779 19.6209 15.6396C20.8191 16.5198 22.479 16.7934 23.9142 16.3533C23.5523 17.4238 23.3152 18.8274 24.2762 19.4816C24.5258 19.6481 24.8378 19.7433 25.1373 19.7671C26.1982 19.8741 27.2965 19.2199 27.6709 18.2683C28.0453 17.3048 27.6459 16.1391 26.7598 15.5563C27.6459 15.7347 28.5695 15.7228 29.4431 15.5325C29.7676 15.4611 30.1046 15.3541 30.3667 15.1519C30.9782 14.6642 31.0032 13.6888 30.5164 13.094C30.0297 12.4874 29.156 12.2495 28.3573 12.3447C27.5585 12.4398 26.8347 12.8323 26.2106 13.3081" fill="#FF8D75"/>
<path d="M26.2606 13.1057C26.2106 12.2254 26.6475 11.369 26.5102 10.5126C26.4727 10.2985 26.4103 10.0963 26.3105 9.91783C26.2106 9.7394 26.0484 9.58478 25.8612 9.47772C25.674 9.37067 25.4618 9.32309 25.2372 9.33499C25.025 9.34688 24.8003 9.39446 24.6006 9.47772C24.1888 9.64425 23.8393 9.92973 23.5772 10.2628C23.3152 10.6077 23.1279 11.0003 23.0156 11.4166C22.9158 11.8329 22.8783 12.2611 22.9407 12.6893C22.9907 13.1057 23.1654 13.522 23.4025 13.8669L23.6396 14.2L23.2777 13.9859C22.4665 13.4982 21.5055 13.2008 20.532 13.1651C20.2949 13.1533 20.0453 13.1532 19.8081 13.1889C19.571 13.2127 19.3339 13.2722 19.1342 13.403C18.9345 13.5339 18.8097 13.7361 18.7598 13.9502C18.7098 14.1762 18.7223 14.4022 18.7972 14.6282C18.947 15.0683 19.3089 15.4133 19.7083 15.675C19.908 15.8177 20.1201 15.9248 20.3323 16.0437C20.557 16.1389 20.7816 16.234 21.0063 16.3054C21.9298 16.5909 22.9532 16.5909 23.8768 16.3054L23.9891 16.2697L23.9517 16.3768C23.8144 16.7812 23.7145 17.1975 23.6646 17.6257C23.6521 17.8398 23.6396 18.054 23.6646 18.2562C23.6896 18.4584 23.7395 18.6725 23.8269 18.8509C24.0016 19.2197 24.351 19.5051 24.7629 19.6122C25.1748 19.7311 25.624 19.7074 26.0359 19.5765C26.4478 19.4457 26.8222 19.2197 27.1092 18.8985C27.2465 18.7439 27.3713 18.5773 27.4712 18.387C27.5585 18.1967 27.6209 18.0064 27.6459 17.8042C27.7707 16.9953 27.3838 16.1151 26.6724 15.6393L26.2231 15.3419L26.7598 15.449C27.6334 15.6274 28.5445 15.6155 29.4181 15.4252C29.6303 15.3776 29.8425 15.3181 30.0421 15.223C30.2294 15.1278 30.4041 14.997 30.5164 14.8304C30.7535 14.4974 30.8035 14.0454 30.7036 13.6528C30.6537 13.4506 30.5539 13.2603 30.4166 13.1057C30.2793 12.9391 30.117 12.8083 29.9298 12.6893C29.5554 12.4633 29.1061 12.3682 28.6693 12.3563C28.22 12.3563 27.7832 12.4633 27.3713 12.6299C26.9595 12.7964 26.5726 13.0343 26.2106 13.296L26.1982 13.2841C26.5476 13.0105 26.9345 12.7607 27.3464 12.5823C27.7582 12.4039 28.2075 12.273 28.6818 12.2611C29.1435 12.2611 29.6178 12.3563 30.0172 12.5823C30.2169 12.7012 30.4041 12.844 30.5538 13.0105C30.7036 13.1889 30.8159 13.3912 30.8783 13.6172C31.0032 14.0573 30.9532 14.545 30.6911 14.9375C30.5539 15.1278 30.3666 15.2943 30.1545 15.3895C29.9423 15.4965 29.7177 15.5679 29.493 15.6155C28.5944 15.8296 27.6459 15.8296 26.7473 15.6512L26.8347 15.4609C27.6209 15.9842 28.0328 16.9239 27.908 17.8279C27.8705 18.054 27.8081 18.2681 27.7083 18.4822C27.6084 18.6844 27.4712 18.8747 27.3089 19.0412C26.9969 19.3743 26.585 19.6241 26.1357 19.7668C25.6865 19.8977 25.1997 19.9215 24.7379 19.7906C24.2762 19.6717 23.8768 19.3386 23.6896 18.9104C23.6022 18.6963 23.5523 18.4822 23.5273 18.2562C23.5024 18.0302 23.5148 17.8161 23.5398 17.59C23.5897 17.1499 23.702 16.7336 23.8518 16.3173L23.9267 16.3887C22.9657 16.6622 21.9298 16.6385 20.9938 16.3411C20.7566 16.2697 20.532 16.1746 20.3073 16.0675C20.0952 15.9605 19.8705 15.8415 19.6833 15.6988C19.4836 15.5679 19.2964 15.4014 19.1342 15.223C18.9719 15.0445 18.8346 14.8423 18.7473 14.6163C18.6724 14.3903 18.6474 14.1405 18.6974 13.9026C18.7473 13.6647 18.897 13.4387 19.1092 13.3079C19.3214 13.1651 19.571 13.0938 19.8206 13.07C20.0702 13.0343 20.3198 13.0343 20.5694 13.0343C21.5679 13.0581 22.5538 13.3198 23.4025 13.8194L23.2777 13.9383C23.0031 13.5696 22.8284 13.1295 22.766 12.6893C22.6911 12.2492 22.7286 11.7853 22.8409 11.3571C22.9657 10.9289 23.1529 10.5126 23.44 10.1438C23.727 9.78699 24.1014 9.48961 24.5382 9.31119C24.7629 9.22793 24.9875 9.16846 25.2372 9.16846C25.4743 9.16846 25.7239 9.22793 25.9361 9.34688C26.1482 9.46583 26.3105 9.64425 26.4228 9.84646C26.5351 10.0487 26.5975 10.2747 26.6225 10.4888C26.6474 10.7148 26.6474 10.9408 26.6225 11.1549C26.5975 11.3809 26.5476 11.595 26.4977 11.8091C26.3978 12.2373 26.2855 12.6656 26.298 13.0938L26.2606 13.1057Z" fill="#8C6239"/>
<path d="M19.3839 7.31249C19.3589 6.68205 19.5836 6.06351 19.6709 5.44497C19.7583 4.81454 19.6585 4.10085 19.1343 3.70832C18.3355 3.11357 17.1249 3.70831 16.5508 4.50527C15.802 5.56392 15.6772 7.06268 16.451 8.12133C15.4775 7.53848 14.3168 7.2649 13.1811 7.32438C12.8067 7.34817 12.4073 7.41953 12.1327 7.65743C11.8082 7.9548 11.7458 8.4544 11.8956 8.85882C12.0453 9.26325 12.3698 9.58441 12.7318 9.84609C13.9299 10.7263 15.5898 10.9999 17.0251 10.5598C16.6631 11.6303 16.426 13.0339 17.387 13.6882C17.6366 13.8547 17.9486 13.9499 18.2482 13.9736C19.309 14.0807 20.4073 13.4265 20.7817 12.4749C21.1561 11.5114 20.7567 10.3457 19.8706 9.76284C20.7567 9.94126 21.6803 9.92936 22.5539 9.73904C22.8784 9.66767 23.2154 9.56062 23.4775 9.35841C24.089 8.87071 24.114 7.89532 23.6273 7.30058C23.1405 6.69394 22.2669 6.45605 21.4681 6.55121C20.6694 6.64637 19.9455 7.0389 19.3215 7.51469" fill="white"/>
<path d="M19.3713 7.31289C19.3214 6.43267 19.7582 5.57623 19.6209 4.71979C19.5834 4.50568 19.521 4.30347 19.4212 4.12505C19.3213 3.94662 19.1591 3.792 18.9719 3.68494C18.7847 3.57789 18.5725 3.5303 18.3479 3.54219C18.1357 3.55409 17.9111 3.60168 17.7114 3.68494C17.2995 3.85147 16.9501 4.13695 16.688 4.47C16.4259 4.81496 16.2387 5.20748 16.1263 5.6238C16.0265 6.04013 15.989 6.46835 16.0515 6.89657C16.1014 7.31289 16.2761 7.7292 16.5132 8.07415L16.7504 8.40722L16.3884 8.1931C15.5772 7.70541 14.6162 7.40805 13.6427 7.37237C13.4056 7.36047 13.156 7.36047 12.9188 7.39615C12.6817 7.41994 12.4446 7.47942 12.2449 7.61026C12.0452 7.74111 11.9204 7.94332 11.8705 8.15743C11.8206 8.38343 11.833 8.60943 11.9079 8.83543C12.0577 9.27554 12.4196 9.6205 12.819 9.88219C13.0187 10.0249 13.2309 10.132 13.443 10.2509C13.6677 10.3461 13.8923 10.4412 14.117 10.5126C15.0405 10.7981 16.0639 10.7981 16.9875 10.5126L17.0998 10.4769L17.0624 10.584C16.9251 10.9884 16.8252 11.4047 16.7753 11.833C16.7628 12.0471 16.7504 12.2612 16.7753 12.4634C16.8003 12.6656 16.8502 12.8797 16.9376 13.0581C17.1123 13.4269 17.4618 13.7124 17.8736 13.8194C18.2855 13.9384 18.7348 13.9146 19.1466 13.7837C19.5585 13.6529 19.9329 13.4269 20.2199 13.1057C20.3572 12.9511 20.482 12.7845 20.5819 12.5942C20.6692 12.4039 20.7316 12.2136 20.7566 12.0114C20.8814 11.2025 20.4945 10.3223 19.7831 9.8465L19.3338 9.54913L19.8705 9.65619C20.7441 9.83461 21.6552 9.82272 22.5288 9.6324C22.741 9.58482 22.9532 9.52534 23.1529 9.43018C23.3401 9.33502 23.5148 9.20418 23.6271 9.03765C23.8643 8.7046 23.9142 8.25259 23.8143 7.86005C23.7644 7.65784 23.6646 7.46753 23.5273 7.31289C23.39 7.14636 23.2277 7.01552 23.0405 6.89657C22.6661 6.67057 22.2168 6.5754 21.78 6.56351C21.3307 6.56351 20.8939 6.67057 20.482 6.83709C20.0702 7.00362 19.6833 7.24152 19.3213 7.50321L19.3089 7.49132C19.6583 7.21773 20.0452 6.96794 20.4571 6.78951C20.8689 6.61109 21.3182 6.48024 21.7925 6.46834C22.2543 6.46834 22.7285 6.56351 23.1279 6.78951C23.3276 6.90846 23.5148 7.0512 23.6646 7.21773C23.8143 7.39615 23.9267 7.59836 23.9891 7.82436C24.1139 8.26448 24.0639 8.75217 23.8019 9.1447C23.6646 9.33502 23.4774 9.50155 23.2652 9.59671C23.053 9.70376 22.8284 9.77514 22.6037 9.82272C21.7051 10.0368 20.7566 10.0368 19.858 9.85839L19.9454 9.66808C20.7316 10.1915 21.1435 11.1312 21.0187 12.0352C20.9813 12.2612 20.9189 12.4753 20.819 12.6894C20.7192 12.8916 20.5819 13.0819 20.4196 13.2484C20.1076 13.5815 19.6958 13.8313 19.2465 13.974C18.7972 14.1049 18.3104 14.1287 17.8486 13.9978C17.3869 13.8789 16.9875 13.5458 16.8003 13.1176C16.7129 12.9035 16.663 12.6894 16.638 12.4634C16.6131 12.2374 16.6256 12.0233 16.6505 11.7973C16.7004 11.3572 16.8128 10.9408 16.9625 10.5245L17.0374 10.5959C16.0764 10.8695 15.0405 10.8457 14.1045 10.5483C13.8674 10.4769 13.6427 10.3818 13.4181 10.2747C13.2059 10.1677 12.9812 10.0487 12.794 9.90598C12.5944 9.77513 12.4071 9.6086 12.2449 9.43018C12.0826 9.25175 11.9454 9.04954 11.858 8.82354C11.7831 8.59754 11.7582 8.34774 11.8081 8.10985C11.858 7.87195 12.0078 7.64594 12.2199 7.5151C12.4321 7.37236 12.6817 7.30099 12.9313 7.26531C13.1809 7.22962 13.4305 7.22962 13.6802 7.22962C14.6786 7.25341 15.6646 7.51509 16.5132 8.01468L16.3884 8.13363C16.1139 7.76489 15.9391 7.32477 15.8767 6.88466C15.8018 6.44455 15.8393 5.98065 15.9516 5.55244C16.0764 5.12422 16.2636 4.7079 16.5507 4.33916C16.8377 3.98231 17.2121 3.68494 17.649 3.50652C17.8736 3.42325 18.0983 3.36377 18.3479 3.36377C18.585 3.36377 18.8346 3.42324 19.0468 3.54219C19.2589 3.66114 19.4212 3.83958 19.5335 4.04179C19.6458 4.244 19.7082 4.46999 19.7332 4.6841C19.7582 4.91011 19.7582 5.13612 19.7332 5.35023C19.7082 5.57623 19.6583 5.79034 19.6084 6.00445C19.5086 6.43267 19.3962 6.86088 19.4087 7.28909L19.3713 7.31289Z" fill="#8C6239"/>
</svg>
