<svg width="47" height="24" viewBox="0 0 47 24" fill="none" xmlns="http://www.w3.org/2000/svg">
<path d="M12.9439 12.2936C10.7223 13.7427 7.51485 13.5495 5.49301 11.8589C5.31828 11.714 5.14356 11.5328 5.10611 11.3155C5.03123 10.8445 5.60533 10.5305 6.10455 10.4339C7.34013 10.2165 8.62562 10.4822 9.79878 10.929C10.972 11.3758 12.0702 11.9917 13.206 12.511" fill="#C0C37C"/>
<path d="M12.9439 12.3056C11.7458 13.1751 10.1732 13.5011 8.68804 13.3079C7.93921 13.2113 7.22782 12.9577 6.57883 12.6196C6.41659 12.5351 6.25434 12.4505 6.10458 12.3418L5.86744 12.1969L5.64279 12.0279C5.49303 11.9192 5.34326 11.8105 5.21845 11.6656C5.09365 11.5328 5.00629 11.3275 5.03125 11.1343C5.05621 10.929 5.1935 10.772 5.35574 10.6512C5.50551 10.5305 5.69272 10.4459 5.86744 10.3976C6.24186 10.301 6.61627 10.2648 6.99069 10.2527C7.73952 10.2406 8.50083 10.3735 9.19974 10.6029C10.635 11.0497 11.8831 11.8347 13.1935 12.4988L13.181 12.523C11.8082 11.9675 10.5227 11.255 9.12485 10.8203C8.42595 10.615 7.71456 10.4701 6.97821 10.458C6.61628 10.458 6.24186 10.4822 5.90488 10.5667C5.73016 10.615 5.56791 10.6754 5.43062 10.772C5.29334 10.8686 5.16854 11.0014 5.14357 11.1584C5.11861 11.3154 5.16853 11.4845 5.28086 11.6173C5.39318 11.7501 5.53047 11.8709 5.68023 11.9796L5.89241 12.1486L6.11705 12.2935C6.26682 12.4022 6.42906 12.4747 6.59131 12.5592C7.2403 12.8853 7.96417 13.0664 8.68804 13.1388C10.1358 13.2958 11.6334 13.0302 12.9065 12.3056H12.9439Z" fill="#8C6239"/>
<path d="M13.0687 12.0644C10.947 10.3014 10.0235 7.28242 10.8222 4.68611C10.972 4.20308 11.284 3.65967 11.7957 3.65967C11.9829 3.65967 12.1576 3.72006 12.3199 3.80459C13.0063 4.16686 13.5055 4.8431 13.6303 5.5918C13.7052 6.05068 13.6428 6.52164 13.5804 6.98052C13.3682 8.62283 13.1561 10.2652 12.9439 11.8954C12.9189 12.0886 12.9189 12.3422 13.1061 12.4388" fill="#C0C37C"/>
<path d="M13.0562 12.0642C11.7458 11.0619 10.8472 9.54034 10.5726 7.93425C10.4977 7.53575 10.4853 7.12518 10.4728 6.7146C10.4853 6.30402 10.5102 5.90552 10.5851 5.50701L10.6475 5.20512C10.6725 5.10851 10.6974 5.0119 10.7224 4.9153C10.7723 4.72208 10.8222 4.51679 10.9096 4.33565C10.997 4.15451 11.1093 3.97338 11.259 3.8164C11.4213 3.67149 11.6335 3.57488 11.8706 3.58695C12.0952 3.59903 12.2949 3.69564 12.4821 3.80433C12.6693 3.91301 12.8441 4.04584 12.9938 4.19075C13.2934 4.49264 13.5305 4.85492 13.6553 5.25342C13.7801 5.664 13.7926 6.08665 13.7552 6.49723C13.7177 6.9078 13.6553 7.30631 13.6054 7.70481C13.5055 8.50181 13.3807 9.29882 13.2684 10.1079L13.0812 11.3034L12.9814 11.8951C12.9689 11.9917 12.9564 12.0883 12.9689 12.1849C12.9814 12.2815 13.0188 12.3782 13.1186 12.4265L13.1062 12.4506C13.0063 12.4144 12.9439 12.3057 12.919 12.197C12.894 12.0883 12.894 11.9917 12.9065 11.883L12.9689 11.2793L13.0937 10.0717C13.1811 9.27466 13.2684 8.4656 13.3807 7.66859L13.5305 6.47308C13.5679 6.07458 13.5804 5.68815 13.4681 5.3138C13.3558 4.93945 13.1561 4.60132 12.8815 4.3115C12.7442 4.16659 12.5945 4.04584 12.4197 3.93716C12.245 3.82847 12.0703 3.73186 11.8831 3.70771C11.6959 3.68356 11.4962 3.75602 11.3464 3.88885C11.1966 4.02168 11.0843 4.19075 10.997 4.37188C10.9096 4.55302 10.8597 4.74623 10.7973 4.93944C10.7349 5.13265 10.7099 5.32587 10.6725 5.53116C10.5352 6.32816 10.5976 7.13725 10.7598 7.91011C11.0718 9.47997 11.8706 10.9411 13.0812 12.0521L13.0562 12.0642Z" fill="#8C6239"/>
<path d="M6.7286 7.45139C4.17009 7.34271 1.71143 5.97814 0.338574 3.88902C0.201289 3.68373 0.0764821 3.47844 0.0640016 3.23692C0.0140795 2.71766 0.513299 2.25879 1.03748 2.17426C1.57414 2.08973 2.1108 2.29501 2.57258 2.57275C4.43218 3.70788 5.26838 5.89361 6.7286 7.48762" fill="#C0C37C"/>
<path d="M6.72859 7.46311C5.20597 7.47518 3.67086 6.98008 2.42281 6.11062C1.79879 5.67589 1.26212 5.14455 0.787861 4.56491C0.675537 4.42 0.55073 4.27509 0.450886 4.11811C0.338561 3.96112 0.226237 3.81621 0.138873 3.64715C0.0515093 3.47808 -0.0108902 3.28487 0.00159029 3.09166C0.0140708 2.89845 0.101433 2.70523 0.226238 2.56032C0.463368 2.25843 0.875228 2.06522 1.2746 2.06522C1.67398 2.05314 2.06087 2.18597 2.41033 2.36711C3.09676 2.72939 3.67086 3.24864 4.1576 3.82828C5.13108 4.98756 5.78007 6.32797 6.72859 7.47518L6.71611 7.48727C5.65526 6.42459 4.9314 5.09624 3.98288 3.97319C3.49614 3.4177 2.95947 2.91052 2.32296 2.54825C1.99847 2.37919 1.64902 2.24636 1.28708 2.23428C0.925147 2.2222 0.575696 2.3671 0.338566 2.63277C0.226241 2.76561 0.138879 2.9226 0.113918 3.10373C0.0889569 3.2728 0.138874 3.45393 0.226238 3.61091C0.301121 3.7679 0.413449 3.92489 0.525773 4.08187C0.625618 4.23886 0.750424 4.37169 0.862749 4.5166C1.33701 5.08416 1.92359 5.55512 2.54762 5.9657C3.78319 6.78686 5.23093 7.30612 6.74107 7.45103L6.72859 7.46311Z" fill="#8C6239"/>
<path d="M12.1325 7.11311C12.2823 8.55013 12.2574 10.1683 12.6068 11.6053C11.9703 11.1464 11.3338 10.6876 10.6973 10.2287C7.87669 8.17579 5.05609 6.13498 2.16062 4.17869C2.12317 4.15454 2.08573 4.21492 2.12318 4.23907C4.96873 6.4731 7.86421 8.62259 10.7722 10.7962C11.4212 11.2793 12.0577 11.7623 12.6942 12.2453C10.9843 12.2936 9.27451 12.197 7.58964 12.0401C7.57716 12.0401 7.57716 12.0521 7.58964 12.0521C9.36187 12.4023 11.1091 12.4869 12.9188 12.4144C13.6177 12.9457 14.3166 13.4771 15.0155 14.0084C16.326 15.0107 17.6989 16.3511 19.209 17.0274C19.4337 17.124 19.5959 16.8825 19.4461 16.7134C18.3478 15.4454 16.5881 14.4794 15.2152 13.4892C14.5288 12.994 13.8424 12.4989 13.156 12.0159C13.1435 10.4098 12.5694 8.67089 12.2449 7.11311C12.2199 7.04065 12.1325 7.06481 12.1325 7.11311Z" fill="#8C6239"/>
<path d="M22.5039 16.194C22.0796 18.9956 19.8331 21.3625 17.1123 22.4252C14.3916 23.4878 11.2964 23.3671 8.48828 22.5338C9.21215 21.4953 9.97347 20.481 10.7847 19.5028C11.3089 18.8628 11.8705 18.2228 12.5195 17.6914C15.1903 15.5178 19.0842 15.4453 22.4789 16.2061" fill="#899B73"/>
<path d="M22.504 16.1938C22.4042 16.8942 22.192 17.5825 21.88 18.2346C21.568 18.8746 21.1562 19.4784 20.6819 20.0218C19.7209 21.0966 18.4853 21.9539 17.1249 22.4853C15.7521 23.0045 14.2794 23.2219 12.8067 23.2219C11.334 23.2098 9.87377 22.9925 8.47595 22.5819L8.42603 22.5698L8.45099 22.5336C9.22478 21.3985 10.0485 20.2875 10.9346 19.2369C11.3714 18.7055 11.8457 18.1863 12.3823 17.7395C12.9315 17.2927 13.5181 16.9183 14.1671 16.6285L14.6538 16.4232C14.8161 16.3628 14.9908 16.3145 15.153 16.2541C15.3153 16.1938 15.49 16.1575 15.6647 16.1092L15.9268 16.0489L16.1889 16.0006C16.5384 15.9281 16.8878 15.8798 17.2373 15.8436L17.7614 15.8073C17.9362 15.7953 18.1109 15.7953 18.2856 15.7832C18.9845 15.7711 19.6959 15.7953 20.3948 15.8798C21.0938 15.9643 21.7927 16.0851 22.4666 16.2541V16.2662C21.0937 15.9885 19.6834 15.8194 18.2856 15.8677C18.1109 15.8798 17.9362 15.8798 17.7614 15.8919L17.2373 15.9402C16.8878 15.9885 16.5384 16.0368 16.2014 16.1092C15.515 16.2541 14.8535 16.4594 14.217 16.7493C13.5805 17.0391 13.0064 17.4134 12.4697 17.8482C11.9455 18.2829 11.4713 18.8022 11.0345 19.3214C10.1483 20.372 9.29966 21.4709 8.51339 22.594L8.48843 22.5457C9.88625 22.9562 11.3465 23.2098 12.8067 23.2098C14.2669 23.2098 15.7396 22.9562 17.0875 22.4249C17.7615 22.1592 18.398 21.809 18.997 21.4105C19.5961 20.9999 20.1327 20.529 20.6195 19.9977C21.568 18.8988 22.2669 17.5946 22.504 16.1938Z" fill="#8C6239"/>
<path d="M10.2356 22.1474C10.4478 22.1353 10.6599 22.0749 10.8721 22.0146C11.0843 21.9542 11.3089 21.8817 11.5211 21.7972C11.9579 21.6402 12.3822 21.4591 12.7941 21.2417C13.6677 20.7949 14.4415 20.179 15.3027 19.7081C16.8003 18.899 18.4727 18.428 20.0453 17.7639C20.9064 17.4016 21.7926 16.9789 22.5039 16.3872C22.5414 16.351 22.4915 16.2906 22.4415 16.3268C21.7426 16.8099 21.0188 17.2205 20.2325 17.5707C19.4712 17.9088 18.6724 18.1865 17.8861 18.4763C17.0999 18.7662 16.3011 19.0801 15.5523 19.4666C14.6911 19.9013 13.9423 20.493 13.1186 20.964C12.6693 21.2176 12.2075 21.447 11.7208 21.6402C11.4712 21.7368 11.2091 21.8334 10.947 21.918C10.7099 21.9904 10.4602 22.0387 10.2356 22.1474Z" fill="#8C6239"/>
<path d="M27.7208 16.1936C30.2044 14.6962 33.5368 14.829 36.1202 16.1573C38.7162 17.4857 40.6132 19.8525 41.7739 22.4609C40.4884 22.5938 39.1904 22.6904 37.8924 22.7266C37.0438 22.7507 36.1826 22.7507 35.3464 22.6179C31.9143 22.0503 29.3433 19.2125 27.7458 16.2177" fill="#899B73"/>
<path d="M27.7208 16.1936C28.3324 15.8072 29.0188 15.5174 29.7302 15.3362C30.4416 15.1551 31.1779 15.0706 31.9143 15.0706C33.387 15.0826 34.8597 15.4449 36.1577 16.1212C37.4556 16.7974 38.5789 17.7514 39.5274 18.8382C40.4634 19.925 41.2372 21.1568 41.8238 22.4489L41.8488 22.4972H41.7989C40.401 22.6542 38.9907 22.7629 37.5929 22.787C36.894 22.7991 36.1826 22.787 35.4712 22.6904C34.7723 22.5696 34.0859 22.3764 33.4369 22.0866L32.9626 21.8572C32.8129 21.7727 32.6631 21.6881 32.5009 21.6036C32.3511 21.519 32.2013 21.4104 32.0516 21.3258L31.8394 21.1809L31.6272 21.0239C31.3402 20.8187 31.0906 20.5892 30.8285 20.3598L30.4541 19.9975C30.3293 19.8767 30.2169 19.7439 30.0921 19.6232C29.6303 19.116 29.1935 18.5726 28.8066 18.005C28.4197 17.4374 28.0703 16.8457 27.7583 16.2298H27.7708C28.4322 17.4253 29.2185 18.5726 30.1545 19.5748C30.2793 19.6956 30.3917 19.8284 30.5165 19.9492L30.8909 20.2994C31.153 20.5288 31.4151 20.7462 31.6896 20.9515C32.2513 21.3621 32.8378 21.7243 33.4743 22.0021C34.1109 22.2798 34.7848 22.473 35.4712 22.5938C36.1577 22.7025 36.869 22.7146 37.568 22.7025C38.9783 22.6783 40.3761 22.5938 41.7739 22.4489L41.7489 22.4972C41.1748 21.193 40.426 19.9613 39.49 18.8744C38.5539 17.7876 37.4057 16.8699 36.1077 16.2178C35.4587 15.8917 34.7723 15.6381 34.0734 15.4691C33.3745 15.2879 32.6382 15.1913 31.9143 15.1792C30.4541 15.143 28.9814 15.4691 27.7208 16.1936Z" fill="#8C6239"/>
<path d="M40.3386 21.4103C40.1888 21.2533 40.0016 21.1447 39.8269 21.036C39.6396 20.9152 39.44 20.8065 39.2403 20.6979C38.8284 20.4805 38.4166 20.2752 37.9797 20.1062C37.0562 19.7439 36.0702 19.5748 35.1467 19.2367C33.5367 18.657 32.0889 17.7272 30.5538 16.9906C29.7052 16.5921 28.8066 16.2057 27.883 16.0607C27.8331 16.0487 27.8206 16.1332 27.8705 16.1453C28.7067 16.3506 29.493 16.6162 30.2793 16.9785C31.0406 17.3287 31.7769 17.7272 32.5133 18.1257C33.2621 18.5242 34.0109 18.9106 34.7972 19.2125C35.6958 19.5627 36.6443 19.7439 37.5554 20.0458C38.0421 20.2148 38.5289 20.408 38.9907 20.6375C39.2403 20.7582 39.4774 20.8911 39.7145 21.0239C39.9017 21.1688 40.1014 21.3258 40.3386 21.4103C40.3386 21.4224 40.3386 21.4224 40.3386 21.4103Z" fill="#8C6239"/>
<path d="M33.6616 10.82C32.6506 8.41693 33.4993 5.42211 35.6335 3.85226C35.8207 3.71942 36.0328 3.58659 36.27 3.59867C36.7692 3.62282 36.9689 4.23869 36.9564 4.72172C36.9314 5.94138 36.3948 7.10066 35.7084 8.1271C35.0219 9.14147 34.1608 10.0592 33.3995 11.0253" fill="#C0C37C"/>
<path d="M33.6491 10.8197C33.025 9.51549 33.0001 7.94564 33.5118 6.58107C33.7614 5.89275 34.1732 5.27688 34.635 4.72139C34.7598 4.58855 34.8722 4.44364 35.0094 4.32288L35.2091 4.12967L35.4213 3.94853C35.5586 3.82777 35.6959 3.70702 35.8706 3.62249C36.0328 3.52588 36.2575 3.48964 36.4447 3.55002C36.6444 3.62248 36.7817 3.77947 36.869 3.94853C36.9564 4.11759 37.0063 4.29873 37.0188 4.49194C37.0438 4.86629 37.0063 5.22857 36.9314 5.59084C36.7817 6.30332 36.4946 6.99164 36.1202 7.61959C35.3714 8.88755 34.323 9.91399 33.387 11.0129L33.3745 11.0008C34.2107 9.81739 35.2091 8.74264 35.9205 7.5109C36.27 6.89503 36.5695 6.24295 36.7193 5.55462C36.7942 5.2165 36.8441 4.85421 36.8316 4.51609C36.8191 4.34703 36.7817 4.17797 36.7193 4.02098C36.6569 3.864 36.5445 3.73116 36.3948 3.67078C36.245 3.6104 36.0578 3.63456 35.908 3.70702C35.7458 3.77947 35.6085 3.90023 35.4587 4.00891L35.2466 4.17798L35.0469 4.35911C34.9096 4.47987 34.7973 4.62477 34.6849 4.75761C34.2232 5.31309 33.8987 5.95311 33.674 6.62936C33.2247 7.96978 33.1748 9.44303 33.6615 10.7955L33.6491 10.8197Z" fill="#8C6239"/>
<path d="M33.8738 10.9886C36.0953 9.33424 39.3403 9.08064 41.7989 10.3728C42.2482 10.6143 42.735 11.0128 42.6476 11.5079C42.6102 11.6769 42.5103 11.8339 42.3855 11.9668C41.8863 12.5464 41.0875 12.8725 40.3137 12.8362C39.827 12.8121 39.3652 12.6551 38.9159 12.5102C37.3059 11.9668 35.6835 11.4354 34.0735 10.892C33.8738 10.8316 33.6242 10.7713 33.4994 10.9403" fill="#C0C37C"/>
<path d="M33.8612 10.9768C35.1467 9.93831 36.869 9.3949 38.5539 9.46736C38.9782 9.47943 39.3901 9.53982 39.8019 9.62435C40.2138 9.72095 40.6132 9.82964 41.0001 9.98662L41.2871 10.1074C41.387 10.1436 41.4743 10.1919 41.5742 10.2402C41.7614 10.3247 41.9486 10.4213 42.1233 10.5421C42.298 10.6629 42.4478 10.8078 42.5726 10.9768C42.6849 11.158 42.7348 11.3874 42.6724 11.6048C42.61 11.8222 42.4728 11.9912 42.323 12.1361C42.1732 12.2931 42.011 12.4259 41.8238 12.5346C41.4618 12.7641 41.0375 12.909 40.6132 12.9452C40.1763 12.9814 39.7395 12.8969 39.3401 12.7882C38.9283 12.6675 38.5539 12.5225 38.1545 12.4018C37.3682 12.1361 36.5819 11.8705 35.7957 11.5927L34.6225 11.1701L34.0359 10.9527C33.9361 10.9165 33.8487 10.8923 33.7364 10.8802C33.6365 10.8682 33.5367 10.8923 33.4618 10.9648L33.4493 10.9527C33.5117 10.8682 33.6365 10.8319 33.7364 10.8319C33.8487 10.8319 33.9486 10.8561 34.0484 10.8802L34.6475 11.0614L35.8456 11.4236C36.6444 11.6772 37.4306 11.9187 38.2169 12.1844L39.4025 12.5709C39.7894 12.6916 40.1888 12.7761 40.5882 12.7399C40.9876 12.7158 41.3745 12.595 41.7239 12.3897C41.8987 12.2931 42.0609 12.1724 42.1982 12.0274C42.3355 11.8946 42.4728 11.7376 42.5352 11.5565C42.5976 11.3753 42.5601 11.1821 42.4603 11.0131C42.3604 10.844 42.2107 10.6991 42.0484 10.5904C41.8862 10.4697 41.699 10.373 41.5118 10.2885C41.3245 10.1919 41.1373 10.1195 40.9376 10.047C40.1639 9.75718 39.3277 9.64849 38.5039 9.64849C36.8565 9.62434 35.2091 10.0832 33.8362 10.9889L33.8612 10.9768Z" fill="#8C6239"/>
<path d="M39.827 5.92906C40.451 3.52597 42.348 1.47308 44.7443 0.603619C44.9689 0.519088 45.2185 0.446621 45.4682 0.470773C46.0048 0.531152 46.3668 1.08664 46.3418 1.61798C46.3168 2.13724 45.9923 2.6082 45.6179 2.98255C44.0953 4.51618 41.7115 4.8543 39.802 5.9049" fill="#C0C37C"/>
<path d="M39.8144 5.92903C40.1264 4.47993 40.9251 3.12743 42.0609 2.12514C42.635 1.63003 43.284 1.21944 43.9704 0.893397C44.1451 0.808866 44.3198 0.736423 44.4946 0.663968C44.6693 0.591513 44.844 0.519046 45.0312 0.470743C45.2185 0.42244 45.4181 0.398291 45.6178 0.45867C45.8175 0.506973 45.9798 0.627729 46.117 0.772639C46.3791 1.06246 46.4915 1.48512 46.4041 1.87155C46.3292 2.25798 46.117 2.59609 45.8674 2.88591C45.3557 3.46555 44.7192 3.90029 44.0328 4.23841C42.6475 4.92673 41.1623 5.26486 39.8144 5.92903L39.7894 5.90487C41.0874 5.11994 42.5726 4.70936 43.908 4.03311C44.5695 3.69499 45.1935 3.28441 45.6927 2.75308C45.9298 2.48741 46.1295 2.17344 46.2169 1.83532C46.3043 1.49719 46.2294 1.13492 46.0172 0.857178C45.9049 0.724344 45.7676 0.603586 45.5929 0.555283C45.4181 0.494903 45.2309 0.506979 45.0562 0.555283C44.8815 0.59151 44.6943 0.663965 44.5195 0.73642C44.3448 0.796799 44.1701 0.881333 44.0078 0.965864C43.3339 1.29191 42.7348 1.76286 42.1982 2.25797C41.1124 3.26027 40.3011 4.52823 39.8393 5.92903H39.8144Z" fill="#8C6239"/>
<path d="M39.0656 11.1216C37.5804 10.9646 35.9455 10.6144 34.4229 10.6385C35.0219 10.1313 35.621 9.62417 36.2076 9.11698C38.8659 6.8588 41.5118 4.61269 44.0828 2.26998C44.1077 2.24582 44.0703 2.19752 44.0329 2.22167C41.1873 4.4557 38.4166 6.76219 35.6335 9.06867C35.0095 9.57586 34.3979 10.083 33.7739 10.5902C34.0734 8.95999 34.5227 7.36599 35.0344 5.79613C35.0344 5.78405 35.0219 5.78404 35.0219 5.78404C34.2981 7.39013 33.8612 9.03245 33.5617 10.7593C32.8878 11.3148 32.2013 11.8582 31.5149 12.4137C30.2419 13.4522 28.5945 14.4666 27.596 15.7587C27.4463 15.9519 27.6709 16.1572 27.8706 16.0485C29.3807 15.2636 30.7162 13.8024 31.9892 12.7035C32.6257 12.1601 33.2622 11.6046 33.8987 11.0612C35.5336 11.3872 37.3932 11.194 39.0531 11.2061C39.128 11.2182 39.128 11.1216 39.0656 11.1216Z" fill="#8C6239"/>
<path d="M30.2544 3.99695C30.2294 3.35693 30.4541 2.72898 30.5414 2.10103C30.6288 1.46101 30.5289 0.736468 30.0048 0.337966C29.206 -0.265826 27.9954 0.337975 27.4213 1.14706C26.6725 2.2218 26.5477 3.74335 27.3215 4.8181C26.348 4.22638 25.1873 3.94864 24.0516 4.00902C23.6771 4.03317 23.2778 4.10563 23.0032 4.34715C22.6787 4.64905 22.6163 5.15623 22.7661 5.56681C22.9158 5.97738 23.2403 6.30342 23.6023 6.56909C24.8004 7.4627 26.4603 7.74045 27.8956 7.29364C27.5336 8.38046 27.2965 9.80542 28.2575 10.4696C28.5071 10.6387 28.8191 10.7353 29.1186 10.7594C30.1795 10.8681 31.2778 10.2039 31.6522 9.23786C32.0266 8.25972 31.6272 7.07628 30.7411 6.48457C31.6272 6.6657 32.5508 6.65363 33.4244 6.46042C33.7489 6.38796 34.0859 6.27927 34.348 6.07398C34.9595 5.57888 34.9845 4.58867 34.4977 3.98487C34.011 3.36901 33.1374 3.12749 32.3386 3.22409C31.5399 3.3207 30.816 3.7192 30.192 4.20223" fill="white"/>
<path d="M30.2419 3.9971C30.192 3.10349 30.6288 2.23402 30.4915 1.36456C30.454 1.14719 30.3916 0.941906 30.2918 0.760768C30.192 0.579631 30.0297 0.422651 29.8425 0.313969C29.6553 0.205286 29.4431 0.156974 29.2185 0.16905C29.0063 0.181126 28.7817 0.229438 28.582 0.313969C28.1701 0.48303 27.8207 0.772847 27.5586 1.11097C27.2965 1.46117 27.1093 1.85967 26.9969 2.28232C26.8971 2.70497 26.8597 3.13971 26.9221 3.57444C26.972 3.9971 27.1467 4.41975 27.3838 4.76995L27.621 5.10807L27.259 4.89071C26.4478 4.3956 25.4868 4.0937 24.5133 4.05748C24.2762 4.0454 24.0266 4.04539 23.7894 4.08162C23.5523 4.10577 23.3152 4.16616 23.1155 4.29899C22.9158 4.43183 22.791 4.63711 22.7411 4.85448C22.6912 5.08392 22.7036 5.31335 22.7785 5.54279C22.9283 5.9896 23.2902 6.3398 23.6896 6.60547C23.8893 6.75038 24.1015 6.85906 24.3136 6.97982C24.5383 7.07643 24.7629 7.17304 24.9876 7.2455C25.9111 7.53532 26.9345 7.53532 27.8581 7.2455L27.9704 7.20926L27.933 7.31795C27.7957 7.72853 27.6958 8.15118 27.6459 8.58591C27.6334 8.80328 27.621 9.02063 27.6459 9.22592C27.6709 9.43121 27.7208 9.64858 27.8082 9.82971C27.9829 10.2041 28.3324 10.4939 28.7442 10.6026C29.1561 10.7233 29.6054 10.6992 30.0172 10.5663C30.4291 10.4335 30.8035 10.2041 31.0905 9.87802C31.2278 9.72103 31.3526 9.55198 31.4525 9.35877C31.5398 9.16555 31.6023 8.97234 31.6272 8.76705C31.752 7.94589 31.3651 7.05227 30.6537 6.56924L30.2044 6.26734L30.7411 6.37603C31.6147 6.55717 32.5258 6.5451 33.3994 6.35188C33.6116 6.30358 33.8238 6.24319 34.0235 6.14658C34.2107 6.04998 34.3854 5.91715 34.4977 5.74809C34.7349 5.40997 34.7848 4.95108 34.6849 4.55258C34.635 4.34729 34.5352 4.15408 34.3979 3.9971C34.2606 3.82803 34.0984 3.6952 33.9111 3.57444C33.5367 3.345 33.0874 3.24839 32.6506 3.23631C32.2013 3.23631 31.7645 3.345 31.3526 3.51406C30.9408 3.68312 30.5539 3.92464 30.192 4.19031L30.1795 4.17823C30.5289 3.90049 30.9158 3.64689 31.3277 3.46576C31.7395 3.28462 32.1888 3.15179 32.6631 3.13972C33.1249 3.13972 33.5991 3.23632 33.9985 3.46576C34.1982 3.58652 34.3854 3.73142 34.5352 3.90048C34.6849 4.08162 34.7973 4.28691 34.8597 4.51635C34.9845 4.96315 34.9345 5.45827 34.6725 5.85678C34.5352 6.04999 34.348 6.21904 34.1358 6.31565C33.9236 6.42433 33.699 6.49679 33.4743 6.54509C32.5757 6.76246 31.6272 6.76246 30.7286 6.58133L30.816 6.3881C31.6023 6.91944 32.0141 7.87343 31.8893 8.79119C31.8519 9.02064 31.7895 9.238 31.6896 9.45537C31.5898 9.66065 31.4525 9.85388 31.2902 10.0229C30.9782 10.3611 30.5664 10.6147 30.1171 10.7596C29.6678 10.8924 29.181 10.9165 28.7192 10.7837C28.2575 10.6629 27.8581 10.3248 27.6709 9.89009C27.5835 9.67273 27.5336 9.45536 27.5086 9.22592C27.4837 8.99648 27.4962 8.77912 27.5211 8.54968C27.571 8.10287 27.6834 7.68022 27.8331 7.25757L27.908 7.33002C26.947 7.60777 25.9111 7.58361 24.9751 7.28172C24.738 7.20926 24.5133 7.11266 24.2887 7.00398C24.0765 6.8953 23.8518 6.77453 23.6646 6.62962C23.465 6.49678 23.2777 6.32772 23.1155 6.14658C22.9533 5.96545 22.816 5.76016 22.7286 5.53072C22.6537 5.30128 22.6288 5.04769 22.6787 4.80617C22.7286 4.56465 22.8784 4.33521 23.0905 4.20238C23.3027 4.05747 23.5523 3.98501 23.8019 3.96086C24.0515 3.92464 24.3012 3.92464 24.5508 3.92464C25.5492 3.9488 26.5352 4.21446 27.3838 4.72165L27.259 4.8424C26.9845 4.46805 26.8097 4.02125 26.7473 3.57444C26.6724 3.12764 26.7099 2.65667 26.8222 2.22194C26.947 1.78721 27.1342 1.36456 27.4213 0.990212C27.7083 0.627937 28.0827 0.326041 28.5196 0.144904C28.7442 0.0603733 28.9689 0 29.2185 0C29.4556 0 29.7052 0.0603791 29.9174 0.181137C30.1296 0.301896 30.2918 0.483027 30.4041 0.688316C30.5164 0.893605 30.5788 1.12305 30.6038 1.34041C30.6288 1.56985 30.6288 1.79929 30.6038 2.01666C30.5788 2.2461 30.5289 2.46346 30.479 2.68083C30.3792 3.11556 30.2668 3.55029 30.2793 3.98502L30.2419 3.9971Z" fill="#8C6239"/>
<path d="M26.273 12.7037C26.2481 12.0637 26.4727 11.4358 26.5601 10.8078C26.6475 10.1678 26.5476 9.44326 26.0234 9.04475C25.2247 8.44096 24.0141 9.04476 23.44 9.85384C22.6911 10.9286 22.5663 12.4501 23.3401 13.5249C22.3666 12.9332 21.206 12.6554 20.0702 12.7158C19.6958 12.74 19.2964 12.8124 19.0219 13.0539C18.6974 13.3558 18.635 13.863 18.7847 14.2736C18.9345 14.6842 19.259 15.0102 19.6209 15.2759C20.8191 16.1695 22.479 16.4472 23.9142 16.0004C23.5523 17.0873 23.3152 18.5122 24.2762 19.1764C24.5258 19.3454 24.8378 19.442 25.1373 19.4662C26.1982 19.5749 27.2965 18.9107 27.6709 17.9446C28.0453 16.9665 27.6459 15.7831 26.7598 15.1914C27.6459 15.3725 28.5695 15.3604 29.4431 15.1672C29.7676 15.0948 30.1046 14.9861 30.3667 14.7808C30.9782 14.2857 31.0032 13.2955 30.5164 12.6917C30.0297 12.0758 29.156 11.8343 28.3573 11.9309C27.5585 12.0275 26.8347 12.426 26.2106 12.909" fill="#FFE9AD"/>
<path d="M26.2606 12.7036C26.2106 11.81 26.6475 10.9406 26.5102 10.0711C26.4727 9.85374 26.4103 9.64845 26.3105 9.46731C26.2106 9.28617 26.0484 9.12919 25.8612 9.02051C25.674 8.91183 25.4618 8.86353 25.2372 8.87561C25.025 8.88768 24.8003 8.93598 24.6006 9.02051C24.1888 9.18957 23.8393 9.47939 23.5772 9.81751C23.3152 10.1677 23.1279 10.5662 23.0156 10.9889C22.9158 11.4115 22.8783 11.8463 22.9407 12.281C22.9907 12.7036 23.1654 13.1263 23.4025 13.4765L23.6396 13.8146L23.2777 13.5973C22.4665 13.1021 21.5055 12.8002 20.532 12.764C20.2949 12.7519 20.0453 12.7519 19.8081 12.7882C19.571 12.8123 19.3339 12.8727 19.1342 13.0055C18.9345 13.1384 18.8097 13.3437 18.7598 13.561C18.7098 13.7905 18.7223 14.0199 18.7972 14.2494C18.947 14.6962 19.3089 15.0463 19.7083 15.312C19.908 15.4569 20.1201 15.5656 20.3323 15.6864C20.557 15.783 20.7816 15.8796 21.0063 15.952C21.9298 16.2419 22.9532 16.2419 23.8768 15.952L23.9891 15.9158L23.9517 16.0245C23.8144 16.4351 23.7145 16.8577 23.6646 17.2925C23.6521 17.5098 23.6396 17.7272 23.6646 17.9325C23.6896 18.1378 23.7395 18.3551 23.8269 18.5363C24.0016 18.9106 24.351 19.2004 24.7629 19.3091C25.1748 19.4299 25.624 19.4057 26.0359 19.2729C26.4478 19.1401 26.8222 18.9106 27.1092 18.5846C27.2465 18.4276 27.3713 18.2585 27.4712 18.0653C27.5585 17.8721 27.6209 17.6789 27.6459 17.4736C27.7707 16.6524 27.3838 15.7588 26.6724 15.2758L26.2231 14.9739L26.7598 15.0826C27.6334 15.2637 28.5445 15.2516 29.4181 15.0584C29.6303 15.0101 29.8425 14.9497 30.0421 14.8531C30.2294 14.7565 30.4041 14.6237 30.5164 14.4546C30.7535 14.1165 30.8035 13.6576 30.7036 13.2591C30.6537 13.0538 30.5539 12.8606 30.4166 12.7036C30.2793 12.5346 30.117 12.4017 29.9298 12.281C29.5554 12.0515 29.1061 11.9549 28.6693 11.9429C28.22 11.9429 27.7832 12.0515 27.3713 12.2206C26.9595 12.3897 26.5726 12.6312 26.2106 12.8968L26.1982 12.8848C26.5476 12.607 26.9345 12.3534 27.3464 12.1723C27.7582 11.9912 28.2075 11.8583 28.6818 11.8463C29.1435 11.8463 29.6178 11.9429 30.0172 12.1723C30.2169 12.2931 30.4041 12.438 30.5538 12.607C30.7036 12.7882 30.8159 12.9935 30.8783 13.2229C31.0032 13.6697 30.9532 14.1648 30.6911 14.5633C30.5539 14.7565 30.3666 14.9256 30.1545 15.0222C29.9423 15.1309 29.7177 15.2033 29.493 15.2516C28.5944 15.469 27.6459 15.469 26.7473 15.2879L26.8347 15.0947C27.6209 15.626 28.0328 16.58 27.908 17.4977C27.8705 17.7272 27.8081 17.9445 27.7083 18.1619C27.6084 18.3672 27.4712 18.5604 27.3089 18.7295C26.9969 19.0676 26.585 19.3212 26.1357 19.4661C25.6865 19.5989 25.1997 19.6231 24.7379 19.4902C24.2762 19.3695 23.8768 19.0314 23.6896 18.5967C23.6022 18.3793 23.5523 18.1619 23.5273 17.9325C23.5024 17.703 23.5148 17.4857 23.5398 17.2562C23.5897 16.8094 23.702 16.3868 23.8518 15.9641L23.9267 16.0366C22.9657 16.3143 21.9298 16.2902 20.9938 15.9883C20.7566 15.9158 20.532 15.8192 20.3073 15.7105C20.0952 15.6018 19.8705 15.4811 19.6833 15.3362C19.4836 15.2033 19.2964 15.0343 19.1342 14.8531C18.9719 14.672 18.8346 14.4667 18.7473 14.2373C18.6724 14.0078 18.6474 13.7542 18.6974 13.5127C18.7473 13.2712 18.897 13.0418 19.1092 12.9089C19.3214 12.764 19.571 12.6916 19.8206 12.6674C20.0702 12.6312 20.3198 12.6312 20.5694 12.6312C21.5679 12.6553 22.5538 12.921 23.4025 13.4282L23.2777 13.5489C23.0031 13.1746 22.8284 12.7278 22.766 12.281C22.6911 11.8342 22.7286 11.3632 22.8409 10.9285C22.9657 10.4938 23.1529 10.0711 23.44 9.69676C23.727 9.33448 24.1014 9.03258 24.5382 8.85145C24.7629 8.76692 24.9875 8.70654 25.2372 8.70654C25.4743 8.70654 25.7239 8.76692 25.9361 8.88768C26.1482 9.00844 26.3105 9.18957 26.4228 9.39486C26.5351 9.60015 26.5975 9.82959 26.6225 10.047C26.6474 10.2764 26.6474 10.5058 26.6225 10.7232C26.5975 10.9526 26.5476 11.17 26.4977 11.3874C26.3978 11.8221 26.2855 12.2568 26.298 12.6916L26.2606 12.7036Z" fill="#8C6239"/>
<path d="M19.3839 6.82263C19.3589 6.18262 19.5836 5.55466 19.6709 4.92672C19.7583 4.2867 19.6585 3.56215 19.1343 3.16365C18.3355 2.55986 17.1249 3.16365 16.5508 3.97273C15.802 5.04748 15.6772 6.56903 16.451 7.64378C15.4775 7.05207 14.3168 6.77433 13.1811 6.83471C12.8067 6.85886 12.4073 6.93131 12.1327 7.17282C11.8082 7.47472 11.7458 7.98191 11.8956 8.39249C12.0453 8.80307 12.3698 9.12911 12.7318 9.39478C13.9299 10.2884 15.5898 10.5661 17.0251 10.1193C16.6631 11.2062 16.426 12.6311 17.387 13.2953C17.6366 13.4643 17.9486 13.5609 18.2482 13.5851C19.309 13.6938 20.4073 13.0296 20.7817 12.0635C21.1561 11.0854 20.7567 9.90197 19.8706 9.31025C20.7567 9.49139 21.6803 9.47931 22.5539 9.28609C22.8784 9.21364 23.2154 9.10496 23.4775 8.89967C24.089 8.40456 24.114 7.41434 23.6273 6.81055C23.1405 6.19468 22.2669 5.95317 21.4681 6.04978C20.6694 6.14639 19.9455 6.54488 19.3215 7.02792" fill="white"/>
<path d="M19.3713 6.82291C19.3214 5.92929 19.7582 5.05983 19.6209 4.19037C19.5834 3.973 19.521 3.76771 19.4212 3.58658C19.3213 3.40544 19.1591 3.24846 18.9719 3.13978C18.7847 3.03109 18.5725 2.98278 18.3479 2.99486C18.1357 3.00693 17.9111 3.05525 17.7114 3.13978C17.2995 3.30884 16.9501 3.59866 16.688 3.93678C16.4259 4.28698 16.2387 4.68547 16.1263 5.10813C16.0265 5.53078 15.989 5.96552 16.0515 6.40025C16.1014 6.82291 16.2761 7.24555 16.5132 7.59575L16.7504 7.93388L16.3884 7.71651C15.5772 7.2214 14.6162 6.91951 13.6427 6.88328C13.4056 6.87121 13.156 6.8712 12.9188 6.90743C12.6817 6.93158 12.4446 6.99197 12.2449 7.1248C12.0452 7.25764 11.9204 7.46292 11.8705 7.68029C11.8206 7.90973 11.833 8.13916 11.9079 8.3686C12.0577 8.81541 12.4196 9.16561 12.819 9.43128C13.0187 9.57619 13.2309 9.68487 13.443 9.80563C13.6677 9.90224 13.8923 9.99884 14.117 10.0713C15.0405 10.3611 16.0639 10.3611 16.9875 10.0713L17.0998 10.0351L17.0624 10.1438C16.9251 10.5543 16.8252 10.977 16.7753 11.4117C16.7628 11.6291 16.7504 11.8464 16.7753 12.0517C16.8003 12.257 16.8502 12.4744 16.9376 12.6555C17.1123 13.0299 17.4618 13.3197 17.8736 13.4284C18.2855 13.5491 18.7348 13.525 19.1466 13.3921C19.5585 13.2593 19.9329 13.0299 20.2199 12.7038C20.3572 12.5468 20.482 12.3778 20.5819 12.1846C20.6692 11.9913 20.7316 11.7981 20.7566 11.5929C20.8814 10.7717 20.4945 9.87808 19.7831 9.39505L19.3338 9.09315L19.8705 9.20184C20.7441 9.38298 21.6552 9.37091 22.5288 9.17769C22.741 9.12939 22.9532 9.069 23.1529 8.97239C23.3401 8.87579 23.5148 8.74296 23.6271 8.5739C23.8643 8.23578 23.9142 7.77689 23.8143 7.37839C23.7644 7.1731 23.6646 6.97989 23.5273 6.82291C23.39 6.65384 23.2277 6.52101 23.0405 6.40025C22.6661 6.17081 22.2168 6.0742 21.78 6.06212C21.3307 6.06212 20.8939 6.17081 20.482 6.33987C20.0702 6.50893 19.6833 6.75045 19.3213 7.01612L19.3089 7.00404C19.6583 6.7263 20.0452 6.4727 20.4571 6.29157C20.8689 6.11043 21.3182 5.97759 21.7925 5.96551C22.2543 5.96551 22.7285 6.06212 23.1279 6.29157C23.3276 6.41232 23.5148 6.55723 23.6646 6.72629C23.8143 6.90743 23.9267 7.11272 23.9891 7.34216C24.1139 7.78896 24.0639 8.28407 23.8019 8.68257C23.6646 8.87578 23.4774 9.04485 23.2652 9.14146C23.053 9.25014 22.8284 9.3226 22.6037 9.3709C21.7051 9.58827 20.7566 9.58826 19.858 9.40712L19.9454 9.21391C20.7316 9.74525 21.1435 10.6992 21.0187 11.617C20.9813 11.8464 20.9189 12.0638 20.819 12.2812C20.7192 12.4865 20.5819 12.6797 20.4196 12.8487C20.1076 13.1869 19.6958 13.4405 19.2465 13.5854C18.7972 13.7182 18.3104 13.7423 17.8486 13.6095C17.3869 13.4888 16.9875 13.1506 16.8003 12.7159C16.7129 12.4985 16.663 12.2812 16.638 12.0517C16.6131 11.8223 16.6256 11.6049 16.6505 11.3755C16.7004 10.9287 16.8128 10.506 16.9625 10.0834L17.0374 10.1558C16.0764 10.4336 15.0405 10.4094 14.1045 10.1075C13.8674 10.0351 13.6427 9.93846 13.4181 9.82978C13.2059 9.72109 12.9812 9.60034 12.794 9.45543C12.5944 9.32259 12.4071 9.15353 12.2449 8.97239C12.0826 8.79126 11.9454 8.58597 11.858 8.35653C11.7831 8.12709 11.7582 7.8735 11.8081 7.63198C11.858 7.39046 12.0078 7.16102 12.2199 7.02819C12.4321 6.88328 12.6817 6.81083 12.9313 6.7746C13.1809 6.73837 13.4305 6.73837 13.6802 6.73837C14.6786 6.76252 15.6646 7.02818 16.5132 7.53537L16.3884 7.65613C16.1139 7.28177 15.9391 6.83497 15.8767 6.38816C15.8018 5.94136 15.8393 5.47041 15.9516 5.03568C16.0764 4.60095 16.2636 4.1783 16.5507 3.80395C16.8377 3.44167 17.2121 3.13978 17.649 2.95864C17.8736 2.87411 18.0983 2.81372 18.3479 2.81372C18.585 2.81372 18.8346 2.8741 19.0468 2.99486C19.2589 3.11562 19.4212 3.29676 19.5335 3.50205C19.6458 3.70734 19.7082 3.93677 19.7332 4.15413C19.7582 4.38358 19.7582 4.61303 19.7332 4.83039C19.7082 5.05983 19.6583 5.2772 19.6084 5.49456C19.5086 5.92929 19.3962 6.36401 19.4087 6.79874L19.3713 6.82291Z" fill="#8C6239"/>
</svg>
