<svg width="16" height="16" viewBox="0 0 16 16" fill="none" xmlns="http://www.w3.org/2000/svg">
<path d="M13.3333 1.3335H6.66658C5.93125 1.3335 5.33325 1.9315 5.33325 2.66683V5.3335H2.66659C1.93125 5.3335 1.33325 5.9315 1.33325 6.66683V13.3335C1.33325 14.0688 1.93125 14.6668 2.66659 14.6668H9.33325C10.0686 14.6668 10.6666 14.0688 10.6666 13.3335V10.6668H13.3333C14.0686 10.6668 14.6666 10.0688 14.6666 9.3335V2.66683C14.6666 1.9315 14.0686 1.3335 13.3333 1.3335ZM2.66659 13.3335V6.66683H9.33325L9.33458 13.3335H2.66659ZM13.3333 9.3335H10.6666V6.66683C10.6666 5.9315 10.0686 5.3335 9.33325 5.3335H6.66658V2.66683H13.3333V9.3335Z" fill="#4D4D4D"/>
<path d="M4 8H8V9.33333H4V8ZM4 10.6667H8V12H4V10.6667Z" fill="#4D4D4D"/>
</svg>
