<svg width="15" height="15" viewBox="0 0 15 15" fill="none" xmlns="http://www.w3.org/2000/svg">
<path d="M13.4719 5.10489L7.84688 1.35489C7.74423 1.28649 7.62365 1.25 7.50031 1.25C7.37697 1.25 7.25639 1.28649 7.15375 1.35489L1.52875 5.10489C1.44306 5.16191 1.37278 5.23921 1.32415 5.32992C1.27553 5.42064 1.25005 5.52196 1.25 5.62489V12.4999C1.25 13.1893 1.81062 13.7499 2.5 13.7499H12.5C13.1894 13.7499 13.75 13.1893 13.75 12.4999V5.62489C13.75 5.41613 13.6456 5.22114 13.4719 5.10489ZM7.5 2.62614L11.9981 5.62489L7.5 8.62364L3.00187 5.62489L7.5 2.62614ZM2.5 12.4999V6.79301L7.15312 9.89489C7.25583 9.96341 7.37653 9.99998 7.5 9.99998C7.62347 9.99998 7.74417 9.96341 7.84688 9.89489L12.5 6.79301L12.4981 12.4999H2.5Z" fill="white"/>
</svg>
