<svg width="50" height="50" viewBox="0 0 50 50" fill="none" xmlns="http://www.w3.org/2000/svg">
<path d="M45 12.5H41.9775C42.3442 11.2845 42.5204 10.0195 42.5 8.75C42.5 3.925 38.575 0 33.75 0C29.695 0 26.9875 3.705 25.24 7.7125C23.5175 3.925 20.6725 0 16.25 0C11.425 0 7.5 3.925 7.5 8.75C7.5 10.24 7.6975 11.4725 8.0225 12.5H5C2.2425 12.5 0 14.7425 0 17.5V22.5C0 25.2575 2.2425 27.5 5 27.5V45C5 47.7575 7.2425 50 10 50H40C42.7575 50 45 47.7575 45 45V27.5C47.7575 27.5 50 25.2575 50 22.5V17.5C50 14.7425 47.7575 12.5 45 12.5ZM33.75 5C35.8175 5 37.5 6.6825 37.5 8.75C37.5 12.5 35.935 12.5 35 12.5H28.805C30.0825 8.56 31.9375 5 33.75 5ZM12.5 8.75C12.5 6.6825 14.1825 5 16.25 5C18.47 5 20.535 8.8125 21.745 12.5H15C14.065 12.5 12.5 12.5 12.5 8.75ZM5 17.5H22.5V22.5H5V17.5ZM10 45V27.5H22.5V45H10ZM40 45H27.5V27.5H40V45ZM27.5 22.5V17.7125L27.5425 17.5H45L45.0025 22.5H27.5Z" fill="#869554"/>
</svg>
