<svg width="60" height="60" viewBox="0 0 60 60" fill="none" xmlns="http://www.w3.org/2000/svg">
<path d="M30.5576 29.1024L30.0001 29.6524L29.4401 29.1024C28.3995 28.075 26.9961 27.499 25.5339 27.499C24.0716 27.499 22.6682 28.075 21.6276 29.1024C21.1112 29.5992 20.7003 30.1952 20.4197 30.8546C20.139 31.514 19.9944 32.2232 19.9944 32.9399C19.9944 33.6565 20.139 34.3658 20.4197 35.0252C20.7003 35.6846 21.1112 36.2805 21.6276 36.7774L30.0001 44.9999L38.3726 36.7774C38.8891 36.2805 39.2999 35.6846 39.5805 35.0252C39.8612 34.3658 40.0058 33.6565 40.0058 32.9399C40.0058 32.2232 39.8612 31.514 39.5805 30.8546C39.2999 30.1952 38.8891 29.5992 38.3726 29.1024C37.3316 28.0749 35.9278 27.4988 34.4651 27.4988C33.0024 27.4988 31.5986 28.0749 30.5576 29.1024Z" fill="#869554"/>
<path d="M54.2675 28.2325L31.7675 5.73251C31.5355 5.50015 31.26 5.31581 30.9567 5.19003C30.6534 5.06425 30.3283 4.99951 30 4.99951C29.6716 4.99951 29.3465 5.06425 29.0432 5.19003C28.7399 5.31581 28.4644 5.50015 28.2325 5.73251L5.73246 28.2325C5.38293 28.5821 5.14492 29.0276 5.0485 29.5124C4.95208 29.9973 5.00159 30.4999 5.19076 30.9567C5.37994 31.4134 5.70028 31.8038 6.11131 32.0785C6.52233 32.3532 7.00558 32.4999 7.49996 32.5H9.99996V50C9.99996 52.7575 12.2425 55 15 55H45C47.7575 55 50 52.7575 50 50V32.5H52.5C52.9943 32.4999 53.4776 32.3532 53.8886 32.0785C54.2996 31.8038 54.62 31.4134 54.8091 30.9567C54.9983 30.4999 55.0478 29.9973 54.9514 29.5124C54.855 29.0276 54.617 28.5821 54.2675 28.2325ZM45.0025 50H15V26.0375L30 11.0375L45 26.0375V37.5L45.0025 50Z" fill="#869554"/>
</svg>
