<svg width="84" height="84" viewBox="0 0 84 84" fill="none" xmlns="http://www.w3.org/2000/svg">
<path d="M4.49999 50.3334H12.8333V79.5C12.8333 80.6051 13.2723 81.6649 14.0537 82.4463C14.8351 83.2277 15.8949 83.6667 17 83.6667H67C68.1051 83.6667 69.1649 83.2277 69.9463 82.4463C70.7277 81.6649 71.1667 80.6051 71.1667 79.5V50.3334H79.5C80.3052 50.3341 81.0934 50.101 81.7687 49.6624C82.444 49.2238 82.9774 48.5985 83.3042 47.8625C83.6332 47.127 83.7414 46.3116 83.6156 45.5157C83.4899 44.7198 83.1356 43.9775 82.5958 43.3792L45.0958 1.71255C43.5167 -0.0457845 40.4833 -0.0457845 38.9042 1.71255L1.40415 43.3792C0.865367 43.9778 0.511603 44.7197 0.38567 45.5152C0.259736 46.3106 0.367029 47.1255 0.694568 47.8613C1.02211 48.597 1.55585 49.2221 2.23122 49.6608C2.90658 50.0996 3.69463 50.3332 4.49999 50.3334ZM28.0542 40.5042C29.7885 38.792 32.1275 37.8319 34.5646 37.8319C37.0017 37.8319 39.3407 38.792 41.075 40.5042L42.0083 41.4209L42.9375 40.5042C44.6725 38.7917 47.0122 37.8315 49.45 37.8315C51.8878 37.8315 54.2275 38.7917 55.9625 40.5042C56.8232 41.3323 57.508 42.3256 57.9757 43.4246C58.4434 44.5236 58.6845 45.7057 58.6845 46.9C58.6845 48.0944 58.4434 49.2765 57.9757 50.3755C57.508 51.4745 56.8232 52.4678 55.9625 53.2959L42.0083 67L28.0542 53.2959C27.1934 52.4678 26.5087 51.4745 26.0409 50.3755C25.5732 49.2765 25.3321 48.0944 25.3321 46.9C25.3321 45.7057 25.5732 44.5236 26.0409 43.4246C26.5087 42.3256 27.1934 41.3323 28.0542 40.5042Z" fill="white"/>
</svg>
