<svg width="76" height="84" viewBox="0 0 76 84" fill="none" xmlns="http://www.w3.org/2000/svg">
<path d="M71.3333 0.333252H13C7.975 0.333252 0.5 3.66242 0.5 12.8333V71.1666C0.5 80.3374 7.975 83.6666 13 83.6666H75.5V75.3333H13.05C11.125 75.2833 8.83333 74.5249 8.83333 71.1666C8.83333 67.8083 11.125 67.0499 13.05 66.9999H75.5V4.49992C75.5 3.39485 75.061 2.33504 74.2796 1.55364C73.4982 0.772239 72.4384 0.333252 71.3333 0.333252ZM27.5958 12.8333C29.2568 12.8333 30.8496 13.493 32.0241 14.6675C33.1985 15.8419 33.8583 17.4348 33.8583 19.0958C33.8583 20.7567 33.1985 22.3496 32.0241 23.524C30.8496 24.6985 29.2568 25.3583 27.5958 25.3583C25.9349 25.3583 24.342 24.6985 23.1676 23.524C21.9931 22.3496 21.3333 20.7567 21.3333 19.0958C21.3333 17.4348 21.9931 15.8419 23.1676 14.6675C24.342 13.493 25.9349 12.8333 27.5958 12.8333ZM38 46.1666H17.1667L29.6667 33.6666L35.9167 39.4958L48.4167 25.3333L63 46.1666H38Z" fill="white"/>
</svg>
