<svg width="130" height="131" viewBox="0 0 130 131" fill="none" xmlns="http://www.w3.org/2000/svg">
<g clip-path="url(#clip0_222_8375)">
<g style="mix-blend-mode:overlay">
<g style="mix-blend-mode:overlay">
<path d="M128.17 75.7847C133.753 40.6944 109.832 7.72227 74.7421 2.13939C39.6518 -3.44349 6.67961 20.477 1.09673 55.5673C-4.48615 90.6577 19.4344 123.63 54.5247 129.213C89.615 134.796 122.587 110.875 128.17 75.7847Z" fill="#89A58F"/>
</g>
</g>
<path d="M65.8999 127.54C53.2874 127.54 40.9581 123.8 30.4712 116.793C19.9843 109.786 11.8107 99.8262 6.98411 88.1738C2.15751 76.5213 0.894655 63.6993 3.35523 51.3291C5.81581 38.959 11.8893 27.5962 20.8077 18.6778C29.7261 9.75943 41.0888 3.68593 53.459 1.22535C65.8292 -1.23523 78.6512 0.0276303 90.3036 4.85423C101.956 9.68083 111.916 17.8544 118.923 28.3413C125.93 38.8282 129.67 51.1575 129.67 63.77C129.651 80.6772 122.927 96.8866 110.972 108.842C99.0165 120.797 82.8071 127.521 65.8999 127.54ZM65.8999 2.85003C53.8511 2.85003 42.0728 6.42292 32.0546 13.1169C22.0363 19.8109 14.2281 29.3253 9.61717 40.457C5.00628 51.5886 3.79986 63.8376 6.15047 75.6549C8.50108 87.4723 14.3032 98.3272 22.823 106.847C31.3428 115.367 42.1977 121.169 54.015 123.519C65.8323 125.87 78.0813 124.664 89.213 120.053C100.345 115.442 109.859 107.634 116.553 97.6154C123.247 87.5971 126.82 75.8189 126.82 63.77C126.799 47.6195 120.374 32.1366 108.953 20.7165C97.5333 9.29633 82.0504 2.8712 65.8999 2.85003Z" fill="#869554"/>
<g opacity="0.5">
<path d="M84.0725 24.4476C84.0718 22.7526 83.5146 21.1048 82.4867 19.7572C81.4588 18.4095 80.0169 17.4365 78.3825 16.9876C78.5826 16.4464 78.6875 15.8746 78.6925 15.2976C78.682 13.9387 78.1347 12.639 77.1701 11.6818C76.2054 10.7246 74.9015 10.1875 73.5425 10.1876C72.6682 10.1894 71.8097 10.4204 71.0525 10.8576C70.2789 9.14267 68.9424 7.74368 67.2646 6.89255C65.5869 6.04143 63.6686 5.78932 61.8278 6.17801C59.9871 6.5667 58.3345 7.57285 57.144 9.02963C55.9536 10.4864 55.2968 12.3063 55.2825 14.1876C55.2836 14.5656 55.3103 14.9432 55.3625 15.3176C54.9801 14.8662 54.509 14.4982 53.9784 14.2363C53.4479 13.9745 52.8692 13.8244 52.2783 13.7954C51.6874 13.7664 51.0968 13.8591 50.5432 14.0678C49.9895 14.2764 49.4847 14.5965 49.0598 15.0083C48.635 15.4201 48.2993 15.9147 48.0735 16.4616C47.8477 17.0085 47.7367 17.5959 47.7473 18.1874C47.7578 18.7789 47.8898 19.362 48.135 19.9004C48.3801 20.4389 48.7333 20.9212 49.1725 21.3176C47.9081 22.3636 47.0758 23.8407 46.8361 25.4642C46.5964 27.0876 46.9664 28.7422 47.8747 30.109C48.783 31.4757 50.1651 32.4577 51.7547 32.8656C53.3442 33.2734 55.0284 33.0782 56.4825 32.3176C56.8403 33.1792 57.4454 33.9155 58.2214 34.4335C58.9975 34.9514 59.9096 35.2278 60.8425 35.2276C61.6044 35.2247 62.3536 35.0323 63.0225 34.6676C63.4145 35.5456 64.0458 36.2955 64.8442 36.8314C65.6425 37.3674 66.5756 37.6677 67.5367 37.6979C68.4978 37.7282 69.4479 37.4872 70.2784 37.0026C71.1089 36.5179 71.7861 35.8092 72.2325 34.9576C72.5355 35.0177 72.8437 35.0479 73.1525 35.0476C74.076 35.0479 74.9774 34.7653 75.7354 34.2379C76.4935 33.7105 77.0718 32.9636 77.3925 32.0976C79.242 31.844 80.9373 30.9297 82.1651 29.5235C83.393 28.1174 84.0705 26.3144 84.0725 24.4476Z" fill="#98E6F9"/>
</g>
<g opacity="0.5">
<path d="M81.5127 81.5574C81.5097 79.8616 80.9505 78.2136 79.9209 76.8661C78.8913 75.5186 77.4481 74.546 75.8127 74.0974C76.0128 73.5562 76.1177 72.9844 76.1227 72.4074C76.1241 71.729 75.9911 71.0571 75.7315 70.4304C75.4719 69.8037 75.0908 69.2345 74.6102 68.7558C74.1296 68.277 73.559 67.8981 72.9312 67.641C72.3035 67.3838 71.6311 67.2535 70.9527 67.2574C70.0784 67.2592 69.2199 67.4902 68.4627 67.9274C67.6862 66.2064 66.3429 64.8038 64.6569 63.9537C62.971 63.1037 61.0445 62.8576 59.1991 63.2567C57.3536 63.6557 55.7009 64.6757 54.5168 66.1464C53.3327 67.617 52.6888 69.4493 52.6927 71.3374C52.6971 71.7157 52.7271 72.0932 52.7827 72.4674C52.2235 71.7582 51.4565 71.2416 50.5891 70.9899C49.7217 70.7382 48.7973 70.7641 47.9453 71.0639C47.0933 71.3637 46.3564 71.9224 45.8377 72.6618C45.3191 73.4012 45.0446 74.2843 45.0527 75.1874C45.0534 75.8185 45.1936 76.4415 45.4633 77.0121C45.733 77.5826 46.1255 78.0864 46.6127 78.4874C45.3483 79.5334 44.516 81.0106 44.2763 82.634C44.0366 84.2574 44.4066 85.9121 45.3149 87.2788C46.2231 88.6455 47.6053 89.6276 49.1949 90.0354C50.7844 90.4432 52.4686 90.248 53.9227 89.4874C54.2787 90.3483 54.882 91.0842 55.6563 91.6022C56.4306 92.1202 57.3411 92.3969 58.2727 92.3974C59.0378 92.3946 59.7902 92.2022 60.4627 91.8374C60.853 92.7159 61.483 93.4664 62.2806 94.0029C63.0782 94.5394 64.0109 94.8401 64.9717 94.8704C65.9324 94.9007 66.8823 94.6594 67.712 94.1742C68.5418 93.689 69.2179 92.9796 69.6627 92.1274C69.969 92.188 70.2805 92.2182 70.5927 92.2174C71.5218 92.2125 72.4269 91.9221 73.1854 91.3854C73.9438 90.8488 74.5189 90.0919 74.8327 89.2174C76.6839 88.9636 78.3805 88.0479 79.6086 86.6396C80.8367 85.2314 81.5131 83.4259 81.5127 81.5574Z" fill="#98E6F9"/>
</g>
<path d="M38.7526 116.538C34.1865 116.525 29.6322 116.073 25.1526 115.188C22.582 114.691 20.0414 114.05 17.5426 113.268L17.0826 113.128L17.2326 112.678C17.4726 111.908 17.7226 111.148 17.9826 110.388C18.0426 110.208 18.1026 109.968 18.1726 109.718C18.2924 109.093 18.5119 108.492 18.8226 107.938L22.8226 95.2578C23.0626 94.4977 23.3126 93.7478 23.5626 92.9878C24.2215 91.1438 24.7757 89.2642 25.2226 87.3577C25.48 86.1905 25.6306 85.0023 25.6726 83.8078C25.775 80.6032 25.0262 77.4288 23.5026 74.6077C23.0926 73.8577 22.7226 73.1177 22.3526 72.3177C21.9826 71.5177 21.6926 70.8378 21.3526 70.0878L20.9926 69.1978C20.6826 68.4378 20.3626 67.6578 19.9926 66.8078C19.5122 65.6332 19.1243 64.4228 18.8326 63.1878C18.3626 61.3678 17.9626 59.5077 17.6326 57.6377C17.4826 56.7777 17.3826 55.8978 17.2826 55.0478C17.1826 54.1978 17.0626 53.0478 16.8726 52.0478C16.2725 49.5104 15.3341 47.0651 14.0826 44.7778C13.7426 44.1278 13.4026 43.4778 13.0826 42.8378C12.9326 42.5678 12.7626 42.2978 12.5826 42.0178C12.1096 41.3469 11.7483 40.604 11.5126 39.8178V39.5678C11.4883 39.3484 11.4883 39.1271 11.5126 38.9078C11.5126 38.8178 11.5126 38.6578 11.5126 38.6578V38.4578C11.5565 38.2605 11.6237 38.0692 11.7126 37.8878C12.0731 37.2396 12.6609 36.748 13.3626 36.5078C14.0881 36.2355 14.8577 36.0999 15.6326 36.1077C16.1302 36.1077 16.6264 36.1614 17.1126 36.2678C19.3226 36.7978 21.3326 38.3778 23.2626 41.0878C24.5196 42.8484 25.6205 44.7155 26.5526 46.6678L26.8226 47.2278C27.2129 48.1443 27.6954 49.0188 28.2626 49.8378L28.3526 49.7378C28.4826 49.5978 28.6126 49.4478 28.7326 49.2978L28.9026 49.0778C29.1828 48.7045 29.4336 48.3099 29.6526 47.8978L29.7126 47.7878L29.8926 47.4178L29.9526 47.1878C29.9526 47.1077 30.1526 46.6678 30.1526 46.6678C30.2126 46.5078 30.2626 46.3577 30.3126 46.1978L30.4526 45.7278L30.5626 45.3178C30.6326 45.0178 30.7126 44.7178 30.7826 44.4178L30.8826 43.9678C31.2426 42.3978 31.6226 40.8278 32.0126 39.2678C32.5126 37.2678 33.0126 35.2678 33.6126 33.2078L34.1526 31.2678L34.8926 28.6878L35.3826 27.0578C35.5726 26.4278 35.7326 25.8778 35.9026 25.3278L36.0826 24.6478L36.2326 24.1378C36.3126 23.8678 36.4126 23.5478 36.5226 23.1978L36.7526 22.4978L37.0326 21.7078L37.2826 21.0578C37.3826 20.7978 37.4926 20.5478 37.6026 20.2878C37.7126 20.0278 37.8126 19.8078 37.9326 19.5678L38.1826 19.0578C38.1826 18.9678 38.2726 18.8778 38.3226 18.7778L38.4826 18.4878C38.6326 18.2278 38.7826 17.9678 38.9426 17.7278L39.1426 17.4278L39.2026 17.3478C39.323 17.1738 39.4532 17.0069 39.5926 16.8478C39.7497 16.6591 39.9201 16.482 40.1026 16.3178L40.3226 16.1178L40.5126 15.9778L40.6826 15.8678L40.8526 15.7578H40.9326L41.1226 15.6678H41.2126C41.3808 15.6038 41.555 15.5569 41.7326 15.5278H41.9326H42.0326C42.1789 15.5141 42.3262 15.5141 42.4726 15.5278H42.6226C42.7491 15.5572 42.8729 15.5973 42.9926 15.6478C43.1707 15.7191 43.3387 15.8132 43.4926 15.9278C44.3527 16.7019 44.8855 17.7747 44.9826 18.9278C45.1158 19.7378 45.186 20.5569 45.1926 21.3778C45.1926 21.9878 45.1926 22.6678 45.1926 23.3778C45.0188 26.0668 44.6546 28.7402 44.1026 31.3778C44.1026 31.3778 43.8926 32.7078 43.6726 34.3778C43.5126 35.6678 43.3726 36.8978 43.2826 37.9278C43.2826 38.6078 43.1926 39.2678 43.1726 39.8478C43.1364 40.4031 43.17 40.9608 43.2726 41.5078C43.6068 41.1751 43.8422 40.7562 43.9526 40.2978C43.9526 40.1978 44.0326 40.1078 44.0626 40.0178C44.3385 39.2468 44.5755 38.4625 44.7726 37.6678V37.5078C44.7726 37.2978 44.8726 37.0678 44.9126 36.8378C45.0311 36.2682 45.2157 35.7145 45.4626 35.1878L47.9526 26.1878H48.4526L47.9526 26.0578L49.1726 21.7478L49.9926 18.8878L50.8126 16.0678L51.1026 15.1278C51.4855 13.6856 52.1369 12.3286 53.0226 11.1278C53.6066 10.3131 54.4792 9.75166 55.4626 9.55775H55.8626C56.1389 9.55474 56.4134 9.60218 56.6726 9.69775C57.9326 10.3178 58.7526 11.6511 59.1326 13.6978C59.4496 15.8077 59.4732 17.9514 59.2026 20.0678C58.8977 22.8283 58.4201 25.567 57.7726 28.2678C57.6926 28.6478 57.6026 29.0177 57.5126 29.3778C56.7326 32.5877 55.9826 34.9478 55.9626 34.9978C55.9626 34.9978 55.6026 36.7478 55.2126 38.7778C54.6626 41.6278 54.4426 43.0978 54.3526 43.8577L54.4426 43.7278C54.9413 42.878 55.3759 41.9922 55.7426 41.0778C55.8026 40.9378 55.8726 40.7578 55.9426 40.5478C55.9426 40.5478 56.0926 40.1178 56.1426 39.9578L56.6426 38.3778C56.8126 37.8278 56.9926 37.2078 57.1826 36.5578L59.0526 29.9778L60.0526 26.6077H60.5426L60.0826 26.4778C60.3926 25.4778 60.6926 24.4778 60.9926 23.4778L61.3126 22.4778L61.5826 21.6878C61.7026 21.3378 61.8126 21.0378 61.9126 20.7578L62.1026 20.2778L62.1926 20.0478C62.3126 19.7678 62.4326 19.4978 62.5626 19.2578C62.6926 19.0178 62.6826 19.0078 62.7426 18.8978L63.0426 18.3878L63.2726 18.0578C63.4475 17.816 63.6414 17.5886 63.8526 17.3778C64.0255 17.1955 64.2164 17.0313 64.4226 16.8878L64.7026 16.7078C64.7928 16.6551 64.8864 16.6084 64.9826 16.5678C65.1576 16.4871 65.3426 16.43 65.5326 16.3978H65.6426C65.7557 16.3881 65.8695 16.3881 65.9826 16.3978H66.1926L66.5426 16.4478L66.7426 16.4978C66.8288 16.5233 66.9125 16.5568 66.9926 16.5978L67.2026 16.7278C67.8206 17.1961 68.3339 17.7886 68.7093 18.4672C69.0847 19.1457 69.3141 19.8953 69.3826 20.6678C69.7063 23.5772 69.5236 26.5207 68.8426 29.3678C68.2049 32.4208 67.363 35.4275 66.3226 38.3678C65.5426 41.4878 64.7626 44.8978 64.4426 46.7578L64.9226 46.8478L64.4826 46.6678L64.6526 46.2278L68.3526 38.1878L68.5626 37.7578L68.9526 36.9978L69.1826 36.5778C69.5626 35.9078 69.9426 35.2778 70.3326 34.7178L70.7026 34.2078C70.8326 34.0278 70.9526 33.8678 71.0926 33.7078C71.2326 33.5478 71.3526 33.3878 71.4926 33.2378C71.7478 32.9624 72.0218 32.7051 72.3126 32.4678C72.6307 32.2136 72.989 32.0143 73.3726 31.8778L73.6326 31.8078H73.9026H74.0226C74.1123 31.7974 74.2029 31.7974 74.2926 31.8078C74.4701 31.8334 74.6423 31.8874 74.8026 31.9678L74.9526 32.0478C76.2326 32.7278 76.7326 33.7778 76.6226 35.5878C76.379 38.594 75.7953 41.563 74.8826 44.4378C74.4826 45.8178 74.0526 47.1777 73.6326 48.5078C73.4126 49.1978 73.1926 49.8778 72.9826 50.5078C71.1242 56.4987 68.7348 62.3118 65.8426 67.8778C64.0121 71.3901 61.989 74.7986 59.7826 78.0878C59.0226 79.2178 58.1526 80.2878 57.3026 81.3278C55.7073 83.0998 54.3829 85.0981 53.3726 87.2578C52.8381 88.6071 52.4297 90.0031 52.1526 91.4277C51.6878 94.033 51.3872 96.6648 51.2526 99.3078C51.1526 100.658 51.0526 102.058 50.9126 103.408L49.6026 115.668L49.2426 115.728C45.7703 116.253 42.2643 116.523 38.7526 116.538Z" fill="white"/>
<path d="M55.9526 10.0474C56.1604 10.0422 56.3673 10.0761 56.5626 10.1474C57.7426 10.7274 58.4226 12.0374 58.7426 13.7674C59.0502 15.8378 59.0738 17.9406 58.8126 20.0174C58.4908 22.7683 57.9999 25.4968 57.3426 28.1874C57.2626 28.5674 57.1726 28.9374 57.0826 29.2974C56.2926 32.5474 55.5426 34.8874 55.5426 34.8874C55.5426 34.8874 55.1726 36.6574 54.7726 38.7174C54.2326 41.5274 53.6526 44.8674 53.9426 44.8674H54.1026H54.1726H54.2426C54.3368 44.7959 54.4239 44.7155 54.5026 44.6274V44.5674L54.5526 44.4974C54.6115 44.4283 54.665 44.3547 54.7126 44.2774L54.7726 44.1874C55.285 43.3161 55.7297 42.4068 56.1026 41.4674C56.1726 41.3174 56.2426 41.1274 56.3226 40.9074C56.3226 40.9074 56.3226 40.8074 56.3726 40.7574C56.4226 40.7074 56.4726 40.4674 56.5226 40.2974C56.5726 40.1274 56.5226 40.2174 56.5226 40.1674C56.5226 40.1174 56.6126 39.8774 56.6626 39.7174C56.7126 39.5574 56.6626 39.6174 56.6626 39.5674C56.667 39.5442 56.667 39.5205 56.6626 39.4974C56.7426 39.2574 56.8226 38.9974 56.9026 38.7174C57.076 38.1574 57.256 37.5474 57.4426 36.8874C57.4426 36.7674 57.5126 36.6574 57.5426 36.5374C57.5726 36.4174 57.5426 36.3574 57.6226 36.2674C57.7726 35.7574 57.9226 35.2674 58.0726 34.6874C58.0726 34.6074 58.0726 34.5174 58.1526 34.4274L58.8026 32.1074C58.9626 31.5674 59.1126 31.0274 59.2726 30.4774C59.286 30.4198 59.3027 30.363 59.3226 30.3074L60.0826 28.1874C60.1526 27.9374 60.2226 27.6874 60.3026 27.4374L60.5126 26.7474V26.6474C60.8126 25.6474 61.1226 24.6474 61.4126 23.7074V23.6474C61.4826 23.4374 61.5426 23.2374 61.6026 23.0474C61.6626 22.8574 61.6826 22.8274 61.7126 22.7274C61.7426 22.6274 61.8526 22.3074 61.9226 22.1174C61.9414 22.0459 61.9648 21.9758 61.9926 21.9074C62.1026 21.5974 62.2026 21.2974 62.3126 21.0274C62.3126 21.0274 62.3126 20.9474 62.3126 20.9074C62.3126 20.8674 62.4126 20.6674 62.4526 20.5574L62.5426 20.3374C62.6626 20.0574 62.7726 19.7974 62.8926 19.5674L63.0726 19.2274C63.1726 19.0574 63.2626 18.8974 63.3626 18.7474L63.5726 18.4374C63.7285 18.2135 63.9024 18.0028 64.0926 17.8074C64.2521 17.652 64.4226 17.5083 64.6026 17.3774C64.7108 17.2995 64.8284 17.2357 64.9526 17.1874C65.0284 17.1394 65.1088 17.0992 65.1926 17.0674C65.3372 17.0024 65.488 16.9522 65.6426 16.9174H65.7326H66.0126H66.1826C66.2758 16.9108 66.3694 16.9108 66.4626 16.9174H66.6326L66.7926 16.9874C66.8604 17.041 66.9151 17.1094 66.9526 17.1874C67.5201 17.62 67.9911 18.1664 68.3355 18.7914C68.6799 19.4165 68.8901 20.1065 68.9526 20.8174C69.2608 23.6702 69.0815 26.5546 68.4226 29.3474C67.792 32.4011 66.9534 35.4081 65.9126 38.3474C65.9126 38.3474 63.4226 48.2474 63.9126 48.4174H63.9526C64.0572 48.4 64.1526 48.347 64.2226 48.2674C64.448 47.9879 64.6331 47.6782 64.7726 47.3474L64.8526 47.1874C64.8698 47.1316 64.8933 47.0779 64.9226 47.0274C64.9173 47.0111 64.9173 46.9936 64.9226 46.9774C64.9226 46.8474 65.0126 46.7274 65.0426 46.6574C65.0457 46.6241 65.0457 46.5906 65.0426 46.5574L68.7326 38.4474L68.8226 38.2574L68.9326 38.0274L69.1426 37.6274C69.1926 37.5174 69.2626 37.3974 69.3226 37.2774C69.3826 37.1574 69.3926 37.1474 69.4326 37.0774L69.5526 36.8674C69.8626 36.3074 70.2526 35.6674 70.6726 35.0474L70.8526 34.7974L71.0326 34.5474C71.1526 34.3774 71.2826 34.2174 71.4026 34.0674C71.5226 33.9174 71.6626 33.7674 71.7926 33.6174C72.029 33.3566 72.2866 33.1158 72.5626 32.8974C72.8338 32.6755 73.1418 32.5029 73.4726 32.3874H73.6826C73.7456 32.3778 73.8097 32.3778 73.8726 32.3874H73.9726C74.0355 32.3769 74.0997 32.3769 74.1626 32.3874C74.2958 32.4027 74.4248 32.4435 74.5426 32.5074L74.6726 32.5674C75.8026 33.1674 76.1926 34.0474 76.1026 35.6674C75.8478 38.6377 75.2711 41.5716 74.3826 44.4174C73.7726 46.4974 73.0926 48.5574 72.4826 50.5274C70.6273 56.4892 68.2481 62.2751 65.3726 67.8174C63.5649 71.314 61.5618 74.706 59.3726 77.9774C57.2726 81.1074 54.3726 83.7074 52.9126 87.2474C52.3677 88.6231 51.9493 90.0457 51.6626 91.4974C50.8726 95.4374 50.8426 99.4974 50.4226 103.497C50.0026 107.497 49.5726 111.427 49.1526 115.397C45.7054 115.901 42.2264 116.155 38.7426 116.157C34.2048 116.157 29.6773 115.722 25.2226 114.857C22.6691 114.366 20.1452 113.731 17.6626 112.957C17.9026 112.197 18.1526 111.437 18.4126 110.677C18.5765 109.813 18.8592 108.975 19.2526 108.187C19.3026 107.997 19.3626 107.807 19.4226 107.617C19.7626 106.547 20.1026 105.477 20.4226 104.407C21.3626 101.407 22.3026 98.4074 23.2326 95.4074C24.0526 92.7974 25.0626 90.1674 25.6426 87.4774C25.9091 86.2774 26.0664 85.0557 26.1126 83.8274C26.2085 80.5385 25.4359 77.2825 23.8726 74.3874C23.4426 73.5974 23.0726 72.8574 22.7426 72.1374C22.4126 71.4174 22.0926 70.6574 21.7426 69.9074C21.3226 68.9074 20.8926 67.8174 20.3826 66.6274C19.9062 65.4582 19.5185 64.2548 19.2226 63.0274C18.7626 61.2074 18.366 59.3707 18.0326 57.5174C17.7126 55.6674 17.6426 53.7474 17.2726 51.9274C16.6748 49.3453 15.7224 46.8583 14.4426 44.5374C14.1026 43.8774 13.7526 43.2274 13.4426 42.5374C12.8333 41.6578 12.333 40.7075 11.9526 39.7074C11.9526 39.7074 11.9526 39.6274 11.9526 39.5874C11.9526 39.5474 11.9526 39.5274 11.9526 39.4874C11.9384 39.301 11.9384 39.1138 11.9526 38.9274C11.9526 38.8574 11.9526 38.7974 11.9526 38.7274V38.6374C11.948 38.6042 11.948 38.5705 11.9526 38.5374C11.9849 38.3871 12.0388 38.2422 12.1126 38.1074C12.4179 37.5593 12.9174 37.1455 13.5126 36.9474C14.1794 36.6922 14.8888 36.5666 15.6026 36.5774C16.0633 36.5784 16.5226 36.6287 16.9726 36.7274C19.4926 37.3374 21.4126 39.3374 22.8426 41.3574C24.0838 43.1016 25.1744 44.9483 26.1026 46.8774C26.6327 48.1863 27.332 49.4201 28.1826 50.5474H28.2326C28.3826 50.4074 28.5326 50.2574 28.6726 50.1074C28.8126 49.9574 28.9426 49.8074 29.0726 49.6474C29.1415 49.5684 29.2049 49.4848 29.2626 49.3974C29.5562 49.0097 29.8171 48.5982 30.0426 48.1674L30.1026 48.0574C30.1726 47.9274 30.2326 47.7974 30.2926 47.6574L30.4126 47.3874C30.4126 47.3074 30.4826 47.2074 30.5226 47.1174L30.6226 46.8474C30.6826 46.6874 30.7326 46.5174 30.7826 46.3474C30.7826 46.2574 30.8426 46.1574 30.8626 46.0674C30.867 46.0208 30.867 45.9739 30.8626 45.9274L30.9826 45.5074C31.0526 45.1974 31.1326 44.8974 31.2026 44.5974C31.2726 44.2974 31.2726 44.2874 31.3026 44.1374C31.6726 42.5774 32.0426 41.0174 32.4326 39.4574C32.946 37.4574 33.476 35.4407 34.0226 33.4074C34.1926 32.7874 34.3626 32.1774 34.5426 31.5674C34.5532 31.5091 34.57 31.4521 34.5926 31.3974C34.8226 30.5574 35.0626 29.7274 35.3126 28.8874L35.3726 28.6874L35.8226 27.1874C35.827 27.1642 35.827 27.1405 35.8226 27.1174L36.3326 25.4674L36.4426 25.0274C36.447 25.0042 36.447 24.9805 36.4426 24.9574L36.5026 24.7574C36.5026 24.6874 36.5026 24.6074 36.5726 24.5274C36.568 24.4942 36.568 24.4605 36.5726 24.4274V24.3274C36.6526 24.0474 36.7526 23.7374 36.8626 23.3974L36.9426 23.1374L37.0926 22.6874C37.1526 22.5174 37.2126 22.3474 37.2826 22.1674C37.3526 21.9874 37.2826 22.0674 37.2826 22.0174L37.4526 21.5774L37.5626 21.2774L37.8726 20.5274C37.9826 20.2874 38.0826 20.0474 38.1926 19.8174C38.3026 19.5874 38.3026 19.5874 38.3626 19.4774C38.4226 19.3674 38.3626 19.3874 38.4426 19.3274C38.5226 19.2674 38.5326 19.1474 38.5826 19.0474L38.7326 18.7674C38.8726 18.5174 39.0226 18.2674 39.1826 18.0374L39.3626 17.7574L39.4726 17.6074C39.5826 17.4674 39.6826 17.3274 39.7926 17.2074C39.9331 17.0324 40.0869 16.8686 40.2526 16.7174L40.3426 16.6374L40.4526 16.5474L40.6326 16.4074L40.7726 16.3174L40.9226 16.2274L41.0726 16.1574H41.1626C41.2956 16.108 41.4328 16.0712 41.5726 16.0474H41.7126H41.8926C41.9824 16.0375 42.0729 16.0375 42.1626 16.0474H42.2926L42.5826 16.1474C42.7231 16.2069 42.8571 16.2806 42.9826 16.3674C43.7325 17.0733 44.1955 18.0312 44.2826 19.0574C44.4129 19.8442 44.4831 20.6399 44.4926 21.4374C44.4926 22.0774 44.4926 22.7474 44.4926 23.4374C44.3749 26.0381 44.0776 28.6276 43.6026 31.1874C43.6026 31.1874 43.3826 32.5274 43.1626 34.2574C43.0226 35.3674 42.8726 36.6374 42.7726 37.8274C42.7126 38.5274 42.6726 39.1874 42.6626 39.8274C42.6626 41.0574 42.7226 41.9374 43.0326 42.0074H43.1426H43.2826C43.7426 41.8874 44.1326 41.2174 44.4226 40.5174L44.5426 40.2174C44.8412 39.3815 45.0949 38.5303 45.3026 37.6674C45.4382 36.8768 45.6561 36.1026 45.9526 35.3574C46.0126 35.1274 46.0826 34.8974 46.1426 34.6574C46.2026 34.4174 46.2126 34.3974 46.2526 34.2774C46.3926 33.7574 46.5426 33.2074 46.7026 32.6374C46.7026 32.4174 46.8126 32.2074 46.8726 31.9774C46.9326 31.7474 46.9626 31.6874 47.0026 31.5374C47.0426 31.3874 47.1426 31.0074 47.2226 30.7474C47.3026 30.4874 47.3726 30.1974 47.4426 29.9174C47.5126 29.6374 47.5826 29.4474 47.6426 29.2074C47.7026 28.9674 47.7826 28.7174 47.8426 28.4774L48.0526 27.7474L48.1826 27.2574C48.2326 27.0874 48.2826 26.9274 48.3226 26.7674C48.3626 26.6074 48.4126 26.4274 48.4626 26.2674V26.1874C48.5526 25.8874 48.6326 25.5774 48.7226 25.2774C48.8626 24.7874 48.9926 24.2774 49.1326 23.7974L49.2126 23.5374C49.2126 23.3774 49.2926 23.2274 49.3426 23.0674C49.3926 22.9074 49.4326 22.7474 49.4726 22.5874C49.5126 22.4274 49.6126 22.1074 49.6726 21.8774L50.1126 20.3574C50.2426 19.8974 50.3726 19.4574 50.4926 19.0174C50.7026 18.2874 50.9026 17.5974 51.0926 17.0174C51.1526 16.8274 51.2026 16.6374 51.2626 16.4574C51.3226 16.2774 51.3326 16.2274 51.3626 16.1174C51.3814 16.0427 51.4048 15.9692 51.4326 15.8974C51.4547 15.8061 51.4814 15.716 51.5126 15.6274L51.6026 15.3174C51.9679 13.9449 52.5925 12.655 53.4426 11.5174C53.9488 10.7923 54.7155 10.2907 55.5826 10.1174H55.9226L55.9526 10.0474ZM55.9226 9.16737C55.763 9.15251 55.6023 9.15251 55.4426 9.16737C54.3386 9.36466 53.3554 9.98546 52.7026 10.8974C51.7849 12.134 51.1066 13.5314 50.7026 15.0174V15.1974V15.3274L50.6226 15.6074V15.6874V15.8074V15.9374L50.5626 16.1674L50.4526 16.5174L50.3926 16.7274C50.2026 17.3674 50.0026 18.0574 49.7926 18.7874C49.6926 19.1174 49.6026 19.4574 49.5026 19.7874L49.4126 20.0974L49.3126 20.4374L48.9726 21.6274L48.8526 22.0574L48.7726 22.3474L48.6826 22.6474V22.8274L48.5826 23.1874V23.2874C48.5653 23.3723 48.5419 23.4558 48.5126 23.5374L48.0926 25.0274L47.9626 25.4874L47.8426 25.9374V26.0274C47.8426 26.1874 47.7626 26.3474 47.7126 26.5074L47.6526 26.7174L47.5726 27.0074C47.5726 27.1674 47.4926 27.2974 47.4526 27.4374V27.4974L47.2526 28.2374L47.1826 28.4974L47.0526 28.9574L46.8526 29.6774L46.6226 30.4974L46.5526 30.7674L46.4026 31.2874L46.2826 31.7374L46.1726 32.1374L46.1026 32.3974C45.9426 32.9674 45.7926 33.5174 45.6526 34.0374C45.6526 34.1674 45.5826 34.2874 45.5526 34.4074V34.5374L45.4226 35.0274C45.1874 35.5785 45.0195 36.156 44.9226 36.7474C44.9226 36.9774 44.8326 37.1974 44.7826 37.3974V37.5574C44.5946 38.3327 44.3642 39.0972 44.0926 39.8474C44.0803 39.889 44.0635 39.9293 44.0426 39.9674C44.048 39.9209 44.048 39.8739 44.0426 39.8274C44.0426 39.3074 44.0926 38.6774 44.1526 37.9374C44.2326 36.9374 44.3726 35.6874 44.5326 34.4074C44.7326 32.8474 44.9326 31.5874 44.9626 31.4074C45.5187 28.7537 45.8829 26.0634 46.0526 23.3574C46.0526 22.6174 46.0526 21.9374 46.0526 21.3574C46.0453 20.5125 45.9684 19.6696 45.8226 18.8374C45.7169 17.5647 45.1175 16.3839 44.1526 15.5474C43.9691 15.4071 43.7673 15.2927 43.5526 15.2074C43.4158 15.1518 43.2755 15.105 43.1326 15.0674H42.9226C42.7895 15.0565 42.6557 15.0565 42.5226 15.0674H42.2626H42.0326C41.8316 15.1032 41.6342 15.1568 41.4426 15.2274L41.2826 15.2974L41.0926 15.3874L40.9326 15.4774L40.7626 15.5874L40.5226 15.7674L40.4326 15.8374L40.3326 15.9274C40.1371 16.1052 39.9533 16.2956 39.7826 16.4974C39.6626 16.6374 39.5426 16.7974 39.4226 16.9574L39.3626 17.0474V17.1074C39.2836 17.21 39.2102 17.3168 39.1426 17.4274L38.0526 18.1874L37.9026 18.4774L37.7326 18.7874L37.6526 18.9574C37.6026 19.0574 37.5426 19.1674 37.4926 19.2874C37.4426 19.4074 37.2626 19.7774 37.1526 20.0274C37.0426 20.2774 36.9326 20.5474 36.8326 20.8074L36.7726 20.9674L36.7126 21.1174L36.5926 21.4374V21.5674L36.5426 21.7074L36.3526 22.2574L36.1926 22.7074V22.8274V22.9774C36.0726 23.3374 35.9826 23.6574 35.8926 23.9774V24.0874V24.1874L35.8326 24.4174V24.4874L35.7826 24.6374V24.7174C35.7826 24.8874 35.7026 25.0274 35.6826 25.1174V25.1874C35.5126 25.7274 35.3526 26.2774 35.1926 26.8174C35.1879 26.8539 35.1879 26.8909 35.1926 26.9274L34.7826 28.3174V28.4174V28.5174C34.5326 29.3574 34.2926 30.1974 34.0526 31.0374V31.1174V31.2074L33.5426 33.0474C32.9826 35.0474 32.4426 37.1474 31.9426 39.1274C31.5526 40.6974 31.1726 42.2774 30.8126 43.8274L30.7026 44.2874L30.4926 45.1674C30.4926 45.2974 30.4226 45.4374 30.3826 45.5774V45.6974C30.3606 45.7887 30.3339 45.8788 30.3026 45.9674V46.0274C30.3026 46.1774 30.2026 46.3274 30.1426 46.4874C30.1214 46.5672 30.0912 46.6444 30.0526 46.7174C30.0271 46.8068 29.9936 46.8938 29.9526 46.9774C29.9526 47.0574 29.8826 47.1374 29.8526 47.2274C29.8226 47.3174 29.7426 47.4574 29.6826 47.5674L30.4826 48.0874L29.6526 47.6274C29.4514 48.0135 29.2172 48.3816 28.9526 48.7274L28.7826 48.9474L28.7326 49.0174C28.339 48.3728 27.985 47.7049 27.6726 47.0174L26.9526 46.4674C26.0038 44.4883 24.8863 42.5947 23.6126 40.8074C21.6126 38.0074 19.5226 36.3674 17.1926 35.8074C16.6718 35.6838 16.1379 35.6233 15.6026 35.6274C14.7699 35.6214 13.9431 35.7671 13.1626 36.0574C12.3521 36.3462 11.676 36.9227 11.2626 37.6774C11.1549 37.8828 11.0743 38.1013 11.0226 38.3274V38.4774V38.5674C11.0147 38.6639 11.0147 38.7609 11.0226 38.8574C10.9925 39.1198 10.9925 39.3849 11.0226 39.6474V39.7674C11.0189 39.8206 11.0189 39.8741 11.0226 39.9274C11.2704 40.7664 11.652 41.5599 12.1526 42.2774C12.3226 42.5374 12.4926 42.8074 12.6326 43.0674C12.9826 43.7074 13.3226 44.3474 13.6326 44.9974C14.8821 47.2553 15.8142 49.6748 16.4026 52.1874C16.5926 53.1274 16.7026 54.0974 16.8126 55.1274C16.9126 55.9874 17.0126 56.8774 17.1626 57.7474C17.4926 59.6274 17.9026 61.5074 18.3726 63.3374C18.6719 64.6109 19.0732 65.8582 19.5726 67.0674C19.9326 67.9174 20.2626 68.7074 20.5726 69.4674L20.9326 70.3474C21.2226 71.0474 21.5426 71.8074 21.9326 72.5974C22.3226 73.3874 22.6826 74.1574 23.0926 74.9074C24.5842 77.6665 25.3159 80.7725 25.2126 83.9074C25.1703 85.0788 25.0196 86.2437 24.7626 87.3874C24.3198 89.273 23.7723 91.1326 23.1226 92.9574C22.8726 93.7174 22.6126 94.4774 22.3826 95.2274L21.3826 98.4274L19.5826 104.177V104.247L19.4326 104.757L18.5926 107.427L18.4726 107.807C18.1589 108.391 17.9332 109.018 17.8026 109.667C17.7426 109.907 17.6826 110.137 17.6226 110.307C17.3626 111.067 17.1126 111.837 16.8626 112.597L16.5726 113.507L17.4926 113.797C20.007 114.584 22.5645 115.225 25.1526 115.717C29.6661 116.598 34.2541 117.04 38.8526 117.037C42.3833 117.035 45.9091 116.778 49.4026 116.267L50.1326 116.157L50.2026 115.427L51.4426 103.847V103.527C51.5826 102.167 51.6826 100.767 51.7826 99.4174C51.9161 96.7942 52.2167 94.1823 52.6826 91.5974C52.9498 90.1997 53.3482 88.8303 53.8726 87.5074C54.8619 85.3888 56.163 83.4304 57.7326 81.6974C58.5826 80.6974 59.4626 79.5674 60.2326 78.4174C62.4301 75.1214 64.4432 71.7062 66.2626 68.1874C69.1683 62.5776 71.571 56.7214 73.4426 50.6874C73.6526 50.0174 73.8626 49.3274 74.0826 48.6874C74.5026 47.3674 74.9426 45.9974 75.3426 44.6074C76.2652 41.7005 76.8524 38.6977 77.0926 35.6574C77.2357 34.8722 77.126 34.0618 76.7792 33.343C76.4323 32.6242 75.8663 32.034 75.1626 31.6574L75.0326 31.5874C74.8187 31.4813 74.5891 31.4103 74.3526 31.3774C74.2429 31.3661 74.1323 31.3661 74.0226 31.3774H73.8526C73.7497 31.3645 73.6455 31.3645 73.5426 31.3774L73.2526 31.4474C72.8064 31.5966 72.39 31.8234 72.0226 32.1174C71.7071 32.3696 71.4128 32.6472 71.1426 32.9474L70.7226 33.4374L70.3226 33.9474L70.1226 34.2174L69.9426 34.4774C69.5426 35.0574 69.1526 35.6874 68.7726 36.3674L68.6626 36.5774L68.5426 36.7974L68.3426 37.1674L68.1326 37.5774L68.0626 37.7274V37.7974L67.9526 38.0274L65.8526 42.6374C66.1526 41.3374 66.4926 39.9274 66.8526 38.5874C67.8985 35.6276 68.7437 32.6008 69.3826 29.5274C70.0739 26.6241 70.2566 23.623 69.9226 20.6574C69.8456 19.8143 69.591 18.9971 69.1757 18.2595C68.7603 17.5218 68.1935 16.8804 67.5126 16.3774L67.3726 16.2874H67.3126C67.2067 16.2344 67.0963 16.1908 66.9826 16.1574C66.911 16.1315 66.8375 16.1114 66.7626 16.0974C66.6148 16.0633 66.4642 16.0432 66.3126 16.0374H65.9526C65.8097 16.0219 65.6655 16.0219 65.5226 16.0374H65.3826C65.1704 16.0856 64.963 16.1525 64.7626 16.2374C64.6497 16.2881 64.5395 16.3449 64.4326 16.4074L64.1226 16.6074C63.8982 16.7661 63.6874 16.9434 63.4926 17.1374C63.2652 17.3659 63.0578 17.6135 62.8726 17.8774L62.6326 18.2274C62.5226 18.3974 62.4226 18.5774 62.3126 18.7674L62.1126 19.1374C61.9826 19.3974 61.8626 19.6674 61.7326 19.9674L61.6626 20.1474C61.6083 20.2642 61.5615 20.3845 61.5226 20.5074V20.6174C61.4026 20.9174 61.2926 21.2174 61.1826 21.5374V21.5874L61.1326 21.7374L60.9426 22.3074V22.3674L60.8326 22.6874L60.7526 22.9474L60.6426 23.2874V23.3374C60.3526 24.2474 60.0426 25.2474 59.7326 26.3374V26.4074L59.5126 27.1374L59.4326 27.3974L59.2926 27.8874C59.1126 28.5074 58.9226 29.1274 58.7426 29.7574V29.8374V29.9474L58.2826 31.5674L57.6226 33.8774L57.5626 34.0874V34.1874L57.4826 34.4674C57.3526 34.9074 57.2326 35.3474 57.1126 35.7674L57.0326 36.0274V36.1874L56.9726 36.3874C56.7826 37.0374 56.6026 37.6474 56.4326 38.2074L56.1926 38.9774L55.9526 39.1874C55.9026 39.3474 55.8526 39.4874 55.8126 39.6274V39.6874V39.7574C55.7626 39.9174 55.7126 40.0574 55.6726 40.1974L55.6226 40.3174C55.5426 40.5374 55.4826 40.7074 55.4226 40.8474C55.5326 40.2574 55.6526 39.5774 55.8026 38.7874C56.1626 36.9574 56.5026 35.3174 56.5626 35.0274C56.6226 34.7374 57.3626 32.4474 58.1026 29.4174C58.196 29.0574 58.286 28.6874 58.3726 28.3074C59.0206 25.5865 59.4982 22.8278 59.8026 20.0474C60.0805 17.8843 60.0536 15.693 59.7226 13.5374C59.3226 11.3574 58.4126 9.90737 57.0326 9.23737C56.7136 9.11585 56.3739 9.05809 56.0326 9.06737L55.9226 9.16737Z" fill="#4D4D4D"/>
<path d="M33.3725 84.8878C35.1662 83.9105 37.0984 83.2124 39.1025 82.8178C37.6425 83.0578 34.8625 80.9778 33.7025 80.2378C32.1067 79.1327 30.6642 77.8213 29.4125 76.3378C26.4125 73.0978 23.5825 69.5578 21.8925 65.4678C20.3925 61.8478 19.3725 55.9578 23.4425 53.5878C22.1725 54.4278 20.3625 53.7778 19.3825 52.5878C18.5107 51.3341 17.8862 49.9256 17.5425 48.4378C16.795 46.1124 15.7887 43.8784 14.5425 41.7778C13.6525 40.2878 12.6225 38.4978 13.4025 36.9478C12.9389 37.0619 12.5341 37.3439 12.2663 37.7391C11.9985 38.1344 11.8867 38.6149 11.9525 39.0878C12.0855 40.0218 12.4273 40.9139 12.9525 41.6978C14.8506 44.9559 16.294 48.4583 17.2425 52.1078C18.2425 55.7278 18.3325 59.4578 19.2425 63.1078C19.5383 64.3351 19.9261 65.5385 20.4025 66.7078C20.9125 67.8978 21.3425 68.9578 21.7625 69.9878C22.0725 70.7378 22.3825 71.4678 22.7625 72.2178C23.1425 72.9678 23.4625 73.6778 23.8925 74.4678C25.4558 77.3629 26.2284 80.6189 26.1325 83.9078C26.0863 85.1361 25.929 86.3578 25.6625 87.5578C25.0825 90.2478 24.0725 92.8778 23.2525 95.4878C22.3225 98.4878 21.3825 101.488 20.4425 104.488C20.1225 105.488 19.8625 106.678 19.4425 107.698C19.3825 107.888 19.3225 108.078 19.2725 108.268C18.8954 109.021 18.6196 109.822 18.4525 110.648C18.1925 111.408 17.9425 112.168 17.7025 112.928C20.1851 113.702 22.709 114.336 25.2625 114.828C24.7245 114.432 24.2834 113.919 23.9725 113.328C23.564 112.342 23.4359 111.262 23.6025 110.208C23.8902 107.703 24.3784 105.225 25.0625 102.798C25.8225 99.7978 26.7325 96.7978 27.3425 93.7278C27.6775 91.4798 28.5299 89.3402 29.8325 87.4778C30.7623 86.4329 31.909 85.6036 33.1925 85.0478L33.3725 84.8878Z" fill="#C4C4C4"/>
<path d="M28.4826 50.8777C28.3751 50.7621 28.2812 50.6346 28.2026 50.4977C29.0725 49.6791 29.7725 48.697 30.2626 47.6077C30.7395 46.4571 31.098 45.2609 31.3326 44.0377C32.7793 37.7777 34.446 31.5777 36.3326 25.4377C36.3326 25.4377 37.7226 19.7177 39.9226 17.1277C40.7726 16.1277 41.7326 15.5877 42.7826 16.0177C42.9231 16.0772 43.0571 16.151 43.1826 16.2377C41.9597 16.9503 40.9591 17.989 40.2926 19.2377C40.0426 19.7177 39.9126 20.2377 39.6826 20.7877C39.3568 21.4407 39.1599 22.1503 39.1026 22.8777C39.0687 23.1611 39.1137 23.4483 39.2326 23.7077C39.4426 24.1177 39.9026 24.3577 40.0726 24.7877C39.5633 24.7538 39.0518 24.7908 38.5526 24.8977C37.6426 25.1477 37.3426 25.7877 37.1026 26.6277C36.8626 27.4677 36.5926 28.5077 36.3826 29.4477C36.3126 29.7877 36.3826 30.0577 36.3226 30.3877C36.2626 30.7177 36.0626 31.2377 36.0326 31.6877C36.0198 32.0363 36.0819 32.3837 36.2148 32.7062C36.3476 33.0288 36.5481 33.3192 36.8026 33.5577C36.5526 33.3077 35.8026 33.8377 35.6826 34.0277C35.4361 34.5152 35.2546 35.033 35.1426 35.5677C34.8352 36.6161 34.6506 37.6967 34.5926 38.7877C34.5686 38.9758 34.5856 39.1669 34.6426 39.3477C34.7161 39.5352 34.8366 39.7005 34.9926 39.8277C35.7787 40.5109 36.6885 41.037 37.6726 41.3777H35.1126C34.9469 41.3526 34.7784 41.3526 34.6126 41.3777C33.7326 41.5677 33.3426 42.6177 33.1326 43.3777C32.8517 44.4557 32.4838 45.5092 32.0326 46.5277C31.3045 48.2963 30.0693 49.8098 28.4826 50.8777Z" fill="#C4C4C4"/>
<path d="M43.5626 42.3376L42.8826 42.1876C43.1826 41.8776 43.6026 41.8076 43.8826 41.4776C44.1284 41.1411 44.3238 40.7706 44.4626 40.3776C44.6651 39.8732 44.8322 39.3553 44.9626 38.8276C44.9626 38.8276 49.6226 21.6276 51.5826 15.2576C51.9494 13.8876 52.5701 12.5986 53.4126 11.4576C53.9241 10.7334 54.6934 10.2325 55.5626 10.0576C55.1936 10.4536 54.9139 10.9242 54.7426 11.4376C54.3526 12.4376 53.9726 13.3876 53.6226 14.3676C52.9526 16.1176 52.2626 18.1876 53.9526 19.6176C53.6505 19.5644 53.3409 19.5723 53.042 19.6411C52.7431 19.7098 52.461 19.8378 52.2126 20.0176C51.5659 20.6855 51.1641 21.5525 51.0726 22.4776C50.6826 23.8476 50.3026 25.2076 49.9326 26.5776C49.6026 27.7476 48.9326 29.0076 49.6426 30.1376C49.9558 30.5625 50.3221 30.9457 50.7326 31.2776H49.3526C49.2469 31.2574 49.1383 31.2574 49.0326 31.2776C48.9134 31.34 48.8133 31.4332 48.7426 31.5476C48.0992 32.739 47.6374 34.0198 47.3726 35.3476C46.9426 36.7176 46.4726 38.0776 45.9726 39.4276C45.8642 39.9062 45.8304 40.3987 45.8726 40.8876C45.8302 41.1449 45.8579 41.4089 45.953 41.6518C46.048 41.8947 46.2068 42.1074 46.4126 42.2676C46.8026 42.6476 47.2026 43.0176 47.6126 43.3876C46.2925 42.9308 44.9383 42.5797 43.5626 42.3376Z" fill="#C4C4C4"/>
<path d="M54.7227 45.3076L54.0327 44.9976C54.9846 43.8984 55.7208 42.6296 56.2027 41.2576C57.3227 38.6476 60.7827 24.8076 62.6427 20.3276C62.9952 19.3941 63.5211 18.5356 64.1927 17.7976C64.4844 17.4083 64.8949 17.1246 65.3622 16.9893C65.8295 16.854 66.3281 16.8744 66.7827 17.0476L66.9527 17.1876C66.1292 17.4966 65.4134 18.0387 64.8927 18.7476C64.3208 19.5581 63.885 20.4566 63.6027 21.4076C63.4627 21.7976 63.4427 22.1876 63.3227 22.5776C63.1404 23.0664 63.0555 23.5862 63.0727 24.1076C63.2496 25.0148 63.6956 25.8476 64.3527 26.4976C64.1927 26.3076 63.1827 26.2376 62.9327 26.1976C62.4827 26.1176 62.1027 26.1276 61.8427 26.5576C61.7305 26.7835 61.6854 27.0369 61.7127 27.2876C61.6848 27.72 61.6007 28.1469 61.4627 28.5576C61.1027 29.8176 60.3927 31.6076 61.1027 32.8776C61.1867 33.0236 61.2802 33.1639 61.3827 33.2976C61.6335 33.6784 61.9442 34.0161 62.3027 34.2976C62.0062 34.3771 61.697 34.3975 61.3927 34.3576C61.1159 34.2981 60.8352 34.258 60.5527 34.2376C59.5527 34.2376 59.4527 35.8376 59.2427 36.5876C58.9427 37.5876 58.6327 38.6676 58.2427 39.6776C57.9746 40.2341 57.7376 40.8049 57.5327 41.3876C57.3204 42.099 57.1764 42.829 57.1027 43.5676C56.9905 44.5352 57.1717 45.5142 57.6227 46.3776C56.6358 46.0785 55.6674 45.7212 54.7227 45.3076Z" fill="#C4C4C4"/>
<path d="M64.6427 48.9375C64.356 48.7908 64.066 48.6508 63.7727 48.5175C64.0827 48.6175 64.6027 47.6275 64.6927 47.4375C64.8447 47.1324 64.9782 46.8185 65.0927 46.4975L68.7827 38.3875C69.5163 36.8355 70.4148 35.3671 71.4627 34.0075C72.4627 32.7775 73.6027 31.8975 74.5927 32.3875L74.7227 32.4475C73.7959 32.8231 72.9948 33.4543 72.4127 34.2675C71.6427 35.2675 70.4127 36.8375 70.6527 38.1975C70.7914 38.8148 71.0916 39.3843 71.5227 39.8475C71.2608 39.7335 70.9783 39.6747 70.6927 39.6747C70.4071 39.6747 70.1246 39.7335 69.8627 39.8475C69.3227 40.1775 69.0827 41.0175 68.7927 41.5575C67.7927 43.4275 66.3227 45.4075 66.2827 47.5575C66.2637 47.8748 66.301 48.1931 66.3927 48.4975C66.4895 48.7597 66.6135 49.0111 66.7627 49.2475L67.6327 50.7075C66.6778 50.0496 65.6788 49.4582 64.6427 48.9375Z" fill="#98E6F9"/>
<g opacity="0.2">
<path d="M40.2525 61.6876C42.172 64.1701 43.4436 67.0912 43.9525 70.1876C44.3273 72.9947 44.4178 75.8324 44.2225 78.6576C46.0939 74.5864 46.4968 69.9924 45.3625 65.6576C44.9625 64.1476 42.9825 59.8876 45.6125 59.2876C46.0851 59.2125 46.568 59.2329 47.0325 59.3476C51.3466 60.1973 55.5006 61.7192 59.3425 63.8576C58.9425 63.6376 58.4925 62.7976 58.1825 62.4576C56.6904 60.8067 55.0126 59.3336 53.1825 58.0676C50.7402 56.3923 48.065 55.085 45.2425 54.1876C40.9918 52.7519 36.4613 52.3441 32.0225 52.9976C30.8225 53.1976 30.9625 53.5876 31.7325 54.4076C33.1925 55.9476 35.1525 56.8376 36.7325 58.1776C38.0347 59.2109 39.2156 60.3884 40.2525 61.6876Z" fill="#98E6F9"/>
</g>
<path d="M92.6327 116.527H91.5127C88.353 116.485 85.1995 116.235 82.0727 115.777L81.7127 115.727L80.4027 103.467C80.2627 102.117 80.1627 100.747 80.0727 99.4074C79.9392 96.7473 79.6352 94.0986 79.1627 91.4774C78.8886 90.0499 78.4835 88.6506 77.9527 87.2974C76.9533 85.137 75.6316 83.1409 74.0327 81.3774C73.1827 80.3774 72.3027 79.2574 71.5427 78.1174C65.8322 69.6143 61.3859 60.3275 58.3427 50.5474C58.1427 49.8874 57.9327 49.2274 57.7127 48.5474C57.2827 47.1874 56.8527 45.8074 56.4427 44.4174C55.5413 41.5398 54.9578 38.5721 54.7027 35.5674C54.5927 33.7674 55.0927 32.7074 56.3727 32.0174L56.4827 31.9674C56.616 31.8977 56.7569 31.844 56.9027 31.8074H57.0027H57.3127H57.4327H57.6627L57.9127 31.8674C58.3128 32.0036 58.6853 32.2102 59.0127 32.4774C59.3038 32.7145 59.5778 32.9718 59.8327 33.2474C59.9627 33.3874 60.0827 33.5374 60.2127 33.6874C60.3427 33.8374 60.5027 34.0374 60.6227 34.2074L60.8127 34.4774L60.9927 34.7274C61.4227 35.3474 61.8127 35.9974 62.1427 36.5874L62.3827 37.0174C62.4427 37.1274 62.5027 37.2574 62.5627 37.3574C62.6227 37.4574 62.7127 37.6474 62.7727 37.7674L62.9527 38.1874L66.6727 46.3474V46.4074L66.8427 46.8374C66.5227 44.9774 65.7427 41.5574 64.9527 38.4074C63.9137 35.4676 63.0751 32.4607 62.4427 29.4074C61.7771 26.5576 61.6113 23.6139 61.9527 20.7074C62.0149 19.9228 62.2431 19.1604 62.6224 18.4707C63.0017 17.7811 63.5234 17.18 64.1527 16.7074L64.2927 16.6174C64.3843 16.5634 64.4815 16.5198 64.5827 16.4874L64.7427 16.9374L64.6827 16.4574H64.8127H65.0027H65.3427C65.4659 16.4479 65.5896 16.4479 65.7127 16.4574H65.8627C66.0393 16.4922 66.2106 16.5493 66.3727 16.6274C66.4733 16.6694 66.5703 16.7196 66.6627 16.7774L66.9227 16.9374C67.1203 17.0807 67.3074 17.2377 67.4827 17.4074C67.6925 17.6301 67.8864 17.8674 68.0627 18.1174C68.0627 18.1674 68.1727 18.2674 68.2427 18.3574L68.3527 18.5374L68.5927 18.9474C68.6527 19.0674 68.7227 19.1774 68.7827 19.3074C68.8427 19.4374 69.0227 19.8174 69.1427 20.1074L69.2427 20.3374C69.2427 20.3374 69.3327 20.5874 69.3727 20.6674L69.7427 21.6674C69.7557 21.736 69.7758 21.803 69.8027 21.8674L70.0127 22.4974C70.0127 22.6474 70.0927 22.7274 70.1127 22.7974L70.3227 23.4174V23.4874C70.6227 24.4074 70.9227 25.3874 71.2227 26.4174V26.4874L71.4427 27.2374V27.3074C71.5027 27.4674 71.5827 27.7274 71.6527 27.9774L72.9527 32.3974L73.3427 33.7574L73.4227 34.1374C73.4182 34.1873 73.4182 34.2375 73.4227 34.2874L74.0527 36.4874C74.2327 37.1174 74.3927 37.6574 74.5527 38.1574L74.6127 38.3674C74.6727 38.5874 74.7327 38.7874 74.7927 38.9774L74.9527 39.1874C74.9527 39.1874 75.2827 40.1874 75.3327 40.3474V40.4774C75.4027 40.6674 75.4627 40.8074 75.5127 40.9374V41.0474C75.876 41.9552 76.3072 42.8344 76.8027 43.6774L76.8927 43.8074C76.7827 42.8074 76.4827 41.0174 76.0427 38.7174C75.6427 36.7174 75.2727 34.9074 75.2727 34.9074C75.2727 34.9074 74.5127 32.5474 73.7327 29.3174C73.6427 28.9574 73.5627 28.5974 73.4727 28.2174C72.823 25.5204 72.3454 22.7849 72.0427 20.0274C71.777 17.904 71.8005 15.7544 72.1127 13.6374C72.2752 12.3678 72.8393 11.1835 73.7227 10.2574C73.9674 10.0219 74.2475 9.82618 74.5527 9.6774C74.8212 9.57633 75.1059 9.52549 75.3927 9.5274H75.7927C76.8055 9.73313 77.6965 10.3295 78.2727 11.1874C79.1587 12.3867 79.807 13.7445 80.1827 15.1874C80.1827 15.2774 80.2527 15.3974 80.2827 15.5274C80.3168 15.6082 80.3436 15.6918 80.3627 15.7774L80.5927 16.5474H80.7127V16.9574C80.8227 17.3474 81.2927 18.9574 81.2927 18.9574C81.4227 19.3974 81.5427 19.8374 81.6727 20.2974C81.8027 20.7574 81.9627 21.2974 82.1127 21.8174L82.3127 22.5274C82.3127 22.6874 82.3927 22.8474 82.4427 22.9974L82.7527 24.0974C82.8527 24.4674 82.9627 24.8374 83.0727 25.2074C83.0727 25.2074 83.4527 26.6174 83.4827 26.7174L83.6227 27.1874L83.7527 27.6674L84.1627 29.1474C84.2327 29.3974 84.3027 29.6374 84.3527 29.8674C84.4027 30.0974 85.1027 32.5774 85.1027 32.5774C85.2627 33.1474 85.4227 33.7074 85.5527 34.2174C85.5527 34.3474 85.6227 34.4574 85.6627 34.5674L85.8227 35.1874V35.3174C85.9727 35.8874 86.1227 36.4174 86.2427 36.8674V36.9274C86.2427 36.9274 86.3227 37.1974 86.3327 37.2474H86.4427V37.7274L86.6527 38.4474V38.5774C86.6732 38.6498 86.6899 38.7232 86.7027 38.7974V38.9474C86.8015 39.3272 86.9217 39.7012 87.0627 40.0674L87.1727 40.3474C87.3177 40.7984 87.576 41.2047 87.9227 41.5274C88.0256 40.9771 88.0592 40.4161 88.0227 39.8574C88.0227 39.2874 88.0227 38.6274 87.9127 37.9374C87.7927 36.5674 87.6327 35.2574 87.5227 34.3874C87.3027 32.6674 87.0927 31.3874 87.0927 31.3874C86.5457 28.749 86.1815 26.076 86.0027 23.3874C86.0027 22.7474 86.0027 22.0774 86.0027 21.3874C86.0128 20.563 86.0863 19.7405 86.2227 18.9274C86.3118 17.7721 86.846 16.6965 87.7127 15.9274C87.8656 15.8113 88.0339 15.7171 88.2127 15.6474C88.3222 15.5972 88.436 15.5571 88.5527 15.5274H88.6127H88.9527C89.0289 15.5152 89.1066 15.5152 89.1827 15.5274H89.3227C89.4026 15.5197 89.4829 15.5197 89.5627 15.5274C89.7402 15.557 89.9144 15.6039 90.0827 15.6674H90.1927L90.4727 15.8074L90.6627 15.9274L90.7927 16.0474L90.9527 16.1774L91.1827 16.3174V16.3874C91.3525 16.5444 91.5128 16.7114 91.6627 16.8874L91.9927 17.3074L92.0927 17.4374L92.3127 17.7674C92.4627 18.0074 92.6127 18.2574 92.7627 18.5274L93.1227 19.1974V19.2774L93.2827 19.5974L93.6527 20.3974L93.8927 20.9874L93.9627 21.0574V21.1574L94.0427 21.3774C94.0927 21.4774 94.1327 21.6074 94.1827 21.7374V21.8274L93.7627 22.0574L94.2327 21.9774C94.2927 22.1374 94.3627 22.3174 94.4227 22.4974C94.4827 22.6774 94.5227 22.7974 94.5727 22.9374L94.6627 23.2274C94.7727 23.5574 94.8627 23.8774 94.9427 24.1574C94.9427 24.1574 94.9427 24.2174 94.9427 24.2774V24.3774C94.9715 24.4557 94.9949 24.5359 95.0127 24.6174C95.0216 24.6938 95.0216 24.771 95.0127 24.8474V24.9474H95.1227V25.3774L95.9527 27.0174L96.3727 28.4374C96.3995 28.5053 96.4196 28.5756 96.4327 28.6474L97.1527 31.1874L97.7127 33.1874C98.3527 35.4874 98.8527 37.4174 99.3127 39.2574C99.7027 40.8174 100.083 42.3774 100.443 43.9374L100.553 44.4074L100.763 45.2874L100.873 45.6974C100.883 45.767 100.883 45.8378 100.873 45.9074C100.873 45.9074 100.873 45.9874 100.873 46.0674V46.1774L101.033 46.6674L101.233 47.1774C101.263 47.2536 101.3 47.3272 101.343 47.3974C101.393 47.5318 101.453 47.6621 101.523 47.7874L101.583 47.9074C101.803 48.3136 102.05 48.7045 102.323 49.0774L102.513 49.3074C102.623 49.4474 102.753 49.5974 102.883 49.7374L102.983 49.8474C103.593 49.0152 104.119 48.1241 104.553 47.1874L104.823 46.6274C105.759 44.6775 106.86 42.8108 108.113 41.0474C110.043 38.3274 112.113 36.7574 114.263 36.2274L114.663 36.1474C115.02 36.0944 115.381 36.0677 115.743 36.0674C116.517 36.0612 117.285 36.1933 118.013 36.4574C118.718 36.7025 119.306 37.2017 119.663 37.8574C119.751 38.0311 119.815 38.2162 119.853 38.4074V38.5274V38.6274V38.8574C119.872 39.077 119.872 39.2978 119.853 39.5174V39.5674V39.7174C119.621 40.5052 119.259 41.2488 118.783 41.9174C118.613 42.1974 118.433 42.4774 118.283 42.7574C117.923 43.4174 117.583 44.0474 117.283 44.7574C116.035 47.0429 115.096 49.4843 114.493 52.0174C114.303 53.0174 114.193 54.0174 114.083 55.0174C113.973 56.0174 113.893 56.7674 113.743 57.6374C113.423 59.4574 113.023 61.3274 112.543 63.1874C112.241 64.4382 111.846 65.6649 111.363 66.8574C110.963 67.7674 110.623 68.6174 110.293 69.4374L110.003 70.1274C109.693 70.8874 109.383 71.6174 109.003 72.3774C108.623 73.1374 108.263 73.9174 107.853 74.6574C106.327 77.4739 105.578 80.6458 105.683 83.8474C105.723 85.0487 105.873 86.2437 106.133 87.4174C106.589 89.329 107.146 91.215 107.803 93.0674C108.053 93.8174 108.303 94.5574 108.543 95.3074L111.343 104.237V104.307C111.653 105.307 111.973 106.307 112.283 107.307L112.343 107.467L112.493 107.967C112.802 108.53 113.021 109.137 113.143 109.767C113.213 110.007 113.263 110.237 113.323 110.417C113.583 111.167 113.833 111.927 114.083 112.687L114.233 113.147L113.773 113.287C111.27 114.068 108.726 114.709 106.153 115.207C101.698 116.076 97.1711 116.518 92.6327 116.527Z" fill="white"/>
<path d="M75.4327 10.0476C75.5425 10.0382 75.6529 10.0382 75.7627 10.0476C76.6493 10.2189 77.4346 10.7281 77.9527 11.4676C78.7991 12.6062 79.4203 13.896 79.7827 15.2676C79.7827 15.3576 79.8427 15.4676 79.8727 15.5776C79.9027 15.6876 79.9327 15.7576 79.9627 15.8476L80.0227 16.0676L80.1327 16.3976C80.1827 16.5876 80.2427 16.7776 80.2927 16.9576L80.8827 18.9576C81.0127 19.3976 81.1427 19.8376 81.2627 20.2976C81.3827 20.7576 81.5527 21.2976 81.7027 21.8076C81.7727 22.0476 81.8327 22.2876 81.9027 22.5276C81.9727 22.7676 81.9927 22.8476 82.0427 23.0076C82.0927 23.1676 82.1227 23.3176 82.1727 23.4676C82.2227 23.6176 82.1727 23.6476 82.2427 23.7476L82.6627 25.2176C82.7527 25.5176 82.8227 25.8276 82.9127 26.1276C82.9127 26.1276 82.9127 26.1876 82.9127 26.2076C82.9127 26.3776 83.0127 26.5376 83.0527 26.7076C83.0927 26.8776 83.1427 27.0276 83.1927 27.1976C83.2427 27.3676 83.2827 27.5176 83.3327 27.6876C83.3827 27.8576 83.4627 28.1776 83.5327 28.4176C83.6027 28.6576 83.6627 28.8976 83.7327 29.1476C83.8027 29.3976 83.8727 29.6276 83.9327 29.8576C83.9927 30.0876 84.0827 30.4176 84.1527 30.6776C84.2327 30.9376 84.3027 31.2076 84.3827 31.4676C84.4627 31.7276 84.4527 31.7676 84.5027 31.9076C84.5527 32.0476 84.6127 32.3576 84.6727 32.5676C84.8427 33.1376 84.9927 33.6876 85.1227 34.1976C85.1227 34.3376 85.1927 34.4576 85.2427 34.5876L85.4227 35.2876C85.5727 35.8676 85.7227 36.3976 85.8527 36.8476L85.9527 37.1876C86.0062 37.3447 86.0496 37.505 86.0827 37.6676V37.7876C86.1627 38.0976 86.2327 38.3476 86.2827 38.5276C86.2872 38.5641 86.2872 38.6011 86.2827 38.6376C86.2827 38.6376 86.2827 38.6976 86.2827 38.7176C86.2852 38.7542 86.2852 38.791 86.2827 38.8276V38.8776C86.2827 38.8776 86.2827 38.9576 86.2827 39.0176C86.422 39.4173 86.5856 39.808 86.7727 40.1876C86.8187 40.2817 86.8588 40.3785 86.8927 40.4776C87.1927 41.1676 87.5827 41.8476 88.0327 41.9676C88.0957 41.9774 88.1598 41.9774 88.2227 41.9676H88.2827C88.5927 41.8976 88.6827 41.0176 88.6527 39.7876C88.6527 39.2076 88.6527 38.5276 88.5427 37.7876C88.4427 36.5976 88.3027 35.3276 88.1527 34.2176C87.9527 32.5476 87.7227 31.1876 87.7227 31.1876C87.1741 28.5734 86.8131 25.9233 86.6427 23.2576C86.6427 22.5876 86.6427 21.9176 86.6427 21.2576C86.6554 20.4598 86.7289 19.6642 86.8627 18.8776C86.9433 17.8496 87.4073 16.8895 88.1627 16.1876C88.2856 16.0967 88.4202 16.0227 88.5627 15.9676C88.6555 15.9239 88.7527 15.8904 88.8527 15.8676H88.9527H89.2327H89.5427C89.6828 15.8902 89.8202 15.9271 89.9527 15.9776H90.0327L90.2027 16.0476L90.3427 16.1376L90.4827 16.2276L90.6427 16.3576C90.6814 16.3851 90.7181 16.4152 90.7527 16.4476L90.8427 16.5276C91.0027 16.6776 91.1527 16.8376 91.3127 17.0176C91.4727 17.1976 91.5227 17.2776 91.6227 17.4176L91.7327 17.5676L91.9227 17.8476C92.0727 18.0776 92.2227 18.3276 92.3627 18.5776L92.5127 18.8576C92.5727 18.9576 92.6127 19.0476 92.6627 19.1376C92.69 19.1822 92.7135 19.229 92.7327 19.2776C92.7927 19.3876 92.8527 19.5076 92.9027 19.6176C92.9527 19.7276 93.1127 20.0876 93.2227 20.3176C93.3327 20.5676 93.4327 20.8176 93.5327 21.0576C93.5327 21.0576 93.6027 21.2476 93.6427 21.3376C93.6827 21.4276 93.7527 21.6376 93.8027 21.7776C93.8527 21.9176 93.8027 21.8776 93.8027 21.9276C93.8027 21.9776 93.9427 22.2776 94.0027 22.4476C94.0627 22.6176 94.0927 22.7476 94.1427 22.8976C94.1927 23.0476 94.2027 23.0776 94.2227 23.1576C94.3427 23.4976 94.4327 23.8176 94.5127 24.0876V24.1876V24.2876C94.5127 24.3676 94.5127 24.4476 94.5727 24.5176C94.5807 24.584 94.5807 24.6512 94.5727 24.7176V24.7876C94.6327 25.0076 94.6627 25.1476 94.6827 25.2276C94.7027 25.3076 94.6827 25.2276 94.6827 25.2276C94.8527 25.7776 95.0127 26.3276 95.1827 26.8776C95.186 26.9008 95.186 26.9244 95.1827 26.9476C95.3227 27.4276 95.4727 27.9476 95.6027 28.3776C95.6273 28.4428 95.6473 28.5096 95.6627 28.5776C95.9127 29.4176 96.1527 30.2476 96.3827 31.0776L96.4427 31.2476L96.9527 33.0876C97.5027 35.0876 98.0427 37.0876 98.5427 39.1476C98.9327 40.7076 99.3027 42.2676 99.6727 43.8276L99.7727 44.2876C99.8527 44.5876 99.9227 44.8976 99.9927 45.1876C100.063 45.4776 100.073 45.4776 100.113 45.6176C100.153 45.7576 100.113 45.7076 100.113 45.7576C100.113 45.8076 100.173 45.9476 100.193 46.0376C100.213 46.1276 100.193 46.0376 100.193 46.0976C100.193 46.2676 100.303 46.4276 100.353 46.5876L100.453 46.8576L100.563 47.1276C100.563 47.2276 100.643 47.3076 100.683 47.3976C100.723 47.4876 100.803 47.6676 100.883 47.8076V47.9076C101.112 48.3363 101.373 48.7475 101.663 49.1376L101.863 49.3876C101.983 49.5376 102.123 49.6976 102.263 49.8476C102.383 49.9676 102.513 50.1176 102.653 50.2476C102.793 50.3776 102.653 50.2476 102.653 50.2476C103.505 49.1231 104.207 47.8929 104.743 46.5876C105.666 44.6579 106.753 42.8111 107.993 41.0676C109.433 39.0676 111.343 37.0676 113.863 36.4376L114.223 36.3676C114.553 36.3151 114.888 36.2883 115.223 36.2876C115.935 36.2826 116.643 36.4045 117.313 36.6476C117.908 36.8552 118.409 37.2706 118.723 37.8176C118.789 37.9548 118.839 38.099 118.873 38.2476C118.873 38.2476 118.873 38.3076 118.873 38.3576C118.868 38.3841 118.868 38.4111 118.873 38.4376C118.873 38.5076 118.873 38.5676 118.873 38.6376C118.887 38.8273 118.887 39.0179 118.873 39.2076C118.867 39.2373 118.867 39.2679 118.873 39.2976V39.4176C118.493 40.4456 117.982 41.4203 117.353 42.3176C117.003 42.9676 116.653 43.6176 116.353 44.3176C115.2 46.7397 114.392 49.3114 113.953 51.9576C113.583 53.7876 113.513 55.6976 113.193 57.5476C112.873 59.3976 112.473 61.2376 112.003 63.0576C111.707 64.285 111.319 65.4884 110.843 66.6576C110.333 67.8376 109.913 68.9076 109.483 69.9376C109.173 70.6876 108.873 71.4176 108.483 72.1676C108.093 72.9176 107.783 73.6276 107.353 74.4176C105.788 77.3118 105.019 80.5691 105.123 83.8576C105.161 85.0861 105.315 86.3082 105.583 87.5076C106.163 90.1976 107.173 92.8276 107.993 95.4376C108.933 98.4376 109.873 101.438 110.803 104.438C111.133 105.508 111.473 106.578 111.803 107.648C111.863 107.838 111.923 108.028 111.973 108.218C112.356 108.972 112.632 109.777 112.793 110.608C113.053 111.358 113.303 112.118 113.553 112.878C111.067 113.653 108.54 114.287 105.983 114.778C101.552 115.643 97.0475 116.078 92.5327 116.078H91.5127C88.3763 116.033 85.2463 115.783 82.1427 115.328L80.8827 103.428C80.4627 99.4276 80.4227 95.3476 79.6227 91.4276C79.3502 89.9736 78.9348 88.55 78.3827 87.1776C76.9527 83.5876 74.0327 80.9876 71.9527 77.8576C66.2628 69.3901 61.8269 60.1445 58.7827 50.4076C58.1727 48.4076 57.4927 46.4076 56.8927 44.2976C55.9951 41.4542 55.4181 38.5193 55.1727 35.5476C55.0727 33.9276 55.4727 33.0576 56.5927 32.4476L56.7327 32.3776C56.803 32.3407 56.8767 32.3106 56.9527 32.2876H57.0727H57.5527L57.7627 32.3376C58.0953 32.4604 58.406 32.636 58.6827 32.8576C58.9532 33.0824 59.2072 33.3264 59.4427 33.5876C59.5727 33.7176 59.7027 33.8776 59.8327 34.0276C59.9627 34.1776 60.0827 34.3376 60.2027 34.5076L60.3827 34.7576L60.5627 35.0076C60.9827 35.6276 61.3827 36.2676 61.6827 36.8276L61.8027 37.0376C61.8552 37.0851 61.9053 37.1351 61.9527 37.1876C62.0205 37.2967 62.0806 37.4103 62.1327 37.5276C62.2227 37.6776 62.2827 37.8176 62.3427 37.9276C62.4027 38.0376 62.4227 38.0976 62.4527 38.1576L62.5527 38.3476L66.2327 46.4476C66.2286 46.4842 66.2286 46.5211 66.2327 46.5576L66.3527 46.8776V46.9276C66.3719 46.9795 66.3953 47.0296 66.4227 47.0776C66.4227 47.1376 66.4227 47.1876 66.4927 47.2476C66.6265 47.5722 66.8122 47.8728 67.0427 48.1376C67.0727 48.1798 67.1115 48.2151 67.1563 48.241C67.2012 48.2669 67.2511 48.2828 67.3027 48.2876H67.3627C67.8527 48.1276 65.3627 38.2176 65.3627 38.2176C64.3226 35.2789 63.4873 32.2717 62.8627 29.2176C62.1956 26.4296 62.0129 23.5476 62.3227 20.6976C62.3845 19.9851 62.5943 19.2934 62.9387 18.6666C63.2831 18.0398 63.7545 17.4918 64.3227 17.0576L64.4427 16.9776L64.6027 16.9076H64.7627H64.9327H65.2127C65.3058 16.8978 65.3997 16.8978 65.4927 16.9076H65.5827C65.7419 16.9377 65.8965 16.9881 66.0427 17.0576L66.2727 17.1776C66.3571 17.2203 66.4374 17.2705 66.5127 17.3276C66.6971 17.453 66.868 17.5971 67.0227 17.7576C67.213 17.9531 67.3869 18.1638 67.5427 18.3876C67.6216 18.4834 67.6951 18.5836 67.7627 18.6876L68.0527 19.1776C68.0527 19.2876 68.1627 19.3976 68.2227 19.5176C68.2827 19.6376 68.4527 20.0076 68.5727 20.2876C68.5727 20.3576 68.6327 20.4276 68.6727 20.5076C68.7127 20.5876 68.7527 20.7376 68.8027 20.8576C68.7972 20.8941 68.7972 20.9311 68.8027 20.9676C68.9027 21.2576 69.0127 21.5376 69.1227 21.8576C69.14 21.9262 69.1634 21.9932 69.1927 22.0576C69.2527 22.2676 69.3227 22.4576 69.3927 22.6776C69.4627 22.8976 69.4627 22.8876 69.5027 22.9976C69.5427 23.1076 69.6327 23.3876 69.7027 23.5976C69.7027 23.5976 69.7027 23.5976 69.7027 23.6576C69.9927 24.5676 70.3027 25.5576 70.6127 26.5976C70.6038 26.6303 70.6038 26.6649 70.6127 26.6976C70.6827 26.9276 70.7527 27.1576 70.8127 27.3876C70.8927 27.6376 70.9727 27.8876 71.0327 28.1376C71.2127 28.7576 71.4027 29.3776 71.5827 30.0076C71.5827 30.0076 71.5827 30.1076 71.5827 30.1676C71.7327 30.7176 71.9027 31.2576 72.0527 31.8076L72.9527 34.1876C72.9527 34.2776 72.9527 34.3476 73.0227 34.4376C73.1727 34.9776 73.3327 35.5176 73.4727 36.0176C73.4727 36.1076 73.4727 36.1976 73.5527 36.2876C73.6327 36.3776 73.6227 36.5176 73.6527 36.6376C73.8427 37.2976 74.0327 37.9076 74.2027 38.4676C74.2727 38.7376 74.3627 39.0076 74.4327 39.2476C74.4284 39.2707 74.4284 39.2945 74.4327 39.3176V39.4676C74.4327 39.6376 74.5327 39.7776 74.5827 39.9276C74.5784 39.9675 74.5784 40.0077 74.5827 40.0476C74.6327 40.2076 74.6827 40.3676 74.7327 40.5076C74.737 40.5575 74.737 40.6077 74.7327 40.6576C74.8127 40.8776 74.8927 41.0676 74.9527 41.2176C75.3231 42.155 75.7678 43.0612 76.2827 43.9276L76.3427 44.0276L76.4927 44.2476C76.5182 44.2657 76.5388 44.2897 76.5527 44.3176V44.3876C76.6257 44.4748 76.7098 44.5521 76.8027 44.6176H76.8827H76.9327C76.979 44.6261 77.0264 44.6261 77.0727 44.6176C77.0727 44.6176 77.1527 44.5076 77.1527 44.2976C76.9683 42.3343 76.6644 40.384 76.2427 38.4576C75.8427 36.4576 75.4727 34.6376 75.4727 34.6376C75.4727 34.6376 74.7227 32.2976 73.9327 29.0376C73.8427 28.6776 73.7627 28.3176 73.6727 27.9376C73.0387 25.2581 72.5646 22.5434 72.2527 19.8076C71.9916 17.7308 72.0151 15.6281 72.3227 13.5576C72.4648 12.3887 72.9763 11.2956 73.7827 10.4376C73.997 10.2366 74.2395 10.0681 74.5027 9.93761C74.705 9.86661 74.9184 9.83273 75.1327 9.83761L75.4327 10.0476ZM75.1327 8.88761C74.7917 8.88178 74.4526 8.93943 74.1327 9.05761C73.7642 9.22758 73.4263 9.45735 73.1327 9.73761C72.1762 10.727 71.5688 12.0015 71.4027 13.3676C71.0715 15.5232 71.0446 17.7146 71.3227 19.8776C71.6278 22.6586 72.1087 25.4175 72.7627 28.1376C72.8427 28.5076 72.9327 28.8776 73.0227 29.2376C73.7627 32.2376 74.4527 34.5076 74.5627 34.8576C74.6727 35.2076 74.9627 36.7676 75.3227 38.6176C75.4727 39.3676 75.6027 40.0676 75.7127 40.6976V40.6176C75.7127 40.4976 75.6127 40.3576 75.5527 40.1976C75.5487 40.151 75.5487 40.1042 75.5527 40.0576L75.4027 39.6176V39.5476V39.4876L75.3127 39.1976V39.0676V38.9976V38.8576V38.6876C75.2527 38.4976 75.1927 38.3076 75.1327 38.0976L75.0727 37.9076C74.9227 37.3976 74.7527 36.8476 74.5827 36.2676C74.5827 36.1376 74.5127 36.0176 74.4827 35.8976V35.7776V35.6576C74.3327 35.1476 74.1827 34.6576 74.0327 34.0676L73.9527 34.1876V34.0776L73.8027 33.3176H73.7327L73.3127 31.8076V31.6876C73.2427 31.4176 73.1627 31.1376 73.0827 30.8676C73.0027 30.5976 72.9227 30.3276 72.8527 30.0576V29.9176C72.7527 29.5676 72.6527 29.2076 72.5427 28.8576L72.3127 28.0476C72.2527 27.8376 72.1827 27.6076 72.1127 27.3876L71.9527 27.1876V27.0576L71.7827 26.4976V26.4176C71.4827 25.4176 71.1927 24.4176 70.9027 23.5476V23.4076V23.2476C70.9027 23.1076 70.8027 22.9676 70.7627 22.8276V22.7676C70.7627 22.6976 70.7627 22.6276 70.6927 22.5676V22.4876C70.6927 22.3476 70.6027 22.2076 70.5527 22.0676L70.4927 21.8676C70.4723 21.8258 70.4555 21.7823 70.4427 21.7376L69.9527 20.9876L69.8427 20.6876V20.5976C69.8068 20.5269 69.7767 20.4533 69.7527 20.3776V20.2876V20.1876V20.1276L69.6827 19.9676C69.5527 19.6776 69.4427 19.4076 69.3127 19.1576C69.1827 18.9076 69.1927 18.9176 69.1227 18.7976C69.0527 18.6776 68.9527 18.4976 68.8627 18.3576V18.2676L68.6027 18.1876C68.5418 18.0871 68.475 17.9903 68.4027 17.8976C68.228 17.6405 68.0305 17.3995 67.8127 17.1776C67.6085 16.9762 67.3877 16.7922 67.1527 16.6276C67.0554 16.555 66.9516 16.4914 66.8427 16.4376C66.7414 16.3714 66.6343 16.3145 66.5227 16.2676C66.3365 16.1819 66.1422 16.1149 65.9427 16.0676H65.8227C65.6664 16.0532 65.5091 16.0532 65.3527 16.0676H64.9527H64.7527H64.6727H64.5627H64.4927C64.3901 16.1045 64.2899 16.1479 64.1927 16.1976H64.1327L63.9427 16.3276C63.27 16.8285 62.711 17.4663 62.3026 18.1988C61.8941 18.9313 61.6453 19.742 61.5727 20.5776C61.228 23.543 61.4108 26.546 62.1127 29.4476C62.7453 32.5215 63.5873 35.5486 64.6327 38.5076C64.9727 39.8476 65.3027 41.2376 65.6327 42.5076L63.5427 37.9176L63.4427 37.7076C63.4408 37.6843 63.4408 37.6609 63.4427 37.6376V37.5376C63.3827 37.4076 63.3027 37.2576 63.2127 37.0876C63.1227 36.9176 63.1127 36.8876 63.0427 36.7676C63.0232 36.7255 62.9997 36.6854 62.9727 36.6476V36.5876C62.9499 36.5389 62.9231 36.492 62.8927 36.4476C62.5627 35.8476 62.1627 35.1976 61.7327 34.5676L61.1827 34.1876L61.0127 33.9476L60.5927 33.4076L60.1727 32.9276C59.9012 32.6353 59.6106 32.3614 59.3027 32.1076C58.9381 31.8181 58.5296 31.5885 58.0927 31.4276H58.0227H57.8727H57.7227H57.4927H57.3027H57.0027H56.9527H56.7927C56.6366 31.4618 56.4854 31.5156 56.3427 31.5876L56.1427 31.6976C55.4482 32.0816 54.8926 32.675 54.5551 33.3932C54.2175 34.1114 54.1152 34.9179 54.2627 35.6976C54.5004 38.7038 55.0672 41.6749 55.9527 44.5576C56.3527 45.9576 56.7927 47.3476 57.2227 48.6976L57.8527 50.6976C59.73 56.7308 62.1429 62.5841 65.0627 68.1876C66.8946 71.7 68.9245 75.1055 71.1427 78.3876C71.9127 79.5376 72.8027 80.6276 73.6527 81.6776C75.2245 83.4031 76.5229 85.3591 77.5027 87.4776C78.0276 88.8003 78.4261 90.1698 78.6927 91.5676C79.1614 94.1692 79.4654 96.7977 79.6027 99.4376C79.6927 100.768 79.7927 102.148 79.9327 103.498C80.1427 105.498 80.3627 107.498 80.5727 109.498L81.2027 115.498L81.2827 116.228L82.0127 116.338C85.156 116.798 88.3262 117.052 91.5027 117.098H92.6227C99.8465 117.101 107.029 116.005 113.923 113.848L114.843 113.568L114.543 112.648C114.293 111.898 114.043 111.138 113.783 110.378C113.783 110.208 113.673 109.988 113.613 109.758C113.486 109.099 113.257 108.465 112.933 107.878C112.933 107.728 112.843 107.578 112.803 107.438C112.473 106.438 112.153 105.438 111.803 104.358V104.188L111.733 104.048L110.343 99.6376L108.953 95.1876C108.713 94.4376 108.463 93.6876 108.213 92.9376C107.562 91.1011 107.008 89.2319 106.553 87.3376C106.305 86.1928 106.161 85.0281 106.123 83.8576C106.012 80.7232 106.74 77.6162 108.233 74.8576C108.643 74.1176 109.023 73.3576 109.393 72.5476C109.763 71.7376 110.123 70.8976 110.393 70.2876L110.673 69.5976C111.013 68.7776 111.353 67.9376 111.743 67.0276C112.237 65.8158 112.642 64.569 112.953 63.2976C113.433 61.4276 113.843 59.5476 114.163 57.7076C114.313 56.8276 114.413 55.9276 114.503 55.0676C114.613 54.0676 114.723 53.0676 114.913 52.1376C115.5 49.6483 116.422 47.2499 117.653 45.0076C117.993 44.3476 118.343 43.7076 118.653 43.0676C118.803 42.7976 118.973 42.5276 119.153 42.2476C119.646 41.5382 120.024 40.7552 120.273 39.9276V39.8176V39.7076V39.6276C120.289 39.3812 120.289 39.134 120.273 38.8876V38.8176C120.273 38.7276 120.273 38.6776 120.273 38.6176V38.5376C120.273 38.5376 120.273 38.4676 120.273 38.4276V38.3376C120.23 38.1151 120.156 37.8996 120.053 37.6976C119.644 36.933 118.962 36.3509 118.143 36.0676C117.362 35.7782 116.535 35.6325 115.703 35.6376C115.31 35.6348 114.919 35.6683 114.533 35.7376L114.123 35.8176C111.793 36.3776 109.693 38.0076 107.683 40.8176C106.422 42.6082 105.309 44.4976 104.353 46.4676L104.083 47.0376C103.786 47.722 103.452 48.3896 103.083 49.0376L103.023 48.9576L102.933 48.8476L102.833 48.7276C102.578 48.3825 102.351 48.0181 102.153 47.6376C102.075 47.493 102.008 47.3426 101.953 47.1876L101.873 47.0276L101.823 46.8876L101.763 46.7576L101.663 46.4876C101.648 46.4228 101.628 46.3593 101.603 46.2976C101.572 46.2124 101.545 46.1256 101.523 46.0376C101.527 46.0145 101.527 45.9907 101.523 45.9676C101.509 45.8993 101.489 45.8324 101.463 45.7676C101.463 45.7676 101.463 45.7176 101.463 45.6976V45.6376L101.403 45.4376L101.343 45.2276C101.343 45.1076 101.283 44.9676 101.253 44.8176L101.133 44.3476V44.1576L101.083 43.9276C100.683 42.2076 100.303 40.6676 99.9427 39.2176C99.4927 37.3876 98.9427 35.4576 98.3427 33.1376L98.0327 32.0076L97.8327 31.2976V31.1876C97.827 31.1478 97.827 31.1074 97.8327 31.0676C97.5927 30.2176 97.3527 29.3876 97.1027 28.5476C97.0883 28.4729 97.0683 28.3993 97.0427 28.3276C96.9127 27.8676 96.7727 27.4176 96.6327 26.9676C96.6377 26.9177 96.6377 26.8675 96.6327 26.8176L96.3927 26.0176L95.9527 25.2976V25.1676C95.9484 25.1445 95.9484 25.1207 95.9527 25.0976C95.9527 25.0076 95.8927 24.8776 95.8427 24.7076V24.6576C95.8472 24.611 95.8472 24.5642 95.8427 24.5176C95.8233 24.4158 95.7965 24.3156 95.7627 24.2176V24.1476C95.7462 24.0832 95.7262 24.0198 95.7027 23.9576C95.6327 23.6876 95.5327 23.3876 95.4327 23.0576C95.4299 23.0143 95.4299 22.9709 95.4327 22.9276C95.4285 22.8978 95.4285 22.8675 95.4327 22.8376L95.3127 22.4576V22.3976C95.2527 22.2176 95.1827 22.0376 95.1127 21.8476V21.7876V21.6876C95.0716 21.5511 95.0215 21.4175 94.9627 21.2876C94.9645 21.2543 94.9645 21.2209 94.9627 21.1876V20.9776L94.8127 20.8276C94.8127 20.6876 94.7027 20.5476 94.6427 20.4076L94.5527 20.1876C94.4827 20.0576 94.4327 19.9276 94.3727 19.7976L94.2327 19.4976L94.0827 19.1876L93.9627 18.9676V18.8576L93.8727 18.6876L93.8127 18.5776L93.7127 18.4076C93.5727 18.1476 93.4127 17.8676 93.2327 17.5976L93.1327 17.4476L92.6027 17.1876V17.1376V17.0876V17.0176C92.5127 16.8876 92.4127 16.7676 92.3227 16.6476V16.5876L91.7727 16.1876V16.0676L91.3627 15.8076L91.2827 15.7476L91.2127 15.6876H91.1627L90.9527 15.3876H90.8427H90.7627L90.3927 15.1876H90.3227H90.2327C90.0423 15.1158 89.8444 15.0655 89.6427 15.0376H89.3827H89.1227H88.8427H88.6827H88.5627C88.4119 15.0788 88.2648 15.1323 88.1227 15.1976C87.9139 15.2843 87.7159 15.3951 87.5327 15.5276C86.5867 16.3721 85.9969 17.5446 85.8827 18.8076C85.7429 19.6406 85.666 20.483 85.6527 21.3276C85.6527 22.0476 85.6527 22.7376 85.6527 23.3276C85.8279 26.0331 86.1921 28.723 86.7427 31.3776C86.7427 31.5676 86.9727 32.8276 87.1727 34.3776C87.2827 35.2376 87.4427 36.5476 87.5627 37.9076C87.5627 38.5176 87.6527 39.1576 87.6627 39.8076V39.9376L87.6027 39.8076C87.479 39.48 87.3722 39.1462 87.2827 38.8076V38.6676C87.2881 38.6077 87.2881 38.5475 87.2827 38.4876C87.2827 38.4876 87.2827 38.4876 87.2827 38.4276V38.3676L87.0927 37.6676V36.8176H86.8627V36.7576C86.7327 36.3076 86.5927 35.7576 86.4427 35.2176L86.3727 34.9676C86.3727 34.8376 86.3027 34.7076 86.2727 34.5776V34.5076C86.2335 34.4037 86.2034 34.2967 86.1827 34.1876C86.0327 33.6576 85.8827 33.0976 85.7227 32.5276L85.5427 31.8876C85.5267 31.8165 85.5067 31.7464 85.4827 31.6776L85.4227 31.4176C85.4227 31.2976 85.3527 31.1676 85.3127 31.0376C85.2907 30.9463 85.264 30.8562 85.2327 30.7676V30.6376C85.1527 30.3776 85.0827 30.1076 85.0027 29.8276C84.9227 29.5476 84.8727 29.3476 84.8027 29.1076L84.7027 28.7476L84.6027 28.3876C84.6027 28.2476 84.5327 28.1176 84.4927 27.9876C84.4709 27.8723 84.4408 27.7586 84.4027 27.6476L84.2727 27.1776L84.2127 26.9476L83.9527 26.5076C83.9527 26.4076 83.9527 26.3176 83.8727 26.2176V26.0276V25.9676V25.8876C83.8727 25.7676 83.7927 25.5976 83.7527 25.4376L83.6327 25.0176C83.5227 24.6276 83.4127 24.2476 83.3127 23.8676L83.2227 23.5476V23.4076V23.2776L82.9527 23.0576V22.8176L82.8227 22.3476L82.6327 21.6676C82.4927 21.1576 82.3427 20.6676 82.2027 20.1476C82.0627 19.6276 81.9427 19.2476 81.8127 18.8176L81.5927 18.0576C81.4827 17.6576 81.3627 17.2676 81.2627 16.8876V16.0776H80.9527L80.8827 15.8476V15.7476V15.6376L80.7927 15.3576C80.7927 15.2376 80.7227 15.1276 80.6927 15.0276C80.2944 13.5456 79.6154 12.1538 78.6927 10.9276C78.0454 9.99705 77.0638 9.35225 75.9527 9.12761H75.4827L75.1327 8.88761Z" fill="#4D4D4D"/>
<path d="M91.4226 116.008L82.1426 115.298L80.8826 103.397C80.4626 99.3975 80.4226 95.3175 79.6226 91.3975C79.3501 89.9435 78.9347 88.5199 78.3826 87.1475C76.9526 83.5875 74.0326 80.9875 71.9526 77.8575C66.2626 69.39 61.8268 60.1444 58.7826 50.4075C57.308 46.0905 56.1483 41.6722 55.3126 37.1875C55.0839 36.1736 55.0839 35.1214 55.3126 34.1075C55.4399 33.6049 55.7163 33.1526 56.1053 32.8099C56.4944 32.4673 56.978 32.2503 57.4926 32.1875C56.9405 32.9986 56.5571 33.9124 56.3652 34.8747C56.1733 35.8369 56.1768 36.8279 56.3755 37.7887C56.5742 38.7496 56.9641 39.6607 57.5219 40.4679C58.0797 41.2751 58.7941 41.9619 59.6226 42.4875C59.3155 42.512 59.0283 42.6491 58.816 42.8724C58.6038 43.0957 58.4815 43.3895 58.4726 43.6975C58.4788 44.3156 58.6442 44.9218 58.9526 45.4575C60.1526 48.0975 60.5726 51.7175 64.1226 50.5875C61.2626 52.5875 62.1226 54.2375 63.3726 56.9675C66.5326 64.1775 69.3026 73.9675 75.8526 78.9075C81.2726 82.9975 86.8526 83.4075 93.2626 84.2075C91.7226 84.0175 87.7026 86.8375 86.6026 87.8575C84.9541 89.5885 83.918 91.8119 83.6526 94.1875C83.1065 98.4265 83.3781 102.731 84.4526 106.868C85.4426 110.707 87.8026 114.398 91.4226 116.008Z" fill="#C4C4C4"/>
<g opacity="0.2">
<path d="M88.8327 61.6876C86.9164 64.172 85.6453 67.0922 85.1327 70.1876C84.7662 72.9954 84.6791 75.8326 84.8727 78.6576C83.0013 74.5864 82.5984 69.9924 83.7327 65.6576C84.1327 64.1476 86.1127 59.8876 83.4827 59.2876C83.0101 59.2122 82.5272 59.2327 82.0627 59.3476C77.7497 60.191 73.5958 61.7061 69.7527 63.8376C70.1427 63.6176 70.6027 62.7776 70.9127 62.4376C72.4067 60.7886 74.0842 59.3157 75.9127 58.0476C78.3547 56.3829 81.026 55.0826 83.8427 54.1876C88.0934 52.7519 92.6239 52.3441 97.0627 52.9976C98.2527 53.1976 98.1227 53.5876 97.3427 54.4076C95.8827 55.9476 93.9327 56.8376 92.3427 58.1776C91.0393 59.2061 89.8612 60.3842 88.8327 61.6876Z" fill="#C4C4C4"/>
</g>
<path d="M75.1325 46.3978C72.7193 47.5105 70.1953 48.3652 67.6025 48.9478C67.5425 48.7478 67.4825 48.5478 67.4125 48.3478C67.9025 48.1878 65.4125 38.2778 65.4125 38.2778C64.3724 35.3391 63.5371 32.3319 62.9125 29.2778C62.2453 26.4897 62.0627 23.6077 62.3725 20.7578C62.4343 20.0453 62.6441 19.3535 62.9885 18.7268C63.3329 18.1 63.8043 17.552 64.3725 17.1178L64.4925 17.0378L64.6525 16.9678H64.8125H64.9825C64.8807 17.1325 64.7671 17.2895 64.6425 17.4378C63.6623 18.8168 63.2147 20.5042 63.3825 22.1878C63.5745 23.6515 63.8889 25.0966 64.3225 26.5078C64.4225 26.9178 64.3825 27.3178 64.7025 27.6078C65.0225 27.8978 66.0025 28.1278 66.3525 27.8178C65.9897 28.1943 65.7125 28.6448 65.5399 29.1385C65.3673 29.6321 65.3034 30.1572 65.3525 30.6778C65.4577 31.7085 65.7103 32.7188 66.1025 33.6778L66.6025 35.1878C66.7301 35.6771 66.9659 36.1316 67.2925 36.5178C67.4553 36.7125 67.6769 36.849 67.924 36.9067C68.1712 36.9644 68.4303 36.9402 68.6625 36.8378C68.6625 37.1878 68.2425 37.3278 68.0325 37.6078C67.7025 38.0478 67.8725 38.9578 67.8925 39.4678C67.9187 40.1938 68.0056 40.9163 68.1525 41.6278C68.4583 43.0444 69.0063 44.3976 69.7725 45.6278C69.911 45.8644 70.0944 46.0716 70.3125 46.2378C70.6211 46.3966 70.9657 46.4725 71.3125 46.4578C72.5855 46.5358 73.8626 46.5157 75.1325 46.3978Z" fill="#C4C4C4"/>
<path d="M85.1625 43.5777L82.6225 44.4077C81.2365 44.9457 79.7687 45.2433 78.2825 45.2877C78 45.3025 77.719 45.2366 77.4725 45.0977C77.3614 45.016 77.2749 44.9053 77.2225 44.7777C77.2688 44.7861 77.3163 44.7861 77.3625 44.7777C77.4225 44.7777 77.4525 44.6677 77.4525 44.4577C77.2681 42.4943 76.9642 40.544 76.5425 38.6177C76.1425 36.6177 75.7725 34.7977 75.7725 34.7977C75.7725 34.7977 75.0225 32.4577 74.2325 29.1977C74.1425 28.8377 74.0625 28.4777 73.9725 28.0977C73.3385 25.4182 72.8644 22.7034 72.5525 19.9677C72.2914 17.8908 72.3149 15.7881 72.6225 13.7177C72.7646 12.5487 73.2761 11.4557 74.0825 10.5977C73.9146 10.8951 73.7804 11.2104 73.6825 11.5377C73.3586 12.6879 73.2435 13.8868 73.3425 15.0777C73.3405 16.6774 73.5456 18.2706 73.9525 19.8177C74.0257 20.0951 74.144 20.3586 74.3025 20.5977C74.9125 21.4077 76.1625 21.2877 77.1625 21.0677C76.2625 21.5777 75.2525 22.2077 75.0525 23.2277C74.9839 23.9118 75.0977 24.6019 75.3825 25.2277C76.1841 27.5413 76.711 29.9411 76.9525 32.3777C76.9534 32.5522 77.0056 32.7226 77.1025 32.8677C77.1827 32.938 77.2764 32.9911 77.3779 33.0238C77.4793 33.0565 77.5864 33.068 77.6925 33.0577L79.6925 33.1777C79.2837 33.2686 78.9097 33.4754 78.6153 33.7734C78.3209 34.0713 78.1186 34.4478 78.0325 34.8577C77.8677 35.6761 77.8677 36.5192 78.0325 37.3377C78.3325 39.4177 78.4825 42.0477 80.7125 42.9577C82.1554 43.3907 83.6562 43.5998 85.1625 43.5777Z" fill="#C4C4C4"/>
<path d="M95.8426 40.6677C95.7726 41.2177 95.1026 41.4277 94.5526 41.5077L90.1826 42.1877C89.6356 42.3584 89.0496 42.3584 88.5026 42.1877C88.4128 42.1452 88.3288 42.0914 88.2526 42.0277C88.5626 41.9577 88.6526 41.0777 88.6226 39.8477C88.6226 39.2677 88.6226 38.5877 88.5126 37.8477C88.4126 36.6577 88.2726 35.3877 88.1226 34.2777C87.9526 32.5477 87.7226 31.1877 87.7226 31.1877C87.1739 28.5735 86.813 25.9234 86.6426 23.2577C86.6426 22.5877 86.6426 21.9177 86.6426 21.2577C86.6552 20.4599 86.7288 19.6642 86.8626 18.8777C86.9431 17.8497 87.4071 16.8895 88.1626 16.1877C88.2855 16.0968 88.42 16.0228 88.5626 15.9677C88.6553 15.924 88.7526 15.8904 88.8526 15.8677C88.4379 16.3125 88.1301 16.846 87.9526 17.4277C87.6363 18.5406 87.5883 19.7126 87.8126 20.8477C87.8437 21.6378 88.1517 22.3917 88.6826 22.9777C89.4686 23.517 90.4298 23.7385 91.3726 23.5977C90.7626 23.8677 90.1526 24.1177 89.5426 24.3777C89.3539 24.4443 89.1853 24.5579 89.0526 24.7077C88.943 24.8846 88.8874 25.0896 88.8926 25.2977C88.8194 26.63 88.8194 27.9653 88.8926 29.2977C88.8357 30.2266 89.1282 31.1433 89.7126 31.8677C90.0769 32.1623 90.5002 32.3754 90.9539 32.4927C91.4075 32.61 91.8811 32.6288 92.3426 32.5477C92.0626 33.1277 91.2026 33.1077 90.6726 33.4877C90.4012 33.7647 90.2075 34.1084 90.1109 34.484C90.0144 34.8596 90.0184 35.2541 90.1226 35.6277C90.2025 36.4926 90.3564 37.349 90.5826 38.1877C90.6779 38.6304 90.869 39.0468 91.1426 39.4077C91.4405 39.7252 91.8062 39.9713 92.2126 40.1277C93.3593 40.6051 94.6065 40.7906 95.8426 40.6677Z" fill="#C4C4C4"/>
<path d="M114.743 36.8274C113.11 38.0296 111.673 39.4766 110.483 41.1174C109.897 41.9482 109.513 42.9042 109.362 43.9094C109.211 44.9146 109.297 45.9412 109.613 46.9074C109.239 46.7804 108.837 46.7599 108.452 46.8482C108.067 46.9365 107.714 47.1301 107.433 47.4074C106.875 47.9643 106.425 48.6184 106.103 49.3374C104.726 51.6768 103.714 54.2127 103.103 56.8574C103.103 54.7274 103.103 52.5874 103.033 50.4674C103.885 49.3429 104.587 48.1127 105.123 46.8074C106.046 44.8777 107.133 43.0309 108.373 41.2874C109.813 39.2874 111.723 37.2874 114.243 36.6574L114.603 36.5874L114.743 36.8274Z" fill="#C4C4C4"/>
<g opacity="0.5">
<path d="M65.1226 68.4275C65.1196 66.7317 64.5604 65.0837 63.5308 63.7362C62.5012 62.3887 61.058 61.4161 59.4226 60.9675C59.6227 60.4263 59.7276 59.8545 59.7326 59.2775C59.7339 58.6008 59.6016 57.9305 59.3433 57.3051C59.0849 56.6797 58.7057 56.1114 58.2272 55.633C57.7487 55.1545 57.1804 54.7752 56.555 54.5168C55.9296 54.2585 55.2593 54.1262 54.5826 54.1275C53.7083 54.1293 52.8498 54.3603 52.0926 54.7975C51.3168 53.078 49.9752 51.6764 48.2913 50.8261C46.6074 49.9758 44.683 49.7282 42.8388 50.1247C40.9945 50.5211 39.3418 51.5376 38.1561 53.0048C36.9704 54.4719 36.3233 56.3011 36.3226 58.1875C36.327 58.5658 36.357 58.9433 36.4126 59.3175C35.8583 58.6036 35.0945 58.0811 34.2282 57.8232C33.362 57.5652 32.4367 57.5849 31.5822 57.8793C30.7277 58.1737 29.9867 58.7281 29.4631 59.4648C28.9395 60.2016 28.6596 61.0837 28.6626 61.9875C28.6633 62.6185 28.8035 63.2416 29.0732 63.8121C29.3429 64.3826 29.7354 64.8865 30.2226 65.2875C29.1605 66.1561 28.3935 67.3324 28.0272 68.6547C27.6608 69.9769 27.7131 71.3802 28.1768 72.6716C28.6405 73.9629 29.4929 75.0789 30.6167 75.8661C31.7405 76.6533 33.0806 77.073 34.4526 77.0675C35.5262 77.0712 36.584 76.8102 37.5326 76.3075C37.8933 77.1627 38.4985 77.8924 39.2725 78.4048C40.0464 78.9172 40.9545 79.1895 41.8826 79.1875C42.6477 79.1846 43.4001 78.9922 44.0726 78.6275C44.4629 79.506 45.0929 80.2565 45.8905 80.793C46.6881 81.3295 47.6208 81.6302 48.5816 81.6605C49.5423 81.6907 50.4922 81.4494 51.3219 80.9642C52.1517 80.479 52.8278 79.7696 53.2726 78.9175C53.5786 78.9815 53.8901 79.015 54.2026 79.0175C55.1314 79.0112 56.0358 78.7202 56.794 78.1837C57.5522 77.6473 58.1276 76.8912 58.4426 76.0175C60.2819 75.7654 61.9691 74.8597 63.1956 73.4661C64.4222 72.0725 65.1062 70.2839 65.1226 68.4275Z" fill="#98E6F9"/>
</g>
<g opacity="0.5">
<path d="M94.0427 53.3374C94.045 52.0826 93.6339 50.8619 92.8729 49.8642C92.1119 48.8664 91.0435 48.1471 89.8327 47.8174C89.9801 47.4169 90.0579 46.9942 90.0627 46.5674C90.0627 45.556 89.6616 44.5859 88.9474 43.8698C88.2331 43.1537 87.2641 42.7501 86.2527 42.7474C85.6031 42.7506 84.9655 42.9229 84.4027 43.2474C83.8243 41.978 82.8288 40.9447 81.5819 40.3193C80.3349 39.6939 78.9115 39.5141 77.5481 39.8096C76.1848 40.1052 74.9637 40.8584 74.0876 41.944C73.2116 43.0297 72.7335 44.3824 72.7327 45.7774C72.7374 46.055 72.7574 46.3321 72.7927 46.6074C72.5167 46.254 72.1695 45.9625 71.7736 45.7518C71.3778 45.5412 70.942 45.4161 70.4947 45.3847C70.0474 45.3533 69.5984 45.4162 69.177 45.5695C68.7555 45.7227 68.371 45.9628 68.0483 46.2742C67.7257 46.5856 67.472 46.9614 67.3039 47.3771C67.1358 47.7928 67.0569 48.2393 67.0724 48.6874C67.0879 49.1356 67.1974 49.5755 67.3939 49.9786C67.5903 50.3817 67.8693 50.7391 68.2127 51.0274C67.4332 51.6726 66.8717 52.5425 66.6045 53.5185C66.3374 54.4944 66.3776 55.529 66.7198 56.4813C67.062 57.4336 67.6895 58.2571 68.5168 58.8398C69.344 59.4225 70.3308 59.7359 71.3427 59.7374C72.1363 59.7438 72.9193 59.5549 73.6227 59.1874C73.8864 59.8271 74.3342 60.3739 74.9093 60.7585C75.4844 61.1431 76.1608 61.3481 76.8527 61.3474C77.416 61.3438 77.9694 61.1994 78.4627 60.9274C78.7549 61.5752 79.2229 62.1281 79.8135 62.5233C80.4042 62.9185 81.0938 63.1402 81.8041 63.1631C82.5144 63.186 83.2169 63.0093 83.8318 62.653C84.4467 62.2967 84.9494 61.7751 85.2827 61.1474C85.5044 61.1804 85.7286 61.1938 85.9527 61.1874C86.6371 61.1869 87.305 60.9767 87.8663 60.5851C88.4277 60.1936 88.8557 59.6395 89.0927 58.9974C90.4624 58.8114 91.7184 58.1356 92.6284 57.0951C93.5384 56.0546 94.0408 54.7197 94.0427 53.3374Z" fill="#98E6F9"/>
</g>
</g>
<defs>
<clipPath id="clip0_222_8375">
<rect width="129.67" height="130.82" fill="white"/>
</clipPath>
</defs>
</svg>
