<svg width="130" height="130" viewBox="0 0 130 130" fill="none" xmlns="http://www.w3.org/2000/svg">
<g clip-path="url(#clip0_222_8436)">
<g style="mix-blend-mode:overlay">
<g style="mix-blend-mode:overlay">
<path d="M106.422 111.41C130.767 87.0644 130.767 47.5929 106.422 23.2476C82.0763 -1.0977 42.6048 -1.09771 18.2595 23.2476C-6.08578 47.5929 -6.08578 87.0644 18.2595 111.41C42.6048 135.755 82.0763 135.755 106.422 111.41Z" fill="#89A58F"/>
</g>
</g>
<g style="mix-blend-mode:overlay">
<g style="mix-blend-mode:overlay">
<path d="M127.468 73.5636C132.878 39.5618 109.699 7.61252 75.6974 2.20283C41.6956 -3.20686 9.7463 19.9716 4.33661 53.9734C-1.07308 87.9752 22.1054 119.924 56.1072 125.334C90.109 130.744 122.058 107.565 127.468 73.5636Z" fill="white"/>
</g>
</g>
<path d="M65.8999 127.54C53.2874 127.54 40.9581 123.8 30.4712 116.793C19.9843 109.786 11.8107 99.8262 6.98411 88.1738C2.15751 76.5213 0.894655 63.6993 3.35523 51.3291C5.81581 38.959 11.8893 27.5962 20.8077 18.6778C29.7261 9.75943 41.0888 3.68593 53.459 1.22535C65.8292 -1.23523 78.6512 0.0276303 90.3036 4.85423C101.956 9.68083 111.916 17.8544 118.923 28.3413C125.93 38.8282 129.67 51.1575 129.67 63.77C129.651 80.6772 122.927 96.8866 110.972 108.842C99.0165 120.797 82.8071 127.521 65.8999 127.54ZM65.8999 2.85003C53.8511 2.85003 42.0728 6.42292 32.0546 13.1169C22.0363 19.8109 14.2281 29.3253 9.61717 40.457C5.00628 51.5886 3.79986 63.8376 6.15047 75.6549C8.50108 87.4723 14.3032 98.3272 22.823 106.847C31.3428 115.367 42.1977 121.169 54.015 123.519C65.8323 125.87 78.0813 124.664 89.213 120.053C100.345 115.442 109.859 107.634 116.553 97.6154C123.247 87.5971 126.82 75.8189 126.82 63.77C126.799 47.6195 120.374 32.1366 108.953 20.7165C97.5333 9.29633 82.0504 2.8712 65.8999 2.85003Z" fill="#869554"/>
<g clip-path="url(#clip1_222_8436)">
<path d="M79.51 131.97V94.7904C79.524 90.6924 80.857 86.7078 83.3118 83.4263C85.7666 80.1449 89.2127 77.741 93.14 76.5704C90.7925 75.4197 88.8936 73.5219 87.7415 71.1751C86.5894 68.8283 86.2492 66.1653 86.7745 63.6042C87.2997 61.0431 88.6606 58.729 90.6435 57.0252C92.6264 55.3213 95.119 54.3242 97.73 54.1904H98.34C100.934 54.1911 103.456 55.0465 105.515 56.6244C107.574 58.2023 109.055 60.4147 109.73 62.9194C110.406 65.4241 110.236 68.0814 109.249 70.4804C108.262 72.8793 106.512 74.8862 104.27 76.1904L103.66 76.5304C107.636 77.6594 111.135 80.0539 113.627 83.3508C116.119 86.6478 117.468 90.6675 117.47 94.8004V131.97H79.51Z" fill="white"/>
<path d="M98.35 54.6402C101.006 54.6643 103.569 55.6189 105.593 57.3379C107.618 59.0569 108.975 61.4314 109.43 64.048C109.884 66.6647 109.406 69.3578 108.08 71.6586C106.753 73.9594 104.662 75.7222 102.17 76.6402L102.49 76.7002C106.607 77.6109 110.29 79.899 112.93 83.1865C115.57 86.4739 117.009 90.5638 117.01 94.7802V131.48H80.01V94.7902C80.0075 90.553 81.4587 86.4432 84.1214 83.1472C86.7841 79.8511 90.497 77.5684 94.64 76.6802C92.1691 75.8111 90.0757 74.1127 88.7159 71.874C87.3562 69.6353 86.814 66.9946 87.1818 64.4013C87.5496 61.8079 88.8046 59.4221 90.7332 57.6498C92.6618 55.8774 95.1449 54.8281 97.76 54.6802H98.34L98.35 54.6402ZM98.34 53.7402H97.72C95.1072 53.8822 92.608 54.8551 90.5869 56.5171C88.5657 58.1791 87.1283 60.4432 86.4842 62.9794C85.8401 65.5156 86.023 68.1913 87.0062 70.6162C87.9894 73.0412 89.7215 75.0887 91.95 76.4602C88.1767 77.8219 84.9134 80.3109 82.6023 83.5898C80.2912 86.8686 79.0441 90.7787 79.03 94.7902V132.44H117.95V94.7902C117.948 90.7411 116.685 86.7932 114.335 83.4955C111.985 80.1978 108.667 77.7143 104.84 76.3902C107.105 74.9816 108.85 72.873 109.81 70.3839C110.769 67.8948 110.892 65.1608 110.158 62.5959C109.424 60.0311 107.875 57.7752 105.744 56.17C103.614 54.5649 101.018 53.6978 98.35 53.7002L98.34 53.7402Z" fill="#4D4D4D"/>
<path d="M108.71 69.6904C108.053 71.4347 107.017 73.0114 105.677 74.3066C104.337 75.6019 102.726 76.5835 100.96 77.1804C98.8 77.9004 94.4 77.3904 94.35 80.6604C94.3865 81.3675 94.4633 82.072 94.58 82.7704C94.6441 84.6257 94.1868 86.4619 93.26 88.0704C92.82 88.8004 92.15 89.3804 91.73 90.1404C90.4 92.5504 92.16 93.8704 93.82 95.4204C98.69 99.9904 98.96 106.48 96.94 112.42C96.17 114.72 95.18 116.95 94.3 119.21C93.62 120.98 92.78 122.78 93.3 124.69C93.82 126.6 94.05 128.84 95.36 130.21C96.36 131.28 98.19 131.42 99.61 131.42H79.98V94.7904C79.98 87.2604 84.8 79.9804 91.98 77.5604L94.61 76.6704C92.1076 75.8281 89.9791 74.1361 88.5942 71.8881C87.2092 69.6401 86.6552 66.9781 87.0282 64.3642C87.4013 61.7503 88.6779 59.3496 90.6365 57.5788C92.595 55.8081 95.1118 54.779 97.75 54.6704C95.8164 55.4824 94.1419 56.8081 92.9079 58.5039C91.674 60.1996 90.9277 62.2008 90.75 64.2904C90.6176 65.8783 90.8972 67.4734 91.5617 68.9216C92.2263 70.3698 93.2532 71.622 94.5433 72.5572C95.8334 73.4923 97.343 74.0787 98.9261 74.2598C100.509 74.4408 102.112 74.2102 103.58 73.5904C105.615 72.7852 107.39 71.436 108.71 69.6904Z" fill="#C4C4C4"/>
<path d="M15.47 131.97V94.7904C15.484 90.6924 16.817 86.7078 19.2718 83.4263C21.7266 80.1449 25.1727 77.741 29.1 76.5704C26.7519 75.4192 24.8529 73.5206 23.701 71.1728C22.5492 68.8251 22.2099 66.1612 22.7364 63.5997C23.2629 61.0382 24.6254 58.7241 26.6098 57.021C28.5943 55.3179 31.0882 54.3222 33.7 54.1904H34.31C36.8999 54.1992 39.4152 55.059 41.4684 56.6376C43.5217 58.2162 44.9991 60.426 45.6732 62.9267C46.3472 65.4274 46.1806 68.0804 45.1988 70.4771C44.2171 72.8737 42.4747 74.8812 40.24 76.1904C40.04 76.3104 39.83 76.4204 39.62 76.5304C43.5959 77.6571 47.0961 80.0493 49.5901 83.3444C52.084 86.6396 53.4356 90.6579 53.44 94.7904V131.97H15.47Z" fill="white"/>
<path d="M34.35 54.6402C37.0057 54.6643 39.5689 55.6189 41.5933 57.3379C43.6178 59.0569 44.9753 61.4314 45.4297 64.048C45.884 66.6647 45.4064 69.3578 44.0799 71.6586C42.7534 73.9594 40.6621 75.7222 38.17 76.6402L38.48 76.7002C42.5911 77.6191 46.2661 79.9122 48.8986 83.2009C51.531 86.4897 52.9636 90.5776 52.96 94.7902V131.49H15.96V94.7902C15.9579 90.5516 17.4106 86.4407 20.0752 83.1445C22.7399 79.8483 26.4551 77.5664 30.6 76.6802C28.1291 75.8111 26.0357 74.1126 24.6759 71.874C23.3161 69.6353 22.774 66.9946 23.1418 64.4012C23.5096 61.8079 24.7645 59.4221 26.6932 57.6497C28.6218 55.8774 31.1049 54.828 33.72 54.6802H34.31L34.35 54.6402ZM34.31 53.7402H33.69C31.0675 53.8711 28.5559 54.8391 26.524 56.5023C24.492 58.1654 23.0467 60.4361 22.4001 62.9811C21.7535 65.526 21.9397 68.2112 22.9314 70.6426C23.9231 73.0739 25.668 75.1234 27.91 76.4902C24.1442 77.8531 20.8871 80.3385 18.5785 83.6109C16.2699 86.8834 15.0209 90.7854 15 94.7902V132.44H53.91V94.7902C53.9074 90.7426 52.6446 86.7963 50.2971 83.4991C47.9496 80.2018 44.6338 77.7172 40.81 76.3902C43.0733 74.9829 44.8169 72.877 45.7771 70.3909C46.7373 67.9048 46.8619 65.1736 46.1321 62.6103C45.4024 60.0471 43.8578 57.7911 41.7321 56.1836C39.6064 54.576 37.0151 53.7043 34.35 53.7002L34.31 53.7402Z" fill="#4D4D4D"/>
<path d="M44.68 69.6904C44.0219 71.434 42.9855 73.01 41.6455 74.3051C40.3054 75.6002 38.695 76.5822 36.93 77.1804C35.36 77.7004 33.65 77.7104 32.12 78.3004C30.7642 78.9152 29.5152 79.7422 28.42 80.7504C24.5299 84.0057 21.7712 88.4097 20.54 93.3304C19.54 97.6304 19.88 102.17 19.87 106.55C19.86 110.93 19.4999 115.48 19.9799 119.83C20.2099 121.99 20.44 124.15 21.75 125.93C23.97 128.93 27.82 130.37 31.38 130.93C32.76 131.16 34.16 131.31 35.5599 131.45H15.95V94.7904C15.95 87.2604 20.76 79.9804 27.95 77.5604L30.58 76.6704C28.0775 75.8281 25.9491 74.1361 24.5641 71.8881C23.1792 69.6401 22.6251 66.9781 22.9982 64.3642C23.3713 61.7503 24.6479 59.3496 26.6065 57.5788C28.565 55.8081 31.0818 54.779 33.7199 54.6704C31.7957 55.4896 30.1315 56.8184 28.9068 58.5136C27.682 60.2089 26.9432 62.2062 26.77 64.2904C26.6734 66.3786 27.2527 68.4423 28.4218 70.1752C29.5909 71.9081 31.2875 73.218 33.26 73.9104C35.3494 74.5171 37.5822 74.4044 39.6 73.5904C41.6138 72.772 43.3691 71.4245 44.68 69.6904Z" fill="#C4C4C4"/>
<rect x="35" y="40" width="63" height="3" fill="#4D4D4D"/>
<rect x="35" y="46" width="10" height="3" transform="rotate(-90 35 46)" fill="#4D4D4D"/>
<rect x="95" y="46" width="10" height="3" transform="rotate(-90 95 46)" fill="#4D4D4D"/>
</g>
</g>
<defs>
<clipPath id="clip0_222_8436">
<rect width="129.67" height="129.67" fill="white"/>
</clipPath>
<clipPath id="clip1_222_8436">
<rect x="4" width="124" height="124" rx="62" fill="white"/>
</clipPath>
</defs>
</svg>
